<?xml version="1.0" encoding="iso-8859-1"?>
<!-- Uploaded to: SVG Repo, www.svgrepo.com, Generator: SVG Repo Mixer Tools -->
<svg fill="#FFFFFF" height="800px" width="800px" version="1.1" id="Layer_1" xmlns="http://www.w3.org/2000/svg" xmlns:xlink="http://www.w3.org/1999/xlink" 
	 viewBox="0 0 510.453 510.453" xml:space="preserve">
<g>
	<g>
		<path d="M495.12,152.145c-1.6-5.312-5.84-9.408-11.184-10.848L80.752,33.185c-4.08-1.088-8.464-0.528-12.144,1.6
			c-3.68,2.112-6.368,5.616-7.456,9.712L20.656,195.649c-2.288,8.544,2.768,17.312,11.312,19.6l300.784,80.656
			c5.28,1.424,10.688,2.144,16.032,2.144c16.064,0,31.488-6.448,44.256-18.976l98.752-111.728
			C495.456,163.185,496.72,157.441,495.12,152.145z M369.84,257.041c-7.904,7.728-18.48,10.704-28.8,7.952L55.696,188.481
			L87.92,68.225l362.768,97.28L369.84,257.041z"/>
	</g>
</g>
<g>
	<g>
		<path d="M508.304,179.185c-2.112-3.68-5.616-6.368-9.712-7.456l-33.632-8.992c-8.592-2.352-17.312,2.8-19.6,11.312
			c-2.288,8.56,2.784,17.312,11.312,19.6l18.176,4.864l-19.904,74.288l-70.048-18.784c-8.512-2.32-17.312,2.768-19.6,11.312
			c-2.288,8.544,2.768,17.312,11.312,19.6l85.504,22.928c1.36,0.352,2.752,0.544,4.144,0.544c2.768,0,5.536-0.736,8-2.176
			c3.68-2.112,6.368-5.616,7.456-9.712l28.192-105.184C511.008,187.233,510.432,182.849,508.304,179.185z"/>
	</g>
</g>
<g>
	<g>
		<path d="M56.544,333.809H16c-8.832,0-16,7.152-16,16v112c0,8.848,7.168,16,16,16h40.544C96,477.809,96,438.689,96,425.825v-51.68
			C96,349.249,89.392,333.809,56.544,333.809z M64,425.825c0,19.984-2.8,19.984-7.456,19.984H32v-80h24.544
			c3.52,0,5.776,0.192,7.168,0.384c0.16,1.504,0.288,3.952,0.288,7.952V425.825z"/>
	</g>
</g>
<g>
	<g>
		<path d="M217.92,248.865c-8.8-1.664-17.04,4.112-18.656,12.816l-25.248,136.128H96c-8.832,0-16,7.152-16,16
			c0,8.848,7.168,16,16,16h91.328c7.696,0,14.32-5.504,15.728-13.088l27.68-149.2C232.336,258.833,226.608,250.481,217.92,248.865z"
			/>
	</g>
</g>
</svg>