<?xml version="1.0" encoding="utf-8"?><!-- Uploaded to: SVG Repo, www.svgrepo.com, Generator: SVG Repo Mixer Tools -->
<svg width="800px" height="800px" viewBox="0 0 24 24" fill="none" xmlns="http://www.w3.org/2000/svg">
<path d="M15.1636 3C13.7409 3 12.5495 3.99037 12.2412 5.31931L3.81819 5.31931C3.36632 5.31931 3.00001 5.68562 3.00001 6.13749C3.00001 6.58936 3.36632 6.95567 3.81819 6.95567L12.3191 6.95567C12.7181 8.14396 13.8409 9 15.1636 9C16.4864 9 17.6091 8.14396 18.0082 6.95567H20.1818C20.6337 6.95567 21 6.58936 21 6.13749C21 5.68562 20.6337 5.31931 20.1818 5.31931H18.0861C17.7778 3.99037 16.5864 3 15.1636 3Z" fill="#FFFFFF"/>
<path d="M7.52727 9C6.14741 9 4.98512 9.9316 4.63508 11.2002L3.79675 11.2221C3.34503 11.234 2.98845 11.6098 3.00029 12.0615C3.01213 12.5132 3.38791 12.8698 3.83963 12.8579L4.64554 12.8368C5.00778 14.0865 6.16084 15 7.52727 15C8.88587 15 10.0335 14.0969 10.4027 12.8583H20.1818C20.6337 12.8583 21 12.492 21 12.0401C21 11.5882 20.6337 11.2219 20.1818 11.2219H10.4254C10.0827 9.94227 8.91502 9 7.52727 9Z" fill="#FFFFFF"/>
<path d="M15.1636 15C13.8114 15 12.6681 15.8947 12.2934 17.1244H3.81819C3.36632 17.1244 3.00001 17.4907 3.00001 17.9426C3.00001 18.3944 3.36632 18.7608 3.81819 18.7608H12.2609C12.5977 20.0492 13.7696 21 15.1636 21C16.5576 21 17.7296 20.0492 18.0663 18.7608H20.1818C20.6337 18.7608 21 18.3944 21 17.9426C21 17.4907 20.6337 17.1244 20.1818 17.1244H18.0338C17.6592 15.8947 16.5159 15 15.1636 15Z" fill="#FFFFFF"/>
</svg>