<?xml version="1.0" encoding="iso-8859-1"?>
<!-- Uploaded to: SVG Repo, www.svgrepo.com, Generator: SVG Repo Mixer Tools -->
<svg fill="#FFFFFF" height="800px" width="800px" version="1.1" id="Layer_1" xmlns="http://www.w3.org/2000/svg" xmlns:xlink="http://www.w3.org/1999/xlink" 
	 viewBox="0 0 512 512" xml:space="preserve">
<g>
	<g>
		<path d="M480.784,32H31.216C14,32,0,46,0,63.232v289.552C0,370,14,384,31.216,384h449.568C498,384,512,370,512,352.784V63.232
			C512,46,498,32,480.784,32z M480,352l-448,0.784L31.216,64L480,63.232V352z"/>
	</g>
</g>
<g>
	<g>
		<path d="M176,352c-8.848,0-16,7.168-16,16v96c0,8.832,7.152,16,16,16c8.848,0,16-7.168,16-16v-96C192,359.168,184.848,352,176,352
			z"/>
	</g>
</g>
<g>
	<g>
		<path d="M336,352c-8.848,0-16,7.168-16,16v96c0,8.832,7.152,16,16,16c8.848,0,16-7.168,16-16v-96C352,359.168,344.848,352,336,352
			z"/>
	</g>
</g>
<g>
	<g>
		<path d="M368,448H144c-8.848,0-16,7.168-16,16c0,8.832,7.152,16,16,16h224c8.848,0,16-7.168,16-16
			C384,455.168,376.848,448,368,448z"/>
	</g>
</g>
<g>
	<g>
		<path d="M256,352c-8.848,0-16,7.168-16,16v48c0,8.832,7.152,16,16,16c8.848,0,16-7.168,16-16v-48C272,359.168,264.848,352,256,352
			z"/>
	</g>
</g>
</svg>