<?xml version="1.0" encoding="iso-8859-1"?>
<!-- Uploaded to: SVG Repo, www.svgrepo.com, Generator: SVG Repo Mixer Tools -->
<svg fill="#FFFFFF" height="800px" width="800px" version="1.1" id="Layer_1" xmlns="http://www.w3.org/2000/svg" xmlns:xlink="http://www.w3.org/1999/xlink" 
	 viewBox="0 0 511.984 511.984" xml:space="preserve">
<g>
	<g>
		<path d="M207.29,287.991H48.735C30.687,287.991,16,302.375,16,320.054v111.868c0,17.679,14.688,32.063,32.735,32.063H207.29
			c18.031,0,32.703-14.384,32.703-32.063V320.054C239.993,302.375,225.321,287.991,207.29,287.991z M207.29,431.987l-159.291-0.064
			l0.736-111.932l159.259,0.064l0.048,111.645C208.042,431.715,207.85,431.987,207.29,431.987z"/>
	</g>
</g>
<g>
	<g>
		<path d="M383.988,239.992H127.996c-8.832,0-16,7.168-16,16v47.998c0,8.832,7.168,16,16,16c8.832,0,15.999-7.168,15.999-16v-31.999
			h223.993v31.999c0,8.832,7.168,16,16,16c8.832,0,15.999-7.168,15.999-16v-47.998C399.987,247.16,392.82,239.992,383.988,239.992z"
			/>
	</g>
</g>
<g>
	<g>
		<path d="M463.25,287.991H304.727c-18.047,0-32.735,14.384-32.735,32.063v111.868c0,17.679,14.688,32.063,32.735,32.063H463.25
			c18.047,0,32.735-14.384,32.735-32.063V320.054C495.984,302.375,481.297,287.991,463.25,287.991z M463.25,431.987l-159.259-0.064
			l0.736-111.932l159.259,0.064l0.064,111.645C464.034,431.699,463.842,431.987,463.25,431.987z"/>
	</g>
</g>
<g>
	<g>
		<path d="M415.987,479.985h-63.998c-8.832,0-16,7.168-16,16s7.168,16,16,16h63.998c8.832,0,16-7.168,16-16
			S424.819,479.985,415.987,479.985z"/>
	</g>
</g>
<g>
	<g>
		<path d="M335.253,0H176.73c-18.047,0-32.735,14.384-32.735,32.063v111.869c0,17.679,14.688,32.063,32.735,32.063h158.523
			c18.047,0,32.735-14.384,32.735-32.063V32.063C367.989,14.384,353.301,0,335.253,0z M335.254,143.995l-159.259-0.064
			l0.736-111.932l159.259,0.064l0.064,111.645C336.038,143.708,335.846,143.995,335.254,143.995z"/>
	</g>
</g>
<g>
	<g>
		<path d="M287.991,191.994h-63.998c-8.832,0-15.999,7.168-15.999,16s7.168,15.999,15.999,15.999h63.998
			c8.832,0,15.999-7.168,15.999-15.999S296.823,191.994,287.991,191.994z"/>
	</g>
</g>
<g>
	<g>
		<path d="M159.995,479.985H95.997c-8.832,0-16,7.168-16,16s7.168,16,16,16h63.998c8.832,0,16-7.168,16-16
			S168.827,479.985,159.995,479.985z"/>
	</g>
</g>
<g>
	<g>
		<path d="M255.992,191.994c-8.832,0-16,7.168-16,16v47.998c0,8.832,7.168,16,16,16c8.832,0,15.999-7.168,15.999-16v-47.998
			C271.992,199.162,264.824,191.994,255.992,191.994z"/>
	</g>
</g>
</svg>