<?xml version="1.0" encoding="UTF-8"?>
<svg version="1.1" xmlns="http://www.w3.org/2000/svg" width="512" height="512">
<path d="M0 0 C8.12239574 6.67434568 13.30017933 15.97740549 14.75 26.375 C15.4611303 35.02348012 15.63733707 43.7009255 15.75 52.375 C16.94753906 52.84808594 18.14507812 53.32117188 19.37890625 53.80859375 C34.2603063 59.80477352 47.58295683 66.75789863 59.75 77.375 C60.70390625 78.18453125 61.6578125 78.9940625 62.640625 79.828125 C88.89362146 102.57874558 102.99901538 135.24616321 105.54051208 169.53497314 C105.8940935 176.01631191 105.90394904 182.49481094 105.91866493 188.98442459 C105.92597592 191.54473724 105.94174553 194.10487368 105.96000671 196.66513062 C106.01179959 203.9354204 106.0603398 211.20560391 106.07592773 218.47607422 C106.08614356 222.95225635 106.11579262 227.42797551 106.15724754 231.90397263 C106.16935971 233.58521359 106.1747161 235.26652043 106.17244911 236.9478035 C106.15670995 252.4288389 108.32130447 267.6280434 114 282.125 C114.2980957 282.90319092 114.59619141 283.68138184 114.90332031 284.4831543 C122.28676453 303.23119892 133.34388503 319.81794259 149.75 331.8125 C157.66347403 337.66589568 163.99805417 343.33682389 165.75 353.375 C166.5783495 362.10183701 166.08497446 369.79957772 160.828125 377.01171875 C155.39946678 383.4231513 150.12921344 387.65879147 141.75 389.375 C140.31352216 389.46040786 138.87364486 389.49704433 137.43463135 389.49525452 C136.15163902 389.49731651 136.15163902 389.49731651 134.84272766 389.49942017 C133.91268417 389.49582489 132.98264069 389.49222961 132.02441406 389.48852539 C131.03871933 389.48867142 130.0530246 389.48881744 129.03746033 389.4889679 C125.78015948 389.48827136 122.52291585 389.48049103 119.265625 389.47265625 C117.00689729 389.47079115 114.74816918 389.46936768 112.48944092 389.46836853 C106.54480879 389.46455059 100.60020109 389.45472645 94.65557861 389.44366455 C88.58939952 389.43343491 82.52321648 389.42886758 76.45703125 389.42382812 C64.55467676 389.41310356 52.65234041 389.39603578 40.75 389.375 C40.54839264 390.20168686 40.34678528 391.02837372 40.1390686 391.88011169 C39.87226288 392.96309036 39.60545715 394.04606903 39.33056641 395.16186523 C38.93534286 396.77314552 38.93534286 396.77314552 38.53213501 398.41697693 C34.22146417 414.71987049 22.1846492 426.41326533 8.18359375 434.9375 C-6.29121371 442.74413773 -25.54464801 444.28587596 -41.375 439.8125 C-43.35847885 439.06347575 -45.31869178 438.24979956 -47.25 437.375 C-48.3328125 436.88902344 -49.415625 436.40304687 -50.53125 435.90234375 C-65.83272547 428.34098379 -76.7070878 416.29449988 -82.75 400.375 C-83.97701818 396.73939057 -84.63925914 393.15899444 -85.25 389.375 C-86.56829803 389.38388245 -87.88659607 389.39276489 -89.24484253 389.4019165 C-101.69153832 389.48313659 -114.13818006 389.54302998 -126.5850811 389.58224869 C-132.98359124 389.60308951 -139.38188678 389.63134364 -145.78027344 389.67675781 C-151.95945459 389.72033977 -158.1384298 389.74416346 -164.31775284 389.75450897 C-166.67078008 389.76187812 -169.02379653 389.77626824 -171.37673569 389.79792023 C-174.68222833 389.82711756 -177.98687884 389.83094908 -181.29248047 389.82910156 C-182.25705673 389.84348267 -183.221633 389.85786377 -184.21543884 389.87268066 C-193.7180812 389.81551625 -201.52545703 386.91864968 -208.4921875 380.375 C-214.84177885 373.15057607 -216.63790238 365.94807569 -216.5234375 356.5390625 C-215.77128792 347.83561742 -211.58874919 341.18643556 -205.25 335.375 C-202.53503721 333.2078229 -199.79084921 331.09650867 -197.01660156 329.00683594 C-180.54970074 316.58777109 -169.98187817 298.17279408 -163.4375 278.875 C-163.15946533 278.05765381 -162.88143066 277.24030762 -162.5949707 276.39819336 C-158.11529168 262.47914197 -156.80946476 249.36588777 -156.80859375 234.859375 C-156.79677526 233.11027958 -156.78340046 231.36119406 -156.76856995 229.61212158 C-156.73271176 225.04275255 -156.71229159 220.47347126 -156.69702148 215.9039917 C-156.67202819 208.60931465 -156.63159685 201.31483156 -156.57512093 194.02033234 C-156.55916089 191.51104317 -156.55504893 189.00194763 -156.55210876 186.49261475 C-156.48703424 172.21192682 -155.98171918 157.42613943 -152 143.625 C-151.78529053 142.84898437 -151.57058105 142.07296875 -151.34936523 141.2734375 C-141.66733398 107.41581477 -119.44630506 79.29712499 -88.64819336 62.15039062 C-70.55208333 52.375 -70.55208333 52.375 -62.25 52.375 C-62.27356567 51.22668701 -62.27356567 51.22668701 -62.29760742 50.05517578 C-62.36053879 46.53686108 -62.39917429 43.01866538 -62.4375 39.5 C-62.46263672 38.29601562 -62.48777344 37.09203125 -62.51367188 35.8515625 C-62.61544747 23.36708926 -60.0199871 12.26375881 -51.0234375 3.109375 C-36.46254304 -9.37139168 -16.03100523 -10.74840732 0 0 Z M-38.25 15.375 C-45.11065817 22.54750627 -45.54199379 28.76989108 -45.375 38.25 C-45.36597656 39.22453125 -45.35695312 40.1990625 -45.34765625 41.203125 C-45.32421623 43.59400728 -45.29140442 45.98437261 -45.25 48.375 C-44.64196533 48.3042627 -44.03393066 48.23352539 -43.4074707 48.16064453 C-37.39547696 47.50411935 -31.48292556 47.21666563 -25.4375 47.25 C-24.57672852 47.25193359 -23.71595703 47.25386719 -22.82910156 47.25585938 C-15.93233605 47.30223284 -9.11377174 47.67359267 -2.25 48.375 C-0.944692 31.3375367 -0.944692 31.3375367 -7.93359375 16.5234375 C-17.30549534 8.01818488 -28.29414022 7.41031217 -38.25 15.375 Z M-111.79248047 102.71044922 C-133.22786734 127.19059456 -139.3488757 157.57809046 -139.41866493 189.21852112 C-139.42596171 191.84623675 -139.44172333 194.4737793 -139.46000671 197.10144043 C-139.51185426 204.56467249 -139.56032139 212.02780277 -139.57592773 219.49121094 C-139.58614941 224.08294848 -139.61581663 228.67423544 -139.65724754 233.26579285 C-139.66935605 234.99086562 -139.67471681 236.71600255 -139.67244911 238.44111633 C-139.6380592 273.14832572 -151.78025719 308.264688 -176.25 333.375 C-176.95769531 334.13296875 -177.66539062 334.8909375 -178.39453125 335.671875 C-183.40327008 340.9062327 -188.8315369 345.18504311 -194.74609375 349.33203125 C-197.19016247 351.3261778 -198.25326875 352.43116584 -199.25 355.375 C-199.67184328 360.69022527 -199.79218334 364.12437999 -196.25 368.375 C-190.54517552 373.62492529 -184.48406884 372.93554343 -177.04077148 372.88293457 C-175.67867841 372.88754535 -174.31659031 372.89389946 -172.9545126 372.90184355 C-169.21699728 372.91853608 -165.4798907 372.91029109 -161.74237394 372.89789867 C-157.709579 372.88885011 -153.67685445 372.90281693 -149.64407349 372.91381836 C-141.74600573 372.93161027 -133.84808998 372.92776063 -125.95001626 372.9161678 C-119.53143328 372.90713638 -113.11289293 372.90590821 -106.69430542 372.91026306 C-105.78098149 372.91087599 -104.86765756 372.91148893 -103.92665714 372.91212043 C-102.07129072 372.91339933 -100.21592431 372.91469618 -98.36055791 372.9160108 C-80.96039876 372.92741856 -63.56032388 372.91429981 -46.16017854 372.89280933 C-31.22816276 372.87493817 -16.29627135 372.87804222 -1.36425781 372.89648438 C15.97338757 372.91788762 33.31095908 372.92631991 50.64861584 372.91403532 C52.49717902 372.91276112 54.34574221 372.91150363 56.19430542 372.91026306 C57.10384761 372.90964596 58.0133898 372.90902886 58.95049387 372.90839306 C65.36179951 372.90493852 71.77305831 372.91077074 78.18435669 372.92018127 C85.9969982 372.93139657 93.80947894 372.92837113 101.62210202 372.9070583 C105.6087016 372.8965415 109.59503308 372.89243661 113.58163071 372.90565491 C117.23092709 372.91757187 120.8797068 372.91102834 124.52895629 372.8897447 C126.47475701 372.88315803 128.42059358 372.89622106 130.36635685 372.90997362 C136.76059912 372.85236419 140.94549957 372.79639252 145.75 368.375 C148.62866263 364.92060484 149.1083028 362.00876915 149.24609375 357.53515625 C147.93938811 351.84532774 144.003849 348.52008096 139.375 345.375 C111.45313632 325.01247014 95.76997652 292.71833705 90.21324158 259.1305542 C89.73079442 255.21929809 89.59105076 251.37965033 89.57641602 247.44628906 C89.569729 246.68574722 89.56304199 245.92520538 89.55615234 245.14161682 C89.54217474 243.49934692 89.53025797 241.85705843 89.52020454 240.21475983 C89.50362452 237.59612912 89.48037441 234.97763228 89.45530701 232.35906982 C89.38505004 224.91637018 89.32498274 217.47361229 89.27319336 210.03076172 C89.2409512 205.46436284 89.19956185 200.89811467 89.15299797 196.33184052 C89.1372315 194.6115166 89.12479711 192.89115813 89.11609077 191.170784 C89.0698166 182.14736939 88.77676454 173.21845441 87.85913086 164.23730469 C87.74517015 163.10443968 87.74517015 163.10443968 87.6289072 161.94868851 C84.83149211 136.98749706 72.93636168 115.33691951 55.75 97.375 C54.83347656 96.36373047 54.83347656 96.36373047 53.8984375 95.33203125 C39.3406238 79.81402132 18.45942368 69.48344391 -2.25 65.375 C-3.78720703 65.04242188 -3.78720703 65.04242188 -5.35546875 64.703125 C-45.37541683 57.19621459 -84.74342484 73.26993936 -111.79248047 102.71044922 Z M-67.25 389.375 C-65.25289416 401.35763505 -58.52057522 410.07571312 -48.80078125 417.16015625 C-36.82782734 424.81006558 -23.63548929 426.33540697 -9.7734375 423.71875 C-2.68529643 421.59413924 3.04293587 418.02814637 8.75 413.375 C9.70519531 412.62476563 9.70519531 412.62476563 10.6796875 411.859375 C16.54254613 406.70005941 19.80961534 399.48912216 22.75 392.375 C22.75 391.385 22.75 390.395 22.75 389.375 C-6.95 389.375 -36.65 389.375 -67.25 389.375 Z " fill="#B8860A" transform="translate(281.25,38.625)"/>
<path d="M0 0 C3.17579228 1.1705919 6.20577618 2.58658662 9.25 4.0625 C10.50961548 4.66868164 10.50961548 4.66868164 11.79467773 5.28710938 C22.58167352 10.60929087 31.28388251 17.7807296 40 26 C40.75023437 26.67417969 41.50046875 27.34835938 42.2734375 28.04296875 C61.88107963 46.37783411 73.51035977 75.22711996 74.93017578 101.75878906 C75.45389172 118.56897212 74.43404088 138.03637908 66 153 C62.24952518 155.50031654 60.44143734 155.53603554 56 155 C53.0625 152.9375 53.0625 152.9375 51 150 C50.60672912 144.89976832 51.42607641 140.79449468 52.9375 135.9375 C58.50573718 117.87565538 57.95002811 96.92422798 52 79 C51.79101074 78.3620752 51.58202148 77.72415039 51.36669922 77.06689453 C42.46455174 50.60051001 23.37954575 31.64450568 -1 19 C-3.39214448 17.89981541 -5.77940949 16.847459 -8.23046875 15.88671875 C-10.31698297 14.84115864 -11.55654273 13.83712744 -13 12 C-13.77669903 5.00970874 -13.77669903 5.00970874 -11.125 1.5625 C-7.21153936 -1.31504459 -4.5981046 -1.13212556 0 0 Z " fill="#B8860A" transform="translate(407,32)"/>
<path d="M0 0 C2.375 1.5625 2.375 1.5625 4 4 C4.55852776 6.775541 4.72907902 9.25523194 4 12 C1.10215952 15.69319049 -1.98092234 16.99628683 -6.3125 18.625 C-28.63281845 27.59984983 -47.040248 45.91980108 -56.828125 67.85595703 C-58.7878148 72.4951991 -60.4580463 77.20727661 -62 82 C-62.34289062 83.05058594 -62.68578125 84.10117188 -63.0390625 85.18359375 C-68.05249134 103.94881106 -66.07480656 124.77558031 -60 143 C-59.51628898 147.35339915 -59.51207185 149.30507203 -62.0625 152.9375 C-65 155 -65 155 -68.5 155.625 C-73.02318518 154.81728836 -74.12978962 153.56491098 -77 150 C-78.25093336 146.94654626 -79.00946794 143.83562894 -79.75 140.625 C-79.95753906 139.8 -80.16507813 138.975 -80.37890625 138.125 C-87.84481156 107.77970746 -82.69994485 75.53235675 -67.22265625 48.55859375 C-56.96041155 31.62844741 -23.40855715 -7.12434348 0 0 Z " fill="#B8860A" transform="translate(114,32)"/>
<path d="M0 0 C3.41639845 1.9739191 4.72268412 3.18538459 6 6.9375 C6 10.66232206 5.33490998 12.12027769 3 15 C0.77249796 16.57235438 -1.53276027 17.7686932 -3.97265625 18.9765625 C-16.61505073 25.53187815 -26.36130685 35.98656381 -31.21875 49.44921875 C-34.35252984 59.68100992 -35.17629414 70.56869861 -31.9375 80.9375 C-30.82690345 84.56544872 -30.51113366 87.22874534 -31 91 C-33.59216083 94.69186542 -35.04149064 95.82883761 -39.5 96.625 C-44.09628238 95.80423529 -45.30324315 94.82040553 -48 91 C-50.28033699 84.91910137 -51.60828917 78.48103371 -52 72 C-52.05285156 71.13117188 -52.10570313 70.26234375 -52.16015625 69.3671875 C-52.74684919 50.23589608 -46.24653508 33.50476141 -34 19 C-33.45859375 18.34515625 -32.9171875 17.6903125 -32.359375 17.015625 C-25.41187334 9.36635549 -10.78132623 -1.6406366 0 0 Z " fill="#B7860A" transform="translate(129,75)"/>
<path d="M0 0 C17.57725043 6.66436035 32.01899426 19.96591312 40 37 C45.56823612 51.27880166 47.41838576 65.17797279 44.6875 80.3125 C44.56987305 80.98216797 44.45224609 81.65183594 44.33105469 82.34179688 C43.38826587 87.17871339 42.18760384 92.2030397 38.25 95.4375 C34.90526504 96.27368374 32.32893669 95.78683958 29 95 C26.94061784 93.42114034 26.15428789 92.30857577 25 90 C25.46108327 84.19035086 26.40861016 78.57330749 27.59765625 72.87109375 C28.51073018 66.35546909 28.00589093 60.53629742 26.375 54.1875 C26.1989624 53.4968042 26.0229248 52.8061084 25.84155273 52.09448242 C23.47474924 43.39599974 19.68731829 36.09726079 13 30 C13 29.34 13 28.68 13 28 C12.14148438 27.59394531 12.14148438 27.59394531 11.265625 27.1796875 C8.95382331 25.97595627 6.89006684 24.61072985 4.75 23.125 C1.19516951 20.71405061 -2.36015833 18.72042248 -6.2734375 16.95703125 C-9.17903119 15.34646461 -10.73537494 13.77351939 -11.8125 10.625 C-12.04015388 7.43784575 -11.54198246 5.79025398 -10 3 C-6.82526868 -0.28811458 -4.45105865 -0.35502492 0 0 Z " fill="#B7860A" transform="translate(389,75)"/>
</svg>
