<?xml version="1.0" encoding="UTF-8"?>
<svg version="1.1" xmlns="http://www.w3.org/2000/svg" width="512" height="512">
<path d="M0 0 C0.84755859 -0.01998047 1.69511719 -0.03996094 2.56835938 -0.06054688 C10.13162087 -0.05488151 16.5945081 1.94693283 23.6875 4.4375 C24.39351349 4.68470795 25.09952698 4.93191589 25.82693481 5.18661499 C31.92198256 7.3291181 37.99246092 9.53785458 44.0625 11.75 C46.10929639 12.49329917 48.15617387 13.2363751 50.203125 13.97924805 C57.03327624 16.45977902 63.86065686 18.94788113 70.6875 21.4375 C71.90796021 21.88254883 73.12842041 22.32759766 74.38586426 22.78613281 C86.18768362 27.09014823 97.98818348 31.39777564 109.78710938 35.7097168 C125.91679347 41.6040444 142.05296663 47.48009475 158.19522095 53.3399353 C178.18131473 60.59632609 198.15157887 67.89482614 218.10514069 75.24013519 C219.97789484 75.92936464 221.85085418 76.61803649 223.72381592 77.30670166 C227.20838383 78.58831761 230.69220752 79.87193456 234.17578125 81.15625 C235.19619003 81.5313974 236.21659882 81.9065448 237.26792908 82.2930603 C243.44930606 84.57562227 249.58294027 86.95674052 255.6875 89.4375 C253.42287218 91.70212782 251.56456062 92.14737223 248.53442383 92.9831543 C222.26298598 100.24152221 197.20224041 121.94683155 183.6875 145.4375 C178.40891145 155.1035102 173.52537753 165.00106162 169.2421875 175.1484375 C161.503887 193.4810572 161.503887 193.4810572 151.47265625 198.55859375 C142.49038666 202.11045782 133.80159834 200.66392223 124.9921875 197.4609375 C124.09096161 197.14675873 123.18973572 196.83257996 122.26119995 196.50888062 C119.39642789 195.50331676 116.54137167 194.47356023 113.6875 193.4375 C112.77182251 193.10802368 111.85614502 192.77854736 110.91271973 192.43908691 C105.21572883 190.38647419 99.53294985 188.29692048 93.85546875 186.19100952 C88.49229252 184.20203233 83.12490139 182.22448351 77.7578125 180.24609375 C76.11332123 179.63955711 76.11332123 179.63955711 74.43560791 179.02076721 C63.53759491 175.00535195 52.61409949 171.06179813 41.6875 167.125 C21.74918842 159.93771239 1.85735042 152.62761955 -18.01879883 145.27026367 C-29.71195875 140.94620077 -41.41792794 136.66728782 -53.16796875 132.5 C-55.356792 131.72076258 -57.54559456 130.94146703 -59.734375 130.16210938 C-63.80904979 128.71193437 -67.8890129 127.27820816 -71.97265625 125.85351562 C-73.79839049 125.20502759 -75.62392351 124.55597266 -77.44921875 123.90625 C-78.26521042 123.62692627 -79.08120209 123.34760254 -79.92192078 123.05981445 C-86.03962569 120.85859196 -90.44061363 118.18293335 -94.1875 112.6875 C-96.91992493 104.79382798 -94.92357361 98.05224925 -91.875 90.5625 C-91.51519043 89.65411377 -91.15538086 88.74572754 -90.78466797 87.80981445 C-77.06992306 53.72994487 -57.03796806 19.89721915 -22.2487793 4.22680664 C-14.81983635 1.19846563 -8.00611631 -0.06606698 0 0 Z " fill="#B8860A" transform="translate(178.3125,82.5625)"/>
<path d="M0 0 C7.32900507 2.10442697 14.4964195 4.54046669 21.66015625 7.1484375 C22.77725479 7.55280029 23.89435333 7.95716309 25.04530334 8.3737793 C28.08346455 9.47445366 31.12066842 10.57771783 34.15738678 11.68236542 C36.082689 12.38234004 38.00840583 13.08116173 39.93426514 13.77960205 C59.84403391 21.00033133 79.7211779 28.30758119 99.58468628 35.65466309 C113.8880177 40.94305356 128.2101614 46.17446429 142.5625 51.328125 C143.29812038 51.59228336 144.03374077 51.85644173 144.79165268 52.12860489 C152.01643396 54.72220366 159.24296736 57.31086644 166.47214127 59.89219666 C169.12982712 60.8414903 171.78696114 61.79232264 174.44403076 62.74333954 C176.26351468 63.39375873 178.08389202 64.04167696 179.90429688 64.68951416 C182.94249142 65.77672324 185.97297502 66.88213445 189 68 C189.75781769 68.27050171 190.51563538 68.54100342 191.29641724 68.81970215 C193.21972656 69.55517578 193.21972656 69.55517578 196 71 C196.94014434 73.99079474 197.36748793 76.1929184 197.625 79.25 C197.82892982 80.88143859 198.04264551 82.51168074 198.265625 84.140625 C198.43288086 85.36555664 198.43288086 85.36555664 198.60351562 86.61523438 C200.20768952 96.26398477 204.29631163 105.49332955 209 114 C203.62161021 113.41540194 198.99364632 112.10991761 193.94140625 110.2109375 C193.15017365 109.92028412 192.35894104 109.62963074 191.54373169 109.33016968 C189.80552531 108.69095078 188.06844821 108.04865476 186.33236694 107.40368652 C181.42223123 105.58013668 176.50331124 103.78048161 171.5859375 101.9765625 C170.51508408 101.58299561 169.44423065 101.18942871 168.34092712 100.78393555 C155.8381657 96.19407969 143.29965341 91.70430987 130.76208496 87.21069336 C108.26182812 79.14573809 85.77691152 71.03928034 63.3125 62.875 C62.16196136 62.45730347 61.01142273 62.03960693 59.82601929 61.60925293 C25.14366633 49.01456884 25.14366633 49.01456884 20 45 C19.030625 44.319375 18.06125 43.63875 17.0625 42.9375 C4.70713297 32.29635929 1.32413137 15.3954976 0 0 Z " fill="#B7860A" transform="translate(112,218)"/>
<path d="M0 0 C31.65296652 0 31.65296652 0 37.85337067 5.70541191 C41.64618996 11.76636723 41.69688749 17.36113239 41.61523438 24.37939453 C41.62078339 25.59987488 41.6263324 26.82035522 41.63204956 28.07781982 C41.64179637 31.40466869 41.62931805 34.72994704 41.60576439 38.05662775 C41.58556164 41.54782859 41.59153966 45.03899796 41.59387207 48.53024292 C41.59381861 54.38927873 41.57412788 60.24799081 41.54199219 66.10693359 C41.50506977 72.87128034 41.49632254 79.63520392 41.5032897 86.3996383 C41.50960333 92.92225399 41.49882678 99.44472532 41.47932434 105.96731186 C41.47117068 108.73671407 41.468437 111.50604228 41.47001648 114.27545547 C41.47106179 118.14359164 41.44684155 122.01134724 41.41992188 125.87939453 C41.42285248 127.02344757 41.42578308 128.16750061 41.42880249 129.34622192 C41.36861524 134.9507389 41.2681421 139.2165965 38 144 C26.98020703 154.77490868 16.33385017 151 0 151 C0 101.17 0 51.34 0 0 Z " fill="#B8860A" transform="translate(43,288)"/>
<path d="M0 0 C3.26581942 0.59863189 6.32263721 1.37272406 9.45019531 2.48364258 C10.30538757 2.78558533 11.16057983 3.08752808 12.04168701 3.39862061 C12.96121155 3.72727112 13.88073608 4.05592163 14.828125 4.39453125 C15.79840637 4.73840881 16.76868774 5.08228638 17.76837158 5.43658447 C20.93017491 6.55837678 24.0901278 7.68528071 27.25 8.8125 C29.41856297 9.58341182 31.58718305 10.35416299 33.75585938 11.12475586 C51.20180009 17.33071459 68.6158186 23.6231798 86 30 C86 30.66 86 31.32 86 32 C84.27514648 33.24926758 84.27514648 33.24926758 81.87109375 34.64453125 C81.00033203 35.15693359 80.12957031 35.66933594 79.23242188 36.19726562 C78.31009766 36.73029297 77.38777344 37.26332031 76.4375 37.8125 C74.64283618 38.85777216 72.8498361 39.90590662 71.05859375 40.95703125 C70.25736084 41.42085205 69.45612793 41.88467285 68.63061523 42.36254883 C67.32846069 43.17308716 67.32846069 43.17308716 66 44 C65.1455555 44.46630577 65.1455555 44.46630577 64.27384949 44.94203186 C58.43711554 48.47433674 56.89685515 52.97455211 54.80859375 59.26953125 C54.45539566 60.26450119 54.10219757 61.25947113 53.73829651 62.28459167 C52.61601078 65.45334459 51.52451518 68.63149195 50.4375 71.8125 C49.34383507 74.98149733 48.24333159 78.14754172 47.12599182 81.30827332 C46.43351886 83.26993193 45.75470635 85.23648694 45.09214783 87.20845032 C42.44285751 94.7580133 38.85660932 102.22313212 31.375 105.9375 C30.64023438 106.31777344 29.90546875 106.69804687 29.1484375 107.08984375 C22.22208625 110.02409801 14.86493644 109.95699638 7.8125 107.4375 C0.52322686 104.16476512 -4.47246468 98.96640843 -7.328125 91.4765625 C-10.90003376 78.31034069 -4.48191081 65.89836799 0.24707031 53.81298828 C1.11059763 51.60130096 1.96448714 49.38582715 2.80883789 47.16674805 C3.62639707 45.02007806 4.4657956 42.88156118 5.32983398 40.75317383 C7.9940111 33.73388386 8.28597623 29.13195963 6 22 C5.75483643 21.17113281 5.50967285 20.34226562 5.25708008 19.48828125 C4.50026744 16.99923005 3.6970768 14.53069708 2.875 12.0625 C2.32676226 10.40886197 1.78231574 8.75396082 1.2421875 7.09765625 C0.88423096 6.02269897 0.88423096 6.02269897 0.51904297 4.92602539 C0 3 0 3 0 0 Z M7.1875 72.6875 C5.30367891 76.35599371 4.77129015 79.89015329 5 84 C6.20198816 87.70553745 8.24121867 90.30816996 11.125 92.9375 C15.48771829 94.54980893 19.42015228 94.88458118 24 94 C27.77782838 91.92427012 30.21584303 89.24158186 32.5 85.625 C33.34244865 81.20214461 33.25525982 77.1311314 30.953125 73.22265625 C28.69115855 70.36727268 26.52400489 68.00685854 23 67 C15.88906626 66.31184512 12.50053979 67.74087674 7.1875 72.6875 Z " fill="#B8860A" transform="translate(159,283)"/>
<path d="M0 0 C7.54404401 2.83945568 11.64485097 12.18058155 14.79296875 19 C18.47410896 28.7136941 19.64988669 38.53781877 19.5546875 48.859375 C19.54711426 50.02895752 19.53954102 51.19854004 19.53173828 52.40356445 C18.94918227 83.5192845 6.28957545 112.32418057 -15.80566406 134.20336914 C-26.11555581 143.99359708 -38.66848814 150.66847812 -53.1328125 151.234375 C-63.06566061 150.73041708 -71.93470544 146.9938808 -78.82421875 139.7578125 C-88.79865214 127.56444469 -92.16861992 114.28746573 -92.8828125 98.796875 C-90.65373855 98.31727722 -88.42454953 97.8382142 -86.1953125 97.359375 C-84.95394531 97.09253906 -83.71257812 96.82570313 -82.43359375 96.55078125 C-79.58669235 95.94632364 -76.73825624 95.35922816 -73.8828125 94.796875 C-73.72425781 95.83585937 -73.56570313 96.87484375 -73.40234375 97.9453125 C-71.13282478 112.27396886 -71.13282478 112.27396886 -62.8203125 123.796875 C-56.76821886 127.91744939 -52.19830157 128.83129447 -44.8828125 127.796875 C-29.19198047 122.48582117 -19.0030697 109.82957083 -11.73242188 95.53515625 C-4.72699343 80.88632689 -0.59855478 66.63178935 -0.4453125 50.359375 C-0.435 49.45985107 -0.4246875 48.56032715 -0.4140625 47.63354492 C-0.54761789 37.58442911 -3.165218 27.58814984 -10.3984375 20.26171875 C-13.01405732 17.99616926 -15.69385174 16.14605071 -18.8828125 14.796875 C-17.33987251 10.44212991 -13.95887523 8.25069682 -10.3828125 5.609375 C-9.78855469 5.15884766 -9.19429688 4.70832031 -8.58203125 4.24414062 C-2.57532746 -0.27783616 -2.57532746 -0.27783616 0 0 Z " fill="#B8860A" transform="translate(408.8828125,192.203125)"/>
<path d="M0 0 C4.26262703 0.63501464 6.90804111 2.49530243 9.46484375 5.9296875 C17.00357184 18.99129331 14.70826908 35.8122406 11.21875 49.77734375 C6.54225256 67.18752115 -3.48895468 87.51611335 -19.59375 96.90234375 C-24.46360804 99.01033841 -29.52570419 99.26250755 -34.71875 98.33984375 C-39.7944204 94.88406816 -42.80284122 88.95430258 -44.30078125 83.04296875 C-44.81602889 79.71071301 -45.04179835 76.46096512 -45.15625 73.08984375 C-45.21683594 71.8471875 -45.27742188 70.60453125 -45.33984375 69.32421875 C-45.04879892 64.94764576 -42.87730349 62.25348706 -40.36547852 58.77734375 C-37.45803932 54.47373027 -35.54572014 49.70902012 -33.46875 44.96484375 C-19.44636381 13.7638918 -19.44636381 13.7638918 -9.71875 3.33984375 C-8.99945313 2.48712891 -8.99945313 2.48712891 -8.265625 1.6171875 C-5.68462083 -0.51409625 -3.22118958 -0.1307301 0 0 Z M-25.0390625 39.19921875 C-28.60232783 45.58670179 -30.60341651 53.53903199 -29.09375 60.77734375 C-27.36796748 65.24868938 -25.8536775 67.39098708 -21.46875 69.33984375 C-16.42359671 69.33984375 -12.55194359 67.12782405 -8.9765625 63.640625 C-3.26418936 56.63515247 -0.82260341 48.30130961 -1.71875 39.33984375 C-3.78672846 34.11010296 -3.78672846 34.11010296 -7.71875 30.33984375 C-15.89670919 28.95374897 -20.38021679 32.63824077 -25.0390625 39.19921875 Z " fill="#B8860A" transform="translate(387.71875,214.66015625)"/>
<path d="M0 0 C19.14 0 38.28 0 58 0 C56.78221629 5.48002668 55.66232362 10.24102208 53.875 15.4375 C50.6962895 25.72648399 51.5326543 33.201187 56 43 C56.66 43.99 57.32 44.98 58 46 C58 46.99 58 47.98 58 49 C38.86 49 19.72 49 0 49 C0 32.83 0 16.66 0 0 Z " fill="#B8860A" transform="translate(92,339)"/>
<path d="M0 0 C0.83337891 -0.01224609 1.66675781 -0.02449219 2.52539062 -0.03710938 C13.22937781 -0.06249432 13.22937781 -0.06249432 17.20703125 3.7734375 C17.59246094 4.36382812 17.97789062 4.95421875 18.375 5.5625 C18.77332031 6.14773437 19.17164063 6.73296875 19.58203125 7.3359375 C23.49954258 14.73394694 21.65704145 23.76203615 19.71875 31.48828125 C13.57308618 51.15025299 2.31921061 70.09724568 -10.4375 86.1875 C-10.7675 86.1875 -11.0975 86.1875 -11.4375 86.1875 C-11.3653125 85.5996875 -11.293125 85.011875 -11.21875 84.40625 C-8.65719705 59.6445715 -9.01515252 34.13451829 -24.51171875 13.4140625 C-26.09254809 11.58632878 -27.68649836 9.85095156 -29.4375 8.1875 C-26.90281894 5.12840217 -24.30253364 4.24699943 -20.5625 3.0625 C-19.53382813 2.72992188 -18.50515625 2.39734375 -17.4453125 2.0546875 C-11.51771498 0.34569185 -6.14072574 0.00472727 0 0 Z " fill="#B8860A" transform="translate(445.4375,179.8125)"/>
<path d="M0 0 C0.99 0.33 1.98 0.66 3 1 C3.63662963 9.47071089 2.33380682 15.85799758 -3.0625 22.5625 C-5 24 -5 24 -8 24 C-9.43145441 15.80167022 -8.71451952 9.94839204 -3.9375 3 C-2 1 -2 1 0 0 Z " fill="#B8860A" transform="translate(375,252)"/>
<path d="M0 0 C3.42353094 -0.3734761 5.91060954 -0.57873868 9 1.0625 C10.63378851 4.22796524 9.85267564 6.65020286 9 10 C6 12 6 12 2.9375 11.75 C0 11 0 11 -2 9 C-2.34490322 4.94738713 -2.30163882 3.45245824 0 0 Z " fill="#B7870A" transform="translate(174,358)"/>
</svg>
