<?xml version="1.0" encoding="UTF-8"?>
<svg version="1.1" xmlns="http://www.w3.org/2000/svg" width="512" height="512">
<path d="M0 0 C0.87736816 -0.01869141 1.75473633 -0.03738281 2.65869141 -0.05664062 C15.66373142 0.06778662 27.93354599 5.41883485 39.97027588 9.89511108 C42.54861403 10.85381557 45.12922985 11.80616156 47.71044922 12.75708008 C50.59843148 13.82106607 53.48626682 14.88543542 56.37347412 15.95152283 C68.43353776 20.40389052 80.51111304 24.80832633 92.58810425 29.21450806 C95.974382 30.44999198 99.36041361 31.68614891 102.74636173 32.9225359 C116.24910037 37.85304454 129.75394474 42.77762933 143.265625 47.68359375 C144.40149048 48.09608871 145.53735596 48.50858368 146.7076416 48.93357849 C151.21746043 50.57121623 155.72730854 52.2087702 160.23779297 53.84457397 C173.10870363 58.51299132 185.96473011 63.21814877 198.796875 67.9921875 C203.73920774 69.82913748 208.68193905 71.66501051 213.625 73.5 C214.82098816 73.94426331 216.01697632 74.38852661 217.24920654 74.84625244 C233.68964362 80.94215115 250.18243229 86.74578344 266.95556641 91.86328125 C278.44607551 95.39813701 288.15845402 99.10920129 295 109.5 C300.74435632 123.05128354 297.49800298 137.48947518 292.4375 150.75 C284.20315357 170.58918787 272.59430562 188.55792026 259.63867188 205.61474609 C253.96901348 213.08167993 249.11940717 220.57065778 244.75 228.875 C233.11482798 250.94439209 215.93735158 270.86867934 191.47265625 278.6171875 C181.84114373 281.06569349 174.02049839 280.81655337 164.48046875 278.50390625 C163.56995758 278.28433762 162.65944641 278.06476898 161.72134399 277.83854675 C150.83368192 275.10059592 140.38427227 271.22424834 129.875 267.3125 C127.80716068 266.55430383 125.73887795 265.79731594 123.67016602 265.04150391 C114.81049356 261.79726782 105.97076216 258.50409991 97.16015625 255.12890625 C95.89930548 254.64919026 94.63840314 254.1696098 93.37744141 253.69018555 C91.15953221 252.842217 88.94649549 251.98133712 86.73974609 251.10473633 C85.78277832 250.73759521 84.82581055 250.3704541 83.83984375 249.9921875 C83.03925537 249.67620605 82.23866699 249.36022461 81.41381836 249.03466797 C72.86821461 247.14179124 64.30814437 253.4685525 57.26391602 257.54248047 C46.09310272 264.69917801 43.03483313 272.99329245 39.83300781 285.43115234 C38.48675442 290.3908256 36.65323307 295.14425699 34.8125 299.9375 C34.514646 300.77039551 34.21679199 301.60329102 33.90991211 302.46142578 C29.91523203 313.2723642 24.10291195 320.76154601 14 326.5 C3.51746795 330.85068879 -6.50921411 330.51226548 -17 326.5 C-17.57538513 326.15901276 -18.15077026 325.81802551 -18.74359131 325.46670532 C-21.69804748 324.20093795 -24.11657528 324.21909557 -27.32910156 324.18115234 C-28.61012756 324.16128265 -29.89115356 324.14141296 -31.21099854 324.12094116 C-32.6042056 324.10906564 -33.9974145 324.09740273 -35.390625 324.0859375 C-36.8198152 324.06722168 -38.24899441 324.04764795 -39.67816162 324.0272522 C-43.43291736 323.97596852 -47.18770892 323.93632284 -50.94262695 323.89910889 C-54.7769453 323.85904551 -58.61111517 323.80796385 -62.4453125 323.7578125 C-69.96343972 323.66109785 -77.4816389 323.57667899 -85 323.5 C-84.98428955 324.3971875 -84.9685791 325.294375 -84.95239258 326.21875 C-84.90094359 329.58095196 -84.8634958 332.9427292 -84.83520508 336.30517578 C-84.82021583 337.75413661 -84.79981729 339.20305283 -84.77368164 340.65185547 C-84.57991289 351.67767724 -85.01371345 360.19112882 -92.91015625 368.671875 C-102.70805455 377.24274679 -114.36989623 376.68142323 -126.6875 376.6875 C-128.00556641 376.69974609 -129.32363281 376.71199219 -130.68164062 376.72460938 C-132.5775293 376.72750977 -132.5775293 376.72750977 -134.51171875 376.73046875 C-135.66115967 376.73457764 -136.81060059 376.73868652 -137.99487305 376.74291992 C-140.92431669 376.50611787 -142.57822826 376.12319724 -145 374.5 C-146.42427846 371.65144307 -146.13256819 369.23957926 -146.14044189 366.05360413 C-146.14341302 365.38430939 -146.14638414 364.71501465 -146.1494453 364.02543825 C-146.15814941 361.77223604 -146.15964197 359.51908685 -146.16113281 357.26586914 C-146.16575971 355.65469753 -146.1707842 354.04352702 -146.17617798 352.43235779 C-146.1893148 348.04811751 -146.19574922 343.66389256 -146.20018864 339.27963567 C-146.20311679 336.54282565 -146.20722107 333.80601986 -146.21169281 331.06921196 C-146.22537001 322.5128888 -146.23503605 313.95657525 -146.2388947 305.40024191 C-146.24337866 295.51075315 -146.26094126 285.62140238 -146.2898953 275.73195559 C-146.31148033 268.09541064 -146.32159725 260.45890461 -146.32293582 252.82232946 C-146.32398597 248.25756274 -146.32993839 243.6929257 -146.34775543 239.12819099 C-146.3641817 234.83624908 -146.36641831 230.54453508 -146.35761642 226.25257301 C-146.35684316 224.67513165 -146.36122663 223.0976783 -146.37107468 221.52026749 C-146.38370857 219.37103 -146.37796513 217.22261029 -146.36749268 215.07337952 C-146.36895924 213.86935014 -146.3704258 212.66532076 -146.3719368 211.42480564 C-146 208.5 -146 208.5 -144.69494247 206.61441708 C-141.80286769 204.71289087 -138.53288626 205.05313014 -135.18359375 205.06640625 C-134.41249771 205.0611644 -133.64140167 205.05592255 -132.84693909 205.05052185 C-131.21201784 205.04409745 -129.57705039 205.04544409 -127.94213867 205.05395508 C-125.47032273 205.06238802 -123.0008798 205.03383973 -120.52929688 205.00195312 C-110.37072933 204.95706688 -100.23407445 205.38035392 -92.36865234 212.80371094 C-84.61570382 222.41260967 -84.21336125 231.48368884 -84.625 243.25 C-84.810625 250.79875 -84.810625 250.79875 -85 258.5 C-56.785 258.005 -56.785 258.005 -28 257.5 C-21.80805446 244.19492656 -21.80805446 244.19492656 -24 232.5 C-24.65116536 230.55429622 -25.29939828 228.60760955 -25.9453125 226.66015625 C-26.66672576 224.62577085 -27.3933675 222.59323261 -28.125 220.5625 C-28.85952143 218.51270231 -29.59143252 216.46196674 -30.3203125 214.41015625 C-30.64273926 213.51433838 -30.96516602 212.61852051 -31.29736328 211.69555664 C-32 209.5 -32 209.5 -32 207.5 C-33.258125 207.29375 -34.51625 207.0875 -35.8125 206.875 C-49.34429711 203.81600662 -59.63968926 194.6677013 -66.89355469 183.19067383 C-71.63281832 175.17289293 -74.68401169 166.21687783 -75.4375 156.91796875 C-75.83684543 152.44215102 -76.29802105 148.69791055 -78 144.5 C-81.6730725 142.05423882 -85.05128575 140.8844194 -89.25 139.671875 C-95.99253429 137.56483304 -100.18103923 133.49289561 -103.4375 127.3125 C-107.27747338 118.85767072 -106.62145522 110.76589571 -103.5625 102.1875 C-103.29735596 101.42260254 -103.03221191 100.65770508 -102.7590332 99.86962891 C-89.77212748 63.46208213 -67.04360269 24.57783126 -31.05102539 7.18530273 C-20.65524929 2.3822454 -11.41627294 0.16339528 0 0 Z M-58.109375 43.8828125 C-68.22866891 56.18066408 -76.47717571 70.00321444 -83 84.5 C-83.465271 85.51900391 -83.465271 85.51900391 -83.93994141 86.55859375 C-85.77119805 90.58267484 -87.54268826 94.62702124 -89.24804688 98.70605469 C-89.93874045 100.35385222 -90.64816721 101.99376466 -91.359375 103.6328125 C-93.75914401 109.53361438 -94.84598876 114.28193261 -93 120.5 C-89.51703636 128.1915447 -81.95812148 129.79077015 -74.53930664 132.59619141 C-72.49742481 133.35114915 -70.4543037 134.10276093 -68.41015625 134.8515625 C-67.29442734 135.26280365 -66.17869843 135.6740448 -65.02915955 136.0977478 C-62.0050886 137.21131778 -58.97998811 138.32202728 -55.95428467 139.43115234 C-54.04510283 140.13138074 -52.13637211 140.83282516 -50.2277832 141.53466797 C-31.83372836 148.29832587 -13.40971416 154.97599351 5.03894043 161.58938599 C21.95604401 167.65530459 38.82932517 173.83479966 55.6875 180.0625 C74.0442456 186.84249424 92.41311976 193.58647966 110.8125 200.25 C111.82307465 200.61674835 112.83364929 200.9834967 113.87484741 201.36135864 C116.69312319 202.38371792 119.51238013 203.40331601 122.33203125 204.421875 C123.15833038 204.72183884 123.98462952 205.02180267 124.83596802 205.33085632 C125.59497406 205.60420303 126.3539801 205.87754974 127.13598633 206.15917969 C128.11720207 206.51384308 128.11720207 206.51384308 129.11824036 206.87567139 C135.95700464 209.14463078 142.34372306 209.40302687 149 206.50390625 C149.66 206.17261719 150.32 205.84132813 151 205.5 C151.99 205.01853516 151.99 205.01853516 153 204.52734375 C160.62093605 199.89822049 163.52564292 191.30602305 167 183.5 C167.38945801 182.62585449 167.77891602 181.75170898 168.18017578 180.85107422 C168.78901611 179.48426514 168.78901611 179.48426514 169.41015625 178.08984375 C176.33722446 162.56695652 183.09647094 148.86644408 195 136.5 C196.13154597 135.17221745 197.25686708 133.83909729 198.375 132.5 C211.59193019 117.47253143 228.05253209 106.81582264 247 100.5 C247 99.84 247 99.18 247 98.5 C246.09991966 98.17531487 246.09991966 98.17531487 245.18165588 97.84407043 C237.30755353 95.00311947 229.43463768 92.15888989 221.5625 89.3125 C220.91666836 89.07899212 220.27083672 88.84548424 219.60543442 88.60490036 C199.48149123 81.32782419 179.38554552 73.97891493 159.3125 66.5625 C142.98817794 60.53128432 126.65088678 54.54590476 110.25897217 48.70089722 C91.01817176 41.83567064 71.86248548 34.73840521 52.69998169 27.65838623 C48.21290067 26.00123847 43.7249195 24.34654241 39.23651123 22.69299316 C37.07455275 21.89608517 34.91297336 21.09814799 32.75177002 20.29919434 C29.70172219 19.17239078 26.64994378 18.05040749 23.59765625 16.9296875 C22.69575058 16.59542755 21.79384491 16.2611676 20.86460876 15.91677856 C-9.90137974 4.66038116 -38.09810994 20.77284214 -58.109375 43.8828125 Z M242.08203125 115.13671875 C241.72496094 115.58660156 241.36789062 116.03648437 241 116.5 C241.65355469 117.24830078 241.65355469 117.24830078 242.3203125 118.01171875 C258.90051344 138.00126837 258.62587334 161.00668741 258 185.5 C260.98952864 182.70474408 263.12910218 179.94217667 265.20703125 176.421875 C266.08234497 174.93941284 266.08234497 174.93941284 266.9753418 173.42700195 C267.581604 172.37859131 268.18786621 171.33018066 268.8125 170.25 C269.43616455 169.17258545 270.0598291 168.0951709 270.70239258 166.98510742 C283.08170827 145.54803515 283.08170827 145.54803515 286 121.5 C284.81195853 117.17617562 283.64017385 113.33217187 280 110.5 C269.8895951 107.46687853 250.55413342 107.9069615 242.08203125 115.13671875 Z M221.1875 126.75 C220.21167969 127.55953125 219.23585938 128.3690625 218.23046875 129.203125 C215.65166993 131.32509069 215.65166993 131.32509069 216 134.5 C216.86625 135.03625 217.7325 135.5725 218.625 136.125 C225.28573091 140.28205191 228.32673527 147.40271639 230.40014648 154.69433594 C231.45770853 159.64081664 231.48661459 164.52084799 231.4375 169.5625 C231.42992676 170.65868652 231.42235352 171.75487305 231.41455078 172.88427734 C231.22748621 182.19790842 229.95694211 190.67643075 227 199.5 C226.78569336 200.1408252 226.57138672 200.78165039 226.35058594 201.44189453 C219.98721749 219.81415262 209.59883685 237.87968657 192 247.5 C184.74598823 250.39768891 175.90550985 251.16099548 168.5625 248.0625 C161.78790942 244.01775499 157.98747469 235.89709123 156 228.5 C155.22854151 224.8416371 154.600067 221.19272001 154 217.5 C149.05 218.49 144.1 219.48 139 220.5 C140.82422733 236.91804593 145.31313937 251.79458001 158.390625 262.765625 C165.83276238 267.71219536 174.23101816 269.33182478 183.0234375 268.171875 C203.16847984 263.62470009 218.6943573 248.15014836 229.47558594 231.24487305 C244.13781725 207.39227542 251.75017224 177.33295787 245.87207031 149.51855469 C243.44191401 139.95548381 239.14282648 130.45967708 232 123.5 C227.05537787 121.52552632 225.03120481 123.47744811 221.1875 126.75 Z M175.42041016 191.46826172 C174.79252062 192.92585128 174.17520052 194.38806975 173.57177734 195.85595703 C172.13117063 199.29688579 170.60667659 202.13262655 168.31640625 205.08984375 C164.54420943 210.15612059 165.34607048 215.4493554 166 221.5 C167.18876066 228.12439146 169.2350398 232.7350398 174 237.5 C177.31132379 239.1556619 180.43448604 239.09623979 184 238.5 C197.210181 233.25035153 206.45379418 220.12416662 212 207.5 C218.32740083 191.27605282 224.78219269 170.71773055 218.3125 153.5 C216.41268606 149.8062851 214.4798297 146.87261116 211 144.5 C193.78861375 139.54078701 180.69528947 179.48984042 175.42041016 191.46826172 Z M-64 149.5 C-63.36399101 163.87380322 -58.13404213 177.71864861 -47.37670898 187.58227539 C-38.06118501 195.09880757 -25.4150097 198.38741296 -14.27554321 202.24325562 C-8.89407179 204.10660651 -3.5222008 205.99737389 1.8515625 207.8828125 C2.95523666 208.26916367 4.05891083 208.65551483 5.19602966 209.05357361 C16.05348023 212.85765587 26.87363652 216.76154407 37.6875 220.6875 C40.5438931 221.72343242 43.40038507 222.7590919 46.25688171 223.79473877 C48.24334429 224.51495737 50.22976336 225.235296 52.21614075 225.95574951 C66.38719342 231.09376022 80.56937712 236.20097807 94.75 241.3125 C98.68878748 242.73228456 102.62756515 244.15209626 106.56626892 245.57211304 C108.92857017 246.42376513 111.29092178 247.27527758 113.65333557 248.12661743 C114.72389694 248.51256073 115.79445831 248.89850403 116.89746094 249.29614258 C117.91578003 249.66083649 118.93409912 250.0255304 119.98327637 250.40127563 C122.04005919 251.15037886 124.08915536 251.92084863 126.13098145 252.70980835 C127.11417358 253.08618439 128.09736572 253.46256042 129.11035156 253.8503418 C129.98129456 254.1916362 130.85223755 254.5329306 131.74957275 254.88456726 C134.13948917 255.76199141 134.13948917 255.76199141 137 254.5 C136.67386719 253.84515625 136.34773437 253.1903125 136.01171875 252.515625 C132.25721597 244.67436255 129.30877427 236.77885245 128.796875 228.02734375 C128.56079505 224.53729512 128.20754878 221.78479753 127 218.5 C124.70418364 216.85886995 124.70418364 216.85886995 121.76708984 215.93530273 C120.67942322 215.53125214 119.59175659 215.12720154 118.47113037 214.71090698 C117.32565735 214.31130768 116.18018433 213.91170837 115 213.5 C113.91430725 213.09741974 112.8286145 212.69483948 111.71002197 212.28005981 C108.20406737 210.98342672 104.686085 209.7249539 101.1640625 208.47265625 C99.85088078 208.00302421 98.53781396 207.53307077 97.22485352 207.06282043 C94.45721636 206.07207135 91.68898132 205.0830208 88.92022705 204.09539795 C81.65230606 201.50253837 74.3887603 198.89745625 67.125 196.29296875 C66.40970753 196.03659386 65.69441505 195.78021896 64.95744705 195.51607513 C53.82554967 191.52557446 42.71217664 187.48823854 31.625 183.375 C20.55772052 179.27042464 9.47438204 175.21230162 -1.625 171.1953125 C-2.2709676 170.96152767 -2.9169352 170.72774284 -3.58247757 170.48687363 C-10.68978437 167.91510546 -17.79840474 165.34698615 -24.90771484 162.78076172 C-27.30047956 161.91640712 -29.69322108 161.0519883 -32.0859375 160.1875 C-33.79636734 159.57033615 -33.79636734 159.57033615 -35.54135132 158.94070435 C-43.12091027 156.19958509 -50.66549368 153.38014629 -58.17822266 150.4609375 C-60.9764895 149.33881813 -60.9764895 149.33881813 -64 149.5 Z M-17 213.5 C-15.29350545 220.08934817 -13.38280537 226.40582826 -10.76953125 232.69921875 C-8.63458299 240.46956343 -10.7218206 246.54685074 -13.5 253.80859375 C-14.22916982 255.79231655 -14.95833639 257.77604054 -15.6875 259.75976562 C-16.84249977 262.8527784 -18.00240746 265.94390492 -19.1640625 269.03442383 C-20.28805143 272.03817912 -21.39447294 275.04800444 -22.5 278.05859375 C-22.84998047 278.97136581 -23.19996094 279.88413788 -23.56054688 280.8245697 C-26.41803593 288.62485542 -27.38064183 295.77461769 -24.03515625 303.5859375 C-19.88821185 311.25387244 -14.08975562 314.80341479 -6 317.5 C1.50580285 318.15840376 8.14445616 316.73023333 14.04272461 311.78857422 C19.6287563 305.8413981 22.32629855 299.71711135 24.90002441 292.02758789 C25.57805518 290.01635898 26.29146192 288.02079406 27.01464844 286.02539062 C29.03635433 280.41101227 30.98035862 274.81742409 32.44921875 269.02734375 C35.39062509 258.30202626 40.33103793 254.0561477 49.9375 248.375 C53.58426024 246.33008772 57.26006632 244.36882564 61 242.5 C58.51703026 240.01703026 56.39823057 239.40883154 53.08837891 238.22509766 C52.48313385 238.00689865 51.87788879 237.78869965 51.25430298 237.56388855 C49.24697431 236.84180288 47.2368445 236.12788068 45.2265625 235.4140625 C43.82310896 234.91129466 42.41982157 234.40806282 41.01669312 233.90438843 C38.06719032 232.84689716 35.11640996 231.79308299 32.16455078 230.7421875 C28.41320835 229.40665796 24.66401011 228.06524082 20.91564369 226.72138405 C17.31164504 225.42949904 13.70668074 224.14031932 10.1015625 222.8515625 C9.42790272 222.61057453 8.75424294 222.36958656 8.06016922 222.12129593 C-0.26075298 219.14737658 -8.60338727 216.25408506 -17 213.5 Z M-134 217.5 C-134 266.01 -134 314.52 -134 364.5 C-117.25274172 365.73252397 -117.25274172 365.73252397 -102.25 360.75 C-97.16726598 355.66726598 -96.6477714 350.84427462 -96.58230591 343.95092773 C-96.58680756 342.82243408 -96.5913092 341.69394043 -96.59594727 340.53125 C-96.58908401 339.33056885 -96.58222076 338.1298877 -96.57514954 336.89282227 C-96.56001671 333.61177514 -96.55837841 330.33108545 -96.56409192 327.05001831 C-96.56718921 324.30646095 -96.56108547 321.56295468 -96.55505317 318.8194046 C-96.54102353 312.3457054 -96.54255665 305.8721382 -96.55395508 299.3984375 C-96.56543996 292.72838689 -96.55135125 286.0587382 -96.5245586 279.38874054 C-96.50238342 273.65266343 -96.49576813 267.91671232 -96.50163502 262.1805954 C-96.50500088 258.75872669 -96.50261435 255.3371157 -96.48538399 251.9152832 C-96.47051774 248.09946722 -96.48112023 244.28453811 -96.49829102 240.46875 C-96.48378906 238.77600952 -96.48378906 238.77600952 -96.46899414 237.04907227 C-96.52718737 230.87755071 -96.84296901 227.179755 -101 222.5 C-111.05763561 213.42359713 -117.34989966 217.5 -134 217.5 Z M-85 270.5 C-85 284.03 -85 297.56 -85 311.5 C-67.84 311.5 -50.68 311.5 -33 311.5 C-34.32 307.54 -35.64 303.58 -37 299.5 C-37.78088726 290.22696379 -36.01483547 283.21759654 -33 274.5 C-32.67 273.18 -32.34 271.86 -32 270.5 C-49.49 270.5 -66.98 270.5 -85 270.5 Z " fill="#B8860A" transform="translate(179,70.5)"/>
<path d="M0 0 C3.79111308 3.79111308 4.5541324 7.61662397 4.625 12.875 C4.40447506 22.85987943 1.20453874 30.32227421 -5.73828125 37.49609375 C-9.54897419 40.81842604 -12.36258031 41.2743407 -17.3125 41.1875 C-21.54623355 40.0328454 -23.10263025 38.72940025 -25.75 35.25 C-29.09440974 27.64906878 -27.81289736 19.53003595 -25 11.9375 C-22.30097041 5.79891285 -18.92868092 1.2601266 -12.75 -1.75 C-8.12287802 -3.54114399 -4.11245057 -2.617014 0 0 Z M-8.75 10.25 C-12.6690694 14.37004732 -14.70670568 17.51188126 -15.75 23.25 C-15.47265062 26.07144903 -15.47265062 26.07144903 -14.75 28.25 C-11.01762164 25.03243245 -9.32816917 21.90559907 -7.75 17.25 C-7.49802757 13.45747213 -7.49802757 13.45747213 -7.75 10.25 C-8.08 10.25 -8.41 10.25 -8.75 10.25 Z " fill="#B7860A" transform="translate(383.75,242.75)"/>
<path d="M0 0 C3.88844331 2.60148807 5.72863262 6.11259718 7.125 10.5 C7.96220886 16.36046204 6.46270431 20.73185098 3.125 25.5 C-1.05488413 29.20489729 -5.29411754 30.75129677 -10.875 30.5 C-17.08099395 29.30698083 -20.34403295 26.63595207 -23.875 21.5 C-25.47332473 16.70502582 -25.88112612 12.01097855 -23.96875 7.23828125 C-18.90416415 -1.54358076 -9.30965115 -4.50466991 0 0 Z M-10.875 10.5 C-11.535 11.16 -12.195 11.82 -12.875 12.5 C-12.55458603 15.10280568 -12.55458603 15.10280568 -11.875 17.5 C-10.885 17.83 -9.895 18.16 -8.875 18.5 C-6.68461577 17.12831762 -6.68461577 17.12831762 -4.875 15.5 C-5.205 14.18 -5.535 12.86 -5.875 11.5 C-8.27219432 10.82041397 -8.27219432 10.82041397 -10.875 10.5 Z " fill="#B8870A" transform="translate(186.875,347.5)"/>
</svg>
