<?xml version="1.0" encoding="UTF-8"?>
<svg version="1.1" xmlns="http://www.w3.org/2000/svg" width="512" height="512">
<path d="M0 0 C1.07344965 -0.00384115 2.14689929 -0.00768229 3.25287771 -0.01163983 C4.43145298 -0.01077335 5.61002826 -0.00990687 6.82431793 -0.00901413 C8.07700297 -0.01198525 9.32968801 -0.01495637 10.62033319 -0.01801753 C14.09981727 -0.02608505 17.57928072 -0.02787697 21.05877304 -0.028615 C24.8108475 -0.03046606 28.56291127 -0.03801382 32.31497955 -0.04475021 C40.52189677 -0.05833379 48.72880911 -0.06435871 56.9357357 -0.06876087 C62.06231922 -0.07152408 67.18890085 -0.07576166 72.31548309 -0.08026505 C86.51452008 -0.09245931 100.71355555 -0.10275729 114.91259766 -0.10614014 C115.82146269 -0.1063597 116.73032773 -0.10657927 117.66673413 -0.10680549 C118.5777602 -0.10702377 119.48878627 -0.10724204 120.42741919 -0.10746694 C122.27346389 -0.1079104 124.11950859 -0.10835696 125.96555328 -0.10880661 C126.8812529 -0.10902804 127.79695252 -0.10924947 128.74040061 -0.10947761 C143.56627397 -0.11342261 158.39209808 -0.13086684 173.21795243 -0.15416613 C188.44618608 -0.17790412 203.67439505 -0.19034315 218.9026475 -0.19150805 C227.44990374 -0.19242361 235.99709587 -0.19814542 244.54433441 -0.21632767 C251.82541657 -0.23176192 259.10641482 -0.23682968 266.38751024 -0.22858956 C270.09937632 -0.22469437 273.81107361 -0.22555688 277.5229187 -0.23964691 C281.55612294 -0.25481601 285.58895021 -0.24648565 289.62216949 -0.23606491 C290.78289899 -0.24412132 291.94362849 -0.25217772 293.13953161 -0.26047826 C308.99027428 -0.16502654 321.90198686 4.70090162 333.44211578 15.65486526 C345.77459273 28.99751097 347.32951171 43.45313488 347.24875641 60.75447464 C347.25418544 62.71705009 347.26131246 64.67962146 347.26999664 66.64218521 C347.28813997 71.9418009 347.28119972 77.24110304 347.2684803 82.5407238 C347.25830587 88.10445458 347.26775827 93.66815972 347.27402496 99.23189163 C347.28128846 108.57263856 347.27174774 117.91325871 347.25266266 127.25398636 C347.23089649 138.03090371 347.23794878 148.80751829 347.25996828 159.58442831 C347.27815927 168.8612404 347.28066253 178.13796169 347.2702136 187.41478586 C347.263999 192.94493092 347.26308689 198.47493397 347.27635956 204.00506973 C347.28797136 209.20584497 347.27979535 214.40623238 347.25678253 219.60696602 C347.25152382 221.50797191 347.25296017 223.40901082 347.26183319 225.31000328 C347.33366923 242.27305209 344.3771412 255.92234277 332.54367828 268.88142776 C321.73833528 278.98260234 308.48284278 283.196115 293.99680328 283.15095901 C292.82407867 283.14813919 291.65135406 283.14531937 290.44309235 283.14241409 C289.54816071 283.1387886 288.65322906 283.13516312 287.73117828 283.13142776 C287.74117104 284.74968712 287.74117104 284.74968712 287.75136566 286.40063858 C287.81218194 296.56790487 287.85715344 306.73513425 287.8866148 316.90254116 C287.90227036 322.12971134 287.92350681 327.35673468 287.95749664 332.58382034 C287.99009374 337.62829723 288.00803212 342.67263287 288.01581001 347.71720695 C288.02135287 349.64173799 288.03217669 351.56626129 288.04836845 353.49073219 C288.07014732 356.18648228 288.07314501 358.88164877 288.07175446 361.57747269 C288.08254028 362.37301056 288.09332611 363.16854843 288.10443878 363.98819351 C288.07899004 368.54790042 287.58843557 371.520676 284.73117828 375.13142776 C281.86687287 376.83452828 280.1989678 377.16018532 276.87180328 376.95564651 C273.00521336 375.94090712 271.51864529 374.46172094 268.79367828 371.56892776 C267.49236969 370.19994339 267.49236969 370.19994339 266.16477203 368.80330276 C263.63740485 366.02847267 261.14153835 363.23579859 258.69992828 360.38533401 C256.1413907 357.4562146 253.50062699 354.60790491 250.85617828 351.75642776 C243.3545897 343.65895674 235.97044123 335.46472724 228.73117828 327.13142776 C228.51203766 328.23099808 228.29289703 329.33056839 228.06711578 330.46345901 C224.8000424 346.02968768 219.0699986 358.78470858 205.41867828 367.94392776 C196.95089534 373.01988666 188.01177417 376.23039773 178.09899139 376.28291702 C176.41516357 376.29543251 176.41516357 376.29543251 174.69731903 376.30820084 C172.86375099 376.31447746 172.86375099 376.31447746 170.99314117 376.32088089 C169.0051536 376.33361241 167.01716603 376.34634407 165.0291785 376.35908127 C162.89578828 376.37180927 160.76239834 376.38214016 158.62899208 376.39178848 C154.16785415 376.41209026 149.70677993 376.43973736 145.24568939 376.4684639 C135.76171584 376.52849374 126.27770312 376.58026306 116.79367828 376.63142776 C106.58393045 376.68663954 96.37420227 376.74348085 86.16451448 376.80897665 C81.74361214 376.83706902 77.32271609 376.86075686 72.90177071 376.88090134 C70.8030733 376.89116335 68.70440077 376.90355058 66.60572052 376.91684341 C64.06543147 376.93291625 61.52511918 376.94582715 58.98479462 376.95465469 C53.03250671 376.99791852 47.0854906 377.13764909 41.13961029 377.42061234 C40.01716636 377.47038475 38.89472242 377.52015717 37.73826504 377.57143784 C32.43792411 378.55848536 29.88581094 382.01668952 26.73117828 386.13142776 C25.65484821 387.36673153 24.57146922 388.59592839 23.48117828 389.81892776 C22.91656891 390.47506058 22.35195953 391.13119339 21.77024078 391.80720901 C19.18364484 394.75553198 16.52281114 397.63057383 13.85617828 400.50642776 C9.53350281 405.17066612 5.25301024 409.86837114 1.00852203 414.60408401 C-1.56691947 417.4622498 -4.16567935 420.29853038 -6.76882172 423.13142776 C-10.12175289 426.78069948 -13.45880528 430.44312374 -16.76882172 434.13142776 C-20.07883946 437.81973325 -23.41601755 441.48203829 -26.76882172 445.13142776 C-33.57206876 452.53982812 -40.33879732 459.97487428 -46.85866547 467.63533401 C-49.56573215 470.5073743 -52.28776922 470.37459992 -56.10085297 470.65486526 C-59.63614374 469.80129956 -61.0279454 467.93968596 -63.26882172 465.13142776 C-63.7377244 462.05718489 -63.9048966 459.55041738 -63.83644867 456.48567581 C-63.8371788 455.62663147 -63.83790894 454.76758713 -63.83866119 453.88251114 C-63.83518656 451.05207348 -63.79633205 448.22329553 -63.75710297 445.39314651 C-63.74777438 443.42732009 -63.74065848 441.46148202 -63.73566437 439.4956398 C-63.71659819 434.32831452 -63.66750034 429.16169495 -63.61214447 423.99464798 C-63.56094398 418.71937481 -63.53814859 413.44398731 -63.51296234 408.16853714 C-63.45938151 397.82252441 -63.37407303 387.47703483 -63.26882172 377.13142776 C-63.9039418 377.13586899 -64.53906189 377.14031021 -65.19342804 377.14488602 C-71.8618467 377.18946693 -78.53022235 377.21943704 -85.19875336 377.24129105 C-87.68054171 377.2512885 -90.16231847 377.2648909 -92.64406586 377.28230667 C-96.23125335 377.30683198 -99.81828381 377.31797378 -103.40554047 377.32674026 C-105.04386086 377.34222412 -105.04386086 377.34222412 -106.71527863 377.35802078 C-123.74863459 377.36044796 -138.67850832 374.24086113 -151.26882172 362.13142776 C-160.2533875 352.40984682 -165.59104165 341.07034762 -165.53624725 327.73965836 C-165.54077837 326.92135015 -165.54530948 326.10304194 -165.5499779 325.25993651 C-165.56258631 322.53190204 -165.56100383 319.80406813 -165.55934906 317.07600784 C-165.56533661 315.11417256 -165.57214268 313.15233964 -165.57970428 311.1905098 C-165.59735039 305.87002769 -165.60205914 300.54960996 -165.60333586 295.22910142 C-165.60475904 291.90138282 -165.60903185 288.57368051 -165.61433029 285.24596596 C-165.63282743 273.62598891 -165.64100148 262.00605771 -165.63942719 250.38606644 C-165.63822654 239.5723509 -165.6593146 228.75883521 -165.69091451 217.94517022 C-165.71711212 208.64724443 -165.72779299 199.34938374 -165.72651637 190.05142134 C-165.72600767 184.50441344 -165.73163952 178.9575831 -165.75287247 173.41061211 C-165.77231298 168.18941578 -165.77233957 162.96856532 -165.7578392 157.74735641 C-165.75575707 155.83828028 -165.76041621 153.92918216 -165.77256012 152.02014351 C-165.87330608 135.0761875 -163.08149094 121.12488255 -151.01882172 108.38142776 C-140.37649977 98.27479317 -128.24372674 93.99342287 -113.70290375 94.01790237 C-112.60431282 94.01768333 -112.60431282 94.01768333 -111.48352814 94.01745987 C-109.08119923 94.01815227 -106.67894945 94.02591295 -104.27663422 94.03377151 C-102.60369153 94.03563809 -100.9307483 94.03706086 -99.25780487 94.03805923 C-94.86841557 94.04186557 -90.47905969 94.05167969 -86.08968353 94.06276321 C-81.60513003 94.07301792 -77.12057108 94.07756554 -72.63600922 94.08259964 C-63.84693143 94.09330373 -55.05788074 94.11035742 -46.26882172 94.13142776 C-46.27881447 93.20967003 -46.27881447 93.20967003 -46.28900909 92.26929092 C-46.35578276 85.82828927 -46.40079548 79.38738721 -46.43361664 72.94612503 C-46.44863033 70.54764685 -46.4690475 68.14919578 -46.49514008 65.75081253 C-46.53185075 62.28777212 -46.54862288 58.82509716 -46.56179047 55.36189651 C-46.57727432 54.30310791 -46.59275818 53.24431931 -46.60871124 52.1534462 C-46.61196685 37.49518712 -41.8189282 25.10428427 -31.72194672 14.45564651 C-23.0339964 6.22422862 -12.19826448 0.01639175 0 0 Z M-22.26882172 31.13142776 C-26.38318894 37.49171104 -28.40235667 43.5216816 -28.38234711 51.10530472 C-28.38227158 52.06592316 -28.38219604 53.0265416 -28.38211823 54.01626968 C-28.37695694 55.04040466 -28.37179565 56.06453964 -28.36647797 57.11970901 C-28.36506302 58.17804443 -28.36364807 59.23637985 -28.36219025 60.32678604 C-28.35660331 63.69919565 -28.34405315 67.0715383 -28.33132172 70.44392776 C-28.32630503 72.73364035 -28.32174242 75.02335397 -28.31764984 77.31306839 C-28.30663815 82.91921094 -28.28991297 88.52531457 -28.26882172 94.13142776 C-26.6865628 94.12866239 -26.6865628 94.12866239 -25.07233906 94.12584114 C0.6270874 94.08138731 26.32650886 94.04855027 52.02596569 94.02780342 C64.45416571 94.01750302 76.8823403 94.00346633 89.31052399 93.98054886 C100.14641821 93.96057712 110.98229401 93.94770235 121.81820613 93.94325078 C127.55253781 93.94064981 133.28681678 93.93456218 139.02113152 93.91996765 C144.42600039 93.90632394 149.83079517 93.90221879 155.23567963 93.9052124 C157.21205613 93.90466527 159.18843529 93.9007285 161.16479683 93.89301682 C188.91977106 93.79009255 188.91977106 93.79009255 199.98117828 99.69392776 C200.65519684 100.0447139 201.32921539 100.39550003 202.02365875 100.75691605 C213.7220248 107.13144106 221.27348082 117.380199 225.18820953 130.02595901 C226.39731976 134.71452312 226.8517732 138.97337528 226.83556366 143.82901382 C226.83485711 144.4891769 226.83415056 145.14933998 226.8334226 145.82950801 C226.83005714 148.03410655 226.81970603 150.23861848 226.80954742 152.44319534 C226.8060298 154.02699042 226.80306319 155.61078681 226.80060577 157.19458389 C226.79493844 160.60216248 226.78692895 164.00972508 226.77758217 167.41729546 C226.76438893 172.80930608 226.76614037 178.20124535 226.77181244 183.59326553 C226.77273252 184.50400843 226.7736526 185.41475133 226.77460057 186.35309249 C226.77757152 189.15745962 226.78073631 191.96182649 226.78391266 194.76619339 C226.79670502 206.37382908 226.79868426 217.98112674 226.75534821 229.58870316 C226.72383123 238.05887952 226.72056018 246.52854201 226.75010771 254.99873275 C226.76464321 259.47841753 226.76487615 263.95707427 226.73070717 268.43667412 C226.69882905 272.65202118 226.70438966 276.86568331 226.73820877 281.08099937 C226.74401138 282.62409661 226.73625254 284.16731636 226.71361732 285.71025848 C226.44000292 294.11800066 226.44000292 294.11800066 229.46359825 301.74614906 C231.452699 303.7446937 233.49688227 305.4188105 235.73117828 307.13142776 C236.84325395 308.33465239 237.93131288 309.56105479 238.98117828 310.81892776 C242.1115275 314.45670802 245.34367192 317.98770896 248.60617828 321.50642776 C261.95522715 335.91915415 261.95522715 335.91915415 266.73117828 341.75642776 C267.39117828 342.54017776 268.05117828 343.32392776 268.73117828 344.13142776 C269.06117828 344.13142776 269.39117828 344.13142776 269.73117828 344.13142776 C269.73482391 343.21323257 269.73846954 342.29503738 269.74222565 341.3490181 C269.78008821 332.6969543 269.83692108 324.04526811 269.91508102 315.39347076 C269.95459479 310.94543097 269.98676399 306.4975903 270.00217438 302.04939651 C270.01731551 297.75680252 270.05171511 293.46475579 270.0994873 289.17240524 C270.1143275 287.53460064 270.12222081 285.89671791 270.12306213 284.25884628 C270.12542575 281.96480298 270.15245306 279.67227963 270.18527985 277.37849808 C270.19416229 276.07277847 270.20304474 274.76705887 270.21219635 273.421772 C270.81393874 269.60672665 271.66885988 268.40929876 274.73117828 266.13142776 C277.24558258 265.61726761 277.24558258 265.61726761 280.05539703 265.59236526 C281.08471344 265.56916214 282.11402985 265.54595901 283.17453766 265.52205276 C284.24510406 265.51689651 285.31567047 265.51174026 286.41867828 265.50642776 C299.42811832 265.3469006 309.69408242 264.27892141 319.77805328 255.31111526 C329.54586252 245.00064996 329.31273929 233.61822722 329.24875641 220.25447464 C329.25418335 218.34806154 329.26130921 216.44165264 329.26999664 214.53525162 C329.28816482 209.3802726 329.28118936 204.22561536 329.2684803 199.07063103 C329.25831887 193.66343856 329.26775469 188.25627274 329.27402496 182.84907913 C329.28129222 173.77045648 329.27173784 164.6919642 329.25266266 155.61336136 C329.23089575 145.13295846 329.23794777 134.65286688 329.25996828 124.17247152 C329.27814853 115.15729921 329.28066776 106.14222035 329.2702136 97.12703562 C329.26399312 91.75006543 329.26310324 86.37324134 329.27635956 80.99628067 C329.28795564 75.93999039 329.27982375 70.8840996 329.25678253 65.82785225 C329.25151549 63.97761001 329.25297468 62.12733386 329.26183319 60.27710533 C329.31839763 47.25763368 328.51882859 37.09293766 319.14914703 27.17830276 C311.99548057 21.12253342 303.73160738 18.01549199 294.42742634 17.99720669 C292.84376576 17.99051992 292.84376576 17.99051992 291.22811204 17.98369807 C289.49759057 17.98397461 289.49759057 17.98397461 287.73210907 17.98425674 C286.50165979 17.98058006 285.27121051 17.97690337 284.00347489 17.97311527 C280.59078903 17.96400475 277.17815119 17.95938234 273.76545775 17.95672596 C270.08364915 17.95281589 266.40185437 17.94323815 262.72005463 17.93451309 C253.83065698 17.91477003 244.94125823 17.90468589 236.05184415 17.8957853 C231.86363242 17.89139947 227.67542196 17.88603348 223.48721123 17.88079643 C209.56178074 17.86378744 195.63635103 17.84929325 181.71091175 17.84204769 C178.09893353 17.84013787 174.48695531 17.83821752 170.87497711 17.83626175 C169.97726206 17.83577801 169.07954701 17.83529427 168.15462848 17.83479587 C153.61197809 17.82649538 139.06940996 17.80115667 124.52679548 17.76868107 C109.59008334 17.73559775 94.65341299 17.71759784 79.71666402 17.71440345 C71.33266451 17.7122397 62.948785 17.70351058 54.56482124 17.67794228 C47.42495725 17.656218 40.28524242 17.64819339 33.14534912 17.65790906 C29.50455481 17.66244859 25.86406815 17.6605881 22.22331619 17.64114761 C18.2704724 17.6202235 14.31805051 17.6305178 10.36516571 17.64368057 C8.65137465 17.6272267 8.65137465 17.6272267 6.90296155 17.61044043 C-5.38789016 17.70911675 -14.13295623 21.87038939 -22.26882172 31.13142776 Z M128.47769928 111.15355301 C98.81121354 111.19642849 69.14481571 111.27272109 39.47843229 111.36041405 C35.67010313 111.37167086 31.86177363 111.38281155 28.05344391 111.39387894 C26.91708996 111.39718446 26.91708996 111.39718446 25.75777937 111.40055677 C13.40606921 111.43617099 1.05435934 111.46091986 -11.29738356 111.48177478 C-24.05645182 111.50354841 -36.81545483 111.53657819 -49.57446754 111.58012933 C-57.40775552 111.60652283 -65.24096262 111.62430824 -73.07429282 111.63077381 C-79.05811081 111.63665859 -85.04176761 111.65826191 -91.02552986 111.68570328 C-93.47243394 111.69448464 -95.91936232 111.69820588 -98.36628151 111.69643593 C-101.71105405 111.69478025 -105.05526095 111.71150622 -108.39995575 111.73270035 C-109.36180853 111.72785277 -110.32366131 111.7230052 -111.31466115 111.71801072 C-122.62617748 111.83596276 -130.75988343 114.98409716 -138.95632172 122.72517776 C-148.31752619 132.64805451 -147.84758437 144.23369489 -147.78639984 157.02425003 C-147.79182674 158.93228564 -147.79895257 160.84031706 -147.80764008 162.74834061 C-147.82580758 167.9073845 -147.81883341 173.06610687 -147.80612373 178.22515607 C-147.79596342 183.63548573 -147.80539768 189.04578874 -147.8116684 194.45611954 C-147.81893535 203.53893834 -147.80938141 212.62162682 -147.79030609 221.70442581 C-147.76853268 232.19280101 -147.77559604 242.68086522 -147.79761171 253.1692329 C-147.81578498 262.18948508 -147.81831479 271.20964384 -147.80785704 280.22990841 C-147.80163357 285.61075908 -147.80075508 290.99146373 -147.81400299 296.37230492 C-147.82558912 301.43105449 -147.81748523 306.4894044 -147.79442596 311.54811096 C-147.78915392 313.40038579 -147.79062678 315.25269448 -147.79947662 317.10495567 C-148.04566295 330.18016069 -148.04566295 330.18016069 -143.26882172 342.13142776 C-142.81120453 342.92935745 -142.35358734 343.72728714 -141.88210297 344.54939651 C-136.11164994 352.39929207 -128.64735123 357.09030266 -119.00875092 358.66354752 C-115.48320153 359.10460798 -112.10532976 359.27512947 -108.55495453 359.30501175 C-107.26381744 359.31850159 -105.97268036 359.33199142 -104.64241791 359.34589005 C-103.62284374 359.35347997 -103.62284374 359.35347997 -102.58267212 359.36122322 C-100.43888935 359.37777677 -98.29527188 359.40101281 -96.15157318 359.42612076 C-90.06167185 359.49654604 -83.97170936 359.55721219 -77.88161469 359.60823441 C-74.1451921 359.64000256 -70.40897251 359.68125263 -66.67271423 359.72842979 C-65.25177643 359.74443941 -63.83079218 359.75676581 -62.40979004 359.76533699 C-60.42815579 359.77747552 -58.44661435 359.80265696 -56.46511078 359.82844925 C-55.33816803 359.83875671 -54.21122528 359.84906418 -53.05013275 359.85968399 C-50.26882172 360.13142776 -50.26882172 360.13142776 -47.26882172 362.13142776 C-46.10690542 365.61717665 -46.10844158 368.40254504 -46.06349945 372.08137894 C-46.05359985 372.7840741 -46.04370026 373.48676926 -46.03350067 374.21075821 C-46.00192938 376.53193678 -45.97714559 378.85313581 -45.95241547 381.17439651 C-45.93184216 382.784372 -45.91084559 384.39434213 -45.88944244 386.00430679 C-45.83426066 390.24078914 -45.78483422 394.47731993 -45.73659515 398.71388626 C-45.6863517 403.03735538 -45.63068048 407.3607542 -45.57546234 411.68416214 C-45.46792838 420.16652457 -45.36647285 428.64894583 -45.26882172 437.13142776 C-44.14808611 436.181915 -43.02892361 435.23054526 -41.91042328 434.27840042 C-41.28702057 433.74880722 -40.66361786 433.21921402 -40.02132416 432.67357254 C-37.84254047 430.75631422 -35.92657372 428.69208065 -34.01882172 426.50642776 C-30.63910221 422.67837812 -27.22795135 418.88743197 -23.76882172 415.13142776 C-20.41544261 411.48257123 -17.07883355 407.81972666 -13.76882172 404.13142776 C-9.99344955 399.92458449 -6.17901723 395.75467924 -2.35475922 391.59236526 C0.52540435 388.45475691 3.38649442 385.30121836 6.23117828 382.13142776 C9.63165665 378.3456434 13.04825426 374.57527667 16.48117828 370.81892776 C17.80375641 369.37066605 17.80375641 369.37066605 19.15305328 367.89314651 C20.00383453 366.98177933 20.85461578 366.07041214 21.73117828 365.13142776 C22.78952629 363.83328392 22.78952629 363.83328392 23.86925507 362.50891495 C27.55484643 359.44718144 30.50531501 359.35917859 35.10007477 359.32991409 C35.96354995 359.30585652 36.82702513 359.28179895 37.71666622 359.25701237 C40.72174728 359.18491701 43.72533802 359.15524924 46.73117828 359.13142776 C47.84715015 359.1180827 48.96312202 359.10473763 50.11291122 359.09098816 C57.91227911 359.00145677 65.71123313 358.97276018 73.51101112 358.96276283 C77.92212008 358.95673708 82.33315323 358.94009977 86.74422455 358.92142105 C88.26733109 358.91508832 89.79043767 358.90876265 91.31354427 358.90244389 C92.07487726 358.89927807 92.83621025 358.89611226 93.62061393 358.89285052 C103.85431545 358.85107112 114.0879729 358.81773889 124.32175446 358.80550003 C131.27798948 358.79709682 138.23402663 358.7745474 145.1901626 358.73614436 C148.85285579 358.71650748 152.51525415 358.7039387 156.17800331 358.70897865 C160.25467864 358.71452393 164.33061833 358.68913074 168.40720367 358.66145706 C169.59858444 358.66805847 170.78996521 358.67465988 172.01744843 358.68146133 C182.85670972 358.56102942 192.83732974 355.92140988 200.73117828 348.13142776 C209.96280003 337.01151975 210.16999503 325.58466837 210.11936188 311.82698441 C210.12343139 309.96998156 210.12877539 308.11298113 210.13529205 306.25598526 C210.14892724 301.23115284 210.14368244 296.20650595 210.1341548 291.18167043 C210.12653737 285.91194248 210.13360969 280.64222997 210.13831329 275.37250137 C210.14376526 266.5233158 210.13659439 257.67420543 210.12229156 248.82503128 C210.1059712 238.60996756 210.11125139 228.39508356 210.12777078 218.18002421 C210.14140759 209.39418094 210.14329443 200.60839161 210.13545477 191.82254118 C210.13078968 186.58195295 210.13012123 181.34144905 210.14006424 176.10086632 C210.14876341 171.17187194 210.14265824 166.24310803 210.12538147 161.31413841 C210.12143214 159.51065833 210.12252389 157.70715868 210.12916946 155.90368652 C210.17650196 141.74782632 209.29723049 131.00561134 199.10227203 120.44392776 C191.08432437 113.00267703 182.04644761 110.98514874 171.29102325 111.02978897 C169.35892407 111.03372272 169.35892407 111.03372272 167.38779259 111.03773594 C165.9451254 111.04574108 164.5024584 111.0537798 163.05979156 111.06184769 C161.48797058 111.0667618 159.91614788 111.07114912 158.34432411 111.07507229 C154.79279482 111.08458327 151.24128829 111.09692015 147.68977356 111.11082458 C141.28575947 111.13462498 134.88174905 111.1446692 128.47769928 111.15355301 Z " fill="#B7860B" transform="translate(165.2688217163086,20.868572235107422)"/>
<path d="M0 0 C0.93416894 -0.00523668 1.86833787 -0.01047336 2.83081496 -0.01586872 C5.97454321 -0.03092212 9.11810946 -0.03157505 12.26187134 -0.03224182 C14.51033301 -0.03985968 16.75879208 -0.04828653 19.00724792 -0.0574646 C25.12498447 -0.07945255 31.24267103 -0.08821421 37.36044264 -0.09329104 C41.17989289 -0.09692937 44.99932994 -0.10316666 48.81877518 -0.11029243 C59.3925701 -0.12975245 69.96635407 -0.14626289 80.54016685 -0.14916897 C81.55524656 -0.14945032 81.55524656 -0.14945032 82.59083293 -0.14973736 C83.96272159 -0.15010361 85.33461025 -0.15046731 86.70649891 -0.15082847 C87.38751107 -0.15101128 88.06852323 -0.1511941 88.77017212 -0.15138245 C89.45201485 -0.151563 90.13385757 -0.15174354 90.8363622 -0.15192956 C101.88740806 -0.15547205 112.93825917 -0.18249889 123.98923747 -0.21988034 C135.33356825 -0.25794723 146.67777085 -0.27688507 158.02217829 -0.27762848 C164.39233384 -0.27842293 170.76223817 -0.28723882 177.13233566 -0.31562614 C183.12255643 -0.34172278 189.11231621 -0.3440588 195.10256767 -0.3279705 C197.30323348 -0.32614935 199.50392529 -0.33290637 201.70453453 -0.34878922 C204.7050229 -0.36912777 207.70387975 -0.35876951 210.7043457 -0.34057617 C211.5787623 -0.35377614 212.45317889 -0.36697611 213.35409296 -0.38057607 C217.75858686 -0.3194193 219.44984356 -0.14494713 223.01952553 2.68147182 C224.94109347 5.22379552 225.64696101 6.22087978 225.54165649 9.33665466 C224.97915649 13.27415466 224.97915649 13.27415466 223.10415649 15.71165466 C218.90160899 18.80176312 215.16516911 18.42238592 210.11653137 18.42132568 C209.18730041 18.42500237 208.25806945 18.42867906 207.30067998 18.43246716 C204.16770247 18.4435347 201.03475808 18.44735302 197.90176392 18.45115662 C195.66330357 18.45741889 193.42484426 18.46406547 191.18638611 18.47106934 C185.0913255 18.48849968 178.99627275 18.49903637 172.90119338 18.50727487 C169.09632654 18.51242009 165.29146217 18.518496 161.48659706 18.524786 C150.95487772 18.54165779 140.42315953 18.55629325 129.89142895 18.56353474 C127.15789476 18.56544467 124.42436057 18.567365 121.69082642 18.56932068 C120.6717 18.57004629 120.6717 18.57004629 119.63198517 18.57078656 C108.62294358 18.57908897 97.61401059 18.60442928 86.60501643 18.63690136 C75.30593549 18.66995776 64.00690772 18.68764929 52.70777208 18.69117898 C46.36222451 18.69353407 40.01684855 18.7025543 33.67134666 18.72764015 C27.7033595 18.75085204 21.73565778 18.75518179 15.76763725 18.74487877 C13.57503563 18.74438164 11.38242029 18.75075389 9.1898613 18.76443481 C6.20047278 18.78204672 3.21212056 18.77510016 0.22273254 18.76190186 C-0.64847522 18.7728711 -1.51968299 18.78384035 -2.41729099 18.79514199 C-6.42621574 18.75229904 -8.53098126 18.56912905 -12.03606701 16.45851421 C-14.78947779 13.42822886 -15.02084351 11.32671955 -15.02084351 7.27415466 C-11.80836145 0.04607005 -7.20444851 -0.01979723 0 0 Z " fill="#B8850A" transform="translate(91.02084350585938,250.72584533691406)"/>
<path d="M0 0 C0.79622819 -0.00521549 1.59245639 -0.01043099 2.41281271 -0.01580453 C3.28167813 -0.01134309 4.15054355 -0.00688164 5.04573822 -0.002285 C5.97330004 -0.00540498 6.90086186 -0.00852497 7.85653162 -0.01173949 C10.97187009 -0.01973161 14.08701443 -0.01339107 17.20235443 -0.00710678 C19.43288029 -0.0098161 21.66340526 -0.0133767 23.89392853 -0.0177269 C29.95783867 -0.02686016 36.02168091 -0.02330276 42.08559227 -0.01696873 C48.42452302 -0.0119136 54.76344787 -0.01659882 61.10237885 -0.01974106 C72.43089296 -0.0236155 83.75937251 -0.01739087 95.08787972 -0.00722238 C105.36091657 0.00171321 115.63390823 0.00016119 125.90694427 -0.00905991 C137.83453163 -0.0197611 149.76209152 -0.02374794 161.68968534 -0.01783538 C168.00436965 -0.01471348 174.31902282 -0.01431238 180.63370514 -0.02090836 C186.56965301 -0.02667535 192.50551533 -0.02269673 198.44145393 -0.01111984 C200.62317831 -0.0084698 202.80490985 -0.00924419 204.98663139 -0.01364517 C207.95849875 -0.01908843 210.93008977 -0.01228123 213.90193939 -0.002285 C214.77080481 -0.00674645 215.63967023 -0.01120789 216.5348649 -0.01580453 C217.72920719 -0.00798129 217.72920719 -0.00798129 218.94767761 0 C219.63356256 0.0003247 220.31944751 0.00064941 221.02611685 0.00098395 C223.39904661 0.30641231 224.94757646 0.98427671 226.97383881 2.25168228 C229.08596384 5.41986984 229.30540345 7.3838748 229.53243256 11.11886978 C228.61207378 14.63296694 226.79718276 16.02006971 223.97383881 18.25168228 C220.88668513 18.98118191 217.87311113 18.92271908 214.71248627 18.87987137 C213.77660848 18.88696576 212.8407307 18.89406014 211.87649298 18.90136951 C208.73860272 18.91898019 205.60194607 18.90082859 202.46407318 18.8827858 C200.21531357 18.88792342 197.96655798 18.8952035 195.71781158 18.90446854 C189.6083115 18.92301049 183.49924684 18.91002597 177.38976479 18.89037824 C171.00058851 18.8740137 164.61144029 18.88280158 158.22225189 18.88789749 C147.49206111 18.89242089 136.76208674 18.87663753 126.03194427 18.84860611 C114.99313367 18.81976873 103.95457128 18.81268515 92.91573334 18.8280983 C79.61150359 18.8466491 66.30745413 18.84492247 53.00321198 18.82588387 C47.92195318 18.81900551 42.84078663 18.82005391 37.75952911 18.82742882 C31.77749326 18.83508147 25.79581561 18.82299842 19.81384087 18.79557991 C17.61641948 18.78868435 15.41896472 18.78861058 13.22154427 18.79579544 C10.2256915 18.80446326 7.23095096 18.78857872 4.23519135 18.76634598 C3.36213899 18.77458674 2.48908664 18.78282751 1.58957815 18.791318 C-2.42036799 18.7362567 -4.53767553 18.54599185 -8.04249573 16.43435955 C-10.79546227 13.40520086 -11.02616119 11.30300324 -11.02616119 7.25168228 C-8.80846426 1.99924218 -5.63125582 0.00266589 0 0 Z " fill="#B8860A" transform="translate(87.02616119384766,301.74831771850586)"/>
<path d="M0 0 C1.15322754 -0.00861557 2.30645508 -0.01723114 3.49462891 -0.02610779 C7.3124832 -0.04883849 11.12960768 -0.04201514 14.94750977 -0.03295898 C16.92812094 -0.03686933 18.9087325 -0.04078977 20.88933998 -0.04625839 C27.1165772 -0.06325653 33.34356937 -0.059693 39.57080078 -0.04296875 C45.99099297 -0.026049 52.41050518 -0.04187919 58.83062309 -0.07419163 C64.34671092 -0.10090031 69.86258723 -0.10816015 75.37873322 -0.09967655 C78.67157064 -0.09475063 81.96390884 -0.09904651 85.25671196 -0.11746407 C88.92945993 -0.13485575 92.60074864 -0.12040921 96.2734375 -0.09765625 C97.36191483 -0.10934845 98.45039215 -0.12104065 99.57185364 -0.13308716 C106.94719334 -0.03998121 106.94719334 -0.03998121 110.8719635 2.94398499 C112.6195683 5.41759754 113.40693024 6.55509589 113.38891602 9.53344727 C113.4134082 10.17282227 113.43790039 10.81219727 113.46313477 11.47094727 C112.19500835 14.9046434 109.83409167 16.83867176 106.70141602 18.53344727 C102.94994313 19.25836123 99.26234868 19.19658323 95.45117188 19.14868164 C94.32691299 19.15423065 93.20265411 19.15977966 92.04432678 19.16549683 C88.33453525 19.17729101 84.62596556 19.15301952 80.91625977 19.12719727 C78.33606522 19.12548618 75.75586894 19.12555182 73.17567444 19.12731934 C67.77123062 19.12566624 62.36723053 19.10755176 56.96289062 19.07543945 C50.7211506 19.03853088 44.47986911 19.02976715 38.23803419 19.03673697 C32.22371215 19.04304875 26.20958721 19.0320625 20.19528389 19.01277161 C17.63999765 19.00573782 15.08469756 19.00261753 12.52940178 19.00346375 C8.9601013 19.00166747 5.39145338 18.9802994 1.82226562 18.95336914 C0.7649826 18.95629974 -0.29230042 18.95923035 -1.38162231 18.96224976 C-10.32771582 18.85802917 -10.32771582 18.85802917 -14.29858398 15.53344727 C-16.39959993 12.85942697 -16.29705374 11.49060042 -16.17358398 8.03344727 C-13.94852966 -0.86677004 -7.90165483 -0.0472858 0 0 Z " fill="#B7860B" transform="translate(92.298583984375,199.466552734375)"/>
</svg>
