<?xml version="1.0" encoding="UTF-8"?>
<svg version="1.1" xmlns="http://www.w3.org/2000/svg" width="512" height="512">
<path d="M0 0 C9.74528269 8.08682344 16.97876002 17.27554976 21.59375 29.15234375 C22.81681886 29.15592628 22.81681886 29.15592628 24.06459618 29.15958118 C43.92976715 29.218788 63.79481737 29.29437445 83.6598568 29.38805866 C93.26655351 29.43297163 102.87321352 29.47239665 112.47998047 29.4987793 C120.85592075 29.52179583 129.23174446 29.55523463 137.60759223 29.60104531 C142.04011284 29.62492829 146.47251835 29.64368929 150.90510178 29.64995766 C155.08301644 29.65603086 159.26063679 29.67611091 163.43844223 29.70661926 C164.96615043 29.7153638 166.49389714 29.71912955 168.02162933 29.71735191 C187.40162611 29.70193102 187.40162611 29.70193102 194.96875 35.40234375 C200.35733275 41.04752567 202.25711877 45.65315684 202.69140625 53.375 C202.43848681 60.56802893 199.80932053 66.16857635 194.59375 71.15234375 C187.98718464 75.41112142 181.63223103 76.26745483 173.83596802 76.31056213 C172.85435096 76.3179691 172.85435096 76.3179691 171.85290325 76.3255257 C169.67423607 76.34080482 167.49559814 76.3492351 165.31689453 76.35766602 C163.74952439 76.36725209 162.1821568 76.3772626 160.61479187 76.38766479 C156.36943113 76.41464088 152.12405935 76.43568983 147.87866068 76.45566678 C143.43836373 76.47757147 138.99810052 76.50493818 134.55783081 76.53172302 C126.15384007 76.58158938 117.74983054 76.62655063 109.34580314 76.66974539 C99.77629539 76.71916959 90.20682149 76.77406847 80.63734651 76.82942498 C60.95617923 76.94315202 41.27497961 77.05001119 21.59375 77.15234375 C21.20413086 77.95841064 20.81451172 78.76447754 20.41308594 79.5949707 C19.89004883 80.66191162 19.36701172 81.72885254 18.828125 82.828125 C18.31475586 83.88169189 17.80138672 84.93525879 17.27246094 86.02075195 C9.35676701 100.78727407 -4.73251245 111.99400286 -20.48046875 117.33984375 C-39.0152035 122.4870064 -56.98246199 120.56518898 -73.76953125 111.328125 C-85.66908541 104.40087351 -93.83136939 95.12147625 -100.40625 83.15234375 C-100.98439453 82.10820312 -100.98439453 82.10820312 -101.57421875 81.04296875 C-102.40625 79.15234375 -102.40625 79.15234375 -102.40625 76.15234375 C-103.2319367 76.15510913 -104.05762341 76.15787451 -104.90833092 76.16072369 C-125.02375132 76.22705338 -145.1391528 76.27665831 -165.25465965 76.30778027 C-174.98247588 76.32323167 -184.71021899 76.34428812 -194.43798828 76.37866211 C-202.91933481 76.4086174 -211.40062836 76.4279313 -219.88202631 76.43460923 C-224.37048759 76.43851112 -228.85879734 76.44764496 -233.34720993 76.46953392 C-237.5775758 76.48999601 -241.80772868 76.49615802 -246.03813934 76.49166679 C-247.58523086 76.49248767 -249.13233 76.49839519 -250.67937851 76.50996017 C-270.14796338 76.64827828 -270.14796338 76.64827828 -277.78125 70.90234375 C-283.16983275 65.25716183 -285.06961877 60.65153066 -285.50390625 52.9296875 C-285.25098681 45.73665857 -282.62182053 40.13611115 -277.40625 35.15234375 C-271.01950934 31.1104308 -265.21610184 30.03517225 -257.6927948 29.99412537 C-257.03107075 29.98918739 -256.36934669 29.98424941 -255.68757039 29.9791618 C-253.47815808 29.96384731 -251.26877469 29.95544268 -249.05932617 29.94702148 C-247.47239937 29.9374382 -245.88547509 29.92742785 -244.29855347 29.91702271 C-239.99528398 29.8900164 -235.69200358 29.86898372 -231.38869643 29.84902072 C-226.88967006 29.82713478 -222.39067719 29.79975886 -217.89167786 29.77296448 C-209.37432257 29.72307285 -200.85694866 29.67812093 -192.33955699 29.63494211 C-182.64190091 29.58553956 -172.94427843 29.53063263 -163.24665487 29.47526252 C-143.29988457 29.36149667 -123.35308217 29.25464589 -103.40625 29.15234375 C-102.6335376 27.64124023 -102.6335376 27.64124023 -101.84521484 26.09960938 C-101.14461459 24.75239147 -100.44358225 23.40539819 -99.7421875 22.05859375 C-99.40566162 21.39762695 -99.06913574 20.73666016 -98.72241211 20.05566406 C-90.87781997 5.08380474 -77.13925132 -5.16725096 -61.40625 -10.84765625 C-39.96991312 -16.72823571 -17.84606133 -13.76915939 0 0 Z " fill="#B7860B" transform="translate(297.40625,202.84765625)"/>
<path d="M0 0 C10.3092114 7.90951748 20.81746051 18.89316058 23.17578125 32.08203125 C24.09762207 32.07536942 25.01946289 32.06870758 25.96923828 32.06184387 C34.67867573 32.00160378 43.38804268 31.95599138 52.09764099 31.92659473 C56.57478766 31.91097329 61.05176142 31.88979974 65.52880859 31.85571289 C69.85359383 31.82299331 74.17821328 31.80515177 78.50311279 31.79739952 C80.14885058 31.79187855 81.79457983 31.78109758 83.44024658 31.76484108 C85.75463096 31.74289869 88.06833998 31.74007123 90.3828125 31.74145508 C91.69741455 31.73479324 93.0120166 31.72813141 94.36645508 31.7212677 C100.4341049 32.29590657 105.96059367 33.9382661 109.98828125 38.76953125 C113.93266273 43.68649995 115.80681525 48.2357221 116.61328125 54.45703125 C115.61824242 62.70163869 112.7205084 68.36015575 106.37109375 73.70703125 C101.29906044 76.8838208 96.50101024 77.32891754 90.60986328 77.30908203 C89.87746933 77.30937408 89.14507538 77.30966614 88.39048767 77.30996704 C85.98806596 77.30858219 83.58596077 77.29306122 81.18359375 77.27734375 C79.51065236 77.27361061 77.83770877 77.27076506 76.1647644 77.26876831 C71.77532853 77.26115555 67.38602635 77.24152744 62.99664307 77.21936035 C58.51210336 77.19885101 54.02754191 77.18975573 49.54296875 77.1796875 C40.7538451 77.15827921 31.96482984 77.1241719 23.17578125 77.08203125 C22.9771196 77.69981445 22.77845795 78.31759766 22.57377625 78.95410156 C22.17700432 80.16984863 22.17700432 80.16984863 21.7722168 81.41015625 C21.51168015 82.21356445 21.25114349 83.01697266 20.98271179 83.84472656 C15.50270053 99.03866737 0.25659654 110.16185369 -13.71484375 116.79296875 C-29.55428452 123.35957108 -47.87157925 123.08436817 -63.82421875 117.08203125 C-80.46214136 110.03628267 -93.69100536 96.72619583 -100.82421875 80.08203125 C-100.82421875 79.09203125 -100.82421875 78.10203125 -100.82421875 77.08203125 C-102.12073868 77.08479663 -103.41725861 77.08756201 -104.75306702 77.09041119 C-135.53797031 77.15540124 -166.32285506 77.20486106 -197.1078105 77.23522724 C-200.8978829 77.23897931 -204.68795516 77.24286228 -208.47802734 77.24682617 C-209.60981792 77.24800657 -209.60981792 77.24800657 -210.76447296 77.24921081 C-222.9775927 77.26226053 -235.19067002 77.28591198 -247.40376461 77.31348964 C-259.93789814 77.34155592 -272.47200947 77.35821009 -285.00617313 77.36429673 C-292.73884554 77.36841064 -300.47139806 77.38139859 -308.20403355 77.40578065 C-314.13596441 77.42353072 -320.06783392 77.42539377 -325.9997921 77.42135429 C-328.43140081 77.42217971 -330.86301406 77.42814821 -333.29459572 77.43964767 C-336.61567192 77.45458353 -339.93623605 77.45098045 -343.25732422 77.4427948 C-344.21843141 77.45153332 -345.17953859 77.46027185 -346.16977024 77.46927518 C-353.02151384 77.42366081 -358.81124315 76.54980174 -364.28515625 72.06640625 C-369.15182781 66.3853121 -371.44868381 62.21291557 -372.13671875 54.64453125 C-371.48770299 47.24575157 -368.7079611 42.44794787 -363.93359375 36.84375 C-357.92714573 31.82725359 -351.87349519 31.64561061 -344.37757874 31.68330383 C-343.33845901 31.67665701 -342.29933929 31.67001018 -341.2287311 31.66316193 C-337.75403113 31.6445402 -334.27967576 31.64713674 -330.80493164 31.6496582 C-328.31131504 31.64064057 -325.81770289 31.63031335 -323.32409668 31.61877441 C-317.95922352 31.59689298 -312.59444725 31.58410765 -307.22953987 31.57964516 C-299.47287736 31.57317742 -291.71633189 31.55022912 -283.95971661 31.52330186 C-271.37412117 31.4800563 -258.78853067 31.45007682 -246.20288086 31.4284668 C-233.9795489 31.40745041 -221.7562573 31.38016957 -209.53295898 31.34448242 C-208.40215276 31.34118418 -208.40215276 31.34118418 -207.24850196 31.33781932 C-203.46642607 31.3267495 -199.68435055 31.31555672 -195.9022752 31.30430281 C-164.54295669 31.21114931 -133.18362345 31.13975819 -101.82421875 31.08203125 C-101.42952393 30.27016357 -101.0348291 29.4582959 -100.62817383 28.62182617 C-99.83769653 27.01464722 -99.83769653 27.01464722 -99.03125 25.375 C-98.25358276 23.78594849 -98.25358276 23.78594849 -97.46020508 22.16479492 C-95.07395301 17.66827129 -92.17743125 13.8925 -88.82421875 10.08203125 C-88.1796875 9.33179688 -87.53515625 8.5815625 -86.87109375 7.80859375 C-64.38200076 -16.59623679 -26.60294303 -18.06645232 0 0 Z " fill="#B7860B" transform="translate(383.82421875,377.91796875)"/>
<path d="M0 0 C3.58143778 2.78273646 6.81411237 5.77579413 10 9 C10.70898438 9.68707031 11.41796875 10.37414062 12.1484375 11.08203125 C16.35740107 15.42806834 19.1386341 19.8985792 21.73828125 25.30078125 C22.05494751 25.94680298 22.37161377 26.59282471 22.69787598 27.25842285 C23.47045544 28.83641094 24.23596331 30.41785798 25 32 C26.28621246 32.00238835 27.57242493 32.00477671 28.89761353 32.00723743 C59.43820627 32.06461263 89.9787195 32.13735407 120.51922721 32.22898628 C124.27925661 32.24025428 128.03928638 32.25139276 131.79931641 32.26245117 C132.92213514 32.2657567 132.92213514 32.2657567 134.06763709 32.269129 C146.18372561 32.30448942 158.29981407 32.32936063 170.41593504 32.35034702 C182.85067139 32.37211908 195.28534085 32.40518285 207.72002029 32.44870156 C215.39123479 32.47519409 223.06236595 32.49290711 230.73362392 32.49934604 C236.61860206 32.50522974 242.50345703 32.52683321 248.38837624 32.55427551 C250.80061338 32.56306942 253.21287527 32.56677553 255.62512779 32.56500816 C258.91998211 32.56335634 262.2142582 32.58004788 265.5090332 32.60127258 C266.46235849 32.59642501 267.41568378 32.59157743 268.39789772 32.58658296 C275.03095059 32.65704068 280.85156019 33.48682061 286.20703125 37.76171875 C290.85668562 43.33904139 293.49983349 48.14157261 294.4375 55.375 C293.44246117 63.61960744 290.54472715 69.2781245 284.1953125 74.625 C278.29047922 78.32340091 272.4870228 78.29206329 265.74954224 78.2784729 C264.20439495 78.2871615 264.20439495 78.2871615 262.62803257 78.29602563 C259.17793396 78.31302473 255.72796913 78.3159021 252.27783203 78.31884766 C249.80406873 78.32814588 247.33030856 78.33831439 244.85655212 78.34928894 C239.53151433 78.37095416 234.20651153 78.38656591 228.88144302 78.39665604 C221.18234215 78.41125505 213.48330799 78.43679528 205.78424631 78.46498732 C193.2923798 78.51043312 180.80050368 78.54705707 168.30859375 78.578125 C156.17543856 78.6083196 144.04230687 78.64267406 131.90917969 78.68261719 C130.78694036 78.68630951 130.78694036 78.68630951 129.64202954 78.69007643 C125.88865123 78.7024512 122.1352732 78.7149077 118.3818953 78.72740483 C87.25462878 78.83093951 56.12733635 78.92000656 25 79 C24.52767944 79.96675659 24.05535889 80.93351318 23.56872559 81.92956543 C22.93860039 83.2077021 22.30825856 84.48573199 21.67773438 85.76367188 C21.3676947 86.39972351 21.05765503 87.03577515 20.73822021 87.69110107 C18.43909292 92.33541371 16.1052393 95.80993154 12.5 99.5 C11.78203247 100.23621582 11.78203247 100.23621582 11.04956055 100.98730469 C9.71590804 102.34102398 8.35891665 103.6716437 7 105 C6.43925781 105.59296875 5.87851563 106.1859375 5.30078125 106.796875 C-6.48467282 118.30393252 -24.1214477 122.47464425 -39.99121094 122.35644531 C-46.64072413 122.17299213 -52.69234757 121.17440619 -59 119 C-60.28583984 118.58234375 -60.28583984 118.58234375 -61.59765625 118.15625 C-78.95000517 111.93407852 -91.20443253 98.18263228 -99.15234375 82.03125 C-100 80 -100 80 -100 78 C-101.38609215 78.00999275 -101.38609215 78.00999275 -102.80018616 78.02018738 C-111.52465137 78.08039261 -120.24904642 78.12602225 -128.97367191 78.15543652 C-133.45869397 78.17106726 -137.94354383 78.19225798 -142.4284668 78.22631836 C-146.75973126 78.25900453 -151.09083047 78.2768725 -155.42220879 78.28463173 C-157.0715641 78.29015866 -158.72091076 78.3009514 -160.37019539 78.31719017 C-162.68717859 78.33908799 -165.00348599 78.34196185 -167.32055664 78.34057617 C-169.29579063 78.35056892 -169.29579063 78.35056892 -171.31092834 78.36076355 C-178.56912492 77.65096634 -184.04517602 74.25005961 -189 69 C-192.81818709 63.14544646 -193.58273069 57.12310055 -192.3125 50.375 C-190.52273216 43.47668952 -186.74200027 39.13424019 -181 35 C-176.36521747 33.0823184 -172.42835956 32.75613347 -167.43408203 32.77294922 C-166.70168808 32.77265717 -165.96929413 32.77236511 -165.21470642 32.77206421 C-162.81228471 32.77344906 -160.41017952 32.78897003 -158.0078125 32.8046875 C-156.33487111 32.80842064 -154.66192752 32.81126619 -152.98898315 32.81326294 C-148.59954728 32.8208757 -144.2102451 32.84050381 -139.82086182 32.8626709 C-135.33632211 32.88318024 -130.85176066 32.89227552 -126.3671875 32.90234375 C-117.57806385 32.92375204 -108.78904859 32.95785935 -100 33 C-99.69980957 32.06969971 -99.39961914 31.13939941 -99.09033203 30.1809082 C-93.6882614 14.42103848 -81.57427221 3.05458685 -67.25 -4.75 C-45.10953389 -15.00343407 -20.44378411 -13.49609185 0 0 Z " fill="#B7860B" transform="translate(206,24)"/>
</svg>
