<?xml version="1.0" encoding="UTF-8"?>
<svg version="1.1" xmlns="http://www.w3.org/2000/svg" width="512" height="512">
<path d="M0 0 C5.13331898 4.2984333 9.94542312 8.79895409 14.67527771 13.53483582 C15.78680831 14.64190973 15.78680831 14.64190973 16.92079407 15.77134877 C19.38893889 18.2308614 21.85353455 20.69389873 24.31811523 23.15698242 C26.09233278 24.9265683 27.8667468 26.6959572 29.64134216 28.46516418 C34.44909981 33.25983861 39.25356786 38.05779315 44.0569942 42.85680556 C47.05643105 45.85347337 50.05660168 48.8494058 53.05690193 51.84520912 C61.36710278 60.1432321 69.67636742 68.44219004 77.98217678 76.74460888 C78.51260096 77.27481349 79.04302514 77.80501811 79.58952278 78.35128953 C80.38700369 79.14844302 80.38700369 79.14844302 81.20059532 79.96170062 C82.27785301 81.03851485 83.35511226 82.11532753 84.43237305 83.19213867 C84.9667252 83.72626939 85.50107734 84.26040011 86.05162198 84.81071661 C94.73026201 93.48539972 103.41564659 102.15329654 112.103922 110.8183281 C121.02781963 119.71854379 129.94611189 128.62434382 138.85876042 137.5358246 C143.86173776 142.53788414 148.86711888 147.53748526 153.87869072 152.53093529 C158.58457184 157.21985877 163.28279123 161.91635818 167.97579384 166.61817741 C169.70344481 168.34660303 171.43368717 170.07244267 173.16663361 171.79555893 C175.52257939 174.13891656 177.86920603 176.49121689 180.21360779 178.84611511 C180.90920364 179.53365456 181.6047995 180.22119401 182.32147402 180.92956799 C183.25551548 181.87349423 183.25551548 181.87349423 184.20842648 182.83648968 C184.75142924 183.37889536 185.29443201 183.92130103 185.85388941 184.48014325 C187 186 187 186 187 189 C186.32348389 189.13462646 185.64696777 189.26925293 184.94995117 189.40795898 C129.84168229 200.55735176 79.51129437 225.17384879 37 262 C30.90431365 256.9550944 25.3307952 251.46624706 19.75024414 245.86376953 C18.73466124 244.84790408 17.71885714 243.83225973 16.70285034 242.81681824 C13.96350601 240.0777592 11.22724204 237.33564198 8.49154592 234.59293985 C5.62527073 231.72038635 2.75613737 228.85069044 -0.11268616 225.98068237 C-5.53664823 220.55362014 -10.95805752 215.12401527 -16.37854058 209.69347847 C-22.55314129 203.50767567 -28.73060339 197.32473376 -34.90830028 191.14202332 C-47.60870636 178.43118265 -60.3055381 165.71677706 -73 153 C-71.4883449 149.79106303 -69.65383574 147.25916486 -67.37109375 144.53662109 C-34.64612602 105.45677223 -11.95834367 56.69875794 -2.20361328 6.7734375 C-1.09156947 1.09156947 -1.09156947 1.09156947 0 0 Z " fill="#B7860A" transform="translate(210,82)"/>
<path d="M0 0 C2.74892895 1.21604963 4.38053118 2.85524954 6.50380707 4.98621845 C7.38437775 5.86266514 8.26494843 6.73911182 9.17220306 7.6421175 C10.14011614 8.62064761 11.10788475 9.59932064 12.07552338 10.57812214 C13.10008646 11.60353146 14.12531064 12.6282806 15.15114594 13.65241718 C17.93443752 16.43484724 20.70837591 19.22643694 23.48074818 22.0197413 C26.37951561 24.93724928 29.28676817 27.84627647 32.19313812 30.75620747 C37.69559512 36.26799262 43.19035945 41.78738123 48.68241286 47.30953068 C54.93523463 53.59587241 61.19656649 59.87370829 67.4586339 66.15083802 C80.34010873 79.06367934 93.2108375 91.98718364 106.07454681 104.91772175 C104.74695263 107.85533484 103.29925824 109.94904132 101.03626251 112.23688984 C100.41282455 112.87174809 99.7893866 113.50660633 99.14705658 114.16070271 C98.46401459 114.84598042 97.7809726 115.53125813 97.07723236 116.23730183 C96.35655075 116.96791325 95.63586914 117.69852467 94.89334869 118.45127583 C92.50494249 120.86890906 90.10880006 123.27867373 87.71126556 125.687253 C86.04132585 127.36870287 84.37138875 129.05015534 82.70145416 130.7316103 C79.19388928 134.26019463 75.68167938 137.78408828 72.16707611 141.3056612 C67.68610321 145.79756256 63.22395616 150.3076765 58.76613903 154.82254219 C55.31965528 158.30647334 51.85963355 161.77672223 48.39590645 165.24350262 C46.74646659 166.89895959 45.10198599 168.55937438 43.46279716 170.22498226 C30.52421504 183.35698423 19.00580046 193.535567 -0.17545319 194.29272175 C-17.62300516 193.96697982 -29.63381488 184.84742595 -41.40982819 172.96459675 C-42.47917369 171.89795414 -43.54911165 170.83190519 -44.61960602 169.7664156 C-46.84805893 167.54382022 -49.06921942 165.31425609 -51.28531647 163.07934284 C-54.10468919 160.2371832 -56.94164757 157.41336815 -59.78436661 154.59458256 C-61.99319002 152.40031902 -64.19226868 150.19648612 -66.38865662 147.98978138 C-67.43017398 146.94562478 -68.47458986 145.90434996 -69.52212524 144.86623096 C-81.08249849 133.38708895 -88.120424 122.57740521 -88.36295319 106.04272175 C-88.17672316 83.96537984 -73.7471757 71.26296369 -59.09732819 56.62084675 C-57.45895554 54.97536392 -55.82087854 53.32958668 -54.18308258 51.68352985 C-50.76901694 48.2560888 -47.34915418 44.83456022 -43.92545319 41.41674519 C-39.53126764 37.02849746 -35.15574071 32.62213598 -30.78468704 28.21086216 C-27.41678301 24.81718983 -24.03756026 21.43497019 -20.65492249 18.05598927 C-19.03538201 16.43475227 -17.41983694 14.80951404 -15.80834961 13.1802721 C-13.56575492 10.91566887 -11.30801384 8.66735337 -9.04557037 6.42260456 C-8.38056519 5.74433613 -7.71556 5.0660677 -7.03040314 4.36724567 C-6.41381836 3.7618697 -5.79723358 3.15649372 -5.16196442 2.53277302 C-4.63034069 2.00043678 -4.09871696 1.46810055 -3.55098343 0.91963291 C-1.92545319 -0.08227825 -1.92545319 -0.08227825 0 0 Z M9.01668549 75.47387409 C7.99805811 76.47313972 6.99033653 77.48361667 5.99251556 78.50365925 C5.45226242 79.04245716 4.91200928 79.58125507 4.35538483 80.1363802 C3.22380294 81.26961175 2.09711792 82.40775248 0.97518158 83.55053425 C-0.73843592 85.29321266 -2.47006742 87.01635008 -4.20475006 88.73803425 C-5.30677928 89.8462989 -6.40772911 90.95563813 -7.50748444 92.06615925 C-8.27932823 92.83359959 -8.27932823 92.83359959 -9.06676483 93.61654377 C-12.48854612 97.12916817 -14.74060172 100.19234754 -15.07779694 105.1638155 C-14.50591963 110.99696397 -13.13211103 113.81122242 -8.92545319 117.91772175 C-4.68824311 120.74252847 -1.62824833 121.23956322 3.38387299 120.29223347 C7.81238878 118.64292845 10.14791174 116.52272466 13.37532806 113.17553425 C13.93777725 112.61075367 14.50022644 112.04597309 15.07971954 111.46407795 C16.25946826 110.27463385 17.43320936 109.07920383 18.60115814 107.87817097 C20.38681811 106.0429568 22.19060524 104.22722911 23.99837494 102.4138155 C25.14596342 101.25214477 26.29248562 100.08941951 27.43782806 98.92553425 C27.97426437 98.38373524 28.51070068 97.84193623 29.06339264 97.28371906 C33.0125014 93.20777896 34.89369308 90.75640141 35.44954681 85.10522175 C35.31785866 80.39956499 33.82902723 77.714438 31.07454681 73.91772175 C23.57437664 67.83650269 15.87618721 69.73982355 9.01668549 75.47387409 Z " fill="#B7860A" transform="translate(117.92545318603516,257.08227825164795)"/>
<path d="M0 0 C1.216875 -0.06058594 2.43375 -0.12117187 3.6875 -0.18359375 C13.89468659 0.5296993 22.31033416 7.86468212 29.14730835 14.82290649 C29.98637273 15.65261093 30.82543712 16.48231538 31.6899277 17.33716238 C33.98811783 19.61572861 36.27259199 21.90703605 38.55160308 24.20475507 C41.02335277 26.69018432 43.51243532 29.15815751 45.99923706 31.62850952 C50.85712889 36.45982636 55.69878773 41.30709614 60.53467743 46.16042574 C64.46781858 50.10715869 68.40682742 54.04794586 72.35002518 57.98463058 C73.19424839 58.8274747 73.19424839 58.8274747 74.05552662 59.68734597 C75.19916849 60.82906935 76.34282375 61.97077932 77.48649223 63.11247604 C88.19113029 73.80003552 98.87735523 84.50585345 109.55729742 95.21808343 C118.70669629 104.39428606 127.87171149 113.55464425 137.04833984 122.70361328 C147.72420303 133.347313 158.39019537 144.00074827 169.0407902 154.66973722 C170.17813742 155.80899558 171.31549711 156.9482415 172.45286942 158.08747482 C173.01236378 158.64789485 173.57185815 159.20831487 174.1483069 159.78571732 C178.07750355 163.72007823 182.01358554 167.64746744 185.95243454 171.57216263 C190.75733167 176.36017153 195.5512676 181.15884734 200.33178751 185.97120006 C202.76767488 188.42277539 205.20796397 190.86945968 207.66168213 193.30319977 C210.32681627 195.95184913 212.97264667 198.61844085 215.61459351 201.29019165 C216.38268447 202.04489829 217.15077544 202.79960492 217.94214189 203.57718146 C223.98122997 209.74839477 229.80500503 217.68315696 230.7265625 226.5390625 C230.44708357 236.23483137 229.26360667 245.37020702 222 252.4375 C212.66718268 259.55756522 204.72993279 261.43662038 193 260.4375 C181.02422566 257.93133374 172.65916734 247.24592492 164.35221863 238.93688965 C163.54274239 238.1310901 162.73326616 237.32529056 161.89926034 236.49507284 C159.21719753 233.82392684 156.53863132 231.1493037 153.86010742 228.47460938 C151.92632522 226.54657862 149.99184135 224.61925235 148.05743408 222.69184875 C142.28138912 216.93542851 136.5100658 211.17428592 130.73936579 205.41250825 C128.56226601 203.23892455 126.38485187 201.06565592 124.20742139 198.89240351 C114.5963502 189.29977272 104.98662227 179.70579863 95.38091564 170.10779572 C93.0382144 167.76700397 90.6955077 165.42621769 88.3527832 163.08544922 C87.77059866 162.50374842 87.18841412 161.92204761 86.58858762 161.32271951 C77.14215353 151.88459892 67.68722231 142.45503852 58.22874352 133.02899021 C48.49940864 123.33274155 38.77763457 113.62896418 29.06323129 103.9177556 C23.61599492 98.47268115 18.16553378 93.03092389 12.70659447 87.59757996 C8.06249831 82.97521078 3.42531315 78.34604557 -1.20307396 73.70794475 C-3.56225865 71.3442233 -5.92551534 68.98500293 -8.29559898 66.63218117 C-10.86881456 64.07666103 -13.42934648 61.50905621 -15.98713684 58.93811035 C-16.73226825 58.20394819 -17.47739966 57.46978602 -18.24511081 56.71337652 C-25.85265277 49.01122894 -30.08270571 41.72168163 -30.3125 30.8125 C-30.24439994 22.62346808 -28.31668735 16.98066889 -23.875 10.1875 C-16.73553564 3.35844713 -9.75808684 0.33543424 0 0 Z " fill="#B8860B" transform="translate(246,3.5625)"/>
<path d="M0 0 C2.49808778 0.96976927 3.8427352 2.19357817 5.74121094 4.08154297 C6.76408203 5.09861328 6.76408203 5.09861328 7.80761719 6.13623047 C8.51015625 6.85037109 9.21269531 7.56451172 9.93652344 8.30029297 C10.63132812 8.98349609 11.32613281 9.66669922 12.04199219 10.37060547 C22.48524212 20.87285681 28.38837566 31.81443107 28.56152344 46.80029297 C28.34940877 63.65552046 20.68496317 74.56286154 8.98144531 86.14404297 C7.56702148 87.52076172 7.56702148 87.52076172 6.12402344 88.92529297 C5.14349944 89.89072199 4.16367729 90.85686437 3.18457031 91.82373047 C0.81698948 94.15632243 -1.55733877 96.48155565 -3.93847656 98.80029297 C-1.32361776 101.43437867 1.30615065 104.04284668 3.99902344 106.59716797 C13.38595259 115.5820161 19.35346175 123.27631467 20.06152344 136.80029297 C19.56029675 145.37126929 16.14558876 153.24900628 9.81152344 159.11279297 C1.82397641 165.22692811 -6.56893889 167.35186114 -16.63916016 166.31518555 C-27.73132597 163.83128475 -35.18589741 156.3039651 -42.68847656 148.36279297 C-44.63630483 146.33811905 -46.59223528 144.32134748 -48.54785156 142.30419922 C-49.01896362 141.81513092 -49.49007568 141.32606262 -49.97546387 140.82217407 C-53.10954845 137.5870545 -56.37496377 134.61739883 -59.80273438 131.70239258 C-65.29324722 126.81252226 -70.35660421 121.428597 -75.52050781 116.19775391 C-80.97291605 110.68108031 -86.41954848 105.22558079 -92.32519531 100.18652344 C-95.37244237 97.56814135 -98.12974396 94.66754083 -100.93847656 91.80029297 C-96.31356278 86.24589373 -91.38486692 81.11503628 -86.25878906 76.02294922 C-85.44602509 75.21160019 -84.63326111 74.40025116 -83.79586792 73.5643158 C-81.22075918 70.99476707 -78.64218036 68.42873329 -76.06347656 65.86279297 C-74.30803711 64.11237368 -72.55282639 62.36172497 -70.79785156 60.61083984 C-66.51403574 56.33799995 -62.22737184 52.06803398 -57.93847656 47.80029297 C-50.59685989 54.00772117 -50.59685989 54.00772117 -47.25488281 57.42138672 C-46.33364624 58.35519165 -46.33364624 58.35519165 -45.39379883 59.30786133 C-44.76916748 59.94473877 -44.14453613 60.58161621 -43.50097656 61.23779297 C-38.48011082 66.3132266 -33.41844488 71.21501335 -27.93847656 75.80029297 C-22.76342481 73.52722712 -19.31139769 69.50231924 -15.37597656 65.55029297 C-14.60833984 64.79876953 -13.84070313 64.04724609 -13.04980469 63.27294922 C-7.44427059 57.67230225 -3.70524806 53.27691791 -3.44238281 45.02294922 C-5.17235994 37.27210682 -11.18352447 32.25081931 -16.68847656 26.98779297 C-18.25013401 25.48580861 -19.80766877 23.97952182 -21.36035156 22.46826172 C-22.04709961 21.81108154 -22.73384766 21.15390137 -23.44140625 20.47680664 C-24.93847656 18.80029297 -24.93847656 18.80029297 -24.93847656 16.80029297 C-23.47314453 15.44335938 -23.47314453 15.44335938 -21.43066406 13.90185547 C-20.69074219 13.33982422 -19.95082031 12.77779297 -19.18847656 12.19873047 C-18.40472656 11.61349609 -17.62097656 11.02826172 -16.81347656 10.42529297 C-15.67265625 9.55904297 -15.67265625 9.55904297 -14.50878906 8.67529297 C-12.33199258 7.03143632 -10.13806419 5.41346204 -7.93847656 3.80029297 C-7.36000977 3.35782227 -6.78154297 2.91535156 -6.18554688 2.45947266 C-2.47658211 -0.2551441 -2.47658211 -0.2551441 0 0 Z " fill="#B8860A" transform="translate(291.9384765625,346.19970703125)"/>
<path d="M0 0 C4.30525998 2.48866651 7.4145154 5.24354619 9 10 C9.23828125 12.234375 9.23828125 12.234375 9.3125 14.75 C9.36857422 15.97976562 9.36857422 15.97976562 9.42578125 17.234375 C8.34913151 24.22765955 3.31545972 29.12273682 -1.5234375 33.88671875 C-2.45913071 34.82315971 -2.45913071 34.82315971 -3.41372681 35.77851868 C-4.72632292 37.08878738 -6.04258123 38.39539668 -7.36230469 39.69848633 C-9.37092816 41.68347607 -11.36585651 43.68149344 -13.359375 45.68164062 C-14.64243872 46.95912772 -15.92626762 48.23584685 -17.2109375 49.51171875 C-18.097173 50.39932137 -18.097173 50.39932137 -19.00131226 51.30485535 C-27.37168383 59.53456901 -27.37168383 59.53456901 -33 60.53125 C-39.10103641 60.46769754 -43.35308477 60.40861188 -48 56 C-51.12194095 52.12448709 -52.13361449 47.93096111 -52 43 C-50.07955319 35.98821006 -46.78145949 32.0778082 -41.62890625 27.0703125 C-40.55079933 25.99570267 -40.55079933 25.99570267 -39.45091248 24.89938354 C-37.93790284 23.39607144 -36.41890369 21.89876595 -34.89428711 20.40722656 C-32.56096318 18.12349585 -30.24701663 15.82145283 -27.93554688 13.515625 C-26.45942557 12.05358392 -24.98224784 10.5926085 -23.50390625 9.1328125 C-22.81212784 8.44639679 -22.12034943 7.75998108 -21.40760803 7.05276489 C-20.43155861 6.10069656 -20.43155861 6.10069656 -19.43579102 5.12939453 C-18.58332542 4.29288864 -18.58332542 4.29288864 -17.71363831 3.43948364 C-12.50694577 -0.93422154 -6.52169474 -1.11610102 0 0 Z " fill="#B9880A" transform="translate(443,30)"/>
<path d="M0 0 C5.78080986 4.90492958 5.78080986 4.90492958 7.0625 8.75 C7.18391211 11.71355933 7.2506944 14.65282571 7.265625 17.6171875 C7.27132507 18.48892609 7.27702515 19.36066467 7.28289795 20.25881958 C7.29234183 22.10303536 7.2988795 23.94726797 7.30273438 25.79150391 C7.31243933 28.60739686 7.34346786 31.42255959 7.375 34.23828125 C7.38153043 36.03124567 7.38678075 37.82421531 7.390625 39.6171875 C7.4029718 40.45692108 7.4153186 41.29665466 7.42803955 42.16183472 C7.40510048 48.20612468 6.13204535 51.42176148 2.0625 56 C-1.82653636 59.40290681 -6.20526831 59.15122 -11.140625 59.0859375 C-15.55858382 58.55528881 -17.97474465 56.97688825 -20.9375 53.75 C-24.76753885 46.55743877 -24.39461853 39.00389398 -24.32861328 31.05957031 C-24.31253668 28.75525707 -24.32851136 26.45269724 -24.34765625 24.1484375 C-24.37336508 7.49452968 -24.37336508 7.49452968 -19.44824219 2.12695312 C-14.102006 -2.7458284 -6.41544112 -2.72997494 0 0 Z " fill="#B8860A" transform="translate(354.9375,1.25)"/>
<path d="M0 0 C0.89110474 -0.00287018 1.78220947 -0.00574036 2.70031738 -0.00869751 C4.57967771 -0.01073412 6.45905943 -0.00523248 8.33837891 0.00732422 C11.20914266 0.02338375 14.0784986 0.00746201 16.94921875 -0.01171875 C18.77864893 -0.00973625 20.60807824 -0.00589242 22.4375 0 C23.29283325 -0.00607269 24.1481665 -0.01214539 25.02941895 -0.0184021 C31.10455195 0.05302262 34.36532466 1.30650387 38.96875 5.3984375 C42.27961954 9.1822884 41.99312303 13.17735722 41.9375 17.9609375 C41.48299609 23.02540969 38.41640509 26.16298929 34.71875 29.3984375 C28.40984811 31.5014048 20.98440479 30.70672925 14.35986328 30.74853516 C12.43949245 30.7650761 10.51918271 30.7923416 8.59912109 30.83056641 C5.82096635 30.88554624 3.04425171 30.90724141 0.265625 30.921875 C-1.01130219 30.95587906 -1.01130219 30.95587906 -2.31402588 30.99057007 C-8.54164612 30.96867506 -11.56740556 29.48204971 -16.28125 25.3984375 C-18.8450945 21.74932928 -19.54737479 17.68038026 -19.21875 13.2734375 C-18.00774765 8.26796113 -16.27421314 4.98761308 -12.22070312 1.75537109 C-8.10762081 -0.14334249 -4.47883124 -0.03179879 0 0 Z " fill="#B8860A" transform="translate(440.28125,119.6015625)"/>
</svg>
