<?xml version="1.0" encoding="UTF-8"?>
<svg version="1.1" xmlns="http://www.w3.org/2000/svg" width="512" height="512">
<path d="M0 0 C1.16246902 -0.00743927 1.16246902 -0.00743927 2.34842226 -0.01502883 C4.94281294 -0.02797244 7.5366879 -0.01960427 10.13109112 -0.01129913 C12.01091825 -0.01618862 13.89074238 -0.0223787 15.7705614 -0.02975702 C20.93460261 -0.04617233 26.09849132 -0.04383534 31.26254952 -0.03838205 C36.83255938 -0.03571382 42.4025284 -0.0502398 47.97252178 -0.06247711 C58.88437031 -0.08354219 69.79616571 -0.08807134 80.70803217 -0.08628923 C89.57697065 -0.08498211 98.44589255 -0.08878315 107.31482792 -0.09621429 C109.86855894 -0.09831347 112.42228997 -0.10041107 114.97602099 -0.10250711 C116.24704906 -0.10355064 117.51807712 -0.10459417 118.82762118 -0.10566932 C136.04072421 -0.11920451 153.25381925 -0.12679499 170.46692657 -0.12234497 C171.13999656 -0.12217302 171.81306654 -0.12200106 172.50653258 -0.1218239 C175.91786365 -0.12093501 179.32919471 -0.1199902 182.74052576 -0.11902589 C183.75676396 -0.11873934 183.75676396 -0.11873934 184.79353223 -0.118447 C186.16358603 -0.11805991 187.53363984 -0.11766958 188.90369364 -0.11727602 C210.21950196 -0.11130662 231.53520169 -0.12674187 252.85098553 -0.15888214 C276.8039569 -0.19496824 300.75684984 -0.21424675 324.70985717 -0.20934343 C337.39074541 -0.20709799 350.07152603 -0.21235296 362.75239277 -0.23723602 C373.54834203 -0.25823987 384.34412464 -0.26185015 395.14008073 -0.24293643 C400.64817962 -0.23377298 406.15596771 -0.23265456 411.66404247 -0.25329208 C416.70811831 -0.27198206 421.75162835 -0.26752043 426.79568251 -0.24474627 C428.61865476 -0.24055555 430.44167021 -0.24477634 432.2645968 -0.25834221 C442.81213302 -0.33147807 452.04056928 -0.23891535 460.17020637 7.37286997 C467.73567357 15.24251825 468.48680457 22.46249916 468.4394865 33.00232697 C468.44557761 34.27532062 468.45166871 35.54831427 468.45794439 36.85988349 C468.47431383 40.38211942 468.47203216 43.90413109 468.46656942 47.42639172 C468.46389549 51.2295226 468.47843788 55.0325942 468.49066448 58.83570099 C468.51170577 66.28241562 468.51626007 73.72905236 468.5144766 81.17579321 C468.51316825 87.23008897 468.51697684 93.28436046 468.52440166 99.33865166 C468.5265009 101.08353716 468.5285985 102.82842266 468.53069448 104.57330817 C468.53225978 105.87609175 468.53225978 105.87609175 468.53385669 107.2051942 C468.55275402 123.6268746 468.5517105 140.04851033 468.54488736 156.4701971 C468.539313 171.48480757 468.56013365 186.49924736 468.59324783 201.51381794 C468.62700246 216.93877181 468.64215091 232.36364395 468.6375308 247.78863543 C468.63528781 256.44536619 468.64050427 265.10193922 468.66542339 273.75863838 C468.6864595 281.12905813 468.69000576 288.49923366 468.6711238 295.86966351 C468.66197984 299.62798411 468.6607811 303.38584966 468.68147945 307.14413452 C468.70370025 311.22408983 468.68693856 315.30297751 468.66653728 319.3829422 C468.67905513 320.56301482 468.69157298 321.74308743 468.70447016 322.95891982 C468.61416295 331.3920397 466.90587247 338.21821868 461.0553174 344.52959377 C455.01600689 350.26706115 449.09823218 352.75094218 440.78740215 352.78183746 C440.09130083 352.78848429 439.39519951 352.79513112 438.67800421 352.80197936 C436.36409334 352.82051334 434.05070394 352.81801069 431.73672771 352.81548309 C430.07068437 352.82450615 428.40464767 352.83483471 426.7386198 352.84636688 C422.22882993 352.87389918 417.71916616 352.88321628 413.20930314 352.88922095 C408.49137885 352.89861443 403.77354838 352.92481863 399.05568218 352.94922638 C390.12756859 352.99286825 381.19947323 353.02142943 372.27128547 353.04454976 C362.10439432 353.07161381 351.93759765 353.1155246 341.77077401 353.16083848 C320.8622593 353.25365166 299.95371631 353.32534765 279.04507732 353.38311005 C279.1662492 353.97325897 279.28742107 354.5634079 279.41226482 355.17144012 C279.95955978 357.84555486 280.50236695 360.52056128 281.04507732 363.19561005 C281.3312492 364.58876434 281.3312492 364.58876434 281.62320232 366.01006317 C281.89390545 367.34907684 281.89390545 367.34907684 282.17007732 368.7151413 C282.33765545 369.53732147 282.50523357 370.35950165 282.67788982 371.20659637 C283.04507732 373.38311005 283.04507732 373.38311005 283.04507732 376.38311005 C284.1449699 376.36216278 285.24486248 376.34121552 286.37808514 376.31963348 C290.46307614 376.2471737 294.54801046 376.2012889 298.63345623 376.16338348 C300.40080604 376.14328154 302.16808946 376.11599533 303.93521404 376.08135223 C306.47721017 376.03276996 309.01832629 376.01012779 311.56070232 375.99248505 C312.74372936 375.96151733 312.74372936 375.96151733 313.95065594 375.92992401 C317.35920863 375.92853326 319.6282571 376.12082465 322.54214764 377.95439911 C324.60642668 381.29024185 324.56269313 383.72204443 324.57632732 387.63311005 C324.58015423 388.328237 324.58398113 389.02336395 324.587924 389.73955536 C324.59063912 391.20539045 324.58330568 392.67127432 324.5665617 394.1370163 C324.54514151 396.3763998 324.56637175 398.61257591 324.59195232 400.85186005 C324.58930897 402.27895044 324.58418382 403.70603883 324.57632732 405.13311005 C324.57181561 406.4273288 324.56730389 407.72154755 324.56265545 409.05498505 C323.93774393 413.07328402 323.2861932 413.99057713 320.04507732 416.38311005 C317.23192179 416.77596505 314.8101947 416.92389453 311.99820232 416.89104462 C310.77224346 416.90040456 310.77224346 416.90040456 309.52151775 416.90995359 C306.77907869 416.92592606 304.0375232 416.91326295 301.29507732 416.90068817 C299.33055381 416.9061074 297.36603436 416.91322894 295.40152264 416.92192841 C290.06271716 416.94018828 284.72422033 416.93308318 279.38540936 416.92041206 C273.80320676 416.91029822 268.22103093 416.91967324 262.63882732 416.92595673 C253.26377896 416.93323784 243.88885657 416.92363322 234.51382732 416.90459442 C223.66875393 416.88282485 212.82398131 416.88987589 201.97891521 416.91190004 C192.67436425 416.93004079 183.36990393 416.93261884 174.065341 416.92214537 C168.50515086 416.91590316 162.94510218 416.91509481 157.38492107 416.92829132 C152.15801161 416.93982988 146.93149063 416.93186048 141.70462322 416.90871429 C139.78413826 416.90341654 137.8636207 416.90495913 135.94314861 416.91376495 C133.32563894 416.92466205 130.70938173 416.91102815 128.09195232 416.89104462 C126.9462376 416.90442895 126.9462376 416.90442895 125.77737713 416.91808367 C122.32616764 416.86681518 120.38589432 416.63469497 117.57449627 414.55937195 C115.35754291 411.40479409 115.52716506 408.95913576 115.51382732 405.13311005 C115.51000042 404.43798309 115.50617352 403.74285614 115.50223064 403.02666473 C115.49951553 401.56082964 115.50684897 400.09494577 115.52359295 398.6292038 C115.54501314 396.3898203 115.5237829 394.15364418 115.49820232 391.91436005 C115.50084568 390.48726966 115.50597082 389.06018126 115.51382732 387.63311005 C115.51833904 386.3388913 115.52285076 385.04467255 115.5274992 383.71123505 C116.04507732 380.38311005 116.04507732 380.38311005 117.54800701 377.95439911 C121.12146888 375.7057874 124.44512309 375.88557089 128.52945232 375.99248505 C129.3450462 375.99814484 130.16064007 376.00380463 131.00094891 376.00963593 C133.59959504 376.03198278 136.19684974 376.08217383 138.79507732 376.13311005 C140.55938029 376.15317733 142.32370493 376.17142771 144.08804607 376.18779755 C148.4075906 376.23184175 152.72609825 376.30085583 157.04507732 376.38311005 C157.1662492 375.56068817 157.28742107 374.7382663 157.41226482 373.89092255 C157.66363201 372.21643036 157.66363201 372.21643036 157.92007732 370.50811005 C158.0824992 369.41756317 158.24492107 368.3270163 158.41226482 367.20342255 C158.9153778 364.16611087 159.47605983 361.16119323 160.08462811 358.14434052 C160.26454296 357.25068787 160.44445782 356.35703522 160.62982464 355.43630219 C160.76685802 354.75874878 160.90389141 354.08119537 161.04507732 353.38311005 C160.1833145 353.38256528 159.32155167 353.38202051 158.43367481 353.38145924 C137.44187563 353.36647634 116.45028847 353.32396841 95.45860767 353.25101948 C85.30706803 353.21640168 75.15566372 353.19101816 65.0040617 353.18755341 C56.15344024 353.18450905 47.30306002 353.16395519 38.4525317 353.12258548 C33.76841947 353.10129658 29.08464984 353.0886337 24.40048885 353.09695625 C19.98605211 353.10452247 15.57230806 353.0885698 11.15799809 353.0550499 C9.54321171 353.04684748 7.92835606 353.04703011 6.3135767 353.05651283 C-3.72698782 353.10960931 -12.36427697 352.59981263 -20.08715343 345.39349842 C-27.63748677 337.50807592 -28.39668106 330.31065497 -28.34933186 319.76389313 C-28.35542296 318.49089948 -28.36151406 317.21790582 -28.36778975 315.90633661 C-28.38415919 312.38410067 -28.38187752 308.862089 -28.37641478 305.33982837 C-28.37374084 301.53669749 -28.38828323 297.73362589 -28.40050983 293.9305191 C-28.42155113 286.48380448 -28.42610542 279.03716773 -28.42432195 271.59042688 C-28.4230136 265.53613112 -28.42682219 259.48185963 -28.43424702 253.42756844 C-28.43634625 251.68268293 -28.43844385 249.93779743 -28.44053984 248.19291192 C-28.44210513 246.89012834 -28.44210513 246.89012834 -28.44370204 245.5610259 C-28.46259937 229.13934549 -28.46155585 212.71770976 -28.45473272 196.29602299 C-28.44915836 181.28141252 -28.469979 166.26697273 -28.50309318 151.25240215 C-28.53684781 135.82744828 -28.55199626 120.40257614 -28.54737616 104.97758466 C-28.54513316 96.3208539 -28.55034963 87.66428088 -28.57526875 79.00758171 C-28.59630485 71.63716197 -28.59985111 64.26698643 -28.58096915 56.89655658 C-28.57182519 53.13823598 -28.57062645 49.38037043 -28.59132481 45.62208557 C-28.6135456 41.54213026 -28.59678391 37.46324258 -28.57638264 33.38327789 C-28.58890049 32.20320528 -28.60141833 31.02313266 -28.61431551 29.80730027 C-28.5240083 21.37418039 -26.81571782 14.54800142 -20.96516275 8.23662633 C-14.71237037 2.29634684 -8.57362036 -0.07787226 0 0 Z M-9.32992268 21.82061005 C-11.681901 25.52949894 -12.08006158 28.5947407 -12.0779705 32.93581772 C-12.07996138 33.84975044 -12.08195225 34.76368317 -12.08400345 35.70531082 C-12.08109078 36.70502033 -12.07817812 37.70472984 -12.07517719 38.73473358 C-12.07603321 39.79730377 -12.07688923 40.85987396 -12.07777119 41.95464325 C-12.07943063 45.53791209 -12.0738958 49.12113452 -12.06844807 52.70439911 C-12.06814184 55.30808638 -12.06827503 57.91177373 -12.06881332 60.51546097 C-12.06934524 66.79230092 -12.06472545 73.06912659 -12.058312 79.34596287 C-12.05111621 86.60557873 -12.05031748 93.86518958 -12.04952717 101.12480927 C-12.04427535 120.29424513 -12.03031425 139.4636778 -12.01742268 158.63311005 C-11.99679768 201.45061005 -11.97617268 244.26811005 -11.95492268 288.38311005 C141.16507732 288.38311005 294.28507732 288.38311005 452.04507732 288.38311005 C452.10695232 245.62748505 452.16882732 202.87186005 452.23257732 158.82061005 C452.25988934 145.31050995 452.28720135 131.80040985 452.315341 117.88091278 C452.32537306 105.79150505 452.32537306 105.79150505 452.3314085 93.70209503 C452.33420828 88.30902911 452.34522193 82.91605338 452.36180401 77.52301788 C452.38291336 70.64740166 452.38855598 63.77191561 452.38429415 56.89626896 C452.38518557 54.37070596 452.39115101 51.84513854 452.40272272 49.31960189 C452.41761532 45.91140354 452.41405809 42.50370669 452.40584087 39.09549713 C452.41457887 38.10452561 452.42331686 37.1135541 452.43231964 36.09255314 C452.39543663 30.41181097 451.78729976 26.39529733 449.04507732 21.38311005 C443.92774614 16.39699248 439.57660888 16.23413613 432.70079613 16.25168228 C431.9553935 16.24962965 431.20999088 16.24757701 430.4420003 16.24546218 C427.9303376 16.23978268 425.41872958 16.2412506 422.90706158 16.24266815 C421.0936854 16.24008507 419.28030979 16.23707207 417.46693498 16.23366475 C412.47279135 16.22558496 407.47866208 16.22380464 402.48451269 16.22306728 C397.10266348 16.22121845 391.72082175 16.21367202 386.33897686 16.20693207 C374.56639291 16.19334172 362.79381236 16.18732306 351.02122188 16.18292141 C343.67349885 16.18016043 336.32577714 16.17592336 328.978055 16.17141724 C308.64290703 16.15922414 288.30776011 16.14892459 267.97260857 16.14554214 C266.67076103 16.14532258 265.3689135 16.14510301 264.02761604 16.14487679 C262.07012129 16.14454938 262.07012129 16.14454938 260.0730812 16.14421535 C257.42857404 16.14377188 254.7840669 16.14332531 252.13955975 16.14287567 C250.17190127 16.14254353 250.17190127 16.14254353 248.16449211 16.14220467 C226.90105403 16.13825523 205.63765019 16.12079694 184.37422534 16.09751615 C162.5546541 16.07381882 140.73510005 16.06134105 118.91551572 16.06017423 C106.66003576 16.05925661 94.40460042 16.05348233 82.14913273 16.03535461 C71.71501409 16.01997554 61.28095386 16.01482023 50.84682604 16.02309272 C45.5214613 16.02700686 40.19621427 16.02603232 34.87086391 16.01203537 C29.99719104 15.99934249 25.12372489 16.00045328 20.25005249 16.01262608 C18.48558885 16.01459109 16.7211108 16.01146776 14.95666745 16.00278172 C12.55982055 15.99172815 10.16370825 15.99914975 7.76688194 16.01117325 C7.08050243 16.00357805 6.39412293 15.99598286 5.68694404 15.98815751 C-0.33353849 16.05343693 -5.0617033 17.44006911 -9.32992268 21.82061005 Z M-11.95492268 304.38311005 C-13.267987 322.5885888 -13.267987 322.5885888 -8.95492268 331.38311005 C-3.83759149 336.36922761 0.51354576 336.53208396 7.38935852 336.51453781 C8.13476114 336.51659045 8.88016377 336.51864308 9.64815435 336.52075791 C12.15981704 336.52643741 14.67142507 336.52496949 17.18309307 336.52355194 C18.99646925 336.52613503 20.80984485 336.52914803 22.62321967 336.53255534 C27.6173633 336.54063513 32.61149257 336.54241546 37.60564196 336.54315281 C42.98749117 336.54500164 48.3693329 336.55254807 53.75117779 336.55928802 C65.52376174 336.57287837 77.29634228 336.57889703 89.06893277 336.58329868 C96.4166558 336.58605967 103.76437751 336.59029673 111.11209965 336.59480286 C131.44724762 336.60699596 151.78239453 336.6172955 172.11754608 336.62067795 C173.41939361 336.62089751 174.72124115 336.62111708 176.06253861 336.6213433 C178.02003335 336.62167072 178.02003335 336.62167072 180.01707345 336.62200475 C182.6615806 336.62244822 185.30608775 336.62289478 187.9505949 336.62334442 C189.91825338 336.62367657 189.91825338 336.62367657 191.92566254 336.62401542 C213.18910062 336.62796486 234.45250446 336.64542315 255.71592931 336.66870394 C277.53550055 336.69240127 299.3550546 336.70487904 321.17463893 336.70604587 C333.43011889 336.70696349 345.68555423 336.71273776 357.94102192 336.73086548 C368.37514056 336.74624456 378.80920079 336.75139987 389.24332861 336.74312738 C394.56869335 336.73921323 399.89394038 336.74018777 405.21929073 336.75418472 C410.09296361 336.7668776 414.96642976 336.76576682 419.84010216 336.75359401 C421.6045658 336.75162901 423.36904385 336.75475233 425.1334872 336.76343837 C427.53033409 336.77449194 429.9264464 336.76707034 432.32327271 336.75504684 C433.00965221 336.76264204 433.69603172 336.77023723 434.40321061 336.77806258 C439.37219509 336.72418444 442.69664689 335.62076332 447.04507732 333.38311005 C455.12364922 325.09194415 452.04507732 316.58412483 452.04507732 304.38311005 C298.92507732 304.38311005 145.80507732 304.38311005 -11.95492268 304.38311005 Z M179.04507732 352.38311005 C177.39507732 360.30311005 175.74507732 368.22311005 174.04507732 376.38311005 C204.40507732 376.38311005 234.76507732 376.38311005 266.04507732 376.38311005 C264.39507732 368.46311005 262.74507732 360.54311005 261.04507732 352.38311005 C233.98507732 352.38311005 206.92507732 352.38311005 179.04507732 352.38311005 Z M132.04507732 392.38311005 C132.04507732 395.02311005 132.04507732 397.66311005 132.04507732 400.38311005 C190.12507732 400.38311005 248.20507732 400.38311005 308.04507732 400.38311005 C308.04507732 397.74311005 308.04507732 395.10311005 308.04507732 392.38311005 C249.96507732 392.38311005 191.88507732 392.38311005 132.04507732 392.38311005 Z " fill="#B7860A" transform="translate(35.954922676086426,47.61688995361328)"/>
<path d="M0 0 C1.051875 -0.00515625 2.10375 -0.0103125 3.1875 -0.015625 C4.280625 -0.00015625 5.37375 0.0153125 6.5 0.03125 C8.1396875 0.00804687 8.1396875 0.00804687 9.8125 -0.015625 C10.864375 -0.01046875 11.91625 -0.0053125 13 0 C14.43859375 0.00676758 14.43859375 0.00676758 15.90625 0.01367188 C19.21298564 0.673525 20.40908706 1.94238555 22.5 4.53125 C23.03125 6.53125 23.03125 6.53125 23 8.53125 C23.0103125 9.19125 23.020625 9.85125 23.03125 10.53125 C22.2561666 13.44921104 20.80895833 14.6243588 18.5 16.53125 C15.90625 17.04882812 15.90625 17.04882812 13 17.0625 C11.948125 17.06765625 10.89625 17.0728125 9.8125 17.078125 C8.719375 17.06265625 7.62625 17.0471875 6.5 17.03125 C4.8603125 17.05445313 4.8603125 17.05445313 3.1875 17.078125 C2.135625 17.07296875 1.08375 17.0678125 0 17.0625 C-0.9590625 17.05798828 -1.918125 17.05347656 -2.90625 17.04882812 C-6.21298564 16.388975 -7.40908706 15.12011445 -9.5 12.53125 C-10.03125 10.53125 -10.03125 10.53125 -10 8.53125 C-10.01546875 7.54125 -10.01546875 7.54125 -10.03125 6.53125 C-8.65240655 1.34030994 -4.94094259 0.02324368 0 0 Z " fill="#B7860A" transform="translate(249.5,359.46875)"/>
</svg>
