<?xml version="1.0" encoding="UTF-8"?>
<svg version="1.1" xmlns="http://www.w3.org/2000/svg" width="512" height="512">
<path d="M0 0 C5.17895578 2.94147959 8.52743516 6.32887758 11.4375 11.5 C11.77467041 12.07556641 12.11184082 12.65113281 12.45922852 13.24414062 C18.39272222 26.92656685 9.24080559 43.64056257 4.35883331 56.22502899 C3.12462692 59.4205181 1.91688218 62.62597905 0.70654297 65.83056641 C-1.18596897 70.83302342 -3.0933885 75.82946325 -5.01123047 80.82226562 C-7.11025807 86.29648183 -9.15731738 91.78684637 -11.16015625 97.296875 C-11.65026458 98.63473854 -12.14072115 99.97247457 -12.6315918 101.31005859 C-13.46167296 103.57606066 -14.28548013 105.84437843 -15.10083008 108.11572266 C-20.41617621 122.33751747 -28.64095034 133.89544739 -42.5625 140.5 C-55.02030844 145.18596464 -70.23394085 148.6075602 -83.5625 148.5 C-83.61578964 149.41608536 -83.66907928 150.33217072 -83.72398376 151.27601624 C-84.27504848 160.18253359 -85.1107805 169.0106834 -86.19140625 177.87109375 C-86.34536362 179.15943619 -86.49932098 180.44777863 -86.65794373 181.77516174 C-87.0605535 185.14390443 -87.46778238 188.51207183 -87.87609863 191.88012695 C-88.29463362 195.33966041 -88.70862827 198.7997371 -89.12304688 202.25976562 C-89.93184661 209.00703763 -90.74554528 215.75371065 -91.5625 222.5 C-90.7819072 222.80587036 -90.00131439 223.11174072 -89.19706726 223.42687988 C-72.65061828 230.16663086 -58.23202016 242.33028848 -50.5625 258.5 C-47.89006252 264.94894627 -45.79785337 271.62092117 -43.625 278.25 C-42.96127091 280.24829275 -42.29652261 282.2462472 -41.63085938 284.24389648 C-40.53154186 287.54531795 -39.43404113 290.84728806 -38.34194946 294.15110779 C-35.56439116 302.54282109 -32.71885011 310.90919798 -29.84629822 319.26876831 C-27.89903239 324.93686555 -25.96797866 330.61044736 -24.04067707 336.28536034 C-22.67285867 340.31069138 -21.29818294 344.33338168 -19.90701294 348.35070801 C-18.58070527 352.18242428 -17.27559425 356.02077388 -15.98486519 359.86461449 C-15.50411649 361.28458258 -15.0161266 362.70212479 -14.5200634 364.11681557 C-10.83560179 374.64366841 -7.93446595 385.78350675 -12.3125 396.5625 C-13.02566199 397.89537517 -13.77177904 399.21162249 -14.5625 400.5 C-15.09875 401.386875 -15.635 402.27375 -16.1875 403.1875 C-23.76105888 410.5617547 -31.38463616 412.84284951 -41.70507812 412.8828125 C-49.80438048 412.69500259 -55.58636604 409.8016009 -61.3125 404.1875 C-64.13776659 400.548582 -65.79570338 396.75711547 -67.34350586 392.45849609 C-67.59891364 391.7628121 -67.85432142 391.06712811 -68.11746883 390.35036278 C-71.02879923 382.34610291 -73.72792307 374.26888816 -76.41473579 366.18712234 C-77.34149939 363.40112867 -78.2727942 360.61668537 -79.20530701 357.83261108 C-81.85169496 349.93014652 -84.49275162 342.02591981 -87.12475586 334.11865234 C-88.74631479 329.24809965 -90.37513537 324.3800254 -92.00846672 319.51340866 C-92.62393578 317.67489982 -93.23669388 315.83548093 -93.84655952 313.99510574 C-101.54297549 290.77553199 -109.10796951 280.63317012 -131.125 269.5625 C-132.1135498 269.06540527 -133.10209961 268.56831055 -134.12060547 268.05615234 C-138.63857131 265.5187245 -138.63857131 265.5187245 -143.5625 264.5 C-143.72331055 265.41177002 -143.88412109 266.32354004 -144.04980469 267.26293945 C-144.66077667 270.69933003 -145.2806343 274.13388406 -145.90625 277.56762695 C-146.17340601 279.0438887 -146.43717665 280.52076781 -146.69726562 281.99829102 C-150.79723771 305.2498635 -158.98012613 319.73792884 -177.64941406 334.02197266 C-180.76190389 336.42664512 -183.81478366 338.90441133 -186.875 341.375 C-192.18727824 345.64755781 -197.56961235 349.81633956 -203 353.9375 C-209.37813738 358.7793136 -215.62473421 363.75771931 -221.81958008 368.83129883 C-226.91767647 372.9991364 -232.09954359 377.03639376 -237.33984375 381.0234375 C-239.62784849 382.76956492 -241.88486286 384.54929811 -244.12890625 386.3515625 C-256.65654297 396.39659343 -265.93074053 402.73391319 -282.5625 401.5 C-285.6857054 400.65261869 -287.96454707 399.4035692 -290.5625 397.5 C-291.46355469 396.91605469 -291.46355469 396.91605469 -292.3828125 396.3203125 C-298.15333939 392.09858504 -301.34436934 386.20125389 -303.5625 379.5 C-304.95636394 370.47970904 -303.85667441 362.99329301 -298.5625 355.5 C-293.36876854 348.88452082 -286.03734538 344.03312131 -279.41650391 338.93066406 C-276.49545705 336.67660367 -273.59017031 334.40265183 -270.6875 332.125 C-270.11644531 331.67745361 -269.54539062 331.22990723 -268.95703125 330.76879883 C-264.42954231 327.20906065 -259.96056333 323.58056837 -255.5 319.9375 C-250.71857265 316.03321016 -245.90825067 312.18127389 -241 308.4375 C-234.95322326 303.8236443 -229.00702847 299.09411484 -223.0859375 294.3203125 C-220.94433524 292.59619006 -218.7885645 290.90984866 -216.6015625 289.2421875 C-206.71582308 281.67202668 -201.22517607 273.59343794 -199.43463135 261.13194275 C-199.33760925 260.38586258 -199.24058716 259.63978241 -199.140625 258.87109375 C-199.03151794 258.07776138 -198.92241089 257.28442902 -198.80999756 256.46705627 C-198.5837059 254.80296101 -198.36210177 253.13822206 -198.14501953 251.47290039 C-197.81266793 248.93878042 -197.46008128 246.40804296 -197.10546875 243.87695312 C-196.88680295 242.25016324 -196.66931479 240.62321453 -196.453125 238.99609375 C-196.29544647 237.87393715 -196.29544647 237.87393715 -196.13458252 236.72911072 C-195.54648577 232.08641216 -195.77541526 228.15031721 -196.5625 223.5 C-197.74066348 207.39680801 -194.95677549 191.25559127 -192.91229248 175.31774902 C-192.52559266 172.28215131 -192.14959812 169.24526757 -191.77384281 166.20829868 C-191.41076243 163.27833065 -191.04355963 160.34889247 -190.6748333 157.41963005 C-190.4990817 156.02304146 -190.32406378 154.62636034 -190.14979744 153.22958565 C-189.90719245 151.29392673 -189.65893872 149.35897829 -189.41040039 147.42407227 C-189.27050186 146.32507095 -189.13060333 145.22606964 -188.98646545 144.09376526 C-188.5625 141.5 -188.5625 141.5 -187.5625 139.5 C-197.7925 141.15 -208.0225 142.8 -218.5625 144.5 C-220.6086275 149.99729611 -220.6086275 149.99729611 -222.65420532 155.49479675 C-224.41326232 160.22314585 -226.17444681 164.9506879 -227.93896484 169.67700195 C-231.43892121 179.05849985 -234.91650196 188.44610299 -238.30859375 197.8671875 C-239.16419681 200.22743643 -240.02098247 202.58725183 -240.87832642 204.9468689 C-241.41252301 206.4260787 -241.94190322 207.90703785 -242.46615601 209.38980103 C-249.28105391 228.65569564 -249.28105391 228.65569564 -257.6875 233.4375 C-258.65042969 234.00791016 -258.65042969 234.00791016 -259.6328125 234.58984375 C-266.85188501 237.99479091 -275.63380353 237.19761257 -283.03515625 234.7421875 C-290.1014387 231.26911514 -295.51839821 225.72740733 -298.5625 218.5 C-302.6210469 202.72756323 -291.7790581 183.84236252 -286.4375 169.3125 C-286.0117569 168.15269623 -285.58601379 166.99289246 -285.14736938 165.79794312 C-282.65265162 159.00373181 -280.14999862 152.21248922 -277.64154053 145.42333984 C-276.69010766 142.84571506 -275.74185221 140.26696031 -274.79541016 137.6875 C-273.46215505 134.05674185 -272.10974849 130.43343121 -270.75 126.8125 C-270.39728027 125.84997314 -270.04456055 124.88744629 -269.68115234 123.89575195 C-267.37306457 117.84188801 -264.34812492 112.74746061 -260.5625 107.5 C-259.840625 106.46875 -259.11875 105.4375 -258.375 104.375 C-248.61259151 93.11068251 -233.28322 89.88982632 -219.3125 87.875 C-217.87662025 87.66126358 -216.44074794 87.44747719 -215.00488281 87.23364258 C-186.90010158 83.10782644 -159.63800741 82.56550228 -131.375 85.3125 C-130.51458099 85.39518127 -129.65416199 85.47786255 -128.76766968 85.56304932 C-119.84052361 86.4366597 -110.95460578 87.48429091 -102.10546875 88.9609375 C-101.4086348 89.07190262 -100.71180084 89.18286774 -99.99385071 89.29719543 C-95.21319561 90.1437771 -92.13763724 91.78030332 -88.30078125 94.61328125 C-85.36020842 96.1133038 -83.03463993 95.25108478 -80.00390625 94.28125 C-77.5625 93.5 -77.5625 93.5 -74.65234375 93.03125 C-73.67394531 92.8559375 -72.69554687 92.680625 -71.6875 92.5 C-70.78257812 92.355625 -69.87765625 92.21125 -68.9453125 92.0625 C-66.03683927 90.15530444 -66.01426684 89.31296408 -65.14233398 86.03515625 C-63.64444732 80.70822852 -61.83199868 75.55889563 -59.90234375 70.375 C-59.55605423 69.43740845 -59.20976471 68.49981689 -58.85298157 67.53381348 C-57.73896201 64.52117815 -56.62006031 61.51039427 -55.5 58.5 C-54.92916687 56.96363892 -54.92916687 56.96363892 -54.34680176 55.39624023 C-52.44634766 50.2822983 -50.54228342 45.16972271 -48.63427734 40.05859375 C-47.11670891 35.99190822 -45.60967969 31.92152519 -44.1108551 27.84790039 C-43.0214034 24.89485854 -41.91634675 21.94768535 -40.8125 19 C-40.44374756 17.989375 -40.07499512 16.97875 -39.69506836 15.9375 C-36.56030074 7.66908771 -32.82405454 2.2000331 -24.5625 -1.57421875 C-16.22823058 -4.1461222 -7.91336623 -3.58804804 0 0 Z M-24.5625 14.5 C-26.10642004 17.25237997 -27.1778017 20.14145622 -28.26953125 23.09765625 C-28.60451126 23.9693898 -28.93949127 24.84112335 -29.28462219 25.73927307 C-30.39626363 28.65273298 -31.48182113 31.57492178 -32.5625 34.5 C-33.13553864 36.04068146 -33.13553864 36.04068146 -33.72015381 37.61248779 C-36.60191095 45.37360231 -39.43052885 53.15358527 -42.25 60.9375 C-45.01872918 68.56615816 -47.79493248 76.19197544 -50.58538818 83.81271362 C-51.44256622 86.17015402 -52.2828816 88.53256867 -53.11572266 90.89868164 C-53.53772949 92.0664917 -53.95973633 93.23430176 -54.39453125 94.4375 C-54.72815674 95.38367188 -55.06178223 96.32984375 -55.40551758 97.3046875 C-57.15277429 100.62001401 -59.38775409 101.68681984 -62.87109375 102.80078125 C-64.20333984 103.14689453 -64.20333984 103.14689453 -65.5625 103.5 C-67.91683607 104.24946806 -70.2709973 104.99948554 -72.625 105.75 C-74.6025034 106.33894718 -76.58111001 106.9242638 -78.5625 107.5 C-79.06781187 111.22846692 -79.5658133 114.95787508 -80.0625 118.6875 C-80.27712891 120.27014648 -80.27712891 120.27014648 -80.49609375 121.88476562 C-80.63144531 122.90634766 -80.76679688 123.92792969 -80.90625 124.98046875 C-81.09477539 126.38655396 -81.09477539 126.38655396 -81.28710938 127.82104492 C-81.55254692 130.40317808 -81.61186064 132.90650989 -81.5625 135.5 C-77.14025958 134.8240523 -72.72640374 134.10324971 -68.3125 133.375 C-67.07757813 133.18679687 -65.84265625 132.99859375 -64.5703125 132.8046875 C-53.24526237 130.89731064 -41.52851145 127.23639717 -34.5625 117.5 C-27.30497472 105.21479099 -22.97038747 91.49456373 -18.1875 78.125 C-16.97894413 74.77033303 -15.7679403 71.4165618 -14.55584717 68.06317139 C-13.7551828 65.84483887 -12.95735494 63.62548046 -12.16241455 61.40509033 C-10.16448798 55.84152596 -8.1144752 50.3071899 -5.95605469 44.80371094 C-5.53738129 43.72640717 -5.11870789 42.64910339 -4.68734741 41.53915405 C-3.89537667 39.51099398 -3.09137073 37.48747359 -2.27285767 35.46987915 C-0.06505739 29.79288342 1.40798153 24.62441845 0.4375 18.5 C-2.01142558 14.16728551 -4.89774566 12.14130245 -9.5625 10.5 C-16.020819 9.64994838 -19.73962027 9.81050546 -24.5625 14.5 Z M-208.5625 99.5 C-209.68366211 99.64985352 -210.80482422 99.79970703 -211.95996094 99.95410156 C-215.20715886 100.40065053 -218.4474526 100.87941565 -221.6875 101.375 C-223.11690918 101.58044434 -223.11690918 101.58044434 -224.57519531 101.79003906 C-234.77476124 103.47001026 -244.59863973 107.88624291 -250.9309082 116.32324219 C-256.39919096 124.95008927 -259.54598198 134.5099666 -263 144.0625 C-263.69124053 145.95567231 -264.3832286 147.84857183 -265.07592773 149.74121094 C-266.14935847 152.67589959 -267.22147895 155.61102744 -268.28913879 158.54782104 C-270.44971098 164.48646969 -272.64815162 170.40905256 -274.88615417 176.31895447 C-276.30365859 180.06322829 -277.70911317 183.81196789 -279.11331177 187.56124878 C-279.78400197 189.34373377 -280.45979182 191.12430883 -281.14083862 192.90286255 C-282.0891066 195.38311252 -283.01733629 197.87002705 -283.94140625 200.359375 C-284.22388214 201.08360153 -284.50635803 201.80782806 -284.7973938 202.55400085 C-286.49966456 207.21759296 -286.81530193 210.54992321 -285.5625 215.5 C-281.62645914 220.44816565 -277.3532861 223.15115174 -271.0625 223.9375 C-266.72797078 223.39568385 -264.82842683 222.40304607 -261.5625 219.5 C-258.28488036 213.55234173 -255.91939965 207.39824295 -253.62109375 201.01953125 C-253.07458916 199.52084503 -253.07458916 199.52084503 -252.51704407 197.99188232 C-251.74128512 195.86369425 -250.96746202 193.73479968 -250.19543457 191.60525513 C-248.992157 188.29089692 -247.78018846 184.97984378 -246.56542969 181.66967773 C-241.69525507 168.39392072 -241.69525507 168.39392072 -236.92347717 155.08259583 C-236.17799026 152.98477939 -235.42330417 150.89056863 -234.66430664 148.79760742 C-233.78651853 146.37223622 -232.92654067 143.94031766 -232.08764648 141.5012207 C-231.70294189 140.45023193 -231.3182373 139.39924316 -230.921875 138.31640625 C-230.60702148 137.42381104 -230.29216797 136.53121582 -229.96777344 135.61157227 C-227.94176451 132.56727915 -226.08331408 132.32088057 -222.5625 131.5 C-219.9396536 131.01623247 -217.34474532 130.58410317 -214.70703125 130.2109375 C-213.96474777 130.10278717 -213.22246429 129.99463684 -212.45768738 129.88320923 C-210.89236295 129.65694747 -209.32662097 129.43355765 -207.76049805 129.21289062 C-205.39804641 128.87826438 -203.0379684 128.52957082 -200.67773438 128.1796875 C-181.97866347 125.46777604 -181.97866347 125.46777604 -176.5625 126.5 C-174.1870555 130.06316674 -174.42274886 131.07800546 -174.82202148 135.234375 C-174.93206512 136.40033203 -175.04210876 137.56628906 -175.15548706 138.76757812 C-175.77168836 144.41831543 -176.43215283 150.06128244 -177.14979744 155.70007324 C-177.41815219 157.81295578 -177.6816801 159.92639356 -177.94395447 162.04003906 C-178.68884768 168.03929039 -179.43913283 174.0378408 -180.19946289 180.03515625 C-180.66782482 183.73219952 -181.12826743 187.43016173 -181.58398247 191.12878418 C-181.75685736 192.51953663 -181.93259529 193.90993684 -182.11149788 195.29992676 C-184.66330949 210.42307025 -184.66330949 210.42307025 -181.95849609 225.04907227 C-179.23331861 227.83672835 -176.58248051 229.72548621 -173.2265625 231.71484375 C-172.60315979 232.08756409 -171.97975708 232.46028442 -171.33746338 232.84429932 C-169.29602404 234.05724651 -167.24280306 235.24821813 -165.1875 236.4375 C-164.48353088 236.85085602 -163.77956177 237.26421204 -163.05426025 237.69009399 C-150.44183457 245.0955925 -137.53077823 251.74217159 -124.3671875 258.10546875 C-101.06394592 269.50738785 -101.06394592 269.50738785 -95.0625 278 C-94.24265625 279.12921875 -94.24265625 279.12921875 -93.40625 280.28125 C-87.44538966 290.68749771 -84.06785662 302.49681398 -80.26013184 313.81204224 C-79.23032417 316.87094434 -78.19450118 319.92775332 -77.15722656 322.98413086 C-73.82020898 332.82373712 -70.50295799 342.66984248 -67.20515442 352.5226593 C-65.76049342 356.8344293 -64.30924583 361.14396706 -62.85708618 365.45321655 C-62.16438518 367.51508929 -61.47503627 369.57809141 -60.78915405 371.64224243 C-59.8309108 374.52594391 -58.86190663 377.40582486 -57.890625 380.28515625 C-57.47279503 381.55706818 -57.47279503 381.55706818 -57.04652405 382.85467529 C-54.7835912 389.50558054 -51.96696086 395.95710676 -45.5625 399.5 C-39.9331861 400.44707011 -35.04969708 400.22553933 -30.0625 397.3125 C-26.98658861 395.04968814 -24.89497983 393.16431952 -23.5625 389.5 C-23.04563898 382.03627875 -24.56177191 376.2215499 -26.95556641 369.18798828 C-27.31656433 368.09243622 -27.67756226 366.99688416 -28.04949951 365.86813354 C-29.24101825 362.26427434 -30.45194395 358.66729052 -31.6640625 355.0703125 C-32.50253633 352.55390664 -33.34014791 350.03722743 -34.17684937 347.52023315 C-35.93118142 342.25003019 -37.69640162 336.98357213 -39.46826172 331.71923828 C-41.5070688 325.66136016 -43.52881728 319.59799788 -45.54135764 313.53134739 C-47.48789756 307.66492959 -49.4464124 301.80257599 -51.41032028 295.94195175 C-52.24006176 293.46238144 -53.06689142 290.98183467 -53.89067459 288.50027847 C-55.04787702 285.02024282 -56.21866807 281.54506517 -57.39306641 278.07080078 C-57.72682281 277.05850403 -58.06057922 276.04620728 -58.40444946 275.00323486 C-64.30978694 257.69465592 -73.24552644 247.93485867 -88.875 238.6875 C-90.9990667 237.41510604 -93.12028295 236.13793861 -95.23828125 234.85546875 C-96.16552002 234.30528076 -97.09275879 233.75509277 -98.0480957 233.18823242 C-100.67202657 231.42646119 -102.57960576 229.96859337 -104.5625 227.5 C-104.83256531 224.64248657 -104.83256531 224.64248657 -104.48706055 221.19775391 C-104.42678271 220.55105555 -104.36650488 219.90435719 -104.30440044 219.2380619 C-104.08410226 216.98834454 -103.82612774 214.74504037 -103.5625 212.5 C-103.46866154 211.66714226 -103.37482307 210.83428452 -103.27814102 209.97618866 C-102.61909182 204.16107625 -101.90493491 198.35366157 -101.17328835 192.54728317 C-100.76109648 189.2688502 -100.35572656 185.98963805 -99.95231628 182.71011353 C-98.8063703 173.39806138 -97.653997 164.08685062 -96.48364258 154.77783203 C-95.76477357 149.05604363 -95.05835506 143.33283472 -94.35999107 137.60850906 C-94.09236185 135.43500262 -93.82000813 133.26207245 -93.5428257 131.08976364 C-93.15717435 128.06425227 -92.78737195 125.03719201 -92.42114258 122.00927734 C-92.30331421 121.11574554 -92.18548584 120.22221375 -92.06408691 119.30160522 C-91.39402498 113.57823939 -91.61752168 110.02126819 -95.25 105.3125 C-100.1053548 101.50695164 -106.46643034 101.10760222 -112.4453125 100.46484375 C-113.18143768 100.38126114 -113.91756287 100.29767853 -114.67599487 100.21156311 C-116.22704297 100.03660088 -117.77841384 99.86447883 -119.33007812 99.69506836 C-121.66091094 99.44040508 -123.99063016 99.17707007 -126.3203125 98.91210938 C-154.01498159 95.79410418 -180.9055641 95.73113492 -208.5625 99.5 Z M-183.5625 240.5 C-183.66272461 241.32089111 -183.76294922 242.14178223 -183.86621094 242.98754883 C-184.25111664 246.08839633 -184.6476996 249.18748317 -185.05175781 252.28588867 C-185.30630538 254.26435249 -185.54784802 256.24447577 -185.7890625 258.22460938 C-188.58403154 279.45562421 -196.94225746 291.38500573 -213.6875 304.25 C-214.22705322 304.65863281 -214.76660645 305.06726563 -215.32250977 305.48828125 C-219.81748145 308.89516113 -224.19877144 312.42702468 -228.5625 316 C-233.36400851 319.92643259 -238.19242097 323.80183766 -243.125 327.5625 C-247.79932812 331.12883924 -252.41578375 334.75612849 -257 338.4375 C-261.98317856 342.43832461 -266.97789689 346.42310333 -272 350.375 C-272.58177002 350.83479248 -273.16354004 351.29458496 -273.76293945 351.76831055 C-276.84389443 354.19302522 -279.97440041 356.50498772 -283.1875 358.75 C-287.34969912 361.87611522 -289.936491 365.20041088 -290.9375 370.4765625 C-291.27054843 375.86778394 -289.66048238 379.14607881 -286.5625 383.5 C-281.87421628 387.74178051 -278.66649131 389.11316511 -272.39453125 389.0234375 C-266.76830405 387.98355551 -262.86097184 384.06982156 -258.5625 380.5 C-257.46031685 379.63123202 -256.35472433 378.76677527 -255.24609375 377.90625 C-252.27056678 375.59572729 -249.31335173 373.26317161 -246.36083984 370.92333984 C-243.43456949 368.60727194 -240.49812813 366.30418648 -237.5625 364 C-236.39578248 363.08339806 -235.22911586 362.16673133 -234.0625 361.25 C-213.0625 344.75 -213.0625 344.75 -211.31152344 343.37426758 C-210.14806677 342.46009985 -208.98465511 341.54587484 -207.82128906 340.6315918 C-204.85588101 338.301213 -201.88963143 335.97191885 -198.921875 333.64453125 C-189.79463778 326.49577652 -189.79463778 326.49577652 -180.73828125 319.2578125 C-179.37253645 318.15442801 -177.99630542 317.06377024 -176.60546875 315.9921875 C-163.07613862 305.20409419 -161.08165407 288.25597335 -158.3125 272.1875 C-158.04241859 270.65676818 -157.77158939 269.12616811 -157.5 267.59570312 C-156.84557099 263.89860851 -156.20116721 260.19985418 -155.5625 256.5 C-159.06568038 254.37830194 -162.57117734 252.26049139 -166.07885742 250.14624023 C-167.27155675 249.42660012 -168.46362011 248.70590488 -169.6550293 247.98413086 C-171.36859865 246.94627497 -173.0846593 245.9125359 -174.80078125 244.87890625 C-175.83243408 244.2557251 -176.86408691 243.63254395 -177.92700195 242.99047852 C-180.54253149 241.40012839 -180.54253149 241.40012839 -183.5625 240.5 Z " fill="#B8860A" transform="translate(483.5625,63.5)"/>
<path d="M0 0 C7.9965582 7.20063328 13.13733691 16.76869574 13.890625 27.5390625 C14.38242392 39.8876625 12.66232144 50.5408868 4.4296875 60.23046875 C-3.64667755 68.78384925 -12.54700415 74.87996864 -24.65234375 75.6328125 C-37.49690484 75.98622752 -48.40080121 73.83867427 -58.4921875 65.265625 C-67.45937835 56.26333751 -71.87218154 45.19516448 -72.73828125 32.63671875 C-72.53091195 20.5862584 -67.54543237 9.88903366 -59.50390625 1.11328125 C-42.35128413 -14.64319721 -17.88748681 -13.80475088 0 0 Z M-50.48828125 11.26171875 C-56.93426939 18.56717198 -59.56731039 25.47527711 -59.48828125 35.26171875 C-58.26842868 43.28643517 -54.57924505 50.83791929 -48.30859375 56.0859375 C-40.04886168 61.82881519 -32.46544467 63.2090696 -22.48828125 62.26171875 C-14.35856676 60.19211156 -8.16169998 54.70902185 -3.11328125 48.19921875 C1.1757685 40.4459365 1.92108916 32.04334053 -0.17578125 23.44140625 C-3.21503862 15.15942993 -7.43047937 10.11507243 -15.17578125 5.88671875 C-27.85130607 0.04250273 -40.27522128 1.48698753 -50.48828125 11.26171875 Z " fill="#B8860A" transform="translate(390.48828125,60.73828125)"/>
<path d="M0 0 C0.81968061 -0.00226556 1.63936122 -0.00453111 2.48388064 -0.00686532 C5.24607328 -0.0132241 8.00821709 -0.01237476 10.77041626 -0.0115509 C12.74449223 -0.01454124 14.71856761 -0.01794347 16.69264221 -0.02172852 C22.06659103 -0.03058578 27.44052394 -0.03290736 32.81447935 -0.0335443 C37.29525122 -0.03449207 41.77601936 -0.03816885 46.2567898 -0.0417164 C56.82562423 -0.0498676 67.39445014 -0.05230003 77.96328735 -0.05158997 C88.8775375 -0.05098907 99.79173825 -0.06154181 110.70597589 -0.07733363 C120.06566392 -0.09039524 129.42533578 -0.09577444 138.78503287 -0.09513456 C144.37987288 -0.09487915 149.97466901 -0.09775362 155.56949997 -0.10831261 C160.83073969 -0.11797035 166.09189337 -0.11808878 171.35313606 -0.11079597 C173.28652763 -0.10974722 175.2199245 -0.11213019 177.15330696 -0.11815643 C179.78809789 -0.12583832 182.42258889 -0.12125687 185.05737305 -0.11352539 C185.82643805 -0.11866895 186.59550305 -0.12381252 187.38787305 -0.12911195 C191.09985783 -0.1049631 194.06808492 -0.06746865 197.15567017 2.13371277 C198.5550203 4.93241303 198.40832421 7.03870069 198.15567017 10.13371277 C197.14774323 11.80130959 197.14774323 11.80130959 195.15567017 13.13371277 C192.37370306 13.42853648 189.81544286 13.53833235 187.03250122 13.5146637 C186.19492641 13.51934367 185.3573516 13.52402364 184.49439573 13.52884543 C181.67755183 13.54084642 178.86118987 13.53131836 176.04434204 13.52189636 C174.02908544 13.5259598 172.01383106 13.53130039 169.99858093 13.53782654 C164.51727171 13.55153306 159.03613139 13.54618772 153.55481911 13.53668928 C147.82667195 13.52910995 142.09853955 13.53613348 136.37039185 13.54084778 C126.74980057 13.54631037 117.12927831 13.5391005 107.50869751 13.52482605 C96.37567663 13.5084986 85.24282056 13.51378675 74.10980368 13.53030527 C64.56241489 13.54390578 55.0150758 13.54584682 45.46768045 13.53798926 C39.76053572 13.53330485 34.05346853 13.53270896 28.34632874 13.54259872 C22.98161008 13.55124524 17.61710454 13.54528889 12.25240898 13.52791595 C10.27990002 13.52393871 8.30737323 13.52510618 6.33487129 13.53170395 C3.64928256 13.53986076 0.96438349 13.52966925 -1.72116089 13.5146637 C-2.50802041 13.52135586 -3.29487992 13.52804803 -4.10558367 13.53494298 C-9.33310134 13.47800196 -9.33310134 13.47800196 -11.82859039 11.79740334 C-13.43345805 9.16877331 -13.21921643 7.13280556 -12.84432983 4.13371277 C-9.37233683 -0.44300528 -5.32863944 -0.01066795 0 0 Z " fill="#B7860B" transform="translate(124.84432983398438,478.8662872314453)"/>
<path d="M0 0 C0.91245483 -0.00525696 1.82490967 -0.01051392 2.76501465 -0.01593018 C5.7862247 -0.02915217 8.80690943 -0.02038425 11.828125 -0.01025391 C13.92415468 -0.01227401 16.02018367 -0.01518491 18.11621094 -0.01895142 C22.51113571 -0.02337775 26.9058777 -0.01693367 31.30078125 -0.00292969 C36.94031321 0.01416227 42.57941687 0.00432276 48.21893311 -0.01364708 C52.54772176 -0.02447649 56.87640851 -0.02104243 61.2052002 -0.0132637 C63.28487193 -0.01125937 65.36455286 -0.01372912 67.44421387 -0.02070236 C70.34847598 -0.02830291 73.25204001 -0.01673213 76.15625 0 C77.01972046 -0.00607269 77.88319092 -0.01214539 78.77282715 -0.0184021 C84.63863819 0.04435302 84.63863819 0.04435302 86.79119873 1.72839928 C88.078125 3.38818359 88.078125 3.38818359 88.578125 6.32568359 C88.078125 9.38818359 88.078125 9.38818359 86.06640625 11.56396484 C82.12673871 13.96896451 79.27207867 13.84759878 74.765625 13.63818359 C73.65477539 13.61111328 73.65477539 13.61111328 72.52148438 13.58349609 C70.7064679 13.53665696 68.89212334 13.46492148 67.078125 13.38818359 C67.13613281 14.42716797 67.19414062 15.46615234 67.25390625 16.53662109 C67.63305132 26.19496505 67.1649268 33.58190859 60.50390625 41.18505859 C58.78418163 42.80456616 57.05611406 44.09906649 55.078125 45.38818359 C54.45550781 45.80068359 53.83289063 46.21318359 53.19140625 46.63818359 C45.58913316 50.80857341 35.62543631 50.7198535 27.328125 48.72802734 C20.43494809 45.96357619 14.15116335 41.02005936 10.578125 34.45068359 C7.95200823 27.83931945 8.76995237 20.36486948 9.078125 13.38818359 C7.98113281 13.43458984 6.88414063 13.48099609 5.75390625 13.52880859 C4.2995065 13.56634149 2.84507717 13.60274002 1.390625 13.63818359 C0.66939453 13.67169922 -0.05183594 13.70521484 -0.79492188 13.73974609 C-4.66547493 13.81044113 -6.51638318 13.63571912 -9.91015625 11.56396484 C-11.921875 9.38818359 -11.921875 9.38818359 -12.421875 6.32568359 C-11.22300366 -0.71768554 -6.0717489 -0.04270194 0 0 Z M22.078125 13.38818359 C20.9633842 25.50210757 20.9633842 25.50210757 25.078125 31.38818359 C30.14833199 35.95136989 33.94320077 36.68415069 40.57421875 36.60693359 C45.96706612 36.1357956 49.66393287 33.43463353 53.078125 29.38818359 C54.76328516 24.85974939 54.76328516 24.85974939 54.078125 13.38818359 C43.518125 13.38818359 32.958125 13.38818359 22.078125 13.38818359 Z " fill="#B8860B" transform="translate(70.921875,19.61181640625)"/>
<path d="M0 0 C0.98578941 -0.00807831 0.98578941 -0.00807831 1.99149376 -0.01631981 C4.19797417 -0.0306499 6.40385891 -0.02348364 8.61036682 -0.01637268 C10.1905109 -0.02207365 11.77065087 -0.02903685 13.3507843 -0.03717041 C17.64625193 -0.05514759 21.94151578 -0.05392488 26.23700976 -0.04822803 C29.82064164 -0.04514263 33.404234 -0.05122139 36.98786026 -0.05726677 C45.44100119 -0.07132546 53.89404109 -0.06973966 62.34718323 -0.05836487 C71.0729021 -0.04688287 79.79831364 -0.06095755 88.523992 -0.08776134 C96.01112392 -0.10990089 103.49815925 -0.11655965 110.98532158 -0.11068493 C115.45902332 -0.10730988 119.93252805 -0.10976659 124.40620232 -0.12693596 C128.61288875 -0.14237527 132.81911914 -0.13848343 137.02578735 -0.11963081 C138.57055129 -0.11593648 140.11534878 -0.11907797 141.66008186 -0.1295166 C143.7675696 -0.14267179 145.87353535 -0.13123052 147.98095703 -0.11352539 C149.16064277 -0.11331611 150.3403285 -0.11310682 151.55576229 -0.1128912 C155.19110707 0.49405437 156.41287831 1.42277573 158.55397034 4.38768005 C158.49147034 8.01268005 158.49147034 8.01268005 157.55397034 11.38768005 C153.97266334 13.77521805 152.40085275 13.6429366 148.14590454 13.65510559 C147.16624046 13.66190226 147.16624046 13.66190226 146.16678518 13.66883624 C143.97424215 13.68151546 141.7819464 13.67985765 139.58937073 13.6782074 C138.0190804 13.68419042 136.44879302 13.69099544 134.87850952 13.69856262 C130.609944 13.71625181 126.34145863 13.72091919 122.07286 13.72219419 C118.51160248 13.7240918 114.95036369 13.73144764 111.38911337 13.73853838 C102.98873379 13.75483064 94.5883971 13.75970653 86.18800354 13.75828552 C77.51682832 13.7570835 68.84590176 13.77819549 60.17478949 13.80977285 C52.73437643 13.83590481 45.29404475 13.84665413 37.85358614 13.8453747 C33.40781604 13.84486421 28.96226691 13.85059558 24.51654243 13.8717308 C20.33613962 13.89106178 16.15616976 13.89127324 11.97575188 13.87669754 C10.44065597 13.87460199 8.90553333 13.87935461 7.3704834 13.89141846 C5.27614982 13.90681294 3.18332002 13.8976039 1.08901978 13.88215637 C-0.66944731 13.88379067 -0.66944731 13.88379067 -2.46343899 13.88545799 C-6.08320162 13.28133957 -7.2678935 12.29450396 -9.44602966 9.38768005 C-9.88884887 6.28794559 -10.1116767 4.36996825 -8.32156277 1.72831631 C-5.55679239 -0.24794921 -3.37627286 0.00695661 0 0 Z " fill="#B8860A" transform="translate(74.44602966308594,318.61231994628906)"/>
<path d="M0 0 C4.12549171 3.09605381 4.98454294 6.55304729 5.75 11.4375 C5.87068848 12.17613281 5.99137695 12.91476563 6.11572266 13.67578125 C10.22729563 41.68332783 4.37262051 69.72503101 -12.30224609 92.80224609 C-25.72260783 110.30813324 -46.56547123 127.92229514 -69.23046875 131.3359375 C-72.45795151 131.40035831 -74.48292612 131.40739154 -77.0625 129.375 C-78.34452118 126.12721302 -78.05543562 124.30703161 -77 121 C-73.71202226 117.87359365 -69.7049701 116.69201595 -65.5 115.25 C-53.95784527 111.08643953 -44.25040747 105.06984848 -35 97 C-34.38640625 96.47019531 -33.7728125 95.94039063 -33.140625 95.39453125 C-18.30150087 81.61048246 -7.90543437 59.01080264 -6.89160156 38.84375 C-6.83024534 36.47801494 -6.81060318 34.11651977 -6.8125 31.75 C-6.81185547 30.91170654 -6.81121094 30.07341309 -6.81054688 29.2097168 C-6.85699343 23.74855202 -7.38690357 18.64862231 -8.54296875 13.30078125 C-9.36963723 9.13917669 -10.02739601 4.8264818 -7.875 1 C-5.05480125 -0.504106 -3.14389944 -0.44912849 0 0 Z " fill="#B8860A" transform="translate(216,21)"/>
<path d="M0 0 C1.24508331 -0.00845947 2.49016663 -0.01691895 3.77297974 -0.02563477 C5.15521371 -0.01980168 6.53744639 -0.01365716 7.91967773 -0.00723267 C9.37336624 -0.01129714 10.82705166 -0.01663832 12.2807312 -0.02316284 C16.23111905 -0.03685716 20.18127225 -0.03152917 24.13166428 -0.02202559 C28.26226187 -0.0144399 32.39283913 -0.02147156 36.5234375 -0.02618408 C43.46056736 -0.03164483 50.39760147 -0.02444169 57.3347168 -0.01016235 C65.35945974 0.00616481 73.38397403 0.00087653 81.40871143 -0.01564157 C88.29370744 -0.02924739 95.17863454 -0.03118054 102.06363964 -0.02332556 C106.1778914 -0.01864405 110.29203563 -0.01803726 114.40628052 -0.02793503 C118.27393442 -0.03658932 122.14129301 -0.03061123 126.00891495 -0.01325226 C127.42992792 -0.00927914 128.85096566 -0.01043555 130.27196884 -0.01704025 C132.20848464 -0.02521243 134.14505463 -0.01315709 136.08154297 0 C137.16628403 0.00113108 138.25102509 0.00226215 139.36863708 0.00342751 C142.04077148 0.38095093 142.04077148 0.38095093 143.88587952 1.68601036 C145.85050624 4.56933246 145.46046575 7.0233968 145.04077148 10.38095093 C142.8251493 12.65341823 141.43666811 13.3268213 138.27961731 13.75847435 C137.21184555 13.75960543 136.14407379 13.7607365 135.04394531 13.76190186 C133.8157608 13.77036133 132.58757629 13.7788208 131.32217407 13.78753662 C129.96404897 13.78170391 128.60592517 13.77555942 127.24780273 13.76913452 C125.81529337 13.77320031 124.38278715 13.77854223 122.95028687 13.7850647 C119.06187123 13.79874341 115.17369433 13.79343745 111.28527451 13.78392744 C107.21654363 13.77633369 103.14783324 13.78337566 99.07910156 13.78808594 C92.24630055 13.79354432 85.4135968 13.78634972 78.58081055 13.77206421 C70.68046556 13.75573749 62.78035283 13.76102595 54.88001347 13.77754343 C48.09774061 13.79115595 41.31553768 13.79307911 34.53325558 13.78522742 C30.48214346 13.7805496 26.43114051 13.77992899 22.3800354 13.78983688 C18.57145944 13.79850091 14.76318302 13.7924952 10.95463943 13.77515411 C9.55662153 13.77118622 8.15857842 13.77232852 6.76057053 13.77894211 C4.85292204 13.78713484 2.94521849 13.77504114 1.03759766 13.76190186 C-0.0301741 13.76077078 -1.09794586 13.7596397 -2.19807434 13.75847435 C-5.35512514 13.3268213 -6.74360633 12.65341823 -8.95922852 10.38095093 C-9.69859081 4.46605255 -9.69859081 4.46605255 -7.80433655 1.68601036 C-5.16651155 -0.17974402 -3.21517493 0.00335251 0 0 Z " fill="#B8850A" transform="translate(23.959228515625,436.6190490722656)"/>
<path d="M0 0 C1.03894913 -0.0071553 2.07789825 -0.01431061 3.14833069 -0.02168274 C4.87274887 -0.02571609 4.87274887 -0.02571609 6.63200378 -0.02983093 C7.83516739 -0.03640213 9.03833099 -0.04297333 10.2779541 -0.04974365 C13.58798819 -0.06611589 16.8979581 -0.07771206 20.20801759 -0.08594918 C22.27495912 -0.09109476 24.34189612 -0.09717072 26.40883446 -0.10346031 C32.87266446 -0.12251988 39.33648299 -0.13674882 45.80033571 -0.14507228 C53.26747631 -0.15484567 60.73432055 -0.18116423 68.20135671 -0.22157317 C73.96869785 -0.25171514 79.73595397 -0.26653935 85.50337237 -0.26985329 C88.94987949 -0.27220623 92.39607028 -0.28119718 95.84249306 -0.30631447 C99.68779145 -0.33388485 103.53269888 -0.3297699 107.37809753 -0.32279968 C109.09340668 -0.34201477 109.09340668 -0.34201477 110.84336853 -0.36161804 C111.89077713 -0.35467422 112.93818573 -0.34773041 114.01733398 -0.34057617 C114.92676663 -0.34296453 115.83619928 -0.34535288 116.7731905 -0.34781361 C120.00688461 0.31198053 121.22068391 1.54893513 123.19914246 4.14717102 C123.13664246 7.77217102 123.13664246 7.77217102 122.19914246 11.14717102 C118.91532354 13.33638363 117.95937152 13.399255 114.15104675 13.40786743 C113.10790314 13.41495224 112.06475952 13.42203705 110.99000549 13.42933655 C109.84601288 13.42685913 108.70202026 13.42438171 107.52336121 13.42182922 C106.31829926 13.42694016 105.1132373 13.43205109 103.87165833 13.43731689 C100.56587224 13.44884666 97.26033664 13.45128477 93.95454788 13.4487536 C91.19595638 13.44768463 88.43738807 13.45256525 85.67880154 13.45735902 C79.17221787 13.46845671 72.66569194 13.46888989 66.15910339 13.46284485 C59.44311462 13.45680131 52.72733516 13.46912495 46.0113821 13.49041492 C40.24740225 13.50801627 34.48348912 13.51403468 28.71948338 13.51077718 C25.27590812 13.5089621 21.83248223 13.51162278 18.38893127 13.52549171 C14.55084474 13.54037122 10.71302604 13.53111278 6.87492371 13.51948547 C5.73093109 13.52712921 4.58693848 13.53477295 3.40827942 13.54264832 C2.3651358 13.535634 1.32199219 13.52861969 0.24723816 13.52139282 C-0.66051865 13.52156056 -1.56827545 13.52172831 -2.50354004 13.52190113 C-5.25946752 13.07236422 -6.10964245 12.32236188 -7.80085754 10.14717102 C-8.67585754 8.27217102 -8.67585754 8.27217102 -8.80085754 6.14717102 C-6.24813847 1.15776555 -5.49944764 0.02587443 0 0 Z " fill="#B7860A" transform="translate(27.800857543945313,373.8528289794922)"/>
<path d="M0 0 C2.875 1.1875 2.875 1.1875 4.6875 3.9375 C10.31039512 19.32647612 7.84073701 38.94383642 1.3671875 53.6015625 C-7.8894796 71.9857339 -22.23811567 84.18362224 -41.30859375 91.390625 C-44.93519065 92.41673564 -47.48965773 92.09633557 -51.125 91.1875 C-53.43782587 87.71826119 -53.54978586 86.26544425 -53.125 82.1875 C-50.76491651 78.99776259 -47.79262854 78.1894309 -44.125 76.9375 C-27.69202249 70.78426287 -18.17996844 60.68257146 -10.75390625 45.1171875 C-7.64480237 38.00095115 -6.81904 31.47483902 -6.9375 23.75 C-6.93814453 22.95529297 -6.93878906 22.16058594 -6.93945312 21.34179688 C-6.97476473 16.51980071 -7.34553164 11.88779344 -8.11425781 7.12524414 C-8.125 5.1875 -8.125 5.1875 -6.0625 2.0625 C-3.125 0.1875 -3.125 0.1875 0 0 Z " fill="#B7860A" transform="translate(183.125,28.8125)"/>
<path d="M0 0 C3.48013211 2.32008807 3.80952824 3.75986544 4.64453125 7.7421875 C6.36364241 18.66137704 3.52949721 28.81675559 -2.6875 37.9375 C-7.62508756 44.25687512 -13.4466216 48.34611029 -21 51 C-27.34375 51.4375 -27.34375 51.4375 -31 49 C-32 46.1875 -32 46.1875 -32 43 C-29.23843597 39.09571983 -26.38906214 37.66492856 -22.0625 35.75 C-15.26900669 32.53043089 -12.5207866 27.52545984 -9.625 20.8125 C-8.81491277 15.8709679 -9.00295514 11.10355642 -9.22265625 6.109375 C-9 3 -9 3 -7.68359375 1.09765625 C-5.08925517 -0.59378027 -3.01675438 -0.31424525 0 0 Z " fill="#B8870A" transform="translate(153,38)"/>
</svg>
