<?xml version="1.0" encoding="UTF-8"?>
<svg version="1.1" xmlns="http://www.w3.org/2000/svg" width="512" height="512">
<path d="M0 0 C0.96574331 -0.00679667 0.96574331 -0.00679667 1.95099658 -0.01373065 C4.10035462 -0.02635324 6.24945857 -0.0247557 8.39884949 -0.02310181 C9.94324061 -0.02908844 11.48762873 -0.0358943 13.03201294 -0.04345703 C17.22221905 -0.06111142 21.41234346 -0.0658122 25.60258317 -0.0670886 C28.22236557 -0.06851118 30.84212727 -0.07278283 33.46190453 -0.07808304 C42.6069152 -0.0965821 51.7518676 -0.10475389 60.89689636 -0.10317993 C69.41239357 -0.10197886 77.92763718 -0.12307478 86.44307023 -0.15466726 C93.76129432 -0.18084749 101.07943567 -0.19154648 108.39770621 -0.19026911 C112.765328 -0.18975995 117.13272443 -0.19541748 121.50029945 -0.21662521 C125.61015651 -0.23603691 129.71957392 -0.23611227 133.82944679 -0.22159195 C135.33383834 -0.21950631 136.83825762 -0.22419021 138.34260178 -0.23631287 C147.49883263 -0.30529126 154.50132179 -0.07287525 161.69645691 6.23226929 C162.23528503 6.88324585 162.77411316 7.53422241 163.32926941 8.20492554 C163.88356628 8.85332397 164.43786316 9.50172241 165.00895691 10.16976929 C168.63423871 15.43132693 168.75140301 20.15310937 168.74479675 26.33700562 C168.75151398 27.24172104 168.7582312 28.14643646 168.76515198 29.0785675 C168.78412494 32.06475339 168.78805593 35.0507144 168.79020691 38.03695679 C168.79663568 40.11814974 168.8033641 42.19934178 168.81037903 44.28053284 C168.8223503 48.64247736 168.82606004 53.0043427 168.82487488 57.36630249 C168.82467178 62.94481226 168.85196512 68.52281206 168.8864193 74.10120106 C168.9087012 78.40015476 168.91271201 82.69898603 168.91165543 86.99799156 C168.91400977 89.05401045 168.92282387 91.1100328 168.93832016 93.16599464 C168.95800448 96.04757595 168.9521322 98.9280614 168.94010925 101.80966187 C168.95134827 102.65201385 168.96258728 103.49436584 168.97416687 104.36224365 C168.90237496 111.16321258 166.99524756 116.36778049 162.48942566 121.50961304 C161.8384491 122.04844116 161.18747253 122.58726929 160.51676941 123.14242554 C159.86837097 123.69672241 159.21997253 124.25101929 158.55192566 124.82211304 C154.70005991 127.47609875 151.22892158 128.51958 146.57218933 128.49447632 C145.1612928 128.49424973 145.1612928 128.49424973 143.72189331 128.49401855 C142.71963211 128.48369598 141.71737091 128.47337341 140.68473816 128.46273804 C139.1305291 128.45849319 139.1305291 128.45849319 137.54492188 128.4541626 C134.24375234 128.44299007 130.9428566 128.41789059 127.64176941 128.39242554 C125.40023688 128.38239196 123.15870008 128.37326677 120.91716003 128.36508179 C115.42943681 128.34306032 109.94187267 128.30961175 104.45426941 128.26742554 C104.45426941 130.90742554 104.45426941 133.54742554 104.45426941 136.26742554 C105.03918152 136.24647827 105.62409363 136.22553101 106.22673035 136.20394897 C108.88573406 136.12062438 111.54446296 136.06871657 114.20426941 136.01742554 C115.12466003 135.98390991 116.04505066 135.95039429 116.99333191 135.91586304 C123.78914745 135.81737296 123.78914745 135.81737296 127.06364441 138.03305054 C128.51403445 140.36345251 128.99672486 141.55027688 128.95426941 144.26742554 C128.96973816 145.25742554 128.96973816 145.25742554 128.98551941 146.26742554 C128.16162206 149.36915672 127.06287054 150.35641642 124.45426941 152.26742554 C121.1149864 152.83338897 117.81693184 152.73210568 114.43864441 152.65805054 C113.46767822 152.65239075 112.49671204 152.64673096 111.49632263 152.64089966 C108.39846771 152.61852865 105.30177408 152.56833026 102.20426941 152.51742554 C100.10272363 152.4973615 98.00115969 152.47911057 95.89958191 152.46273804 C90.75033831 152.42206471 85.6036019 152.34377478 80.45426941 152.26742554 C80.78426941 159.19742554 81.11426941 166.12742554 81.45426941 173.26742554 C82.98051941 173.94805054 84.50676941 174.62867554 86.07926941 175.32992554 C92.41330442 178.48797132 96.6563053 182.72588908 99.45426941 189.26742554 C99.45426941 190.25742554 99.45426941 191.24742554 99.45426941 192.26742554 C100.2884137 192.25854309 101.12255798 192.24966064 101.98197937 192.24050903 C109.86728344 192.16015078 117.75244874 192.09935366 125.63806915 192.06017685 C129.69156452 192.039358 133.74471975 192.01114597 137.79801941 191.96566772 C141.71433831 191.92200456 145.63033135 191.8982456 149.546875 191.88791656 C151.03633753 191.88056168 152.5257835 191.86619955 154.0151062 191.84450531 C163.30066054 191.714704 170.39620149 191.83500714 177.69645691 198.23226929 C178.23528503 198.88324585 178.77411316 199.53422241 179.32926941 200.20492554 C179.88356628 200.85332397 180.43786316 201.50172241 181.00895691 202.16976929 C184.6389093 207.4381056 184.72679092 212.09927633 184.64958191 218.28695679 C184.64533707 219.57481331 184.64533707 219.57481331 184.64100647 220.88868713 C184.62985011 223.61924429 184.604754 226.34946824 184.57926941 229.07992554 C184.56923373 230.93604058 184.56010891 232.79216078 184.55192566 234.64828491 C184.52992567 239.18812599 184.49542722 243.72771935 184.45426941 248.26742554 C185.32599792 248.25854309 186.19772644 248.24966064 187.09587097 248.24050903 C195.33436516 248.16016816 203.57272668 248.09936234 211.81152344 248.06017685 C216.04661348 248.03935344 220.28137825 248.01113275 224.51628113 247.96566772 C228.60766267 247.9220213 232.69873248 247.89824901 236.79032898 247.88791656 C238.34677534 247.88055873 239.90320576 247.86619078 241.45951843 247.84450531 C250.92954773 247.71786838 258.24793913 247.70508384 265.69645691 254.23226929 C266.23528503 254.88324585 266.77411316 255.53422241 267.32926941 256.20492554 C267.88356628 256.85332397 268.43786316 257.50172241 269.00895691 258.16976929 C272.63423871 263.43132693 272.75140301 268.15310937 272.74479675 274.33700562 C272.75151398 275.24172104 272.7582312 276.14643646 272.76515198 277.0785675 C272.78412494 280.06475339 272.78805593 283.0507144 272.79020691 286.03695679 C272.79663568 288.11814974 272.8033641 290.19934178 272.81037903 292.28053284 C272.8223503 296.64247736 272.82606004 301.0043427 272.82487488 305.36630249 C272.82467178 310.94481226 272.85196512 316.52281206 272.8864193 322.10120106 C272.9087012 326.40015476 272.91271201 330.69898603 272.91165543 334.99799156 C272.91400977 337.05401045 272.92282387 339.1100328 272.93832016 341.16599464 C272.95800448 344.04757595 272.9521322 346.9280614 272.94010925 349.80966187 C272.95134827 350.65201385 272.96258728 351.49436584 272.97416687 352.36224365 C272.90237496 359.16321258 270.99524756 364.36778049 266.48942566 369.50961304 C265.8384491 370.04844116 265.18747253 370.58726929 264.51676941 371.14242554 C263.86837097 371.69672241 263.21997253 372.25101929 262.55192566 372.82211304 C258.70005991 375.47609875 255.22892158 376.51958 250.57218933 376.49447632 C249.63159164 376.49432526 248.69099396 376.49417419 247.72189331 376.49401855 C246.71963211 376.48369598 245.71737091 376.47337341 244.68473816 376.46273804 C243.1305291 376.45849319 243.1305291 376.45849319 241.54492188 376.4541626 C238.24375234 376.44299007 234.9428566 376.41789059 231.64176941 376.39242554 C229.40023688 376.38239196 227.15870008 376.37326677 224.91716003 376.36508179 C219.42943681 376.34306032 213.94187267 376.30961175 208.45426941 376.26742554 C208.45426941 378.90742554 208.45426941 381.54742554 208.45426941 384.26742554 C209.03918152 384.24647827 209.62409363 384.22553101 210.22673035 384.20394897 C212.88573406 384.12062438 215.54446296 384.06871657 218.20426941 384.01742554 C219.12466003 383.98390991 220.04505066 383.95039429 220.99333191 383.91586304 C227.78914745 383.81737296 227.78914745 383.81737296 231.06364441 386.03305054 C232.51403445 388.36345251 232.99672486 389.55027688 232.95426941 392.26742554 C232.96458191 392.92742554 232.97489441 393.58742554 232.98551941 394.26742554 C232.16320563 397.36319505 231.05152445 398.35317507 228.45426941 400.26742554 C225.14803152 400.87815309 221.87089414 400.81353672 218.51676941 400.78500366 C217.003974 400.79551758 217.003974 400.79551758 215.46061707 400.8062439 C212.12488826 400.82385772 208.79000693 400.81218864 205.45426941 400.79867554 C203.1378615 400.80136946 200.82145469 400.80525105 198.50505066 400.81027222 C193.64947243 400.81617188 188.79418845 400.80758892 183.93864441 400.78890991 C177.71062295 400.7661205 171.48329095 400.77924102 165.2552948 400.80319977 C160.47179456 400.81764486 155.68845814 400.81305759 150.904953 400.8026886 C148.6084027 400.80001777 146.31183758 400.80330354 144.01530457 400.81260681 C140.80705801 400.82275081 137.59993235 400.80730037 134.39176941 400.78500366 C133.43995789 400.79310059 132.48814636 400.80119751 131.50749207 400.80953979 C125.07731932 400.72663095 125.07731932 400.72663095 121.86637878 398.3600769 C120.34114526 396.09978313 119.91205168 394.96936033 119.95426941 392.26742554 C119.94395691 391.60742554 119.93364441 390.94742554 119.92301941 390.26742554 C120.76056894 387.11429788 121.7290214 386.11145563 124.45426941 384.26742554 C127.88395667 383.77790457 131.24896016 383.89160195 134.70426941 384.01742554 C135.64012878 384.03547241 136.57598816 384.05351929 137.54020691 384.07211304 C139.84593956 384.11916881 142.14957886 384.18488841 144.45426941 384.26742554 C144.45426941 381.62742554 144.45426941 378.98742554 144.45426941 376.26742554 C143.88321472 376.27630798 143.31216003 376.28519043 142.72380066 376.29434204 C136.75368814 376.38317594 130.78376491 376.44330859 124.81315613 376.4871521 C122.58814359 376.507206 120.36318334 376.53445618 118.13835144 376.56918335 C114.93102576 376.61797488 111.7243999 376.64045715 108.51676941 376.65805054 C107.52999207 376.67869568 106.54321472 376.69934082 105.52653503 376.72061157 C98.14962535 376.72298164 92.81124006 375.20916115 87.21208191 370.30258179 C86.67325378 369.65160522 86.13442566 369.00062866 85.57926941 368.32992554 C85.02497253 367.6815271 84.47067566 367.03312866 83.89958191 366.36508179 C80.27430011 361.10352414 80.15713581 356.38174171 80.16374207 350.19784546 C80.15702484 349.29313004 80.15030762 348.38841461 80.14338684 347.45628357 C80.12441388 344.47009768 80.12048289 341.48413667 80.11833191 338.49789429 C80.11190314 336.41670134 80.10517472 334.33550929 80.09815979 332.25431824 C80.08618852 327.89237371 80.08247878 323.53050838 80.08366394 319.16854858 C80.08386704 313.59003881 80.05657369 308.01203901 80.02211952 302.43365002 C79.99983762 298.13469631 79.99582681 293.83586504 79.99688339 289.53685951 C79.99452905 287.48084062 79.98571495 285.42481827 79.97021866 283.36885643 C79.95053434 280.48727513 79.95640662 277.60678968 79.96842957 274.72518921 C79.95719055 273.88283722 79.94595154 273.04048523 79.93437195 272.17260742 C80.00616386 265.37163849 81.91329126 260.16707059 86.41911316 255.02523804 C87.07008972 254.48640991 87.72106628 253.94758179 88.39176941 253.39242554 C89.04016785 252.83812866 89.68856628 252.28383179 90.35661316 251.71273804 C95.00382437 248.51074893 98.94791655 248.02051132 104.53947449 248.04037476 C105.23270813 248.0400827 105.92594177 248.03979065 106.6401825 248.03948975 C108.91818515 248.04087657 111.19585556 248.05640687 113.47380066 248.07211304 C115.05849021 248.07584548 116.64318207 248.07869136 118.22787476 248.08068848 C122.38881354 248.08830676 126.54961162 248.10793966 130.710495 248.13009644 C134.96035357 248.15059382 139.21023498 248.15969851 143.46012878 248.16976929 C151.7915734 248.19118734 160.12290388 248.22530138 168.45426941 248.26742554 C168.36042296 243.80132622 168.25426125 239.33573721 168.1368866 234.87020874 C168.09870237 233.35238575 168.06383133 231.83447553 168.03239441 230.3164978 C167.98651313 228.12925123 167.92855912 225.94259972 167.86833191 223.75570679 C167.82120056 221.78404541 167.82120056 221.78404541 167.77311707 219.77255249 C167.46740092 216.4117817 167.17955181 214.15981074 165.45426941 211.26742554 C161.7984382 209.15743472 158.45058379 209.00029901 154.28703308 208.94857788 C153.06614487 208.92870819 151.84525665 208.9088385 150.58737183 208.8883667 C149.27887772 208.87681549 147.97038361 208.86526428 146.62223816 208.85336304 C145.26173747 208.83464006 143.90124824 208.81506581 142.54077148 208.79467773 C138.97180462 208.74346951 135.40280015 208.70378366 131.83366394 208.66653442 C128.18692306 208.62642352 124.54033707 208.57536362 120.89372253 208.52523804 C113.74735173 208.42861293 106.60088366 208.34416552 99.45426941 208.26742554 C99.25897644 209.41211304 99.25897644 209.41211304 99.05973816 210.57992554 C97.88360152 215.80045462 94.52534607 219.84261398 90.34098816 223.09945679 C83.36261359 227.41940295 75.59401994 229.48212677 67.45426941 228.26742554 C59.74131859 226.44181113 53.72646689 223.23741386 48.45426941 217.26742554 C46.38365969 213.90268475 45.45426941 212.19533869 45.45426941 208.26742554 C37.58704592 208.35190339 29.7200231 208.44681548 21.85309315 208.55495262 C18.19992666 208.60484242 14.54678807 208.65117282 10.89347839 208.68930054 C7.36609115 208.72624618 3.83894146 208.77263075 0.31175804 208.82548904 C-1.68502656 208.85296845 -3.68193714 208.87073837 -5.67883301 208.8883667 C-7.51016533 208.91817123 -7.51016533 208.91817123 -9.37849426 208.94857788 C-10.98732735 208.96856339 -10.98732735 208.96856339 -12.62866211 208.98895264 C-15.73483922 209.28547847 -17.8388114 209.70510652 -20.54573059 211.26742554 C-22.91192929 215.23428807 -22.85130537 219.2173037 -22.95979309 223.75570679 C-22.97915924 224.45890549 -22.99852539 225.16210419 -23.01847839 225.88661194 C-23.07793242 228.11759572 -23.12452108 230.34863208 -23.17073059 232.57992554 C-23.20894196 234.0988274 -23.24799551 235.61770832 -23.28791809 237.13656616 C-23.38360476 240.84666021 -23.46776131 244.55691205 -23.54573059 248.26742554 C-22.67400208 248.25854309 -21.80227356 248.24966064 -20.90412903 248.24050903 C-12.66563484 248.16016816 -4.42727332 248.09936234 3.81152344 248.06017685 C8.04661348 248.03935344 12.28137825 248.01113275 16.51628113 247.96566772 C20.60766267 247.9220213 24.69873248 247.89824901 28.79032898 247.88791656 C30.34677534 247.88055873 31.90320576 247.86619078 33.45951843 247.84450531 C42.92954773 247.71786838 50.24793913 247.70508384 57.69645691 254.23226929 C58.23528503 254.88324585 58.77411316 255.53422241 59.32926941 256.20492554 C59.88356628 256.85332397 60.43786316 257.50172241 61.00895691 258.16976929 C64.63423871 263.43132693 64.75140301 268.15310937 64.74479675 274.33700562 C64.75151398 275.24172104 64.7582312 276.14643646 64.76515198 277.0785675 C64.78412494 280.06475339 64.78805593 283.0507144 64.79020691 286.03695679 C64.79663568 288.11814974 64.8033641 290.19934178 64.81037903 292.28053284 C64.8223503 296.64247736 64.82606004 301.0043427 64.82487488 305.36630249 C64.82467178 310.94481226 64.85196512 316.52281206 64.8864193 322.10120106 C64.9087012 326.40015476 64.91271201 330.69898603 64.91165543 334.99799156 C64.91400977 337.05401045 64.92282387 339.1100328 64.93832016 341.16599464 C64.95800448 344.04757595 64.9521322 346.9280614 64.94010925 349.80966187 C64.95134827 350.65201385 64.96258728 351.49436584 64.97416687 352.36224365 C64.90237496 359.16321258 62.99524756 364.36778049 58.48942566 369.50961304 C57.8384491 370.04844116 57.18747253 370.58726929 56.51676941 371.14242554 C55.86837097 371.69672241 55.21997253 372.25101929 54.55192566 372.82211304 C50.70005991 375.47609875 47.22892158 376.51958 42.57218933 376.49447632 C41.63159164 376.49432526 40.69099396 376.49417419 39.72189331 376.49401855 C38.71963211 376.48369598 37.71737091 376.47337341 36.68473816 376.46273804 C35.1305291 376.45849319 35.1305291 376.45849319 33.54492188 376.4541626 C30.24375234 376.44299007 26.9428566 376.41789059 23.64176941 376.39242554 C21.40023688 376.38239196 19.15870008 376.37326677 16.91716003 376.36508179 C11.42943681 376.34306032 5.94187267 376.30961175 0.45426941 376.26742554 C0.45426941 378.90742554 0.45426941 381.54742554 0.45426941 384.26742554 C1.03918152 384.24647827 1.62409363 384.22553101 2.22673035 384.20394897 C4.88573406 384.12062438 7.54446296 384.06871657 10.20426941 384.01742554 C11.12466003 383.98390991 12.04505066 383.95039429 12.99333191 383.91586304 C19.78914745 383.81737296 19.78914745 383.81737296 23.06364441 386.03305054 C24.51403445 388.36345251 24.99672486 389.55027688 24.95426941 392.26742554 C24.96458191 392.92742554 24.97489441 393.58742554 24.98551941 394.26742554 C24.16320563 397.36319505 23.05152445 398.35317507 20.45426941 400.26742554 C17.14803152 400.87815309 13.87089414 400.81353672 10.51676941 400.78500366 C9.003974 400.79551758 9.003974 400.79551758 7.46061707 400.8062439 C4.12488826 400.82385772 0.79000693 400.81218864 -2.54573059 400.79867554 C-4.8621385 400.80136946 -7.17854531 400.80525105 -9.49494934 400.81027222 C-14.35052757 400.81617188 -19.20581155 400.80758892 -24.06135559 400.78890991 C-30.28937705 400.7661205 -36.51670905 400.77924102 -42.7447052 400.80319977 C-47.52820544 400.81764486 -52.31154186 400.81305759 -57.095047 400.8026886 C-59.3915973 400.80001777 -61.68816242 400.80330354 -63.98469543 400.81260681 C-67.19294199 400.82275081 -70.40006765 400.80730037 -73.60823059 400.78500366 C-74.56004211 400.79310059 -75.51185364 400.80119751 -76.49250793 400.80953979 C-82.92268068 400.72663095 -82.92268068 400.72663095 -86.13362122 398.3600769 C-87.65885474 396.09978313 -88.08794832 394.96936033 -88.04573059 392.26742554 C-88.05604309 391.60742554 -88.06635559 390.94742554 -88.07698059 390.26742554 C-87.23943106 387.11429788 -86.2709786 386.11145563 -83.54573059 384.26742554 C-80.11604333 383.77790457 -76.75103984 383.89160195 -73.29573059 384.01742554 C-72.35987122 384.03547241 -71.42401184 384.05351929 -70.45979309 384.07211304 C-68.15406044 384.11916881 -65.85042114 384.18488841 -63.54573059 384.26742554 C-63.54573059 381.62742554 -63.54573059 378.98742554 -63.54573059 376.26742554 C-64.11678528 376.27630798 -64.68783997 376.28519043 -65.27619934 376.29434204 C-71.24631186 376.38317594 -77.21623509 376.44330859 -83.18684387 376.4871521 C-85.41185641 376.507206 -87.63681666 376.53445618 -89.86164856 376.56918335 C-93.06897424 376.61797488 -96.2756001 376.64045715 -99.48323059 376.65805054 C-100.47000793 376.67869568 -101.45678528 376.69934082 -102.47346497 376.72061157 C-109.85037465 376.72298164 -115.18875994 375.20916115 -120.78791809 370.30258179 C-121.32674622 369.65160522 -121.86557434 369.00062866 -122.42073059 368.32992554 C-122.97502747 367.6815271 -123.52932434 367.03312866 -124.10041809 366.36508179 C-127.72569989 361.10352414 -127.84286419 356.38174171 -127.83625793 350.19784546 C-127.84297516 349.29313004 -127.84969238 348.38841461 -127.85661316 347.45628357 C-127.87558612 344.47009768 -127.87951711 341.48413667 -127.88166809 338.49789429 C-127.88809686 336.41670134 -127.89482528 334.33550929 -127.90184021 332.25431824 C-127.91381148 327.89237371 -127.91752122 323.53050838 -127.91633606 319.16854858 C-127.91613296 313.59003881 -127.94342631 308.01203901 -127.97788048 302.43365002 C-128.00016238 298.13469631 -128.00417319 293.83586504 -128.00311661 289.53685951 C-128.00547095 287.48084062 -128.01428505 285.42481827 -128.02978134 283.36885643 C-128.04946566 280.48727513 -128.04359338 277.60678968 -128.03157043 274.72518921 C-128.04280945 273.88283722 -128.05404846 273.04048523 -128.06562805 272.17260742 C-127.99383614 265.37163849 -126.08670874 260.16707059 -121.58088684 255.02523804 C-120.92991028 254.48640991 -120.27893372 253.94758179 -119.60823059 253.39242554 C-118.95983215 252.83812866 -118.31143372 252.28383179 -117.64338684 251.71273804 C-112.99617563 248.51074893 -109.05208345 248.02051132 -103.46052551 248.04037476 C-102.76729187 248.0400827 -102.07405823 248.03979065 -101.3598175 248.03948975 C-99.08181485 248.04087657 -96.80414444 248.05640687 -94.52619934 248.07211304 C-92.94150979 248.07584548 -91.35681793 248.07869136 -89.77212524 248.08068848 C-85.61118646 248.08830676 -81.45038838 248.10793966 -77.289505 248.13009644 C-73.03964643 248.15059382 -68.78976502 248.15969851 -64.53987122 248.16976929 C-56.2084266 248.19118734 -47.87709612 248.22530138 -39.54573059 248.26742554 C-39.57715149 246.55812866 -39.57715149 246.55812866 -39.60920715 244.81430054 C-39.68199673 240.55775685 -39.72767101 236.3012674 -39.76545715 232.04428101 C-39.78548432 230.2072726 -39.81271441 228.37032724 -39.8474884 226.53353882 C-39.89640124 223.88217552 -39.91878822 221.23166013 -39.93635559 218.57992554 C-39.95700073 217.76813843 -39.97764587 216.95635132 -39.99891663 216.1199646 C-40.00154805 209.3245776 -38.07834053 204.15752118 -33.58088684 199.02523804 C-32.92991028 198.48640991 -32.27893372 197.94758179 -31.60823059 197.39242554 C-30.63563293 196.56098022 -30.63563293 196.56098022 -29.64338684 195.71273804 C-25.088437 192.57431822 -21.21695123 192.02003696 -15.73591614 192.04037476 C-15.07194321 192.0400827 -14.40797028 192.03979065 -13.72387695 192.03948975 C-11.54326516 192.04087594 -9.36300097 192.05640315 -7.18244934 192.07211304 C-5.66502062 192.0758457 -4.14758947 192.07869148 -2.63015747 192.08068848 C1.353233 192.08830499 5.33647638 192.10793631 9.31980896 192.13009644 C13.38869741 192.15059768 17.45760976 192.15969933 21.52653503 192.16976929 C29.5025138 192.19118419 37.47837328 192.22529605 45.45426941 192.26742554 C45.64956238 191.12273804 45.64956238 191.12273804 45.84880066 189.95492554 C47.24060557 183.77710759 51.48153286 179.87509715 56.45426941 176.26742554 C58.76426941 175.27742554 61.07426941 174.28742554 63.45426941 173.26742554 C63.78426941 166.33742554 64.11426941 159.40742554 64.45426941 152.26742554 C61.32442566 152.31383179 58.19458191 152.36023804 54.96989441 152.40805054 C51.93833539 152.43924612 48.90679425 152.46353394 45.87516785 152.4871521 C43.76831559 152.5072668 41.66151916 152.53456221 39.55485535 152.56918335 C36.52639494 152.61770722 33.49867263 152.6403957 30.46989441 152.65805054 C29.05719269 152.68901825 29.05719269 152.68901825 27.61595154 152.72061157 C21.07594866 152.72285535 21.07594866 152.72285535 17.86149597 150.36801147 C16.34473801 148.10392654 15.91207434 146.96790991 15.95426941 144.26742554 C15.93880066 143.27742554 15.93880066 143.27742554 15.92301941 142.26742554 C16.76056894 139.11429788 17.7290214 138.11145563 20.45426941 136.26742554 C23.88395667 135.77790457 27.24896016 135.89160195 30.70426941 136.01742554 C31.64012878 136.03547241 32.57598816 136.05351929 33.54020691 136.07211304 C35.84593956 136.11916881 38.14957886 136.18488841 40.45426941 136.26742554 C40.45426941 133.62742554 40.45426941 130.98742554 40.45426941 128.26742554 C39.88321472 128.27630798 39.31216003 128.28519043 38.72380066 128.29434204 C32.75368814 128.38317594 26.78376491 128.44330859 20.81315613 128.4871521 C18.58814359 128.507206 16.36318334 128.53445618 14.13835144 128.56918335 C10.93102576 128.61797488 7.7243999 128.64045715 4.51676941 128.65805054 C3.52999207 128.67869568 2.54321472 128.69934082 1.52653503 128.72061157 C-5.85037465 128.72298164 -11.18875994 127.20916115 -16.78791809 122.30258179 C-17.32674622 121.65160522 -17.86557434 121.00062866 -18.42073059 120.32992554 C-18.97502747 119.6815271 -19.52932434 119.03312866 -20.10041809 118.36508179 C-23.72569989 113.10352414 -23.84286419 108.38174171 -23.83625793 102.19784546 C-23.84297516 101.29313004 -23.84969238 100.38841461 -23.85661316 99.45628357 C-23.87558612 96.47009768 -23.87951711 93.48413667 -23.88166809 90.49789429 C-23.88809686 88.41670134 -23.89482528 86.33550929 -23.90184021 84.25431824 C-23.91381148 79.89237371 -23.91752122 75.53050838 -23.91633606 71.16854858 C-23.91613296 65.59003881 -23.94342631 60.01203901 -23.97788048 54.43365002 C-24.00016238 50.13469631 -24.00417319 45.83586504 -24.00311661 41.53685951 C-24.00547095 39.48084062 -24.01428505 37.42481827 -24.02978134 35.36885643 C-24.04946566 32.48727513 -24.04359338 29.60678968 -24.03157043 26.72518921 C-24.04280945 25.88283722 -24.05404846 25.04048523 -24.06562805 24.17260742 C-23.99383614 17.37163849 -22.08670874 12.16707059 -17.58088684 7.02523804 C-16.92991028 6.48640991 -16.27893372 5.94758179 -15.60823059 5.39242554 C-14.95983215 4.83812866 -14.31143372 4.28383179 -13.64338684 3.71273804 C-9.18858757 0.64332327 -5.36031972 0.01562072 0 0 Z M-5.54573059 19.26742554 C-8.01136561 23.26048137 -7.83608615 27.51737931 -7.82038879 32.08358765 C-7.82549973 32.85496567 -7.83061066 33.62634369 -7.83587646 34.4210968 C-7.84973801 36.96240063 -7.84881835 39.50343222 -7.84651184 42.04476929 C-7.85040056 43.81687012 -7.8547356 45.58897002 -7.85949707 47.36106873 C-7.86695181 51.07231673 -7.86667334 54.78346959 -7.86140442 58.49472046 C-7.85560973 63.2438264 -7.87254432 67.99254235 -7.89574909 72.74158382 C-7.91050098 76.40051031 -7.91135617 80.05934318 -7.90823936 83.71829414 C-7.90875181 85.46893651 -7.91397514 87.21958423 -7.92405128 88.97019768 C-7.93642721 91.42101055 -7.92961755 93.87106757 -7.91804504 96.3218689 C-7.92568878 97.0405011 -7.93333252 97.7591333 -7.94120789 98.49954224 C-7.89292831 103.13975409 -7.16907905 106.41369244 -4.54573059 110.26742554 C-0.80475931 112.18884923 2.31096049 112.5199633 6.48196411 112.52812195 C7.69180466 112.53520676 8.9016452 112.54229156 10.14814758 112.54959106 C12.12680313 112.54587494 12.12680313 112.54587494 14.14543152 112.54208374 C15.55513783 112.54643315 16.96484179 112.55161706 18.37454224 112.55757141 C22.19686787 112.57094783 26.01909454 112.57154162 29.84143901 112.56900811 C33.03477922 112.56793752 36.22809948 112.57282401 39.42143542 112.57761353 C46.95607694 112.58870393 54.4906686 112.5891487 62.02531433 112.58309937 C69.79327908 112.57705853 77.56106274 112.58937437 85.3289966 112.61066943 C92.00345766 112.62829275 98.67786111 112.63428566 105.35234457 112.63103169 C109.33644731 112.62921992 113.32042086 112.63184445 117.30450249 112.64574623 C121.05152456 112.65833197 124.79826457 112.65637361 128.54528236 112.64333534 C130.57181663 112.63984655 132.59835953 112.65114192 134.62486267 112.66290283 C135.83752304 112.65588852 137.05018341 112.64887421 138.29959106 112.64164734 C139.87441206 112.64189895 139.87441206 112.64189895 141.48104763 112.64215565 C145.00867099 112.19755151 147.41383199 111.08485276 150.45426941 109.26742554 C152.91990443 105.27436971 152.74462497 101.01747176 152.72892761 96.45126343 C152.73403854 95.67988541 152.73914948 94.90850739 152.74441528 94.11375427 C152.75827683 91.57245044 152.75735717 89.03141885 152.75505066 86.49008179 C152.75893938 84.71798095 152.76327442 82.94588105 152.76803589 81.17378235 C152.77549063 77.46253434 152.77521216 73.75138149 152.76994324 70.04013062 C152.76414855 65.29102467 152.78108314 60.54230872 152.80428791 55.79326725 C152.8190398 52.13434076 152.81989499 48.47550789 152.81677818 44.81655693 C152.81729063 43.06591456 152.82251396 41.31526684 152.8325901 39.5646534 C152.84496603 37.11384053 152.83815637 34.6637835 152.82658386 32.21298218 C152.8342276 31.49434998 152.84187134 30.77571777 152.8497467 30.03530884 C152.80146712 25.39509699 152.07761787 22.12115863 149.45426941 18.26742554 C145.71329813 16.34600185 142.59757833 16.01488777 138.42657471 16.00672913 C136.61181389 15.99610191 136.61181389 15.99610191 134.76039124 15.98526001 C132.78173569 15.98897614 132.78173569 15.98897614 130.7631073 15.99276733 C129.35340098 15.98841793 127.94369703 15.98323401 126.53399658 15.97727966 C122.71167095 15.96390324 118.88944428 15.96330945 115.06709981 15.96584296 C111.8737596 15.96691355 108.68043934 15.96202707 105.4871034 15.95723754 C97.95246188 15.94614714 90.41787022 15.94570238 82.88322449 15.95175171 C75.11525974 15.95779254 67.34747607 15.94547671 59.57954222 15.92418164 C52.90508116 15.90655833 46.23067771 15.90056541 39.55619425 15.90381938 C35.57209151 15.90563116 31.58811796 15.90300663 27.60403633 15.88910484 C23.85701426 15.87651911 20.11027425 15.87847747 16.36325645 15.89151573 C14.33672219 15.89500453 12.31017929 15.88370916 10.28367615 15.87194824 C9.07101578 15.87896255 7.85835541 15.88597687 6.60894775 15.89320374 C5.03412675 15.89295212 5.03412675 15.89295212 3.42749119 15.89269543 C-0.10013217 16.33729956 -2.50529317 17.44999831 -5.54573059 19.26742554 Z M56.45426941 128.26742554 C56.45426941 130.90742554 56.45426941 133.54742554 56.45426941 136.26742554 C67.01426941 136.26742554 77.57426941 136.26742554 88.45426941 136.26742554 C88.45426941 133.62742554 88.45426941 130.98742554 88.45426941 128.26742554 C77.89426941 128.26742554 67.33426941 128.26742554 56.45426941 128.26742554 Z M63.45426941 192.26742554 C60.61792505 196.52194208 60.70590148 200.27565225 61.45426941 205.26742554 C63.48382724 208.4754363 64.92013162 209.81902865 68.57926941 210.88851929 C73.68586092 211.72524121 77.06895265 211.26227601 81.45426941 208.26742554 C84.29061377 204.01290899 84.20263733 200.25919883 83.45426941 195.26742554 C81.42471158 192.05941477 79.9884072 190.71582243 76.32926941 189.64633179 C71.2226779 188.80960987 67.83958617 189.27257507 63.45426941 192.26742554 Z M-109.54573059 267.26742554 C-112.01136561 271.26048137 -111.83608615 275.51737931 -111.82038879 280.08358765 C-111.82549973 280.85496567 -111.83061066 281.62634369 -111.83587646 282.4210968 C-111.84973801 284.96240063 -111.84881835 287.50343222 -111.84651184 290.04476929 C-111.85040056 291.81687012 -111.8547356 293.58897002 -111.85949707 295.36106873 C-111.86695181 299.07231673 -111.86667334 302.78346959 -111.86140442 306.49472046 C-111.85560973 311.2438264 -111.87254432 315.99254235 -111.89574909 320.74158382 C-111.91050098 324.40051031 -111.91135617 328.05934318 -111.90823936 331.71829414 C-111.90875181 333.46893651 -111.91397514 335.21958423 -111.92405128 336.97019768 C-111.93642721 339.42101055 -111.92961755 341.87106757 -111.91804504 344.3218689 C-111.92568878 345.0405011 -111.93333252 345.7591333 -111.94120789 346.49954224 C-111.89292831 351.13975409 -111.16907905 354.41369244 -108.54573059 358.26742554 C-104.80475931 360.18884923 -101.68903951 360.5199633 -97.51803589 360.52812195 C-96.30819534 360.53520676 -95.0983548 360.54229156 -93.85185242 360.54959106 C-91.87319687 360.54587494 -91.87319687 360.54587494 -89.85456848 360.54208374 C-88.44486217 360.54643315 -87.03515821 360.55161706 -85.62545776 360.55757141 C-81.80313213 360.57094783 -77.98090546 360.57154162 -74.15856099 360.56900811 C-70.96522078 360.56793752 -67.77190052 360.57282401 -64.57856458 360.57761353 C-57.04392306 360.58870393 -49.5093314 360.5891487 -41.97468567 360.58309937 C-34.20672092 360.57705853 -26.43893726 360.58937437 -18.6710034 360.61066943 C-11.99654234 360.62829275 -5.32213889 360.63428566 1.35234457 360.63103169 C5.33644731 360.62921992 9.32042086 360.63184445 13.30450249 360.64574623 C17.05152456 360.65833197 20.79826457 360.65637361 24.54528236 360.64333534 C26.57181663 360.63984655 28.59835953 360.65114192 30.62486267 360.66290283 C31.83752304 360.65588852 33.05018341 360.64887421 34.29959106 360.64164734 C35.87441206 360.64189895 35.87441206 360.64189895 37.48104763 360.64215565 C41.00867099 360.19755151 43.41383199 359.08485276 46.45426941 357.26742554 C48.91990443 353.27436971 48.74462497 349.01747176 48.72892761 344.45126343 C48.73403854 343.67988541 48.73914948 342.90850739 48.74441528 342.11375427 C48.75827683 339.57245044 48.75735717 337.03141885 48.75505066 334.49008179 C48.75893938 332.71798095 48.76327442 330.94588105 48.76803589 329.17378235 C48.77549063 325.46253434 48.77521216 321.75138149 48.76994324 318.04013062 C48.76414855 313.29102467 48.78108314 308.54230872 48.80428791 303.79326725 C48.8190398 300.13434076 48.81989499 296.47550789 48.81677818 292.81655693 C48.81729063 291.06591456 48.82251396 289.31526684 48.8325901 287.5646534 C48.84496603 285.11384053 48.83815637 282.6637835 48.82658386 280.21298218 C48.8342276 279.49434998 48.84187134 278.77571777 48.8497467 278.03530884 C48.80146712 273.39509699 48.07761787 270.12115863 45.45426941 266.26742554 C41.71329813 264.34600185 38.59757833 264.01488777 34.42657471 264.00672913 C32.61181389 263.99610191 32.61181389 263.99610191 30.76039124 263.98526001 C28.78173569 263.98897614 28.78173569 263.98897614 26.7631073 263.99276733 C25.35340098 263.98841793 23.94369703 263.98323401 22.53399658 263.97727966 C18.71167095 263.96390324 14.88944428 263.96330945 11.06709981 263.96584296 C7.8737596 263.96691355 4.68043934 263.96202707 1.4871034 263.95723754 C-6.04753812 263.94614714 -13.58212978 263.94570238 -21.11677551 263.95175171 C-28.88474026 263.95779254 -36.65252393 263.94547671 -44.42045778 263.92418164 C-51.09491884 263.90655833 -57.76932229 263.90056541 -64.44380575 263.90381938 C-68.42790849 263.90563116 -72.41188204 263.90300663 -76.39596367 263.88910484 C-80.14298574 263.87651911 -83.88972575 263.87847747 -87.63674355 263.89151573 C-89.66327781 263.89500453 -91.68982071 263.88370916 -93.71632385 263.87194824 C-94.92898422 263.87896255 -96.14164459 263.88597687 -97.39105225 263.89320374 C-98.96587325 263.89295212 -98.96587325 263.89295212 -100.57250881 263.89269543 C-104.10013217 264.33729956 -106.50529317 265.44999831 -109.54573059 267.26742554 Z M98.45426941 267.26742554 C95.98863439 271.26048137 96.16391385 275.51737931 96.17961121 280.08358765 C96.17450027 280.85496567 96.16938934 281.62634369 96.16412354 282.4210968 C96.15026199 284.96240063 96.15118165 287.50343222 96.15348816 290.04476929 C96.14959944 291.81687012 96.1452644 293.58897002 96.14050293 295.36106873 C96.13304819 299.07231673 96.13332666 302.78346959 96.13859558 306.49472046 C96.14439027 311.2438264 96.12745568 315.99254235 96.10425091 320.74158382 C96.08949902 324.40051031 96.08864383 328.05934318 96.09176064 331.71829414 C96.09124819 333.46893651 96.08602486 335.21958423 96.07594872 336.97019768 C96.06357279 339.42101055 96.07038245 341.87106757 96.08195496 344.3218689 C96.07431122 345.0405011 96.06666748 345.7591333 96.05879211 346.49954224 C96.10707169 351.13975409 96.83092095 354.41369244 99.45426941 358.26742554 C103.19524069 360.18884923 106.31096049 360.5199633 110.48196411 360.52812195 C111.69180466 360.53520676 112.9016452 360.54229156 114.14814758 360.54959106 C116.12680313 360.54587494 116.12680313 360.54587494 118.14543152 360.54208374 C119.55513783 360.54643315 120.96484179 360.55161706 122.37454224 360.55757141 C126.19686787 360.57094783 130.01909454 360.57154162 133.84143901 360.56900811 C137.03477922 360.56793752 140.22809948 360.57282401 143.42143542 360.57761353 C150.95607694 360.58870393 158.4906686 360.5891487 166.02531433 360.58309937 C173.79327908 360.57705853 181.56106274 360.58937437 189.3289966 360.61066943 C196.00345766 360.62829275 202.67786111 360.63428566 209.35234457 360.63103169 C213.33644731 360.62921992 217.32042086 360.63184445 221.30450249 360.64574623 C225.05152456 360.65833197 228.79826457 360.65637361 232.54528236 360.64333534 C234.57181663 360.63984655 236.59835953 360.65114192 238.62486267 360.66290283 C239.83752304 360.65588852 241.05018341 360.64887421 242.29959106 360.64164734 C243.87441206 360.64189895 243.87441206 360.64189895 245.48104763 360.64215565 C249.00867099 360.19755151 251.41383199 359.08485276 254.45426941 357.26742554 C256.91990443 353.27436971 256.74462497 349.01747176 256.72892761 344.45126343 C256.73403854 343.67988541 256.73914948 342.90850739 256.74441528 342.11375427 C256.75827683 339.57245044 256.75735717 337.03141885 256.75505066 334.49008179 C256.75893938 332.71798095 256.76327442 330.94588105 256.76803589 329.17378235 C256.77549063 325.46253434 256.77521216 321.75138149 256.76994324 318.04013062 C256.76414855 313.29102467 256.78108314 308.54230872 256.80428791 303.79326725 C256.8190398 300.13434076 256.81989499 296.47550789 256.81677818 292.81655693 C256.81729063 291.06591456 256.82251396 289.31526684 256.8325901 287.5646534 C256.84496603 285.11384053 256.83815637 282.6637835 256.82658386 280.21298218 C256.8342276 279.49434998 256.84187134 278.77571777 256.8497467 278.03530884 C256.80146712 273.39509699 256.07761787 270.12115863 253.45426941 266.26742554 C249.71329813 264.34600185 246.59757833 264.01488777 242.42657471 264.00672913 C240.61181389 263.99610191 240.61181389 263.99610191 238.76039124 263.98526001 C236.78173569 263.98897614 236.78173569 263.98897614 234.7631073 263.99276733 C233.35340098 263.98841793 231.94369703 263.98323401 230.53399658 263.97727966 C226.71167095 263.96390324 222.88944428 263.96330945 219.06709981 263.96584296 C215.8737596 263.96691355 212.68043934 263.96202707 209.4871034 263.95723754 C201.95246188 263.94614714 194.41787022 263.94570238 186.88322449 263.95175171 C179.11525974 263.95779254 171.34747607 263.94547671 163.57954222 263.92418164 C156.90508116 263.90655833 150.23067771 263.90056541 143.55619425 263.90381938 C139.57209151 263.90563116 135.58811796 263.90300663 131.60403633 263.88910484 C127.85701426 263.87651911 124.11027425 263.87847747 120.36325645 263.89151573 C118.33672219 263.89500453 116.31017929 263.88370916 114.28367615 263.87194824 C113.07101578 263.87896255 111.85835541 263.88597687 110.60894775 263.89320374 C109.03412675 263.89295212 109.03412675 263.89295212 107.42749119 263.89269543 C103.89986783 264.33729956 101.49470683 265.44999831 98.45426941 267.26742554 Z M-47.54573059 376.26742554 C-47.54573059 378.90742554 -47.54573059 381.54742554 -47.54573059 384.26742554 C-36.98573059 384.26742554 -26.42573059 384.26742554 -15.54573059 384.26742554 C-15.54573059 381.62742554 -15.54573059 378.98742554 -15.54573059 376.26742554 C-26.10573059 376.26742554 -36.66573059 376.26742554 -47.54573059 376.26742554 Z M160.45426941 376.26742554 C160.45426941 378.90742554 160.45426941 381.54742554 160.45426941 384.26742554 C171.01426941 384.26742554 181.57426941 384.26742554 192.45426941 384.26742554 C192.45426941 381.62742554 192.45426941 378.98742554 192.45426941 376.26742554 C181.89426941 376.26742554 171.33426941 376.26742554 160.45426941 376.26742554 Z " fill="#B7860A" transform="translate(183.5457305908203,55.732574462890625)"/>
</svg>
