<?xml version="1.0" encoding="UTF-8"?>
<svg version="1.1" xmlns="http://www.w3.org/2000/svg" width="512" height="512">
<path d="M0 0 C1.92302277 -0.00807831 1.92302277 -0.00807831 3.88489449 -0.01631981 C7.4276813 -0.03073618 10.97023472 -0.02654173 14.51303411 -0.019153 C18.34000009 -0.01441412 22.16691611 -0.02693756 25.99386597 -0.03717041 C33.4852342 -0.05434992 40.97651852 -0.05520015 48.46790133 -0.04995751 C54.5584041 -0.04591284 60.64888211 -0.04736289 66.7393837 -0.05270576 C67.60687598 -0.05345419 68.47436826 -0.05420261 69.36814819 -0.05497371 C71.13057661 -0.05650522 72.89300502 -0.05804357 74.65543343 -0.05958868 C91.17631538 -0.07331076 107.69714996 -0.06787818 124.21803083 -0.05640347 C139.32308604 -0.04647234 154.42801874 -0.05941018 169.53305505 -0.08333766 C185.05295967 -0.10773657 200.57280724 -0.11733452 216.09273064 -0.11068493 C224.80195753 -0.10719435 233.51109022 -0.10941409 242.22030258 -0.12693596 C249.63459196 -0.14166788 257.04872081 -0.14228052 264.46300708 -0.12486505 C268.24354953 -0.1163606 272.02380533 -0.11419162 275.80433273 -0.1295166 C279.90819827 -0.14594589 284.01137408 -0.13119854 288.11523438 -0.11352539 C289.89599296 -0.1279329 289.89599296 -0.1279329 291.71272647 -0.14263147 C299.473754 -0.07393422 307.13070598 0.73296472 313.12573612 6.13767534 C317.27836598 10.63298683 319.43146916 15.1338796 319.44186974 21.32220173 C319.44831863 22.29560735 319.45476752 23.26901297 319.46141183 24.27191573 C319.45676603 25.86440943 319.45676603 25.86440943 319.45202637 27.48907471 C319.45655748 28.62292986 319.46108859 29.75678501 319.46575701 30.92499942 C319.47843936 34.73266916 319.47677815 38.54019657 319.47512817 42.34788513 C319.48002341 45.07452943 319.48785922 47.80116367 319.4954834 50.52780151 C319.51209166 57.17065495 319.51759287 63.81347289 319.51870815 70.45634536 C319.51965873 75.8566207 319.52376952 81.25688435 319.53010941 86.65715599 C319.54772152 101.97092878 319.55694835 117.28467355 319.55544846 132.59845654 C319.55536855 133.42391251 319.55528863 134.24936847 319.5552063 135.09983826 C319.55512454 135.92630317 319.55504278 136.75276809 319.55495854 137.60427739 C319.5541457 150.99724615 319.5732829 164.39010243 319.60148303 177.78303865 C319.63021617 191.53775454 319.64402308 205.29241558 319.64229548 219.04716223 C319.64163171 226.76822293 319.64711802 234.48916571 319.66865158 242.21019936 C319.68686909 248.78433091 319.69120614 255.35829111 319.67763273 261.93243698 C319.67110564 265.28547378 319.67315205 268.6379138 319.68833923 271.99096298 C319.70375174 275.62938094 319.69450857 279.26693539 319.67907715 282.90533447 C319.68936427 283.96030477 319.6996514 285.01527506 319.71025026 286.10221416 C319.63578873 294.04601167 318.04285834 299.46446214 312.43460083 305.20018005 C304.53508177 310.51716403 297.65519144 310.82219431 288.36920166 310.77536011 C286.44617889 310.78343841 286.44617889 310.78343841 284.48430717 310.79167992 C280.94152036 310.80609629 277.39896694 310.80190184 273.85616755 310.79451311 C270.02920157 310.78977423 266.20228555 310.80229766 262.37533569 310.81253052 C254.88396746 310.82971003 247.39268314 310.83056026 239.90130033 310.82531761 C233.81079756 310.82127295 227.72031955 310.822723 221.62981796 310.82806587 C220.76232568 310.82881429 219.8948334 310.82956272 219.00105347 310.83033382 C217.23862505 310.83186533 215.47619664 310.83340368 213.71376823 310.83494879 C197.19288628 310.84867087 180.6720517 310.84323829 164.15117083 310.83176357 C149.04611562 310.82183245 133.94118292 310.83477029 118.83614661 310.85869776 C103.31624199 310.88309668 87.79639442 310.89269463 72.27647102 310.88604504 C63.56724413 310.88255446 54.85811144 310.8847742 46.14889908 310.90229607 C38.7346097 310.91702799 31.32048085 310.91764063 23.90619458 310.90022516 C20.12565213 310.89172071 16.34539633 310.88955173 12.56486893 310.90487671 C8.46100339 310.921306 4.35782758 310.90655865 0.25396729 310.8888855 C-0.93320511 310.8984905 -2.1203775 310.90809551 -3.34352481 310.91799158 C-11.0964999 310.8493656 -18.80390888 310.06471034 -24.75653446 304.60838789 C-28.65783336 300.30205167 -31.06180184 296.45933592 -31.07546139 290.54497147 C-31.08252698 289.5665901 -31.08959257 288.58820874 -31.09687227 287.58017945 C-31.09445719 286.50782225 -31.0920421 285.43546505 -31.08955383 284.33061218 C-31.09740885 282.61886043 -31.09740885 282.61886043 -31.10542256 280.87252784 C-31.12046981 277.03411902 -31.12112876 273.19584295 -31.12179565 269.35740662 C-31.12833159 266.61120464 -31.1377918 263.86501426 -31.14701843 261.11882019 C-31.16987091 253.64768438 -31.17778937 246.17657698 -31.18284488 238.70541096 C-31.18610176 234.03984212 -31.1926242 229.37428152 -31.19984627 224.70871735 C-31.21941289 211.78956493 -31.23581661 198.87042018 -31.2387228 185.95125198 C-31.23891037 185.12447381 -31.23909794 184.29769564 -31.23929119 183.44586359 C-31.23965744 181.76979812 -31.24002114 180.09373265 -31.24038231 178.41766718 C-31.24056512 177.58567182 -31.24074793 176.75367646 -31.24093628 175.89646912 C-31.24111683 175.06345747 -31.24129738 174.23044582 -31.2414834 173.3721914 C-31.24502472 159.87567134 -31.27204416 146.37931087 -31.30943417 132.88284615 C-31.34752009 119.02420025 -31.3668803 105.16563352 -31.36718231 91.30693412 C-31.36776684 83.52658225 -31.37625546 75.74642072 -31.40517998 67.96611786 C-31.42969779 61.34070194 -31.43697424 54.71554577 -31.42193245 48.09009674 C-31.41476462 44.71062689 -31.41833675 41.33208722 -31.43834305 37.9526062 C-31.45872871 34.2855161 -31.44829348 30.61975511 -31.43013 26.9526825 C-31.44332997 25.88924818 -31.45652994 24.82581387 -31.47012991 23.73015428 C-31.37895799 15.67270339 -29.18341248 10.75569337 -23.50289917 5.07518005 C-15.77317696 0.22163355 -8.92039892 -0.04499033 0 0 Z M134.26882935 44.0766449 C133.47790894 44.3442865 132.68698853 44.6119281 131.87210083 44.88768005 C130.65574951 45.29881042 130.65574951 45.29881042 129.41482544 45.71824646 C102.33497227 55.18964371 80.8989415 75.73408338 68.26907349 101.23631287 C66.26915891 105.52695475 64.63794385 109.88982433 63.18460083 114.38768005 C62.86918335 115.35786072 62.86918335 115.35786072 62.5473938 116.34764099 C54.27709 143.18192838 58.3095723 172.90036418 71.28665161 197.47459412 C84.73913837 221.73355074 107.47126213 241.16811634 134.32571411 249.01316833 C163.42119456 256.77746521 192.68145989 254.2902874 219.12600708 239.30174255 C227.74588558 233.907438 235.94978021 227.54942168 243.18460083 220.38768005 C243.18460083 220.05768005 243.18460083 219.72768005 243.18460083 219.38768005 C241.80292725 219.41124573 241.80292725 219.41124573 240.39334106 219.43528748 C236.89865224 219.48713356 233.40438561 219.52437164 229.90945435 219.55247498 C228.41134091 219.56734578 226.91326923 219.58764871 225.41531372 219.61399841 C196.02704643 220.11712081 168.74181475 209.48860947 147.43460083 189.13768005 C133.07414055 174.10242575 124.06425368 156.50646268 119.18460083 136.38768005 C118.93838989 135.40928162 118.69217896 134.43088318 118.43850708 133.4228363 C112.96346497 107.10487524 118.97640044 77.98385417 133.18460083 55.38768005 C136.03226911 51.26944162 139.06990825 47.30753126 142.18460083 43.38768005 C139.24474267 41.91775097 137.25426676 43.11674949 134.26882935 44.0766449 Z " fill="#B7860B" transform="translate(30.815399169921875,100.61231994628906)"/>
<path d="M0 0 C3.81498357 3.36341409 6.69731992 7.40008775 7.04286367 12.64107341 C7.04465224 13.3889628 7.04644081 14.13685219 7.04828358 14.9074049 C7.05274142 15.77232656 7.05719926 16.63724821 7.06179219 17.52837962 C7.06160783 18.47913931 7.06142347 19.42989901 7.06123352 20.4094696 C7.06491021 21.41910934 7.0685869 22.42874907 7.072375 23.46898395 C7.08342993 26.86824373 7.08725875 30.26747296 7.09106445 33.66674805 C7.09732773 36.09753009 7.1039744 38.52831116 7.11097717 40.95909119 C7.13021732 48.26531827 7.14080734 55.57154284 7.14970496 62.87778756 C7.15408885 66.31911304 7.15945542 69.76043698 7.16469383 73.20176125 C7.18170593 84.64282124 7.19619973 96.08388028 7.20344257 107.52495098 C7.20535244 110.49376616 7.20727278 113.46258133 7.20922852 116.43139648 C7.20971226 117.16927396 7.210196 117.90715144 7.2106944 118.66738883 C7.21899332 130.61844896 7.24432797 142.56940894 7.27680919 154.52042534 C7.30989084 166.79249563 7.32789235 179.06451505 7.33108681 191.33663017 C7.33325094 198.2260721 7.34198512 205.11536802 7.36754799 212.00476646 C7.39154295 218.48654898 7.39507369 224.9681401 7.38478661 231.44996071 C7.38429042 233.82835895 7.39063515 236.20676999 7.40434265 238.58512878 C7.42201847 241.83393891 7.41497579 245.08180156 7.40180969 248.33061218 C7.41277894 249.27021827 7.42374818 250.20982436 7.43504983 251.17790335 C7.36737759 258.10183883 5.80950749 263.53657457 1.0546875 268.7109375 C-5.77169206 273.59095264 -11.35192544 275.23090151 -19.69262695 274.18969727 C-23.7584397 273.33655264 -27.11643208 271.46442983 -30.7109375 269.4375 C-31.52449707 268.99422363 -32.33805664 268.55094727 -33.17626953 268.09423828 C-35.82349549 266.64369665 -38.45599163 265.16911918 -41.0859375 263.6875 C-41.96056641 263.19668945 -42.83519531 262.70587891 -43.73632812 262.20019531 C-47.44017132 260.11864084 -51.1396906 258.02974913 -54.83251953 255.92871094 C-63.81464644 250.81847105 -72.86000132 245.82666425 -81.92138672 240.85888672 C-93.36960639 234.56889216 -104.7105394 228.11707284 -116.0859375 221.6875 C-116.0859375 164.2675 -116.0859375 106.8475 -116.0859375 47.6875 C-75.5859375 25.1875 -75.5859375 25.1875 -68.890625 21.46875 C-64.81466079 19.20445675 -60.73957355 16.93860252 -56.66571045 14.67053223 C-54.25908099 13.33076578 -51.85208697 11.99165504 -49.44506836 10.65258789 C-47.78138624 9.72670651 -46.11822066 8.79989715 -44.45507812 7.87304688 C-41.33566297 6.13788431 -38.21105318 4.41237005 -35.0859375 2.6875 C-34.51500366 2.3682959 -33.94406982 2.0490918 -33.35583496 1.72021484 C-31.61048822 0.74473601 -29.85996137 -0.22145571 -28.109375 -1.1875 C-27.07474121 -1.76242188 -26.04010742 -2.33734375 -24.97412109 -2.9296875 C-16.22583762 -7.11821477 -7.65643537 -5.62734473 0 0 Z " fill="#B8860A" transform="translate(505.0859375,121.3125)"/>
</svg>
