<?xml version="1.0" encoding="UTF-8"?>
<svg version="1.1" xmlns="http://www.w3.org/2000/svg" width="512" height="512">
<path d="M0 0 C0.6927172 0.18474695 1.3854344 0.3694939 2.09914303 0.55983925 C4.4011963 1.17635111 6.69911714 1.80702379 8.99731445 2.43774414 C10.65661261 2.88515427 12.31615538 3.33165802 13.97592163 3.77732849 C17.55385099 4.74011979 21.12998857 5.70922154 24.7048645 6.68328857 C30.45720394 8.25065727 36.21319509 9.80431088 41.96972656 11.35620117 C50.10308015 13.55013713 58.23476658 15.75015317 66.36547852 17.95385742 C78.16936064 21.15235748 89.97883626 24.32980827 101.7902832 27.50024414 C103.69899545 28.01265278 105.6077072 28.52506326 107.51641846 29.03747559 C110.38159088 29.80663779 113.24676835 30.57578115 116.11196518 31.34485245 C126.77665822 34.20771286 137.43970877 37.07667466 148.1027832 39.94555664 C165.93241103 44.74228639 183.76319193 49.53471132 201.59475708 54.32423401 C211.37758276 56.95203895 221.15993939 59.58156623 230.94116211 62.21533203 C234.74241471 63.23875105 238.54368892 64.26208977 242.3449707 65.28540039 C243.27554165 65.53594618 244.20611259 65.78649197 245.16488266 66.04463005 C257.21785648 69.28913138 269.27570468 72.51466539 281.33891296 75.72090149 C287.46420658 77.34918432 293.5875426 78.98476762 299.7103014 80.62255383 C304.56117807 81.91950422 309.41441886 83.20703571 314.26974678 84.48721504 C317.21895802 85.26730293 320.16564057 86.05661258 323.11167145 86.84861755 C324.46129141 87.20942969 325.81194105 87.56641669 327.16368866 87.91917419 C335.18023426 90.01347027 341.25113988 91.68334163 347.0480957 97.78540039 C349.44709558 102.95247704 349.4226165 107.68331197 348.6730957 113.28540039 C345.16544306 120.721624 337.78766051 126.24054456 331.6418457 131.53540039 C329.1394915 133.75971523 326.81479966 136.13192205 324.4699707 138.51977539 C321.907297 141.03788086 319.1985314 143.37162744 316.4699707 145.70727539 C315.58051758 146.48844727 315.58051758 146.48844727 314.6730957 147.28540039 C314.18784424 147.65101074 313.70259277 148.01662109 313.20263672 148.39331055 C310.87615543 151.27124031 310.27746002 154.61289258 309.40356445 158.13696289 C308.98528158 159.72689532 308.56665037 161.31673613 308.14770508 162.90649414 C307.50353358 165.3996357 306.864753 167.89396214 306.23339844 170.39038086 C300.68417537 192.18392983 300.68417537 192.18392983 291.4855957 198.28540039 C283.39314898 202.8822932 274.67108434 201.98795938 265.8840332 199.78930664 C263.60102004 199.15775145 261.3223059 198.51045536 259.0480957 197.84790039 C257.87891602 197.52241211 256.70973633 197.19692383 255.50512695 196.86157227 C247.10414729 194.50092618 247.10414729 194.50092618 244.6730957 193.28540039 C244.50293945 194.16583008 244.3327832 195.04625977 244.1574707 195.95336914 C243.91512695 197.11481445 243.6727832 198.27625977 243.4230957 199.47290039 C243.19106445 200.62145508 242.9590332 201.77000977 242.7199707 202.95336914 C241.52063505 206.77065761 240.77948709 208.72407457 237.6730957 211.28540039 C231.14463638 212.13772718 224.97394055 210.94399392 218.71484375 209.1809082 C217.87858459 208.95634445 217.04232544 208.7317807 216.1807251 208.50041199 C213.42872698 207.75827341 210.68194206 206.99847579 207.93481445 206.23852539 C205.97213288 205.70563957 204.00913825 205.17390564 202.04585266 204.64324951 C196.86023569 203.23847286 191.67879773 201.81885914 186.49816895 200.39581299 C181.40051782 198.9978908 176.29941304 197.61271856 171.19848633 196.22680664 C170.1971422 195.9543084 169.19579807 195.68181015 168.16411018 195.40105438 C163.10892847 194.02539147 158.05280103 192.65338385 152.99484253 191.28796387 C143.65440041 188.76170226 134.32839123 186.20344195 125.03827572 183.49705887 C120.88105821 182.290375 116.71627577 181.11129081 112.55014992 179.93578339 C110.57822225 179.37147724 108.61000533 178.79402158 106.6459713 178.20282745 C103.93526589 177.38789514 101.21524138 176.61884917 98.48876953 175.85864258 C97.29852267 175.48161068 97.29852267 175.48161068 96.08423042 175.09696198 C92.98512788 174.27159981 90.8022603 173.69471941 87.88039207 175.22318745 C85.98622084 176.79485244 84.34724404 178.48119094 82.6730957 180.28540039 C81.29626435 181.63449147 79.9176566 182.98177121 78.53759766 184.32756042 C76.99289813 185.88145771 75.45098476 187.43812798 73.91137695 188.99707031 C72.63923843 190.27862755 72.63923843 190.27862755 71.34140015 191.58607483 C69.50980109 193.43146758 67.67927002 195.27792083 65.84970093 197.12532616 C62.95290923 200.05016186 60.05052691 202.96940689 57.14697266 205.88752747 C56.14945277 206.89018977 55.15194001 207.89285916 54.1544342 208.89553547 C53.65527056 209.39728468 53.15610691 209.89903388 52.64181709 210.41598761 C45.89266694 217.20108192 39.14838438 223.99096096 32.41430664 230.79101562 C27.85765032 235.39222518 23.29386052 239.98622963 18.72192287 244.57225686 C16.30796275 246.99426793 13.89782434 249.41982519 11.49649048 251.85436058 C8.81842105 254.56616485 6.12817441 257.26530786 3.43481445 259.96191406 C2.64811371 260.76456696 1.86141296 261.56721985 1.0508728 262.39419556 C-3.8249394 267.2432978 -7.80600887 270.62621524 -14.8011322 271.64616394 C-15.5494783 271.63950211 -16.2978244 271.63284027 -17.06884766 271.62597656 C-17.92921127 271.62574997 -18.78957489 271.62552338 -19.67601013 271.62528992 C-20.58045364 271.60980606 -21.48489716 271.5943222 -22.41674805 271.57836914 C-23.36127335 271.5741243 -24.30579865 271.56987946 -25.27894592 271.56550598 C-28.27439753 271.54880972 -31.2691585 271.51117445 -34.2644043 271.47290039 C-36.30410807 271.45784185 -38.34382247 271.4441555 -40.38354492 271.43188477 C-45.36492791 271.39893586 -50.34579929 271.34721643 -55.3269043 271.28540039 C-55.30595703 272.30375977 -55.28500977 273.32211914 -55.26342773 274.37133789 C-55.19055746 278.18060015 -55.1449355 281.98980189 -55.10717773 285.79956055 C-55.08716859 287.44256989 -55.05995217 289.08550898 -55.02514648 290.72827148 C-54.97615125 293.10165827 -54.95382925 295.47409688 -54.9362793 297.84790039 C-54.91563416 298.57219238 -54.89498901 299.29648437 -54.87371826 300.04272461 C-54.87091655 306.53521333 -57.01175229 311.64345754 -61.29174805 316.52758789 C-61.94272461 317.06641602 -62.59370117 317.60524414 -63.2644043 318.16040039 C-63.91280273 318.71469727 -64.56120117 319.26899414 -65.22924805 319.84008789 C-71.65326225 324.26631741 -78.37234526 323.65250847 -85.8894043 323.66040039 C-87.12110352 323.68489258 -88.35280273 323.70938477 -89.62182617 323.73461914 C-91.39589844 323.74041992 -91.39589844 323.74041992 -93.20581055 323.74633789 C-94.28419189 323.75455566 -95.36257324 323.76277344 -96.47363281 323.77124023 C-100.0929014 323.15497049 -101.06645175 322.13892037 -103.3269043 319.28540039 C-103.83026886 316.55548096 -103.83026886 316.55548096 -103.83483887 313.36450195 C-103.84611816 312.15314575 -103.85739746 310.94178955 -103.86901855 309.69372559 C-103.86124163 308.35448979 -103.85304897 307.01525636 -103.84448242 305.67602539 C-103.84990358 304.26321694 -103.8570262 302.85041415 -103.86572266 301.43762207 C-103.88396013 297.60286096 -103.87688701 293.76853024 -103.86420631 289.9337616 C-103.85408073 285.9210799 -103.86347076 281.9084351 -103.86975098 277.89575195 C-103.87702869 271.15707786 -103.86743652 264.41857911 -103.84838867 257.67993164 C-103.82661957 249.88858615 -103.83367086 242.09765934 -103.85569429 234.30632401 C-103.87384485 227.6174524 -103.87640834 220.92870685 -103.86593962 214.23981857 C-103.85970274 210.24456672 -103.85887424 206.24951168 -103.87208557 202.25427246 C-103.88363858 198.49813738 -103.87562911 194.74254219 -103.85250854 190.98646545 C-103.84721841 189.60780229 -103.84874053 188.22909371 -103.8575592 186.85044861 C-103.86848427 184.96908183 -103.85235637 183.08761578 -103.83483887 181.20629883 C-103.83333076 180.15327576 -103.83182266 179.10025269 -103.83026886 178.01531982 C-103.19772012 174.58479012 -102.05778227 173.39353182 -99.3269043 171.28540039 C-96.5300293 170.89477539 -96.5300293 170.89477539 -93.5769043 171.03540039 C-92.59206055 171.07149414 -91.6072168 171.10758789 -90.5925293 171.14477539 C-89.84487305 171.19118164 -89.0972168 171.23758789 -88.3269043 171.28540039 C-88.30112305 170.09946289 -88.2753418 168.91352539 -88.2487793 167.69165039 C-87.66919186 148.97953375 -84.49342408 130.57373128 -71.3269043 116.28540039 C-68.6784668 114.23852539 -68.6784668 114.23852539 -65.9519043 112.53540039 C-65.05729492 111.96305664 -64.16268555 111.39071289 -63.2409668 110.80102539 C-56.51534268 107.3029796 -50.29885706 106.97220676 -42.8894043 107.03540039 C-41.98641602 107.02766602 -41.08342773 107.01993164 -40.15307617 107.01196289 C-34.5404254 107.02821966 -29.71224439 107.69814226 -24.3269043 109.28540039 C-23.9969043 106.31540039 -23.6669043 103.34540039 -23.3269043 100.28540039 C-24.56827148 99.95926758 -25.80963867 99.63313477 -27.08862305 99.29711914 C-28.73065828 98.85611539 -30.37257944 98.41468672 -32.0144043 97.97290039 C-32.83102539 97.75956055 -33.64764648 97.5462207 -34.48901367 97.32641602 C-38.83715285 96.14696126 -42.64380822 94.9950549 -46.3269043 92.28540039 C-48.9072107 87.12478758 -46.99045552 80.99859721 -45.55444336 75.70117188 C-45.271474 74.61681854 -45.271474 74.61681854 -44.98278809 73.51055908 C-44.36153267 71.14010755 -43.72761409 68.77327492 -43.0925293 66.40649414 C-42.65327074 64.7494696 -42.21445534 63.09232752 -41.77606201 61.43507385 C-40.8570885 57.96962322 -39.93161161 54.50599034 -39.00170898 51.04345703 C-37.81353487 46.61649119 -36.64346352 42.18497191 -35.4784584 37.75186062 C-34.57700046 34.33100123 -33.66505384 30.91300413 -32.75005341 27.49574471 C-32.31446578 25.86326152 -31.88231585 24.22985688 -31.45374298 22.59551811 C-30.85223012 20.30738511 -30.23643248 18.02355621 -29.61694336 15.74023438 C-29.44430969 15.07149796 -29.27167603 14.40276154 -29.09381104 13.71376038 C-27.69959104 8.66585341 -25.66141016 4.119655 -21.4675293 0.82446289 C-20.84362305 0.52282227 -20.2197168 0.22118164 -19.5769043 -0.08959961 C-18.96331055 -0.40670898 -18.3497168 -0.72381836 -17.7175293 -1.05053711 C-11.69760838 -2.72273736 -5.90432251 -1.60002587 0 0 Z M5.6730957 49.28540039 C3.0746155 52.30299031 2.6730957 53.78128655 2.6730957 57.78540039 C3.89517368 62.0626733 5.03124589 63.72835691 8.6730957 66.28540039 C11.47998339 66.93183513 13.86413012 66.91528964 16.6730957 66.28540039 C19.48313031 64.49176128 21.18250038 63.26659104 22.6730957 60.28540039 C23.04697156 56.32231626 23.06245395 53.98624524 21.1105957 50.47290039 C15.9437255 45.83596559 11.35653036 45.28116234 5.6730957 49.28540039 Z M44.7980957 62.03540039 C43.15292721 65.32573737 43.22743947 67.65648532 43.6730957 71.28540039 C45.46871975 74.0386906 46.72564492 75.811675 49.6730957 77.28540039 C55.54947384 77.9032208 55.54947384 77.9032208 60.6105957 75.22290039 C63.07908976 71.70716643 63.6730957 69.57156716 63.6730957 65.28540039 C62.25029293 61.60285204 61.02415818 60.49317206 57.6105957 58.47290039 C52.42770974 56.37769117 48.8243497 58.27756333 44.7980957 62.03540039 Z M85.8605957 73.03540039 C84.12741461 76.31932245 84.22376937 78.62660024 84.6730957 82.28540039 C86.46871975 85.0386906 87.72564492 86.811675 90.6730957 88.28540039 C95.17105936 88.8043962 97.16875464 88.60294847 101.0480957 86.16040039 C103.98584912 82.94286094 104.76133063 81.60891175 104.6730957 77.28540039 C103.32721557 73.24775998 102.30273442 71.67892459 98.6730957 69.41040039 C93.07715314 67.31192193 90.00706489 69.0319129 85.8605957 73.03540039 Z M-5.3269043 104.28540039 C-8.56066866 112.04643486 -10.37713565 120.13002288 -12.3269043 128.28540039 C-6.83674031 130.42688709 -1.38249348 132.19312484 4.31347656 133.69189453 C5.56217451 134.02572883 5.56217451 134.02572883 6.83609867 134.36630726 C9.60238129 135.10485853 12.37014796 135.83768217 15.13793945 136.57055664 C17.12640048 137.10030828 19.1147606 137.63043881 21.10302734 138.16091919 C25.3702321 139.29865234 29.63808261 140.43391804 33.90646362 141.56723022 C40.66705297 143.36230859 47.42619804 145.16278027 54.18505859 146.96435547 C56.49638052 147.58037985 58.80770561 148.19639234 61.11903381 148.81239319 C62.27386827 149.1201726 63.42870274 149.427952 64.61853218 149.74505806 C68.16769037 150.69072415 71.71699513 151.63583826 75.26634216 152.58079529 C99.01987348 158.90541645 122.76267281 165.26988528 146.50416946 171.63950729 C151.55707656 172.99510294 156.61007473 174.3503589 161.66308594 175.70556641 C162.62566661 175.96375688 163.58824728 176.22194735 164.57999706 176.48796177 C169.22106753 177.73270896 173.86232249 178.97675957 178.50401306 180.2191925 C180.25162368 180.68703923 181.99922817 181.15490888 183.74682617 181.62280273 C184.58790578 181.84798049 185.42898539 182.07315825 186.29555225 182.30515957 C191.0988833 183.5922196 195.90004319 184.88697433 200.69909191 186.18990993 C203.53761913 186.96015513 206.37708928 187.72688436 209.21670723 188.49309731 C211.11231286 189.00617253 213.00649408 189.52450147 214.90061951 190.04301453 C216.01219925 190.34254532 217.12377899 190.64207611 218.26904297 190.95068359 C219.22448502 191.21065628 220.17992706 191.47062897 221.1643219 191.73847961 C223.89651425 192.42740073 223.89651425 192.42740073 227.6730957 192.28540039 C229.67218095 184.93615649 231.66541291 177.58534352 233.65454102 170.23339844 C234.33222221 167.73140336 235.01125344 165.22977354 235.69165039 162.72851562 C236.66816844 159.13774771 237.63985861 155.54570358 238.6105957 151.95336914 C238.91682861 150.83141647 239.22306152 149.70946381 239.53857422 148.55351257 C239.81886475 147.51266006 240.09915527 146.47180756 240.38793945 145.39941406 C240.63664795 144.48230148 240.88535645 143.5651889 241.14160156 142.62028503 C241.78407274 140.19697403 241.78407274 140.19697403 241.6730957 137.28540039 C238.61542777 136.41325431 235.55140414 135.56594181 232.4855957 134.72290039 C231.6212793 134.47604492 230.75696289 134.22918945 229.86645508 133.97485352 C223.7532723 132.14345297 223.7532723 132.14345297 217.6730957 133.28540039 C215.3694969 135.28466597 215.3694969 135.28466597 213.2980957 137.84790039 C212.52208008 138.75024414 211.74606445 139.65258789 210.9465332 140.58227539 C210.19629883 141.47430664 209.44606445 142.36633789 208.6730957 143.28540039 C206.86538703 145.3739881 205.04988665 147.45453357 203.2199707 149.52368164 C201.84558442 151.08895491 200.50661964 152.68517166 199.1730957 154.28540039 C195.7789924 157.00068303 193.97753242 156.56837189 189.6730957 156.28540039 C186.7643327 155.74618015 183.93357637 154.98971061 181.08276367 154.20361328 C180.24419201 153.97993419 179.40562035 153.75625509 178.54163742 153.52579784 C175.74722071 152.77817097 172.95634009 152.01812201 170.1652832 151.25805664 C168.16332143 150.71975714 166.16114927 150.18223953 164.15878296 149.64544678 C158.74498953 148.19183602 153.33413279 146.72755792 147.92372131 145.26141739 C142.28169284 143.73456296 136.63694683 142.21782567 130.99243164 140.70019531 C121.61798828 138.17841679 112.24507804 135.65101656 102.87329102 133.11938477 C83.66082687 127.92973577 64.44187305 122.76424082 45.22291374 117.59870815 C39.04628397 115.9383591 32.87025846 114.27578572 26.69478035 112.61115837 C22.87758293 111.58231976 19.06014192 110.55438697 15.24266434 109.52658844 C13.470773 109.04927439 11.69899922 108.57152369 9.92734909 108.09331512 C7.52551449 107.44504451 5.12328254 106.79826779 2.72094727 106.15185547 C2.01337217 105.96044511 1.30579708 105.76903475 0.57678032 105.57182407 C-2.33446066 104.66753443 -2.33446066 104.66753443 -5.3269043 104.28540039 Z M-62.86206055 133.08227539 C-68.97173986 142.27123308 -70.53004733 152.48544537 -71.3269043 163.28540039 C-71.43905273 164.0962207 -71.55120117 164.90704102 -71.66674805 165.74243164 C-71.89450456 168.15185578 -71.97807523 169.95048746 -71.3269043 172.28540039 C-69.48847375 173.95426695 -67.63681203 174.97423552 -65.43237305 176.10961914 C-60.67844262 178.76441146 -57.9467492 183.16770014 -56.3269043 188.28540039 C-56.09545694 191.02962879 -55.95572051 193.68384334 -55.9128418 196.42993164 C-55.89347565 197.19971848 -55.8741095 197.96950531 -55.85415649 198.76261902 C-55.79464807 201.2076021 -55.74809134 203.65263301 -55.7019043 206.09790039 C-55.66369799 207.76133173 -55.62464472 209.42474386 -55.5847168 211.08813477 C-55.48897047 215.1537328 -55.4048342 219.2194234 -55.3269043 223.28540039 C-46.84173129 225.55546906 -37.67058481 226.60197667 -29.3269043 223.28540039 C-17.27937237 216.27113814 -7.70171784 204.3134162 1.66278076 194.1975708 C5.23925162 190.36675495 8.89836512 186.61653968 12.5480957 182.85571289 C17.84038269 177.37387078 23.10859414 171.87095152 28.30249023 166.2956543 C28.85073959 165.71374832 29.39898895 165.13184235 29.96385193 164.53230286 C32.77839374 161.84916157 32.77839374 161.84916157 33.6730957 158.28540039 C32.94504227 158.09161301 32.21698883 157.89782562 31.46687317 157.69816589 C24.59390516 155.86730185 17.72297807 154.02900682 10.8542223 152.18241405 C7.32316264 151.23340504 3.79139012 150.28725039 0.2578125 149.34765625 C-3.1545574 148.4401784 -6.56482221 147.52515467 -9.97377968 146.60494423 C-11.90277109 146.08632774 -13.833844 145.57547345 -15.76493835 145.06474304 C-16.94578506 144.7446376 -18.12663177 144.42453217 -19.34326172 144.09472656 C-20.38028732 143.81715012 -21.41731293 143.53957367 -22.48576355 143.25358582 C-25.45417476 142.24202999 -27.80474343 141.15272848 -30.3269043 139.28540039 C-30.81518555 135.92993164 -30.81518555 135.92993164 -30.6394043 132.09790039 C-30.59428711 130.8255957 -30.54916992 129.55329102 -30.50268555 128.24243164 C-30.41567383 126.77870117 -30.41567383 126.77870117 -30.3269043 125.28540039 C-42.74425434 121.67308038 -54.30922022 122.2151371 -62.86206055 133.08227539 Z M258.6730957 142.28540039 C255.76168984 149.4519379 253.88009534 156.79441436 251.9855957 164.28540039 C251.66526367 165.53708008 251.34493164 166.78875977 251.01489258 168.07836914 C250.23032225 171.14639043 249.44984135 174.21539053 248.6730957 177.28540039 C252.87803552 178.46453971 257.08753967 179.62649071 261.2980957 180.78540039 C262.48790039 181.11926758 263.67770508 181.45313477 264.90356445 181.79711914 C266.63413086 182.27084961 266.63413086 182.27084961 268.3996582 182.75415039 C269.45749512 183.04741211 270.51533203 183.34067383 271.60522461 183.64282227 C276.1125561 184.58690125 279.36505491 185.13417353 283.30981445 182.57446289 C287.14044868 178.22418681 288.08171387 172.12717204 289.4855957 166.66040039 C289.7969043 165.51571289 290.10821289 164.37102539 290.42895508 163.19165039 C292.0898542 157.31631292 292.0898542 157.31631292 292.6730957 151.28540039 C287.9921384 150.00205278 283.31073595 148.7203469 278.62890625 147.44018555 C277.03503151 147.00411781 275.44128111 146.56759529 273.84765625 146.13061523 C271.56192759 145.50394048 269.27576216 144.87888273 266.98950195 144.25415039 C265.91449181 143.95885437 265.91449181 143.95885437 264.81776428 143.65759277 C261.78860646 142.69602071 261.78860646 142.69602071 258.6730957 142.28540039 Z M-55.3269043 239.28540039 C-55.3269043 244.56540039 -55.3269043 249.84540039 -55.3269043 255.28540039 C-51.0369043 255.28540039 -46.7469043 255.28540039 -42.3269043 255.28540039 C-42.3269043 250.00540039 -42.3269043 244.72540039 -42.3269043 239.28540039 C-46.6169043 239.28540039 -50.9069043 239.28540039 -55.3269043 239.28540039 Z M-24.7019043 241.91040039 C-26.81396935 244.99726471 -26.93885575 246.61369169 -26.3269043 250.28540039 C-24.8269043 252.78540039 -24.8269043 252.78540039 -22.3269043 254.28540039 C-18.6551956 254.89735184 -17.03876861 254.77246545 -13.9519043 252.66040039 C-11.83983924 249.57353607 -11.71495285 247.95710909 -12.3269043 244.28540039 C-13.8269043 241.78540039 -13.8269043 241.78540039 -16.3269043 240.28540039 C-19.99861299 239.67344894 -21.61503998 239.79833533 -24.7019043 241.91040039 Z " fill="#B8860A" transform="translate(127.326904296875,76.714599609375)"/>
</svg>
