<?xml version="1.0" encoding="UTF-8"?>
<svg version="1.1" xmlns="http://www.w3.org/2000/svg" width="512" height="512">
<path d="M0 0 C1.25182571 -0.0127597 2.50365143 -0.02551941 3.79341125 -0.03866577 C5.14767297 -0.04172407 6.50193679 -0.04395148 7.85620117 -0.04541016 C9.26096224 -0.05184649 10.665722 -0.05857546 12.07048035 -0.06558228 C15.0099091 -0.07752717 17.94922058 -0.08126604 20.88867188 -0.08007812 C24.63431797 -0.07987521 28.37920299 -0.10715999 32.12466908 -0.14162254 C35.02539953 -0.16398623 37.92594964 -0.16791278 40.82675743 -0.16685867 C42.20651557 -0.16920108 43.58627972 -0.17794705 44.96595192 -0.19352341 C53.07299985 -0.27647727 59.52433076 0.1134719 66.58666992 4.29052734 C67.23912186 4.66883698 67.89157379 5.04714661 68.563797 5.43692017 C75.5129261 9.66686796 79.33810882 16.67128653 81.58666992 24.29052734 C82.1275222 27.17301673 82.50701376 30.06906763 82.87573242 32.97802734 C82.98388275 33.79875732 83.09203308 34.6194873 83.20346069 35.46508789 C83.42975617 37.19266215 83.65314445 38.92061946 83.8737793 40.64892578 C84.21071912 43.28309404 84.55812911 45.91572573 84.90698242 48.54833984 C85.12635519 50.23315471 85.34512545 51.91804815 85.56323242 53.60302734 C85.66632721 54.38444092 85.769422 55.16585449 85.87564087 55.97094727 C86.39861854 60.10887665 86.69553352 64.10883554 86.58666992 68.29052734 C87.19510742 68.42587891 87.80354492 68.56123047 88.43041992 68.70068359 C95.36684971 70.40418915 101.61370658 72.92187775 108.0144043 76.04077148 C110.83141267 77.35819054 113.09563883 78.29560447 116.23120117 78.26318359 C119.33612641 76.98105029 121.38466952 75.20800154 123.89916992 72.97802734 C128.74162665 68.78447216 133.71156946 64.82140265 138.83666992 60.97802734 C139.48547119 60.48713623 140.13427246 59.99624512 140.80273438 59.49047852 C150.56391833 52.19590352 158.99385145 46.97485974 171.58666992 48.29052734 C183.24965392 50.44899561 190.5784338 57.96608406 198.75854492 66.09130859 C199.6033844 66.9271196 200.44822388 67.7629306 201.31866455 68.62406921 C203.09282195 70.38379381 204.86424558 72.14627849 206.63305664 73.91137695 C209.3304559 76.59684081 212.04596873 79.26305838 214.76245117 81.92919922 C216.49146298 83.64874958 218.21936573 85.36941597 219.94604492 87.09130859 C220.75338074 87.87911209 221.56071655 88.66691559 222.39251709 89.47859192 C228.23575735 95.36888969 232.73901624 101.81399057 233.58666992 110.29052734 C233.68141602 111.22058594 233.68141602 111.22058594 233.77807617 112.16943359 C234.45758493 124.42251097 228.6811958 133.28553298 221.15795898 142.36865234 C218.05951212 146.15842452 215.08561809 150.04693827 212.08666992 153.91552734 C211.4751709 154.69814941 210.86367188 155.48077148 210.23364258 156.28710938 C209.6592041 157.02300293 209.08476562 157.75889648 208.49291992 158.51708984 C207.72431641 159.50056396 207.72431641 159.50056396 206.94018555 160.50390625 C204.26385383 163.70453628 204.26385383 163.70453628 203.83251953 167.65332031 C204.60822841 170.36591577 205.55125101 172.88873169 206.65307617 175.48583984 C207.0559082 176.44876953 207.45874023 177.41169922 207.8737793 178.40380859 C208.72743906 180.41964833 209.5816098 182.43527175 210.4362793 184.45068359 C211.03859375 185.89121094 211.03859375 185.89121094 211.65307617 187.36083984 C212.02376221 188.23498535 212.39444824 189.10913086 212.77636719 190.00976562 C213.58666992 192.29052734 213.58666992 192.29052734 213.58666992 195.29052734 C214.419646 195.34168701 215.25262207 195.39284668 216.11083984 195.44555664 C225.08660885 196.03655121 233.97673773 196.95101711 242.89916992 198.10302734 C244.19145508 198.25578125 245.48374023 198.40853516 246.81518555 198.56591797 C254.03799401 199.4996791 260.17085524 200.79787868 266.58666992 204.29052734 C267.61791992 204.82677734 268.64916992 205.36302734 269.71166992 205.91552734 C275.58713165 210.76916964 279.50316056 216.98860477 281.58666992 224.29052734 C281.85409546 227.38117981 281.85409546 227.38117981 281.87719727 230.70385742 C281.89633682 232.58159599 281.89633682 232.58159599 281.91586304 234.49726868 C281.91892133 235.8515304 281.92114875 237.20579421 281.92260742 238.56005859 C281.92904375 239.96481967 281.93577272 241.36957943 281.94277954 242.77433777 C281.95472444 245.71376652 281.95846331 248.653078 281.95727539 251.5925293 C281.95707248 255.33817539 281.98435726 259.08306041 282.01881981 262.8285265 C282.04118349 265.72925695 282.04511005 268.62980706 282.04405594 271.53061485 C282.04639835 272.91037299 282.05514432 274.29013714 282.07072067 275.66980934 C282.15367453 283.77685727 281.76372536 290.22818818 277.58666992 297.29052734 C277.20892426 297.94289871 276.83117859 298.59527008 276.44198608 299.26741028 C272.85498964 305.15145538 267.39575413 309.11691579 260.8347168 311.13842773 C252.66545281 312.99178671 244.51791796 314.23971769 236.20874023 315.22583008 C234.06025892 315.48116616 231.91332222 315.74737412 229.76635742 316.01513672 C218.42386019 317.40343333 218.42386019 317.40343333 213.58666992 317.29052734 C213.45131836 317.89896484 213.3159668 318.50740234 213.17651367 319.13427734 C211.47300812 326.07070714 208.95531952 332.317564 205.83642578 338.71826172 C204.51900673 341.53527009 203.58159279 343.79949625 203.61401367 346.93505859 C204.89614698 350.03998383 206.66919573 352.08852694 208.89916992 354.60302734 C213.09272511 359.44548408 217.05579462 364.41542688 220.89916992 369.54052734 C221.63550659 370.51372925 221.63550659 370.51372925 222.38671875 371.5065918 C229.68129374 381.26777575 234.90233752 389.69770888 233.58666992 402.29052734 C231.4511139 413.82970819 224.08115143 421.11105253 216.03979492 429.20849609 C215.22855164 430.02876785 214.41730835 430.84903961 213.58148193 431.69416809 C211.87303128 433.41704968 210.1618218 435.13719951 208.44799805 436.85473633 C205.84593307 439.46872176 203.26313767 442.10080204 200.68041992 444.73388672 C199.00969873 446.41407128 197.33785999 448.09314547 195.66479492 449.77099609 C194.90402649 450.55129684 194.14325806 451.3315976 193.35943604 452.13554382 C185.46439656 459.96579858 177.79168659 463.9159282 166.62963867 464.36083984 C155.94016511 464.11384302 147.74728221 458.82080852 139.83666992 452.10302734 C138.44361034 450.94500469 137.04906455 449.78876767 135.65307617 448.63427734 C134.97003418 448.06837891 134.28699219 447.50248047 133.58325195 446.91943359 C128.11884158 442.46130863 122.45382611 438.2019648 116.58666992 434.29052734 C113.1206852 434.66935439 110.10516044 435.77293871 106.89916992 437.10302734 C106.03549805 437.45623047 105.17182617 437.80943359 104.28198242 438.17333984 C103.3925293 438.54201172 102.50307617 438.91068359 101.58666992 439.29052734 C99.81754059 440.02381863 98.04675146 440.75312086 96.27416992 441.47802734 C95.49428711 441.80158203 94.7144043 442.12513672 93.91088867 442.45849609 C91.48598688 443.32657018 89.12062552 443.8465245 86.58666992 444.29052734 C86.50993042 445.53999146 86.50993042 445.53999146 86.43164062 446.81469727 C85.84064605 455.79046627 84.92618015 464.68059515 83.77416992 473.60302734 C83.62141602 474.8953125 83.46866211 476.18759766 83.3112793 477.51904297 C82.37751816 484.74185143 81.07931859 490.87471266 77.58666992 497.29052734 C77.05041992 498.32177734 76.51416992 499.35302734 75.96166992 500.41552734 C71.10802762 506.29098908 64.88859249 510.20701799 57.58666992 512.29052734 C54.49601746 512.55795288 54.49601746 512.55795288 51.17333984 512.58105469 C49.29560127 512.60019424 49.29560127 512.60019424 47.37992859 512.61972046 C46.02566687 512.62277875 44.67140306 512.62500617 43.31713867 512.62646484 C41.9123776 512.63290118 40.50761784 512.63963015 39.1028595 512.64663696 C36.16343074 512.65858186 33.22411926 512.66232073 30.28466797 512.66113281 C26.53902187 512.6609299 22.79413685 512.68821468 19.04867077 512.72267723 C16.14794031 512.74504092 13.24739021 512.74896747 10.34658241 512.74791336 C8.96682428 512.75025577 7.58706012 512.75900174 6.20738792 512.77457809 C-5.02916209 512.889554 -13.90829724 510.94505689 -22.41333008 503.29052734 C-28.56895845 496.46580894 -30.71467511 488.32204142 -31.80004883 479.40771484 C-31.9601519 478.18086472 -31.9601519 478.18086472 -32.12348938 476.92922974 C-32.34547937 475.21381623 -32.56288649 473.4978039 -32.77587891 471.78125 C-33.10096941 469.16440578 -33.44049739 466.54974484 -33.7824707 463.93505859 C-33.99750719 462.25938541 -34.21172804 460.58360731 -34.42504883 458.90771484 C-34.52500656 458.13257538 -34.62496429 457.35743591 -34.72795105 456.55880737 C-35.23500569 452.43985316 -35.51772806 448.45076627 -35.41333008 444.29052734 C-36.02176758 444.15517578 -36.63020508 444.01982422 -37.25708008 443.88037109 C-44.19350987 442.17686554 -50.44036674 439.65917694 -56.84106445 436.5402832 C-59.65807282 435.22286415 -61.92229899 434.28545021 -65.05786133 434.31787109 C-68.16278656 435.6000044 -70.21132967 437.37305315 -72.72583008 439.60302734 C-77.56828681 443.79658253 -82.53822962 447.75965204 -87.66333008 451.60302734 C-88.63653198 452.33936401 -88.63653198 452.33936401 -89.62939453 453.09057617 C-100.01597428 460.85251215 -108.26582284 465.52471565 -121.60083008 464.04833984 C-132.0939751 462.26304781 -139.38169554 454.78906156 -146.64770508 447.52490234 C-147.48875793 446.69146301 -148.32981079 445.85802368 -149.1963501 444.99932861 C-150.9614803 443.24494264 -152.72272085 441.48663529 -154.48022461 439.72460938 C-157.1557912 437.04806896 -159.85199507 434.39359362 -162.55004883 431.73974609 C-164.27140079 430.02360101 -165.99149593 428.30619418 -167.71020508 426.58740234 C-168.50924255 425.80476013 -169.30828003 425.02211792 -170.13153076 424.21575928 C-177.4709032 416.78549312 -182.42312751 408.77202479 -182.66333008 398.10302734 C-182.46922479 388.31688553 -178.7724942 381.58346034 -172.79125977 374.03076172 C-171.16480069 371.9766511 -169.55848389 369.90747559 -167.95239258 367.83740234 C-166.11530437 365.47001815 -164.27612784 363.10459849 -162.42578125 360.74755859 C-161.28231986 359.28936101 -160.14465106 357.82659852 -159.01342773 356.35888672 C-157.97271152 355.01360937 -156.9157762 353.68067242 -155.84057617 352.36279297 C-153.07333067 349.01576871 -153.07333067 349.01576871 -152.67431641 344.87939453 C-153.39093617 342.36897631 -154.22567564 340.01375816 -155.22583008 337.60302734 C-155.5790332 336.73935547 -155.93223633 335.87568359 -156.29614258 334.98583984 C-156.66481445 334.09638672 -157.03348633 333.20693359 -157.41333008 332.29052734 C-158.14662137 330.52139801 -158.8759236 328.75060888 -159.60083008 326.97802734 C-159.92438477 326.19814453 -160.24793945 325.41826172 -160.58129883 324.61474609 C-161.44937291 322.1898443 -161.96932724 319.82448294 -162.41333008 317.29052734 C-163.54689941 317.21378784 -163.54689941 317.21378784 -164.70336914 317.13549805 C-172.87781663 316.5483386 -181.01236587 315.7391074 -189.14428711 314.72583008 C-190.49673553 314.55984034 -191.84996031 314.40006466 -193.20385742 314.24633789 C-204.66785657 312.94304771 -216.49006305 310.66049093 -224.10864258 301.18115234 C-228.42486022 294.96746705 -230.65058395 289.53939286 -230.70385742 281.87719727 C-230.71661713 280.62537155 -230.72937683 279.37354584 -230.74252319 278.08378601 C-230.74558149 276.72952429 -230.74780891 275.37526048 -230.74926758 274.02099609 C-230.75570391 272.61623502 -230.76243288 271.21147526 -230.7694397 269.80671692 C-230.78138459 266.86728817 -230.78512347 263.92797668 -230.78393555 260.98852539 C-230.78373264 257.24287929 -230.81101741 253.49799428 -230.84547997 249.75252819 C-230.86784365 246.85179774 -230.8717702 243.95124763 -230.87071609 241.05043983 C-230.8730585 239.6706817 -230.88180447 238.29091755 -230.89738083 236.91124535 C-230.98033469 228.80419741 -230.59038552 222.3528665 -226.41333008 215.29052734 C-226.03502045 214.63807541 -225.65671082 213.98562347 -225.26693726 213.31340027 C-221.04014812 206.36946034 -214.03186013 202.52841601 -206.41333008 200.29052734 C-203.44623383 199.74647509 -200.46541682 199.3691304 -197.47192383 199.00146484 C-196.20397728 198.83923935 -196.20397728 198.83923935 -194.91041565 198.67373657 C-193.13155906 198.44741748 -191.35232726 198.22403023 -189.57275391 198.00341797 C-186.85525882 197.66607711 -184.13915608 197.31889993 -181.4230957 196.97021484 C-179.68944507 196.75088451 -177.95572332 196.53211539 -176.22192383 196.31396484 C-175.00925087 196.15932266 -175.00925087 196.15932266 -173.77207947 196.0015564 C-169.95989027 195.5324702 -166.26362874 195.16419319 -162.41333008 195.29052734 C-162.27797852 194.68208984 -162.14262695 194.07365234 -162.00317383 193.44677734 C-160.29966828 186.51034755 -157.78197967 180.26349069 -154.66308594 173.86279297 C-153.34566688 171.0457846 -152.40825295 168.78155844 -152.44067383 165.64599609 C-153.72280713 162.54107086 -155.49585588 160.49252775 -157.72583008 157.97802734 C-161.91938526 153.13557061 -165.88245478 148.1656278 -169.72583008 143.04052734 C-170.21672119 142.39172607 -170.7076123 141.7429248 -171.21337891 141.07446289 C-178.5079539 131.31327894 -183.72899768 122.88334581 -182.41333008 110.29052734 C-180.27777406 98.75134649 -172.90781159 91.47000216 -164.86645508 83.37255859 C-164.05521179 82.55228683 -163.24396851 81.73201508 -162.40814209 80.8868866 C-160.69969144 79.16400501 -158.98848196 77.44385518 -157.2746582 75.72631836 C-154.67259323 73.11233293 -152.08979783 70.48025264 -149.50708008 67.84716797 C-147.83635889 66.16698341 -146.16452014 64.48790922 -144.49145508 62.81005859 C-143.73068665 62.02975784 -142.96991821 61.24945709 -142.18609619 60.44551086 C-134.82712633 53.14692686 -126.80283512 48.27865879 -116.22583008 48.04052734 C-100.56285989 48.40118784 -89.19540455 59.67783585 -77.65087891 69.09106445 C-75.91561173 70.50467469 -74.16626201 71.89891303 -72.41333008 73.29052734 C-71.81246582 73.78601074 -71.21160156 74.28149414 -70.5925293 74.79199219 C-67.19380499 77.60498893 -67.19380499 77.60498893 -62.99560547 78.03393555 C-60.48996969 77.31259103 -58.13359265 76.47695033 -55.72583008 75.47802734 C-54.8621582 75.12482422 -53.99848633 74.77162109 -53.10864258 74.40771484 C-52.21918945 74.03904297 -51.32973633 73.67037109 -50.41333008 73.29052734 C-48.64420074 72.55723605 -46.87341162 71.82793382 -45.10083008 71.10302734 C-44.32094727 70.77947266 -43.54106445 70.45591797 -42.73754883 70.12255859 C-40.31264704 69.25448451 -37.94728568 68.73453018 -35.41333008 68.29052734 C-35.36217041 67.53481445 -35.31101074 66.77910156 -35.25830078 66.00048828 C-34.67114133 57.8260408 -33.86191014 49.69149155 -32.84863281 41.55957031 C-32.68264307 40.20712189 -32.5228674 38.85389712 -32.36914062 37.5 C-31.06585045 26.03600086 -28.78329367 14.21379437 -19.30395508 6.59521484 C-13.09026978 2.27899721 -7.66219559 0.05327347 0 0 Z M-7.41333008 27.29052734 C-8.52211177 30.25252927 -9.01022531 33.16152391 -9.41333008 36.29052734 C-9.52184296 37.02875732 -9.63035583 37.7669873 -9.74215698 38.52758789 C-10.06021967 40.81024023 -10.33327333 43.0947347 -10.59692383 45.38427734 C-10.80433221 47.0913419 -11.01202308 48.79837215 -11.2199707 50.50537109 C-11.53723438 53.15095265 -11.85156367 55.79680882 -12.16064453 58.44335938 C-12.46447307 61.02889946 -12.77999937 63.61281427 -13.09692383 66.19677734 C-13.18453476 66.97516968 -13.27214569 67.75356201 -13.3624115 68.55554199 C-14.02485832 73.88139589 -14.85416172 79.51598908 -17.41333008 84.29052734 C-20.24989684 86.24418038 -23.14618797 87.24431122 -26.41333008 88.29052734 C-28.07548881 88.91674819 -29.73563101 89.54834541 -31.39379883 90.18505859 C-33.12914675 90.82527443 -34.86483311 91.46457355 -36.60083008 92.10302734 C-43.0326984 94.48943559 -49.17897029 97.0507172 -55.22583008 100.29052734 C-60.46767 102.97944287 -63.58320202 104.57513183 -69.41333008 103.29052734 C-76.81225925 99.72424348 -83.19016492 93.54458276 -89.55004883 88.39990234 C-93.15833586 85.48576032 -96.80256966 82.62222254 -100.47583008 79.79052734 C-101.47743164 79.01708984 -102.4790332 78.24365234 -103.51098633 77.44677734 C-109.18124286 73.04058508 -109.18124286 73.04058508 -115.78833008 70.60302734 C-119.5878228 71.32362079 -120.42558329 71.87706951 -123.16943359 74.37133789 C-124.2203569 75.32500748 -124.2203569 75.32500748 -125.29251099 76.29794312 C-128.56497505 79.37253835 -131.7707555 82.50501394 -134.94067383 85.68505859 C-135.61505997 86.35848801 -136.28944611 87.03191742 -136.98426819 87.72575378 C-138.39292076 89.13373174 -139.80033507 90.54294958 -141.20654297 91.95336914 C-143.3661278 94.11836339 -145.5310689 96.2778999 -147.6965332 98.43701172 C-149.06990127 99.81103971 -150.44295958 101.1853774 -151.81567383 102.56005859 C-152.46350327 103.2058638 -153.1113327 103.85166901 -153.77879333 104.51704407 C-154.37353958 105.11494247 -154.96828583 105.71284088 -155.58105469 106.32885742 C-156.10541611 106.85401443 -156.62977753 107.37917145 -157.17002869 107.92024231 C-159.40632037 110.38493595 -160.0131158 112.82264229 -159.92504883 116.14208984 C-158.86062458 120.61104659 -155.64031303 123.99861774 -152.82202148 127.52392578 C-151.22347744 129.52861637 -149.65153182 131.55265074 -148.08129883 133.57958984 C-145.67456145 136.68460055 -143.26138099 139.78440809 -140.84301758 142.88037109 C-127.0093033 160.62661232 -127.0093033 160.62661232 -127.10083008 166.98486328 C-127.69475987 171.3669515 -129.87811332 175.0423233 -131.91333008 178.91552734 C-136.24753316 187.49137178 -139.71620094 196.11387376 -142.63598633 205.26953125 C-142.92989258 206.14528809 -143.22379883 207.02104492 -143.52661133 207.92333984 C-143.77193604 208.69564941 -144.01726074 209.46795898 -144.27001953 210.26367188 C-145.88396686 213.12486997 -147.42420473 213.93521121 -150.41333008 215.29052734 C-153.14305192 215.85064838 -155.74745896 216.28050143 -158.50317383 216.60693359 C-159.28414932 216.70892563 -160.06512482 216.81091766 -160.86976624 216.91600037 C-163.36220788 217.23916044 -165.8562945 217.54649441 -168.35083008 217.85302734 C-169.99224397 218.0622351 -171.63352194 218.27251216 -173.2746582 218.48388672 C-176.4779 218.89520924 -179.68121743 219.30591367 -182.88476562 219.71484375 C-183.64389252 219.81186584 -184.40301941 219.90888794 -185.18515015 220.0088501 C-186.63967844 220.19272552 -188.0946042 220.37349112 -189.54995728 220.55072021 C-191.48987154 220.78731421 -193.42822357 221.03661568 -195.36645508 221.28662109 C-196.44958984 221.42124756 -197.53272461 221.55587402 -198.64868164 221.69458008 C-202.77822704 222.58474436 -204.65832456 224.14194961 -207.41333008 227.29052734 C-208.66905519 229.80197756 -208.56761022 231.56838952 -208.60620117 234.37939453 C-208.6222641 235.44099792 -208.63832703 236.50260132 -208.65487671 237.59637451 C-208.69929371 242.45861214 -208.74039797 247.3207124 -208.76342773 252.18310547 C-208.77998366 254.74765093 -208.80726845 257.31215032 -208.84545898 259.87646484 C-208.90022561 263.57202116 -208.92210352 267.26649483 -208.93676758 270.96240234 C-208.95943695 272.1063446 -208.98210632 273.25028687 -209.00546265 274.42889404 C-209.06974063 281.0425321 -209.06974063 281.0425321 -206.44311523 286.93603516 C-202.50803509 289.99404587 -199.27906852 290.66368164 -194.41333008 291.29052734 C-193.6751001 291.39904022 -192.93687012 291.5075531 -192.17626953 291.61935425 C-189.89361719 291.93741693 -187.60912273 292.2104706 -185.31958008 292.47412109 C-183.61251553 292.68152948 -181.90548528 292.88922035 -180.19848633 293.09716797 C-177.55290477 293.41443165 -174.9070486 293.72876093 -172.26049805 294.0378418 C-169.67495796 294.34167033 -167.09104315 294.65719664 -164.50708008 294.97412109 C-163.72868774 295.06173203 -162.95029541 295.14934296 -162.14831543 295.23960876 C-156.82246154 295.90205558 -151.18786835 296.73135899 -146.41333008 299.29052734 C-144.45967704 302.12709411 -143.4595462 305.02338523 -142.41333008 308.29052734 C-141.78710924 309.95268607 -141.15551201 311.61282828 -140.51879883 313.27099609 C-139.87858299 315.00634402 -139.23928387 316.74203037 -138.60083008 318.47802734 C-136.21457313 324.9094879 -133.65540947 331.05760189 -130.41333008 337.10302734 C-127.7358319 342.28034076 -126.27801255 345.510729 -127.41333008 351.29052734 C-130.4925089 356.35650965 -134.19029181 360.94830004 -137.85083008 365.60302734 C-139.09355651 367.19244986 -140.33572962 368.78230514 -141.57739258 370.37255859 C-142.20935547 371.18160645 -142.84131836 371.9906543 -143.49243164 372.82421875 C-146.58832383 376.79914286 -149.66074447 380.79182123 -152.72583008 384.79052734 C-153.56102173 385.87587769 -153.56102173 385.87587769 -154.41308594 386.9831543 C-154.92492432 387.6517749 -155.4367627 388.32039551 -155.96411133 389.00927734 C-156.41439697 389.59644531 -156.86468262 390.18361328 -157.32861328 390.78857422 C-159.88852936 394.33316205 -159.97266833 396.95565592 -159.41333008 401.29052734 C-158.10110136 403.22573331 -158.10110136 403.22573331 -156.34423828 405.06225586 C-155.38803085 406.10979538 -155.38803085 406.10979538 -154.4125061 407.17849731 C-151.32646953 410.43874145 -148.1981805 413.64861363 -145.01879883 416.81787109 C-144.00865471 417.8294503 -144.00865471 417.8294503 -142.97810364 418.86146545 C-141.57012568 420.27011802 -140.16090784 421.67753233 -138.75048828 423.08374023 C-136.58549403 425.24332507 -134.42595752 427.40826616 -132.2668457 429.57373047 C-130.89281771 430.94709854 -129.51848002 432.32015685 -128.14379883 433.69287109 C-127.49799362 434.34070053 -126.85218842 434.98852997 -126.18681335 435.6559906 C-125.58891495 436.25073685 -124.99101654 436.84548309 -124.375 437.45825195 C-123.58726448 438.24479408 -123.58726448 438.24479408 -122.78361511 439.04722595 C-120.32356158 441.27930753 -117.89007865 441.88212711 -114.57739258 441.81396484 C-109.46913426 440.57839334 -105.42582917 436.51175753 -101.41333008 433.29052734 C-100.32853506 432.43621005 -99.24256692 431.58338058 -98.15551758 430.73193359 C-96.42938373 429.37857516 -94.70458739 428.023722 -92.984375 426.6628418 C-88.26074419 422.9297851 -83.4772553 419.28126457 -78.66333008 415.66552734 C-77.62559448 414.88387207 -77.62559448 414.88387207 -76.56689453 414.08642578 C-71.30851837 410.15037753 -68.06447544 408.3890591 -61.41333008 409.29052734 C-58.04927601 410.49642695 -54.94820606 412.1301365 -51.78833008 413.79052734 C-43.21248564 418.12473043 -34.58998367 421.59339821 -25.43432617 424.51318359 C-24.55856934 424.80708984 -23.6828125 425.10099609 -22.78051758 425.40380859 C-22.00820801 425.6491333 -21.23589844 425.89445801 -20.44018555 426.1472168 C-17.57898745 427.76116412 -16.76864621 429.30140199 -15.41333008 432.29052734 C-14.85320904 435.02024919 -14.42335599 437.62465622 -14.09692383 440.38037109 C-13.94393578 441.55183434 -13.94393578 441.55183434 -13.78785706 442.7469635 C-13.46469699 445.23940515 -13.15736302 447.73349177 -12.85083008 450.22802734 C-12.64162233 451.86944123 -12.43134526 453.51071921 -12.2199707 455.15185547 C-11.80864818 458.35509727 -11.39794375 461.5584147 -10.98901367 464.76196289 C-10.89199158 465.52108978 -10.79496948 466.28021667 -10.69500732 467.06234741 C-10.5111319 468.5168757 -10.3303663 469.97180147 -10.15313721 471.42715454 C-9.91654321 473.36706881 -9.66724174 475.30542083 -9.41723633 477.24365234 C-9.28260986 478.32678711 -9.1479834 479.40992188 -9.00927734 480.52587891 C-8.11911306 484.65542431 -6.56190781 486.53552182 -3.41333008 489.29052734 C-0.90187986 490.54625245 0.8645321 490.44480748 3.67553711 490.48339844 C4.7371405 490.49946136 5.7987439 490.51552429 6.89251709 490.53207397 C11.75475472 490.57649097 16.61685498 490.61759523 21.47924805 490.640625 C24.04379351 490.65718093 26.60829289 490.68446572 29.17260742 490.72265625 C32.86816374 490.77742287 36.56263741 490.79930079 40.25854492 490.81396484 C41.97445831 490.8479689 41.97445831 490.8479689 43.72503662 490.88265991 C50.33867468 490.94693789 50.33867468 490.94693789 56.23217773 488.3203125 C59.29018844 484.38523236 59.95982422 481.15626579 60.58666992 476.29052734 C60.6951828 475.55229736 60.80369568 474.81406738 60.91549683 474.0534668 C61.23355951 471.77081445 61.50661317 469.48631999 61.77026367 467.19677734 C61.97767206 465.48971279 62.18536292 463.78268254 62.39331055 462.07568359 C62.71057422 459.43010203 63.02490351 456.78424586 63.33398438 454.13769531 C63.63781291 451.55215523 63.95333922 448.96824042 64.27026367 446.38427734 C64.3578746 445.60588501 64.44548553 444.82749268 64.53575134 444.0255127 C65.19819816 438.6996588 66.02750157 433.06506561 68.58666992 428.29052734 C71.42323669 426.3368743 74.31952781 425.33674347 77.58666992 424.29052734 C79.24882865 423.6643065 80.90897086 423.03270928 82.56713867 422.39599609 C84.30248659 421.75578026 86.03817295 421.11648114 87.77416992 420.47802734 C94.20563047 418.0917704 100.35374447 415.53260674 106.39916992 412.29052734 C111.57648334 409.61302916 114.80687158 408.15520981 120.58666992 409.29052734 C125.65265222 412.36970617 130.24444262 416.06748908 134.89916992 419.72802734 C136.48859244 420.97075378 138.07844772 422.21292689 139.66870117 423.45458984 C140.47774902 424.08655273 141.28679687 424.71851563 142.12036133 425.36962891 C146.09528544 428.4655211 150.08796381 431.53794174 154.08666992 434.60302734 C154.81023682 435.15982178 155.53380371 435.71661621 156.27929688 436.2902832 C156.94791748 436.80212158 157.61653809 437.31395996 158.30541992 437.84130859 C158.89258789 438.29159424 159.47975586 438.74187988 160.0847168 439.20581055 C163.62930463 441.76572663 166.2517985 441.84986559 170.58666992 441.29052734 C172.52187589 439.97829863 172.52187589 439.97829863 174.35839844 438.22143555 C175.05675812 437.58396393 175.7551178 436.94649231 176.47463989 436.28970337 C179.73488402 433.2036668 182.94475621 430.07537777 186.11401367 426.89599609 C186.78839981 426.22256668 187.46278595 425.54913727 188.15760803 424.8553009 C189.5662606 423.44732294 190.97367491 422.03810511 192.37988281 420.62768555 C194.53946765 418.4626913 196.70440874 416.30315479 198.86987305 414.14404297 C200.24324112 412.77001498 201.61629943 411.39567729 202.98901367 410.02099609 C203.96075783 409.05228828 203.96075783 409.05228828 204.95213318 408.06401062 C205.54687943 407.46611221 206.14162567 406.86821381 206.75439453 406.25219727 C207.27875595 405.72704025 207.80311737 405.20188324 208.34336853 404.66081238 C210.57545011 402.20075885 211.17826969 399.76727592 211.11010742 396.45458984 C209.87445804 391.34600955 205.80676384 387.30419891 202.58666992 383.29052734 C201.70872981 382.17071589 200.83247385 381.04958233 199.95776367 379.92724609 C198.11476916 377.56726172 196.26426524 375.21350146 194.40698242 372.86474609 C191.61632069 369.33242201 188.84290942 365.78727381 186.08666992 362.22802734 C184.89557617 360.6946875 184.89557617 360.6946875 183.68041992 359.13037109 C182.98948242 358.19322266 182.29854492 357.25607422 181.58666992 356.29052734 C180.99885742 355.50806641 180.41104492 354.72560547 179.80541992 353.91943359 C177.7456463 349.47639626 177.76125078 345.55944734 179.40698242 341.03564453 C180.56319353 338.5371056 181.80607756 336.102612 183.08666992 333.66552734 C187.420873 325.08968291 190.88954079 316.46718093 193.80932617 307.31152344 C194.10323242 306.4357666 194.39713867 305.56000977 194.69995117 304.65771484 C194.94527588 303.88540527 195.19060059 303.1130957 195.44335938 302.31738281 C197.1148827 299.35411425 198.42638801 298.64792374 201.58666992 297.29052734 C205.37241001 296.51288278 209.18223554 296.07912637 213.02026367 295.64208984 C215.30092386 295.35611941 217.58152097 295.06964556 219.86206055 294.78271484 C223.44690371 294.34532909 227.03232545 293.91457028 230.61914062 293.49365234 C234.08866488 293.08196945 237.55425792 292.64478185 241.02026367 292.20458984 C242.08917343 292.08669098 243.15808319 291.96879211 244.25938416 291.84732056 C250.58473924 291.02814869 254.18565413 290.00337552 258.58666992 285.29052734 C259.84239503 282.77907713 259.74095006 281.01266517 259.77954102 278.20166016 C259.79560394 277.14005676 259.81166687 276.07845337 259.82821655 274.98468018 C259.87263355 270.12244255 259.91373781 265.26034229 259.93676758 260.39794922 C259.9533235 257.83340376 259.9806083 255.26890437 260.01879883 252.70458984 C260.07356545 249.00903352 260.09544337 245.31455985 260.11010742 241.61865234 C260.14411148 239.90273895 260.14411148 239.90273895 260.17880249 238.15216064 C260.24308047 231.53852259 260.24308047 231.53852259 257.61645508 225.64501953 C253.68137493 222.58700882 250.45240836 221.91737305 245.58666992 221.29052734 C244.84843994 221.18201447 244.11020996 221.07350159 243.34960938 220.96170044 C241.06695703 220.64363775 238.78246257 220.37058409 236.49291992 220.10693359 C234.78585537 219.89952521 233.07882512 219.69183434 231.37182617 219.48388672 C228.72624461 219.16662304 226.08038844 218.85229375 223.43383789 218.54321289 C220.8482978 218.23938435 218.264383 217.92385805 215.68041992 217.60693359 C214.90202759 217.51932266 214.12363525 217.43171173 213.32165527 217.34144592 C207.99580138 216.67899911 202.36120819 215.8496957 197.58666992 213.29052734 C195.63301688 210.45396058 194.63288605 207.55766945 193.58666992 204.29052734 C192.96044908 202.62836862 192.32885185 200.96822641 191.69213867 199.31005859 C191.05192284 197.57471067 190.41262371 195.83902431 189.77416992 194.10302734 C187.38791297 187.67156679 184.82874932 181.52345279 181.58666992 175.47802734 C178.90917174 170.30071393 177.45135239 167.07032569 178.58666992 161.29052734 C181.66584875 156.22454504 185.36363166 151.63275465 189.02416992 146.97802734 C190.26689635 145.38860482 191.50906946 143.79874954 192.75073242 142.20849609 C193.69867676 140.99492432 193.69867676 140.99492432 194.66577148 139.75683594 C197.76166368 135.78191182 200.83408431 131.78923346 203.89916992 127.79052734 C204.45596436 127.06696045 205.01275879 126.34339355 205.58642578 125.59790039 C206.09826416 124.92927979 206.61010254 124.26065918 207.13745117 123.57177734 C207.58773682 122.98460938 208.03802246 122.39744141 208.50195312 121.79248047 C211.06186921 118.24789264 211.14600817 115.62539877 210.58666992 111.29052734 C209.2744412 109.35532137 209.2744412 109.35532137 207.51757812 107.51879883 C206.5613707 106.47125931 206.5613707 106.47125931 205.58584595 105.40255737 C202.49980938 102.14231324 199.37152035 98.93244105 196.19213867 95.76318359 C195.51870926 95.08879745 194.84527985 94.41441132 194.15144348 93.71958923 C192.74346552 92.31093667 191.33424768 90.90352235 189.92382812 89.49731445 C187.75883388 87.33772962 185.59929737 85.17278852 183.44018555 83.00732422 C182.06615755 81.63395615 180.69181987 80.26089784 179.31713867 78.88818359 C178.67133347 78.24035416 178.02552826 77.59252472 177.3601532 76.92506409 C176.76225479 76.33031784 176.16435638 75.73557159 175.54833984 75.12280273 C175.02318283 74.59844131 174.49802582 74.0740799 173.95695496 73.53382874 C171.49690142 71.30174716 169.0634185 70.69892758 165.75073242 70.76708984 C160.64247411 72.00266135 156.59916902 76.06929715 152.58666992 79.29052734 C151.50187491 80.14484463 150.41590677 80.99767411 149.32885742 81.84912109 C147.60272357 83.20247952 145.87792723 84.55733269 144.15771484 85.91821289 C139.43408403 89.65126959 134.65059514 93.29979012 129.83666992 96.91552734 C129.14484619 97.43663086 128.45302246 97.95773438 127.74023438 98.49462891 C122.48185821 102.43067715 119.23781529 104.19199558 112.58666992 103.29052734 C109.22261585 102.08462774 106.1215459 100.45091819 102.96166992 98.79052734 C94.38582549 94.45632426 85.76332351 90.98765648 76.60766602 88.06787109 C75.73190918 87.77396484 74.85615234 87.48005859 73.95385742 87.17724609 C73.18154785 86.93192139 72.40923828 86.68659668 71.61352539 86.43383789 C68.75232729 84.81989057 67.94198606 83.2796527 66.58666992 80.29052734 C66.02654888 77.5608055 65.59669584 74.95639847 65.27026367 72.20068359 C65.16827164 71.4197081 65.0662796 70.6387326 64.9611969 69.83409119 C64.63803683 67.34164954 64.33070286 64.84756292 64.02416992 62.35302734 C63.81496217 60.71161345 63.6046851 59.07033548 63.39331055 57.42919922 C62.98198803 54.22595742 62.57128359 51.02263999 62.16235352 47.8190918 C62.06533142 47.0599649 61.96830933 46.30083801 61.86834717 45.51870728 C61.68447175 44.06417898 61.50370614 42.60925322 61.32647705 41.15390015 C61.08988305 39.21398588 60.84058158 37.27563385 60.59057617 35.33740234 C60.45594971 34.25426758 60.32132324 33.17113281 60.18261719 32.05517578 C59.29245291 27.92563038 57.73524766 26.04553286 54.58666992 23.29052734 C52.07521971 22.03480224 50.30880775 22.1362472 47.49780273 22.09765625 C46.43619934 22.08159332 45.37459595 22.0655304 44.28082275 22.04898071 C39.41858513 22.00456371 34.55648487 21.96345945 29.6940918 21.94042969 C27.12954634 21.92387376 24.56504695 21.89658897 22.00073242 21.85839844 C18.3051761 21.80363182 14.61070243 21.7817539 10.91479492 21.76708984 C9.77085266 21.74442047 8.6269104 21.7217511 7.44830322 21.69839478 C0.76289285 21.71613212 -3.17897871 21.84171975 -7.41333008 27.29052734 Z " fill="#B8860A" transform="translate(230.413330078125,-0.29052734375)"/>
<path d="M0 0 C18.03421627 15.94784894 29.42960335 35.01609277 35.46484375 58.1796875 C35.83416016 59.57960937 35.83416016 59.57960937 36.2109375 61.0078125 C42.04172042 88.51302295 35.62632795 117.91664673 20.48828125 141.26171875 C4.14255848 164.83363942 -17.97414388 179.99870643 -45.53515625 187.1796875 C-46.93507813 187.54900391 -46.93507813 187.54900391 -48.36328125 187.92578125 C-75.87196078 193.75729957 -105.24174086 187.12244787 -128.76611328 172.34423828 C-133.35836785 169.32118359 -137.48815987 165.8899444 -141.53515625 162.1796875 C-142.45941406 161.33664062 -143.38367188 160.49359375 -144.3359375 159.625 C-159.71740739 144.9455889 -169.22044933 126.57783389 -174.53515625 106.1796875 C-174.78136719 105.24640625 -175.02757812 104.313125 -175.28125 103.3515625 C-181.11203292 75.84635205 -174.69664045 46.44272827 -159.55859375 23.09765625 C-143.21287098 -0.47426442 -121.09616862 -15.63933143 -93.53515625 -22.8203125 C-92.601875 -23.06652344 -91.66859375 -23.31273437 -90.70703125 -23.56640625 C-58.64748413 -30.36265527 -24.86748682 -20.71618837 0 0 Z M-126.53515625 19.1796875 C-127.29699219 19.84613281 -128.05882812 20.51257813 -128.84375 21.19921875 C-143.11687176 34.53234289 -153.68351186 55.5918666 -154.53515625 75.1796875 C-154.58671875 76.18 -154.63828125 77.1803125 -154.69140625 78.2109375 C-155.30528434 100.92442675 -147.5654432 122.09350178 -132.53515625 139.1796875 C-131.53548828 140.32244141 -131.53548828 140.32244141 -130.515625 141.48828125 C-117.18250086 155.76140301 -96.12297715 166.32804311 -76.53515625 167.1796875 C-75.53484375 167.23125 -74.53453125 167.2828125 -73.50390625 167.3359375 C-50.790417 167.94981559 -29.62134197 160.20997445 -12.53515625 145.1796875 C-11.77332031 144.51324219 -11.01148438 143.84679687 -10.2265625 143.16015625 C4.04655926 129.82703211 14.61319936 108.7675084 15.46484375 89.1796875 C15.51640625 88.179375 15.56796875 87.1790625 15.62109375 86.1484375 C16.23497184 63.43494825 8.4951307 42.26587322 -6.53515625 25.1796875 C-7.20160156 24.41785156 -7.86804688 23.65601563 -8.5546875 22.87109375 C-21.88781164 8.59797199 -42.94733535 -1.96866811 -62.53515625 -2.8203125 C-63.53546875 -2.871875 -64.53578125 -2.9234375 -65.56640625 -2.9765625 C-88.2798955 -3.59044059 -109.44897053 4.14940055 -126.53515625 19.1796875 Z " fill="#B7860A" transform="translate(325.53515625,173.8203125)"/>
</svg>
