<?xml version="1.0" encoding="UTF-8"?>
<svg version="1.1" xmlns="http://www.w3.org/2000/svg" width="512" height="512">
<path d="M0 0 C1.35550371 0.17433639 2.71114012 0.34764361 4.06689453 0.52001953 C50.86096486 6.53286124 107.60476055 17.0362442 142 52 C142.59683594 52.53882813 143.19367188 53.07765625 143.80859375 53.6328125 C151.62411255 60.79235251 157.31933573 71.46015479 158.27965248 82.0977627 C158.38908211 85.80576902 158.40457464 89.50335715 158.38768005 93.21296692 C158.39185793 94.64761686 158.39733793 96.0822635 158.40399987 97.51690406 C158.41841398 101.44121666 158.41422243 105.36531851 158.40683305 109.28964245 C158.4020936 113.52903709 158.41461817 117.76838664 158.42485046 122.00776672 C158.44202917 130.30646139 158.44288032 138.6050803 158.43763756 146.90378813 C158.43359254 153.65119032 158.43504337 160.39857017 158.44038582 167.1459713 C158.44113424 168.10711293 158.44188266 169.06825455 158.44265376 170.05852168 C158.44418528 172.01123511 158.44572363 173.96394853 158.44726873 175.91666194 C158.46099067 194.22118717 158.45555846 212.52566965 158.44408352 230.8301939 C158.43415371 247.5633945 158.447088 264.29648448 158.47101771 281.02966801 C158.49542142 298.22429108 158.50501331 315.41886265 158.49836498 332.61350268 C158.49487531 342.26174968 158.49708813 351.90991164 158.51461601 361.55814552 C158.52935398 369.77237611 158.52995271 377.9864618 158.5125451 386.20068959 C158.50404543 390.38855557 158.50186007 394.57616286 158.51719666 398.7640152 C158.53108501 402.60408049 158.52622795 406.4436665 158.50695742 410.28370436 C158.50144581 412.31739008 158.51543433 414.35110045 158.53031152 416.38473922 C158.42776456 429.24258105 155.07196231 438.99778584 147 449 C146.57106445 449.54132568 146.14212891 450.08265137 145.70019531 450.64038086 C142.06501815 455.08209013 138.12223211 458.55332542 133.5 461.9375 C132.79713867 462.45546143 132.09427734 462.97342285 131.37011719 463.50708008 C124.86070048 468.22633386 118.18783173 472.37533599 111 476 C109.95827637 476.5269043 109.95827637 476.5269043 108.89550781 477.06445312 C75.68045593 493.54842198 38.55626577 501.09486691 1.99932861 505.74285889 C0.10755398 505.98616708 -1.7824767 506.24292496 -3.67236328 506.50048828 C-46.29945139 512.12017393 -93.4314417 511.90738012 -136 506 C-137.33898616 505.8209613 -138.67801756 505.64226063 -140.01708984 505.46386719 C-165.42172199 502.032826 -190.65254376 497.12939319 -215 489 C-216.16571533 488.61207275 -216.16571533 488.61207275 -217.35498047 488.21630859 C-235.36075864 482.12496837 -252.84117276 474.59715437 -268 463 C-268.83789062 462.39414062 -269.67578125 461.78828125 -270.5390625 461.1640625 C-282.21404519 452.53472747 -290.55721807 441.18184141 -294 427 C-294.53034663 422.13336234 -294.54123241 417.31823825 -294.50793457 412.42626953 C-294.51255319 410.98902825 -294.51891252 409.55179171 -294.52684355 408.1145649 C-294.54342831 404.19696594 -294.53534051 400.27976042 -294.52289867 396.36216068 C-294.51380565 392.12485754 -294.52783889 387.88761956 -294.53881836 383.65032959 C-294.55656299 375.36204689 -294.55278173 367.07390945 -294.5411678 358.78562117 C-294.53211774 352.04686769 -294.53091627 345.30815479 -294.53526306 338.56939697 C-294.53587599 337.60866181 -294.53648893 336.64792666 -294.53712043 335.65807831 C-294.53839939 333.70608948 -294.53969625 331.75410067 -294.5410108 329.80211186 C-294.55240471 311.51758629 -294.53932156 293.23314106 -294.51780933 274.94862866 C-294.49993944 259.27495702 -294.50304388 243.60140389 -294.52148438 227.92773438 C-294.5429121 209.70663186 -294.55130619 191.48559967 -294.53903532 173.26448631 C-294.53776118 171.31985856 -294.5365037 169.3752308 -294.53526306 167.43060303 C-294.53433741 165.99558006 -294.53433741 165.99558006 -294.53339306 164.53156674 C-294.52994586 157.80441348 -294.53575488 151.07730501 -294.54518127 144.35015869 C-294.55642378 136.14697258 -294.55331397 127.94393949 -294.5320583 119.74077082 C-294.52157811 115.55896494 -294.51737399 111.37741378 -294.53065491 107.19561005 C-294.54264794 103.36120709 -294.53590379 99.52729293 -294.5147447 95.6929338 C-294.50821945 93.66237998 -294.52115264 91.63179175 -294.53497362 89.60127449 C-294.42588484 76.75120831 -291.06713966 66.99623827 -283 57 C-282.57178955 56.4622998 -282.1435791 55.92459961 -281.70239258 55.37060547 C-249.38255888 16.02330751 -183.21607161 5.89133624 -136 0 C-134.87899902 -0.15098145 -133.75799805 -0.30196289 -132.60302734 -0.45751953 C-89.78964732 -6.04816656 -42.76288274 -5.8279424 0 0 Z M-237 49 C-238.13824219 49.56460938 -239.27648437 50.12921875 -240.44921875 50.7109375 C-247.67143055 54.41850732 -253.93280887 58.60809555 -260 64 C-260.7321875 64.63808594 -261.464375 65.27617188 -262.21875 65.93359375 C-268.73827734 71.9787525 -273.1729952 78.540743 -273.5625 87.625 C-272.99641075 97.71554089 -267.05071254 104.19278053 -260 111 C-223.82239804 142.25371631 -167.9689319 150.13143182 -122 155 C-120.97745117 155.11714355 -119.95490234 155.23428711 -118.90136719 155.35498047 C-46.48352978 163.44817286 61.23332528 160.83191487 121.1875 113.375 C128.33390974 107.13833261 135.85778318 100.16579419 137.4140625 90.40234375 C137.87506467 81.77675059 135.16375001 75.80621802 129.7109375 69.24609375 C122.9832046 62.11152154 115.50642349 56.82060685 107 52 C106.11779785 51.49605713 106.11779785 51.49605713 105.21777344 50.98193359 C31.68272043 9.79668135 -72.50129422 10.40017846 -237 49 Z M-273 128 C-273.11625873 137.60597615 -273.20489905 147.21170716 -273.25906086 156.8182354 C-273.28506644 161.27979398 -273.32029711 165.74086842 -273.37719727 170.20214844 C-273.4318425 174.51400583 -273.46148839 178.8253999 -273.47438622 183.13757706 C-273.48356819 184.77612722 -273.50149774 186.41465431 -273.52865028 188.05300522 C-273.70492268 199.13794852 -272.62361313 207.09831495 -265.59765625 216.06640625 C-217.27121657 263.64821666 -129.58845544 268.27856259 -65.94506836 268.18310547 C-2.50343451 267.54984508 82.80808517 262.95464757 129.8515625 215.1171875 C135.34767436 209.07958678 137.38191835 203.49252692 137.34057617 195.32055664 C137.34123329 194.22174667 137.34123329 194.22174667 137.34190369 193.10073853 C137.33983037 190.70359705 137.31656967 188.30717401 137.29296875 185.91015625 C137.28736758 184.23864626 137.28309994 182.56713132 137.28010559 180.89561462 C137.26869778 176.51433512 137.23926601 172.133358 137.20599365 167.75219727 C137.17520476 163.2742929 137.16158147 158.79633927 137.14648438 154.31835938 C137.11439204 145.54543477 137.06324541 136.77275509 137 128 C135.89619492 128.62453064 134.79238983 129.24906128 133.65513611 129.89251709 C133.03424575 130.24381557 132.41335539 130.59511406 131.77365017 130.95705795 C129.49269526 132.29830541 127.38206926 133.81991998 125.25390625 135.390625 C83.91037612 164.6292428 24.97239342 172.18854707 -24 176 C-25.23508301 176.09643799 -26.47016602 176.19287598 -27.74267578 176.29223633 C-40.89747478 177.2311862 -54.06786356 177.19975011 -67.25 177.1875 C-68.44964386 177.18689575 -69.64928772 177.1862915 -70.88528442 177.18566895 C-88.67415284 177.16134269 -106.29967468 176.92286929 -124 175 C-125.82120361 174.80664062 -125.82120361 174.80664062 -127.67919922 174.609375 C-155.96142735 171.50877291 -183.80586203 166.46695217 -211 158 C-211.86061035 157.73638672 -212.7212207 157.47277344 -213.60791016 157.20117188 C-232.20071525 151.41787097 -251.02503125 143.50528681 -266.64453125 131.7421875 C-268.72336842 130.20460644 -270.68258047 129.11458444 -273 128 Z M-273 238 C-273.13958431 247.71904583 -273.24591492 257.4377418 -273.31087303 267.15757465 C-273.34206443 271.67189992 -273.38431071 276.18553484 -273.45263672 280.69946289 C-273.5182693 285.06321595 -273.55379751 289.42630891 -273.56926346 293.79051781 C-273.58027177 295.44781053 -273.60176739 297.10507086 -273.63438034 298.76207924 C-273.86941338 311.20912347 -271.93305744 319.84821254 -263.25 329.25 C-258.83334599 333.34998825 -254.07623522 336.76577418 -249 340 C-248.05253906 340.61488281 -247.10507813 341.22976563 -246.12890625 341.86328125 C-227.76062315 353.08209798 -206.70866273 359.61702513 -186 365 C-184.68612305 365.34538818 -184.68612305 365.34538818 -183.34570312 365.69775391 C-159.52176762 371.8431029 -134.53027876 375.31359788 -110 377 C-108.25831543 377.12918823 -108.25831543 377.12918823 -106.48144531 377.26098633 C-93.90982343 378.1376439 -81.34788695 378.20025042 -68.75 378.1875 C-67.09309143 378.18659363 -67.09309143 378.18659363 -65.40270996 378.18566895 C-7.96578854 378.10052799 54.75301269 372.02752853 106 344 C106.94101562 343.48695313 107.88203125 342.97390625 108.8515625 342.4453125 C120.00676326 336.05611083 133.01151639 326.84426447 137 314 C137.55790098 308.19492284 137.46632543 302.41983951 137.390625 296.59375 C137.38315504 294.90125195 137.37746568 293.20874518 137.37347412 291.51623535 C137.35827712 287.08389981 137.31904745 282.65209719 137.2746582 278.2199707 C137.23357662 273.68838711 137.21543571 269.15671655 137.1953125 264.625 C137.15254664 255.74976718 137.08436825 246.87492809 137 238 C136.38493591 238.41010315 135.76987183 238.8202063 135.13616943 239.24273682 C134.32778625 239.78170593 133.51940308 240.32067505 132.68652344 240.87597656 C131.48548981 241.67675629 131.48548981 241.67675629 130.26019287 242.49371338 C79.40117324 276.38828132 14.19099153 285.54522711 -45.8125 287.5625 C-47.04806641 287.6042334 -48.28363281 287.6459668 -49.55664062 287.68896484 C-58.37835903 287.97319959 -67.1739471 288.19297038 -76 288 C-77.41128174 287.97317139 -77.41128174 287.97317139 -78.85107422 287.94580078 C-118.04093122 287.12043408 -157.00804763 282.88393809 -195 273 C-196.02029297 272.73461426 -197.04058594 272.46922852 -198.09179688 272.19580078 C-223.38203859 265.48835398 -249.30916899 256.13753508 -269.9453125 239.6171875 C-271.69517117 237.89691982 -271.69517117 237.89691982 -273 238 Z M-273 349 C-273.11625873 358.60597615 -273.20489905 368.21170716 -273.25906086 377.8182354 C-273.28506644 382.27979398 -273.32029711 386.74086842 -273.37719727 391.20214844 C-273.4318425 395.51400583 -273.46148839 399.8253999 -273.47438622 404.13757706 C-273.48356819 405.77612722 -273.50149774 407.41465431 -273.52865028 409.05300522 C-273.70492268 420.13794852 -272.62361313 428.09831495 -265.59765625 437.06640625 C-216.29227369 485.61207567 -126.29839356 489.36207329 -60.88183594 488.984375 C-6.94111114 488.34460362 52.48294311 482.06002168 101 457 C101.65548828 456.66919434 102.31097656 456.33838867 102.98632812 455.99755859 C116.54016515 449.10180312 131.95171302 439.20403898 137 424 C137.17600671 421.47631035 137.25357237 419.06799426 137.22705078 416.54760742 C137.22748886 415.44923553 137.22748886 415.44923553 137.22793579 414.32867432 C137.2265482 411.92081641 137.21101418 409.51327225 137.1953125 407.10546875 C137.19158033 405.43109811 137.18873432 403.75672529 137.18673706 402.08235168 C137.17911663 397.68468144 137.15948184 393.28714421 137.1373291 388.88952637 C137.11683638 384.39837442 137.10772802 379.90720089 137.09765625 375.41601562 C137.0762344 366.61061618 137.04211772 357.80532466 137 349 C133.9379255 350.471717 131.2558491 352.19796969 128.48803711 354.171875 C74.10004442 392.40202471 -2.76990755 398.2531187 -67.25 398.1875 C-68.90174225 398.18659363 -68.90174225 398.18659363 -70.58685303 398.18566895 C-88.13898845 398.15959937 -105.52542313 397.78282348 -123 396 C-124.27327148 395.87109375 -125.54654297 395.7421875 -126.85839844 395.609375 C-174.31005219 390.678186 -226.52001438 381.22511908 -266.13671875 352.99609375 C-268.41124363 351.41044271 -270.51969498 350.19210263 -273 349 Z " fill="#B8860A" transform="translate(324,3)"/>
<path d="M0 0 C2.75569447 2.18159145 4.43588747 3.87177494 6 7 C6.5098625 11.4188083 6.29172207 13.50771901 4 17.375 C0.75491433 20.21444996 -0.88385018 20.95091395 -5.07421875 21.171875 C-8.95345583 20.82565506 -11.1116364 18.85773037 -13.8125 16.25 C-15.55246428 12.95322558 -15.44406988 10.67943611 -15 7 C-11.19037802 0.14268043 -7.62557418 -1.21166291 0 0 Z " fill="#B8870A" transform="translate(386,311)"/>
<path d="M0 0 C3.50290345 3.06504052 4.82221283 4.89376872 5.5625 9.5 C4.9051093 13.59043104 3.59081908 15.79957644 1 19 C-2.47263273 20.73631636 -6.21193013 20.60190402 -10 20 C-12.75569447 17.81840855 -14.43588747 16.12822506 -16 13 C-16.37510464 9.74909308 -16.66540869 7.15611549 -14.98828125 4.2421875 C-10.7332745 -1.0478209 -6.42273473 -2.01179045 0 0 Z " fill="#B7860A" transform="translate(387,201)"/>
<path d="M0 0 C3.50290345 3.06504052 4.82221283 4.89376872 5.5625 9.5 C4.9051093 13.59043104 3.59081908 15.79957644 1 19 C-2.19378082 20.59689041 -5.52521315 20.37348957 -9 20 C-11.87472735 18.75011855 -13.44101438 17.74531416 -15.3125 15.25 C-16.32815881 11.9260257 -16.41796486 9.46313738 -16 6 C-12.22042203 -0.51250358 -7.16153581 -2.2432048 0 0 Z " fill="#B8860A" transform="translate(387,422)"/>
<path d="M0 0 C2.47555146 1.92542891 3.36131106 2.76077355 4.25 5.75 C4.91298343 12.71132597 4.91298343 12.71132597 2.375 16.6875 C-0.61450314 19.58907658 -1.32629239 19.72949802 -5.625 19.9375 C-11.20147548 19.82657553 -11.20147548 19.82657553 -13.75 17.75 C-16.11230491 14.32873083 -17.00836526 11.7198519 -16.6875 7.625 C-15.71105281 3.58901829 -15.04151862 2.17023428 -11.75 -0.25 C-7.41696854 -1.69434382 -4.20952222 -1.91341919 0 0 Z " fill="#B8870A" transform="translate(427.75,412.25)"/>
<path d="M0 0 C2.87029869 1.79393668 4.49131638 2.98263276 6 6 C6.4973766 10.973766 6.54511419 13.06308498 4 17.4375 C0.79314279 20.17669053 -0.88823275 21.01265832 -5.00390625 21.23828125 C-8.44405138 20.82761813 -10.45378542 19.2430938 -13 17 C-15.35062814 13.794598 -15.39807915 10.90117562 -15 7 C-11.68933924 0.06337746 -7.20314329 -1.06151585 0 0 Z " fill="#B8860A" transform="translate(426,301)"/>
<path d="M0 0 C3.05090712 1.59177763 4.58855376 2.73438174 5.66796875 6.0546875 C6.40793367 10.40656038 6.26129385 12.49543256 4.1875 16.5 C2.01300647 18.98513546 1.21988159 19.85380594 -1.98828125 20.23828125 C-6.15410332 20.3713075 -8.37869331 20.38831668 -12 18.125 C-15.03852976 14.89656213 -15.39599524 12.55527784 -15.35546875 8.10546875 C-14.72046773 4.34430885 -12.72377681 2.59708952 -10 0 C-6.18323682 -1.27225439 -3.91280349 -0.87700768 0 0 Z " fill="#B8860A" transform="translate(346,211)"/>
<path d="M0 0 C2.86624771 2.44825325 4.61349969 4.24877735 5.44140625 8 C5.65821147 11.69268247 5.10798801 13.83081878 3.125 16.9375 C-0.36158203 20.3215355 -3.03592714 20.38966392 -7.73828125 20.359375 C-11.32520929 19.78943134 -12.86838894 17.79773951 -15 15 C-16.74843676 11.50312647 -15.97950326 7.69450223 -15 4 C-10.40350244 -0.71435647 -6.36230714 -1.94640371 0 0 Z " fill="#B8870A" transform="translate(427,191)"/>
<path d="M0 0 C2.6531134 2.1617961 3.5538562 4.153065 4.6875 7.375 C4.88338837 11.29276747 4.27334369 14.46108385 2.125 17.8125 C-1.22641615 19.96084369 -4.39473253 20.57088837 -8.3125 20.375 C-11.534435 19.2413562 -13.5257039 18.3406134 -15.6875 15.6875 C-16.6265585 12.21298354 -16.90227379 8.91364272 -16.3125 5.375 C-12.23111209 -1.01917439 -7.13643953 -1.92876744 0 0 Z " fill="#B8860A" transform="translate(347.3125,321.625)"/>
<path d="M0 0 C2.875 1.5 2.875 1.5 5 4 C6.30113584 8.29696094 6.50217134 11.7577867 4.8125 15.9375 C1.67410562 19.50877637 -0.15244245 19.91928023 -4.9375 20.375 C-9.04616551 20.28301495 -11.10821749 18.97941228 -14 16 C-15.61540873 12.76918255 -15.5896275 9.49240902 -15 6 C-11.34705615 -0.58658215 -7.0868974 -1.58844252 0 0 Z " fill="#B8860A" transform="translate(346,432)"/>
</svg>
