<?xml version="1.0" encoding="UTF-8"?>
<svg version="1.1" xmlns="http://www.w3.org/2000/svg" width="512" height="512">
<path d="M0 0 C1.0999568 -0.00525911 1.0999568 -0.00525911 2.22213495 -0.01062447 C4.68068859 -0.01993241 7.13900505 -0.01501674 9.59756851 -0.01015663 C11.37753564 -0.0138932 13.15750112 -0.01849475 14.937464 -0.02388728 C19.83010045 -0.03613193 24.72266859 -0.03585508 29.61531687 -0.03349853 C34.89153633 -0.03309073 40.16773379 -0.04412598 45.44394302 -0.05361366 C55.78173933 -0.07023279 66.11951283 -0.07572363 76.45732138 -0.07683842 C84.8600333 -0.07778848 93.26273769 -0.08189669 101.66544724 -0.08823967 C125.48515781 -0.10585475 149.30485035 -0.11507815 173.12456748 -0.11357872 C175.05111113 -0.11345885 175.05111113 -0.11345885 177.01657486 -0.11333656 C178.30250433 -0.1132548 179.5884338 -0.11317304 180.91333082 -0.1130888 C201.75430607 -0.11227588 222.59520905 -0.13141449 243.4361634 -0.1596133 C264.83206158 -0.18833468 286.22792452 -0.20215399 307.62384248 -0.20042574 C319.63739081 -0.19976157 331.6508634 -0.20526569 343.66439438 -0.22678185 C353.89308231 -0.24498382 364.12166015 -0.24934904 374.35035726 -0.235763 C379.56880156 -0.22922837 384.78703457 -0.22913416 390.00545883 -0.2464695 C394.78489775 -0.26218319 399.56395758 -0.25935386 404.34338716 -0.24190123 C406.0701593 -0.2388276 407.79695962 -0.24247742 409.52369854 -0.25362138 C421.04850804 -0.32305927 431.16995202 0.29629237 440.01169205 8.55414391 C447.35141016 16.71770793 448.84144686 24.85283335 448.81036758 35.54138756 C448.8148987 36.68285311 448.81942981 37.82431866 448.82409823 39.00037408 C448.83676548 42.82790874 448.83512033 46.65530153 448.83346939 50.48285484 C448.8383664 53.22610574 448.8462018 55.96934668 448.85382462 58.71259117 C448.87042399 65.39274229 448.87593369 72.07285811 448.87704937 78.75302812 C448.87800042 84.18472687 448.88211357 89.61641399 448.88845062 95.04810905 C448.90606073 110.45651739 448.91528994 125.86489788 448.91378967 141.27331635 C448.91370976 142.10365546 448.91362985 142.93399457 448.91354752 143.78949547 C448.91346575 144.62085149 448.91338399 145.45220751 448.91329975 146.30875614 C448.91248709 159.77790826 448.93162039 173.24694848 448.95982425 186.71606824 C448.98857205 200.55444631 449.00236348 214.39276984 449.0006367 228.23117852 C448.99997341 235.99700092 449.00543855 243.76270605 449.0269928 251.52850151 C449.04522967 258.141345 449.04953152 264.75401807 449.03597395 271.36687586 C449.02945647 274.73839361 449.03146759 278.10931866 449.04668045 281.48084831 C449.06213083 285.14259482 449.05282464 288.80348738 449.03741837 292.46521568 C449.04770549 293.52146007 449.05799262 294.57770446 449.06859148 295.66595626 C448.98313749 304.87845957 446.63398331 312.8864318 440.24606705 319.72601891 C434.02584906 325.31850847 427.09591453 328.51337422 418.65832901 328.49777794 C417.50575607 328.50052727 416.35318314 328.5032766 415.16568375 328.50610924 C413.91555496 328.49891869 412.66542618 328.49172813 411.3774147 328.48431969 C410.03664534 328.48375504 408.69587536 328.48407318 407.35510635 328.4852047 C403.72742357 328.48577711 400.0998738 328.47404084 396.47222185 328.46005678 C392.67657812 328.44753089 388.88093114 328.44637746 385.08526993 328.44400597 C377.90308226 328.43779665 370.72095568 328.42139328 363.53879488 328.40130699 C355.35985986 328.37893089 347.18092188 328.36795026 339.00196385 328.35791612 C322.18224855 328.33702655 305.36261736 328.30035718 288.54294205 328.25726891 C288.54294205 338.81726891 288.54294205 349.37726891 288.54294205 360.25726891 C297.57809482 360.09926597 297.57809482 360.09926597 306.61227798 359.89691734 C307.73924088 359.88692711 308.86620377 359.87693687 310.02731705 359.86664391 C311.17941666 359.84569664 312.33151627 359.82474937 313.51852798 359.80316734 C317.30571781 360.3717961 318.24970404 361.22795262 320.54294205 364.25726891 C321.83621896 366.51743263 323.01452839 368.73236145 324.14450455 371.06976891 C324.46704208 371.72050377 324.78957962 372.37123863 325.12189102 373.04169273 C326.14486253 375.10989515 327.15654938 377.18338365 328.16794205 379.25726891 C328.85469792 380.65086502 329.54219083 382.04409819 330.23044205 383.43695641 C331.49234486 385.99333369 332.75003236 388.55168316 334.0024147 391.11273766 C334.88472144 392.91370607 335.78996497 394.70470666 336.75925064 396.46039391 C338.11553427 399.57012833 337.35581524 402.06383849 336.54294205 405.25726891 C334.75772426 407.35629154 333.28353453 408.15634252 330.55043411 408.52880371 C327.92029841 408.64995422 325.30672845 408.66159573 322.67380142 408.64494896 C321.660485 408.6503345 320.64716858 408.65572003 319.6031456 408.66126877 C316.19753862 408.67561048 312.79231693 408.66842922 309.38669205 408.66132164 C306.94927023 408.66702191 304.51185109 408.67398482 302.07443619 408.68211937 C296.1352839 408.6982338 290.19622926 408.70014398 284.25706673 408.69490647 C279.43071672 408.69086701 274.60439798 408.69230563 269.77804947 408.69765472 C269.09145673 408.69840315 268.404864 408.69915157 267.69746542 408.69992267 C266.30271847 408.70145412 264.90797153 408.70299247 263.5132246 408.70453764 C250.43093646 408.71826855 237.3487081 408.71282063 224.26642132 408.70135242 C212.29331145 408.69141725 200.32035605 408.70436451 188.34727001 408.72828662 C176.05709309 408.75265755 163.76698818 408.76229058 151.47678757 408.75563389 C144.57520938 408.75213747 137.67375005 408.75440161 130.77219009 408.77188492 C124.28463639 408.78811545 117.79730554 408.78345657 111.30975723 408.76457977 C108.92484979 408.76087953 106.53992066 408.76404381 104.15503311 408.77446556 C100.90703705 408.78757856 97.66003508 408.77621358 94.41208267 408.75847435 C93.46150734 408.76807936 92.51093201 408.77768436 91.53155136 408.78758043 C85.20337259 408.7161426 85.20337259 408.7161426 81.95586014 406.45973873 C79.81330002 403.11989615 79.90425959 400.04071855 80.54294205 396.25726891 C81.47947926 393.38939917 82.76483533 390.78126901 84.1562233 388.10883141 C84.52644104 387.37022881 84.89665878 386.63162621 85.27809525 385.87064171 C86.0582565 384.32233288 86.84613497 382.77789065 87.64133072 381.23724937 C88.85835266 378.87662326 90.04895701 376.50403175 91.23630142 374.12836266 C91.99976475 372.62108612 92.76468812 371.11454805 93.5312233 369.60883141 C93.88759369 368.90054192 94.24396408 368.19225243 94.61113358 367.46249962 C96.33195508 364.14996854 97.37888497 362.36664029 100.54294205 360.25726891 C103.45383072 360.03021812 103.45383072 360.03021812 106.9609108 360.06195641 C108.09037125 360.06695152 109.2198317 360.07194664 110.38351822 360.07709312 C111.81800308 360.09530113 113.25248795 360.11350914 114.73044205 360.13226891 C121.56762955 360.19414391 121.56762955 360.19414391 128.54294205 360.25726891 C128.54294205 349.69726891 128.54294205 339.13726891 128.54294205 328.25726891 C124.47022964 328.27821617 120.39751724 328.29916344 116.20138931 328.32074547 C102.73851764 328.38705274 89.27564843 328.43142325 75.81265736 328.46451759 C67.65080867 328.48511543 59.48911503 328.5131826 51.32736588 328.55902672 C44.21098296 328.5989799 37.09471237 328.62472191 29.9782204 328.63362288 C26.21239144 328.63882336 22.44688374 328.65098766 18.68115807 328.68018913 C15.1311558 328.70749276 11.5816048 328.71568412 8.03150749 328.70969963 C6.11876648 328.71131171 4.20607377 328.73275597 2.29346085 328.75494957 C-8.33679038 328.70441593 -16.68776299 325.65336629 -24.45705795 318.25726891 C-30.69082198 310.34640085 -31.7530718 302.80502756 -31.72448349 292.97315025 C-31.7290146 291.8316847 -31.73354572 290.69021915 -31.73821414 289.51416373 C-31.75088138 285.68662907 -31.74923623 281.85923628 -31.7475853 278.03168297 C-31.7524823 275.28843207 -31.7603177 272.54519114 -31.76794052 269.80194664 C-31.7845399 263.12179552 -31.7900496 256.4416797 -31.79116528 249.76150969 C-31.79211633 244.32981094 -31.79622948 238.89812382 -31.80256653 233.46642876 C-31.82017664 218.05802042 -31.82940585 202.64963993 -31.82790558 187.24122146 C-31.82782567 186.41088235 -31.82774576 185.58054324 -31.82766342 184.72504234 C-31.82758166 183.89368632 -31.8274999 183.0623303 -31.82741566 182.20578167 C-31.826603 168.73662955 -31.84573629 155.26758933 -31.87394015 141.79846957 C-31.90268796 127.9600915 -31.91647938 114.12176797 -31.9147526 100.28335929 C-31.91408932 92.51753689 -31.91955445 84.75183176 -31.9411087 76.9860363 C-31.95934557 70.37319281 -31.96364742 63.76051974 -31.95008986 57.14766195 C-31.94357237 53.7761442 -31.94558349 50.40521916 -31.96079636 47.0336895 C-31.97624673 43.37194299 -31.96694055 39.71105043 -31.95153427 36.04932213 C-31.9618214 34.99307774 -31.97210852 33.93683335 -31.98270738 32.84858155 C-31.8972534 23.63607825 -29.54809921 15.62810601 -23.16018295 8.78851891 C-16.32448306 2.64266028 -9.1931089 0.00992762 0 0 Z M-11.39455795 22.00726891 C-15.71221746 28.81085359 -15.74737077 35.21917974 -15.71775436 43.06094933 C-15.72157991 44.13863803 -15.72540546 45.21632674 -15.72934693 46.32667267 C-15.73965312 49.93233141 -15.73568924 53.5378302 -15.73171616 57.14349937 C-15.73606394 59.73088287 -15.74124731 62.31826508 -15.74720383 64.90564537 C-15.75993839 71.20098198 -15.76174606 77.4962759 -15.75940356 83.79162322 C-15.75761881 88.91009121 -15.75937342 94.02854627 -15.76362801 99.14701271 C-15.76422319 99.87616114 -15.76481838 100.60530957 -15.76543161 101.35655341 C-15.76664339 102.8379391 -15.76785753 104.31932478 -15.76907399 105.80071045 C-15.77994479 119.68623844 -15.77778924 133.57174212 -15.77168914 147.45727147 C-15.76652071 160.15103497 -15.77777428 172.8447217 -15.79678736 185.53847001 C-15.8161748 198.58247549 -15.82442015 211.62644466 -15.82066411 224.67046463 C-15.8187534 231.98964599 -15.82122691 239.30876202 -15.83537865 246.62793159 C-15.84855308 253.51113066 -15.84602011 260.39417372 -15.83296776 267.27737236 C-15.83060073 269.80208831 -15.83334113 272.32681505 -15.84159088 274.85151863 C-15.85204897 278.30106449 -15.84396454 281.75009383 -15.83127975 285.1996212 C-15.83865404 286.19584114 -15.84602832 287.19206108 -15.85362607 288.2184695 C-15.80392958 294.65396944 -15.37131184 301.62418315 -11.18215257 306.84664333 C-5.73533439 311.82462564 0.78633023 312.50685255 7.87596321 312.5117445 C8.58370721 312.51495098 9.2914512 312.51815746 10.02064198 312.5214611 C12.38622147 312.5297458 14.75154676 312.52384225 17.11713028 312.51796532 C18.83267608 312.5209867 20.54822053 312.52487611 22.26376259 312.52955788 C26.97364955 312.53984833 31.68346048 312.53765339 36.3933537 312.53337729 C41.47457658 312.53091197 46.55578106 312.53992181 51.63699722 312.54741478 C61.58997703 312.56016919 71.54292987 312.56195455 81.49591647 312.55961452 C89.58539767 312.55783203 97.67487067 312.5595795 105.76435089 312.56383896 C106.91535423 312.56443415 108.06635757 312.56502934 109.2522398 312.56564256 C111.59044948 312.5668543 113.92865916 312.56806844 116.26686884 312.56928494 C138.19853278 312.58016333 160.13018135 312.57799656 182.06184615 312.57190009 C202.12743854 312.56673063 222.19298239 312.57798662 242.25856517 312.59699831 C262.86009091 312.61636822 283.46159368 312.6246342 304.06312859 312.62087506 C315.63004346 312.61896173 327.19691701 312.62146339 338.76382446 312.6355896 C348.61078999 312.64749356 358.45768876 312.64891933 368.30465518 312.63679943 C373.32852325 312.63090386 378.35226916 312.62983011 383.37612915 312.64180183 C387.97655052 312.65263711 392.57674737 312.64958531 397.17715813 312.63554015 C398.8399512 312.63288673 400.50276174 312.63527997 402.1655377 312.64327601 C415.36929741 313.12728552 415.36929741 313.12728552 427.10977542 307.98236352 C433.08195921 301.55517254 432.83466972 293.66998175 432.80363846 285.45358849 C432.80746401 284.37589978 432.81128955 283.29821108 432.81523103 282.18786514 C432.82553722 278.5822064 432.82157333 274.97670762 432.81760025 271.37103844 C432.82194803 268.78365494 432.8271314 266.19627273 432.83308792 263.60889244 C432.84582248 257.31355584 432.84763016 251.01826191 432.84528766 244.72291459 C432.8435029 239.6044466 432.84525751 234.48599154 432.8495121 229.3675251 C432.85040488 228.27380245 432.85040488 228.27380245 432.8513157 227.1579844 C432.85252749 225.67659872 432.85374162 224.19521304 432.85495808 222.71382736 C432.86582888 208.82829937 432.86367334 194.94279569 432.85757323 181.05726634 C432.8524048 168.36350285 432.86365838 155.66981611 432.88267145 142.9760678 C432.90205889 129.93206232 432.91030425 116.88809315 432.9065482 103.84407318 C432.90463749 96.52489183 432.907111 89.20577579 432.92126274 81.88660622 C432.93443717 75.00340715 432.9319042 68.12036409 432.91885185 61.23716545 C432.91648483 58.7124495 432.91922523 56.18772276 432.92747498 53.66301918 C432.93793306 50.21347333 432.92984863 46.76444398 432.91716385 43.31491661 C432.92453813 42.31869667 432.93191242 41.32247673 432.93951017 40.29606831 C432.88981368 33.86056837 432.45719593 26.89035466 428.26803666 21.66789448 C422.82121848 16.68991218 416.29955386 16.00768526 409.20992088 16.00279331 C408.14830489 15.99798359 408.14830489 15.99798359 407.06524211 15.99307671 C404.69966262 15.98479201 402.33433733 15.99069557 399.96875381 15.99657249 C398.25320802 15.99355111 396.53766357 15.9896617 394.8221215 15.98497993 C390.11223454 15.97468949 385.40242362 15.97688442 380.69253039 15.98116052 C375.61130751 15.98362584 370.53010303 15.974616 365.44888687 15.96712303 C355.49590706 15.95436862 345.54295423 15.95258327 335.58996762 15.95492329 C327.50048643 15.95670578 319.41101342 15.95495831 311.3215332 15.95069885 C310.17052986 15.95010366 309.01952652 15.94950847 307.83364429 15.94889525 C305.49543461 15.94768351 303.15722493 15.94646937 300.81901525 15.94525287 C278.88735131 15.93437448 256.95570275 15.93654125 235.02403794 15.94263772 C214.95844555 15.94780718 194.89290171 15.93655119 174.82731892 15.9175395 C154.22579318 15.89816959 133.62429041 15.88990361 113.0227555 15.89366275 C101.45584063 15.89557608 89.88896708 15.89307442 78.32205963 15.87894821 C68.47509411 15.86704425 58.62819534 15.86561848 48.78122891 15.87773838 C43.75736084 15.88363395 38.73361493 15.8847077 33.70975494 15.87273598 C29.10933358 15.8619007 24.50913672 15.8649525 19.90872596 15.87899766 C18.24593289 15.88165108 16.58312236 15.87925785 14.92034639 15.8712618 C0.600515 15.33479402 0.600515 15.33479402 -11.39455795 22.00726891 Z M144.54294205 328.25726891 C144.54294205 338.81726891 144.54294205 349.37726891 144.54294205 360.25726891 C186.78294205 360.25726891 229.02294205 360.25726891 272.54294205 360.25726891 C272.54294205 349.69726891 272.54294205 339.13726891 272.54294205 328.25726891 C230.30294205 328.25726891 188.06294205 328.25726891 144.54294205 328.25726891 Z M109.54294205 376.25726891 C104.74123377 383.94997726 104.74123377 383.94997726 102.54294205 392.25726891 C172.50294205 392.25726891 242.46294205 392.25726891 314.54294205 392.25726891 C312.42509092 385.43231099 312.42509092 385.43231099 307.54294205 376.25726891 C242.20294205 376.25726891 176.86294205 376.25726891 109.54294205 376.25726891 Z " fill="#B8860A" transform="translate(47.45705795288086,55.74273109436035)"/>
<path d="M0 0 C0.66 -0.0103125 1.32 -0.020625 2 -0.03125 C4.91474297 0.7429786 6.09232229 2.19674707 8 4.5 C8.51898193 7.03106689 8.51898193 7.03106689 8.54589844 9.91113281 C8.56561707 10.99195129 8.58533569 12.07276978 8.60565186 13.18634033 C8.60688049 14.34687927 8.60810913 15.50741821 8.609375 16.703125 C8.63417938 18.49251495 8.63417938 18.49251495 8.65948486 20.3180542 C8.7080753 24.1287546 8.72936138 27.9390556 8.75 31.75 C8.77815027 34.33335355 8.80807635 36.9166884 8.83984375 39.5 C8.91383747 45.83326056 8.96541527 52.16640828 9 58.5 C9.89749718 57.58584824 9.89749718 57.58584824 10.81312561 56.65322876 C16.46403161 50.90198742 22.12700457 45.1629621 27.80373478 39.43720436 C30.72153709 36.49334875 33.63452269 33.54504233 36.53686523 30.5859375 C39.33987141 27.72846047 42.15504519 24.88350219 44.97894096 22.04667282 C46.0521895 20.96421153 47.12103998 19.8773706 48.18528938 18.78606033 C49.68107763 17.25378209 51.19199428 15.73806879 52.70727539 14.22509766 C53.56221085 13.35905914 54.4171463 12.49302063 55.29798889 11.60073853 C58.47897132 9.12761311 61.05924365 8.25411613 65 7.5 C68.3125 8.4375 68.3125 8.4375 71 10.5 C72.5625 13.8125 72.5625 13.8125 73 17.5 C71.08569257 22.35590635 68.19534039 25.72255687 64.51879883 29.32177734 C63.9721608 29.86885345 63.42552277 30.41592957 62.86231995 30.97958374 C61.06758105 32.77224547 59.26247878 34.55406681 57.45703125 36.3359375 C56.2051304 37.5822386 54.95389361 38.82920708 53.70329285 40.07681274 C50.42030225 43.34838451 47.12840086 46.61084401 43.83453369 49.87145996 C40.4708274 53.20440157 37.11566588 56.54592071 33.75976562 59.88671875 C27.1814911 66.43288139 20.59376676 72.96944511 14 79.5 C15.58232278 83.41439561 18.26910968 86.00563497 21.24414062 88.8918457 C21.77766647 89.41763214 22.31119232 89.94341858 22.86088562 90.48513794 C24.01718541 91.62381504 25.17567773 92.76026902 26.33610535 93.89473915 C28.17409758 95.69324541 30.00441536 97.4992333 31.8326416 99.30766296 C37.03062041 104.44766344 42.2380485 109.57792584 47.46044922 114.69311523 C50.65708175 117.82518586 53.8413046 120.96943192 57.01811218 124.12160301 C58.22868998 125.31795099 59.44391921 126.50961165 60.66389465 127.69637489 C62.37291154 129.35950581 64.0657167 131.03769213 65.75585938 132.7199707 C66.25981735 133.20281021 66.76377533 133.68564972 67.28300476 134.18312073 C70.72934213 137.65912878 72.12044104 140.70439592 73 145.5 C72.0625 148.8125 72.0625 148.8125 70 151.5 C66.6875 153.0625 66.6875 153.0625 63 153.5 C58.42895641 151.6543544 55.36376048 149.23172683 51.91259766 145.75317383 C51.44355011 145.28456436 50.97450256 144.8159549 50.49124146 144.33314514 C48.95828617 142.79811676 47.43620547 141.25277528 45.9140625 139.70703125 C44.84712433 138.63449186 43.77951743 137.56261734 42.71127319 136.49137878 C39.91315766 133.68185594 37.12417244 130.86343906 34.33703613 128.04302979 C31.48669411 125.16189797 28.62774924 122.2893305 25.76953125 119.41601562 C20.17126522 113.78565809 14.58262227 108.14586885 9 102.5 C8.99635437 103.16763367 8.99270874 103.83526733 8.98895264 104.52313232 C8.9471717 111.46629764 8.87785674 118.4087992 8.79248047 125.3515625 C8.76423893 127.94329188 8.74304035 130.53510789 8.72900391 133.12695312 C8.70761938 136.85071271 8.66098914 140.57342701 8.609375 144.296875 C8.60814636 145.45741394 8.60691772 146.61795288 8.60565186 147.81365967 C8.57607391 149.43488739 8.57607391 149.43488739 8.54589844 151.08886719 C8.53701599 152.03928894 8.52813354 152.98971069 8.51898193 153.96893311 C7.85083711 157.22746513 6.54978652 158.43297366 4 160.5 C2 161.03125 2 161.03125 0 161 C-0.66 161.0103125 -1.32 161.020625 -2 161.03125 C-4.94359444 160.24935773 -6.09600693 158.85243375 -8 156.5 C-8.50336456 153.6451416 -8.50336456 153.6451416 -8.50793457 150.27539062 C-8.51921387 148.99672119 -8.53049316 147.71805176 -8.54211426 146.40063477 C-8.53433723 144.98583758 -8.52614457 143.57104263 -8.51757812 142.15625 C-8.52299892 140.66462521 -8.53012134 139.17300577 -8.53881836 137.68139648 C-8.55706004 133.63177372 -8.5499809 129.58255839 -8.53730202 125.53292847 C-8.52717864 121.29602964 -8.53656585 117.05916582 -8.54284668 112.82226562 C-8.55012503 105.7069675 -8.54053052 98.59183542 -8.52148438 91.4765625 C-8.49971519 83.248972 -8.50676643 75.02177797 -8.52879 66.79419708 C-8.5469387 59.73165746 -8.54950494 52.66923723 -8.53903532 45.60668182 C-8.53279744 41.38786825 -8.53197274 37.16924107 -8.54518127 32.95043945 C-8.55673156 28.98419627 -8.54872962 25.01846451 -8.52560425 21.05227661 C-8.52031268 19.59621022 -8.52183866 18.14010083 -8.53065491 16.68405151 C-8.54157434 14.69758638 -8.525457 12.71102724 -8.50793457 10.72460938 C-8.50642647 9.61259155 -8.50491837 8.50057373 -8.50336456 7.3548584 C-7.66797686 2.61691344 -4.85845929 -0.07591343 0 0 Z " fill="#B7860B" transform="translate(280,159.5)"/>
<path d="M0 0 C2.10101318 1.51629639 2.10101318 1.51629639 4 4 C4.37407324 6.854035 4.50724398 9.31566763 4.45410156 12.16503906 C4.45468567 12.9849231 4.45526978 13.80480713 4.45587158 14.64953613 C4.4530883 17.35533211 4.42198549 20.06002185 4.390625 22.765625 C4.38316346 24.6432027 4.37747012 26.52078819 4.37347412 28.39837646 C4.35821091 33.33709258 4.31892313 38.2753372 4.2746582 43.21386719 C4.23372035 48.25449241 4.21546628 53.29519391 4.1953125 58.3359375 C4.15242959 68.22416535 4.08416988 78.11204345 4 88 C4.87736816 87.9685791 4.87736816 87.9685791 5.77246094 87.93652344 C8.43146465 87.85319885 11.09019355 87.80129103 13.75 87.75 C14.67039062 87.71648437 15.59078125 87.68296875 16.5390625 87.6484375 C23.37844715 87.54931598 23.37844715 87.54931598 26.60742188 89.890625 C28.10431184 92.15800391 28.54207857 93.30697165 28.5 96 C28.51546875 96.99 28.51546875 96.99 28.53125 98 C27.70377239 101.11520982 26.63209566 102.0914842 24 104 C20.57262805 104.50137208 17.20441125 104.37579089 13.75 104.25 C12.81414062 104.23195313 11.87828125 104.21390625 10.9140625 104.1953125 C8.60832985 104.14825673 6.30469055 104.08253713 4 104 C4.00888245 104.64257751 4.01776489 105.28515503 4.0269165 105.94720459 C4.11535648 112.63040275 4.17572054 119.3134349 4.21972656 125.99707031 C4.23985164 128.49193065 4.26715452 130.98674378 4.30175781 133.48144531 C4.35023457 137.06587368 4.3729602 140.64967885 4.390625 144.234375 C4.41127014 145.35116638 4.43191528 146.46795776 4.45318604 147.61859131 C4.45363922 149.17975677 4.45363922 149.17975677 4.45410156 150.77246094 C4.46298401 151.68735291 4.47186646 152.60224487 4.48101807 153.54486084 C3.84966041 156.76734042 2.51020199 157.95689391 0 160 C-2 160.53125 -2 160.53125 -4 160.5 C-4.99 160.51546875 -4.99 160.51546875 -6 160.53125 C-8.91007786 159.75826057 -10.09407191 158.29658681 -12 156 C-12.48101807 153.54486084 -12.48101807 153.54486084 -12.45410156 150.77246094 C-12.45379944 149.73168396 -12.45349731 148.69090698 -12.45318604 147.61859131 C-12.43254089 146.50179993 -12.41189575 145.38500854 -12.390625 144.234375 C-12.38496521 143.08584045 -12.37930542 141.93730591 -12.37347412 140.75396729 C-12.35108331 137.08555426 -12.30087942 133.41811783 -12.25 129.75 C-12.22993861 127.26303494 -12.21168722 124.77605457 -12.1953125 122.2890625 C-12.15120955 116.19237511 -12.08426949 110.09625733 -12 104 C-13.11420319 104.01332367 -13.11420319 104.01332367 -14.25091553 104.0269165 C-21.25449905 104.10709744 -28.25792335 104.16798186 -35.26183701 104.20724869 C-38.86258286 104.22811513 -42.46294916 104.25641421 -46.06347656 104.30175781 C-49.53887913 104.34525125 -53.01391688 104.36914421 -56.48957062 104.37950897 C-58.45945784 104.39048615 -60.42919847 104.421707 -62.39886475 104.45318604 C-64.20027924 104.45363922 -64.20027924 104.45363922 -66.03808594 104.45410156 C-67.6236026 104.46742523 -67.6236026 104.46742523 -69.2411499 104.48101807 C-72.72691106 103.87325975 -73.89092441 102.79860637 -76 100 C-76.89553109 94.0931751 -75.92282716 90.98613317 -72.44555664 86.21899414 C-71.6681311 85.21340454 -71.6681311 85.21340454 -70.875 84.1875 C-70.06953735 83.09779907 -70.06953735 83.09779907 -69.24780273 81.98608398 C-68.10111824 80.43820013 -66.94617268 78.89640723 -65.78369141 77.36035156 C-63.42782571 74.24284409 -61.11987754 71.09122624 -58.80883789 67.94042969 C-57.0474585 65.54201849 -55.27827307 63.14952567 -53.5078125 60.7578125 C-50.1202421 56.17308856 -46.77136841 51.56137795 -43.4375 46.9375 C-42.90447266 46.19822266 -42.37144531 45.45894531 -41.82226562 44.69726562 C-40.21412447 42.46536063 -38.60688142 40.23281209 -37 38 C-32.67672889 31.99267928 -28.34587507 25.9909935 -24 20 C-23.05930664 18.7020752 -23.05930664 18.7020752 -22.09960938 17.37792969 C-20.17538965 14.72757122 -18.2448855 12.08190885 -16.3125 9.4375 C-15.71187744 8.60935791 -15.11125488 7.78121582 -14.49243164 6.92797852 C-13.93418701 6.16670654 -13.37594238 5.40543457 -12.80078125 4.62109375 C-12.30747314 3.9448999 -11.81416504 3.26870605 -11.3059082 2.57202148 C-8.48403584 -0.82488189 -4.09811695 -0.84282028 0 0 Z M-13 34 C-14.76671607 36.41647154 -16.48544869 38.85087333 -18.1875 41.3125 C-22.70058729 47.77852325 -27.30121726 54.16770962 -32 60.5 C-36.68855188 66.83075159 -41.32244802 73.19561469 -45.875 79.625 C-46.65230469 80.71844727 -46.65230469 80.71844727 -47.4453125 81.83398438 C-49.87809868 84.6787516 -49.87809868 84.6787516 -51 88 C-38.13 88 -25.26 88 -12 88 C-12 70.18 -12 52.36 -12 34 C-12.33 34 -12.66 34 -13 34 Z " fill="#B8860A" transform="translate(228,160)"/>
<path d="M0 0 C1.05026367 -0.0038269 2.10052734 -0.00765381 3.18261719 -0.01159668 C5.40170247 -0.01431696 7.62081974 -0.00694777 9.83984375 0.00976562 C13.23770595 0.03117255 16.63345361 0.00996675 20.03125 -0.015625 C22.18750467 -0.01298175 24.34375802 -0.00785682 26.5 0 C27.51674805 -0.00809692 28.53349609 -0.01619385 29.58105469 -0.02453613 C36.61077417 0.06898232 36.61077417 0.06898232 39.88867188 2.43945312 C41.35641689 4.69476864 41.79171277 5.86163257 41.75 8.53125 C41.7603125 9.19125 41.770625 9.85125 41.78125 10.53125 C40.97774622 13.55620539 39.73647581 14.62948222 37.25 16.53125 C34.3603488 16.8803505 31.8640729 16.9994062 28.984375 16.921875 C28.19097717 16.91621521 27.39757935 16.91055542 26.58013916 16.90472412 C24.05280527 16.88238147 21.52690335 16.83219176 19 16.78125 C17.28387468 16.76118214 15.56772708 16.74293187 13.8515625 16.7265625 C9.6504922 16.68252395 5.45048865 16.61351326 1.25 16.53125 C1.27094727 17.60084961 1.29189453 18.67044922 1.31347656 19.77246094 C1.38594626 23.74563173 1.43182463 27.71874425 1.46972656 31.69238281 C1.48982628 33.41123279 1.51711089 35.13001452 1.55175781 36.84863281 C1.60035034 39.32113489 1.62298435 41.7927321 1.640625 44.265625 C1.66127014 45.03243591 1.68191528 45.79924683 1.70318604 46.58929443 C1.70468704 50.16857968 1.55713127 52.12968968 -0.64941406 55.01464844 C-2.92217406 56.65555791 -3.97992986 57.07453235 -6.75 57.03125 C-7.74 57.04671875 -7.74 57.04671875 -8.75 57.0625 C-11.88341854 56.2301857 -12.82865886 55.18808918 -14.75 52.53125 C-15.36584573 48.95356501 -15.31010028 45.40404111 -15.28125 41.78125 C-15.2850769 40.73098633 -15.28890381 39.68072266 -15.29284668 38.59863281 C-15.29556696 36.37954753 -15.28819777 34.16043026 -15.27148438 31.94140625 C-15.25007745 28.54354405 -15.27128325 25.14779639 -15.296875 21.75 C-15.29423175 19.59374533 -15.28910682 17.43749198 -15.28125 15.28125 C-15.28934692 14.26450195 -15.29744385 13.24775391 -15.30578613 12.20019531 C-15.25385876 8.29684957 -15.19258743 5.38912032 -13.38867188 1.89257812 C-9.0751811 -0.33281275 -4.78165272 -0.03807893 0 0 Z " fill="#B8860A" transform="translate(62.75,87.46875)"/>
</svg>
