<?xml version="1.0" encoding="UTF-8"?>
<svg version="1.1" xmlns="http://www.w3.org/2000/svg" width="512" height="512">
<path d="M0 0 C1.1702623 0.00222061 2.3405246 0.00444122 3.54624939 0.00672913 C4.51207191 0.00651009 4.51207191 0.00651009 5.49740601 0.00628662 C7.63473327 0.00698567 9.77197438 0.01477761 11.9092865 0.02259827 C13.3875931 0.02446248 14.86590032 0.02588637 16.34420776 0.02688599 C20.24211827 0.03071093 24.13999174 0.040541 28.03788757 0.05158997 C32.01259358 0.0618046 35.98730554 0.06638372 39.96202087 0.07142639 C47.76607425 0.0821633 55.57009707 0.09923942 63.37413025 0.12025452 C66.06869952 5.96482768 68.73165063 11.79113864 71.01475525 17.81166077 C71.44530212 18.94023499 71.875849 20.0688092 72.31944275 21.23158264 C72.96526306 22.93991272 72.96526306 22.93991272 73.62413025 24.68275452 C74.50351889 26.99686826 75.38368595 29.31068639 76.26475525 31.62416077 C76.8375824 33.13731873 76.8375824 33.13731873 77.42198181 34.68104553 C78.31447849 37.07708356 78.31447849 37.07708356 79.37413025 39.12025452 C81.14811331 39.86450583 81.14811331 39.86450583 83.31944275 40.41712952 C84.14154236 40.6502887 84.96364197 40.88344788 85.81065369 41.12367249 C86.69785095 41.37004456 87.58504822 41.61641663 88.49913025 41.87025452 C101.87488087 45.74718046 114.32369045 50.86496834 126.71788025 57.19056702 C127.33018494 57.49897522 127.94248962 57.80738342 128.573349 58.12513733 C130.37413025 59.12025452 130.37413025 59.12025452 132.0811615 60.3575592 C134.39848882 61.98368372 136.40011069 63.2117199 139.29283142 62.94007874 C141.76008054 62.1762762 144.02533425 61.19794241 146.37413025 60.12025452 C147.48610779 59.62589905 148.59808533 59.13154358 149.74375916 58.62220764 C154.24162088 56.60340011 158.71538472 54.53265856 163.17662048 52.43421936 C165.0985158 51.53273012 167.02663145 50.64588357 168.9561615 49.76087952 C170.09287292 49.23010803 171.22958435 48.69933655 172.40074158 48.15248108 C175.60802557 47.0390566 176.31973025 46.92661878 179.37413025 48.12025452 C181.5322876 49.87727356 181.5322876 49.87727356 183.88316345 52.1934967 C184.76700211 53.0581958 185.65084076 53.9228949 186.5614624 54.813797 C187.51655067 55.76430007 188.47101917 56.71542624 189.4249115 57.66712952 C190.40785982 58.64043649 191.39103263 59.6135168 192.37442017 60.58638 C194.43153834 62.62555007 196.4823746 64.67081234 198.52964783 66.71986389 C201.15542546 69.34594695 203.80126096 71.95076042 206.45284748 74.55074692 C208.48853286 76.55310436 210.51046411 78.56892139 212.52875328 80.58879852 C213.49879561 81.55529812 214.47371252 82.51693056 215.45350075 83.47354889 C216.82050178 84.81120693 218.16683116 86.16989233 219.5120697 87.5294342 C220.6697863 88.68073822 220.6697863 88.68073822 221.85089111 89.8553009 C223.37413025 92.12025452 223.37413025 92.12025452 223.21064758 94.68159485 C222.00868631 98.18561607 220.49527432 101.52071081 218.9249115 104.87025452 C218.23472367 106.3803356 217.54529314 107.890763 216.85655212 109.40150452 C215.77122712 111.7685912 214.68076293 114.13279211 213.57701111 116.49134827 C212.51032151 118.77734943 211.46611831 121.07255762 210.4249115 123.37025452 C209.92197319 124.42357971 209.92197319 124.42357971 209.40887451 125.4981842 C208.00212307 128.64165846 207.2211629 130.51458006 208.07945251 133.91297913 C208.72031799 135.00558044 208.72031799 135.00558044 209.37413025 136.12025452 C210.19784119 137.63812561 210.19784119 137.63812561 211.03819275 139.18666077 C211.50829773 140.02233582 211.50829773 140.02233582 211.98789978 140.87489319 C215.60575852 147.342842 218.71654093 153.94001601 221.49913025 160.80775452 C221.84612976 161.64363098 222.19312927 162.47950745 222.55064392 163.3407135 C224.29474939 167.71450867 225.5910623 171.83506703 226.3311615 176.49134827 C227.84308748 185.91521056 227.84308748 185.91521056 233.86729431 192.88050842 C240.10966595 196.10386072 246.68365059 198.24100361 253.40586853 200.22865295 C257.15585023 201.35506628 260.73848285 202.73173805 264.37413025 204.18275452 C265.34350525 204.54498108 266.31288025 204.90720764 267.31163025 205.28041077 C269.37413025 206.12025452 269.37413025 206.12025452 270.37413025 207.12025452 C270.46826712 209.17582113 270.49156023 211.23465633 270.48765564 213.29237366 C270.48780167 213.93625534 270.48794769 214.58013702 270.48809814 215.24353027 C270.4873991 217.38085754 270.47960716 219.51809864 270.4717865 221.65541077 C270.46992229 223.13371737 270.4684984 224.61202459 270.46749878 226.09033203 C270.46367384 229.98824254 270.45384377 233.88611601 270.4427948 237.78401184 C270.43258017 241.75871784 270.42800105 245.73342981 270.42295837 249.70814514 C270.41222147 257.51219852 270.39514534 265.31622134 270.37413025 273.12025452 C264.52955709 275.81482379 258.70324613 278.4777749 252.682724 280.76087952 C251.55414978 281.19142639 250.42557556 281.62197327 249.26280212 282.06556702 C248.12391541 282.49611389 246.98502869 282.92666077 245.81163025 283.37025452 C243.49751651 284.24964315 241.18369838 285.12981022 238.870224 286.01087952 C237.35706604 286.58370667 237.35706604 286.58370667 235.81333923 287.16810608 C233.41730121 288.06060276 233.41730121 288.06060276 231.37413025 289.12025452 C230.62987893 290.89423757 230.62987893 290.89423757 230.07725525 293.06556702 C229.84409607 293.88766663 229.61093689 294.70976624 229.37071228 295.55677795 C229.12434021 296.44397522 228.87796814 297.33117249 228.62413025 298.24525452 C224.74720431 311.62100514 219.62941643 324.06981472 213.30381775 336.46400452 C212.99540955 337.0763092 212.68700134 337.68861389 212.36924744 338.31947327 C211.37413025 340.12025452 211.37413025 340.12025452 210.13682556 341.82728577 C208.51070104 344.14461309 207.28266487 346.14623496 207.55430603 349.03895569 C208.31810857 351.5062048 209.29644236 353.77145852 210.37413025 356.12025452 C210.86848572 357.23223206 211.36284119 358.34420959 211.87217712 359.48988342 C213.89098466 363.98774515 215.9617262 368.46150898 218.06016541 372.92274475 C218.96165465 374.84464006 219.84850119 376.77275572 220.73350525 378.70228577 C221.26427673 379.83899719 221.79504822 380.97570862 222.34190369 382.14686584 C223.45532817 385.35414984 223.56776598 386.06585452 222.37413025 389.12025452 C220.61711121 391.27841187 220.61711121 391.27841187 218.30088806 393.62928772 C217.43618896 394.51312637 216.57148987 395.39696503 215.68058777 396.30758667 C214.7300847 397.26267494 213.77895852 398.21714344 212.82725525 399.17103577 C211.85394828 400.15398409 210.88086797 401.1371569 209.90800476 402.12054443 C207.8688347 404.1776626 205.82357242 406.22849887 203.77452087 408.27577209 C201.14843781 410.90154973 198.54362435 413.54738523 195.94363785 416.19897175 C193.9412804 418.23465713 191.92546337 420.25658838 189.90558624 422.27487755 C188.93908664 423.24491988 187.97745421 424.21983679 187.02083588 425.19962502 C185.68317784 426.56662605 184.32449243 427.91295542 182.96495056 429.25819397 C182.19741455 430.03000504 181.42987854 430.8018161 180.63908386 431.59701538 C178.37413025 433.12025452 178.37413025 433.12025452 175.81278992 432.95677185 C172.3087687 431.75481057 168.97367396 430.24139859 165.62413025 428.67103577 C164.11404917 427.98084793 162.60362177 427.29141741 161.09288025 426.60267639 C158.72579356 425.51735139 156.36159266 424.4268872 154.0030365 423.32313538 C151.71703534 422.25644578 149.42182715 421.21224258 147.12413025 420.17103577 C146.07080505 419.66809746 146.07080505 419.66809746 144.99620056 419.15499878 C141.85272631 417.74824734 139.9798047 416.96728717 136.58140564 417.82557678 C135.48880432 418.46644226 135.48880432 418.46644226 134.37413025 419.12025452 C133.36221619 419.66939514 132.35030212 420.21853577 131.307724 420.78431702 C130.47204895 421.254422 130.47204895 421.254422 129.61949158 421.73402405 C123.15154276 425.35188279 116.55436875 428.4626652 109.68663025 431.24525452 C108.85075378 431.59225403 108.01487732 431.93925354 107.15367126 432.29676819 C102.7798761 434.04087366 98.65931773 435.33718657 94.0030365 436.07728577 C84.5791742 437.58921175 84.5791742 437.58921175 77.61387634 443.61341858 C74.39052405 449.85579022 72.25338115 456.42977486 70.26573181 463.1519928 C69.13931849 466.9019745 67.76264671 470.48460712 66.31163025 474.12025452 C65.94940369 475.08962952 65.58717712 476.05900452 65.213974 477.05775452 C64.37413025 479.12025452 64.37413025 479.12025452 63.37413025 480.12025452 C61.31856364 480.21439139 59.25972844 480.23768449 57.20201111 480.23377991 C56.23618858 480.23399895 56.23618858 480.23399895 55.25085449 480.23422241 C53.11352722 480.23352337 50.97628612 480.22573142 48.838974 480.21791077 C47.3606674 480.21604656 45.88236018 480.21462267 44.40405273 480.21362305 C40.50614223 480.2097981 36.60826876 480.19996803 32.71037292 480.18891907 C28.73566692 480.17870443 24.76095496 480.17412532 20.78623962 480.16908264 C12.98218625 480.15834574 5.17816343 480.14126961 -2.62586975 480.12025452 C-5.32043902 474.27568135 -7.98339013 468.44937039 -10.26649475 462.42884827 C-10.69704163 461.30027405 -11.1275885 460.17169983 -11.57118225 459.00892639 C-12.00172913 457.87003967 -12.432276 456.73115295 -12.87586975 455.55775452 C-13.75525839 453.24364077 -14.63542546 450.92982264 -15.51649475 448.61634827 C-15.89837952 447.60757629 -16.28026428 446.59880432 -16.67372131 445.5594635 C-17.56621799 443.16342548 -17.56621799 443.16342548 -18.62586975 441.12025452 C-20.39985281 440.3760032 -20.39985281 440.3760032 -22.57118225 439.82337952 C-23.39328186 439.59022034 -24.21538147 439.35706116 -25.06239319 439.11683655 C-25.94959045 438.87046448 -26.83678772 438.62409241 -27.75086975 438.37025452 C-41.12662037 434.49332857 -53.57542996 429.3755407 -65.96961975 423.04994202 C-66.58192444 422.74153381 -67.19422913 422.43312561 -67.8250885 422.1153717 C-69.62586975 421.12025452 -69.62586975 421.12025452 -71.332901 419.88294983 C-73.65022833 418.25682531 -75.6518502 417.02878914 -78.54457092 417.3004303 C-81.01182004 418.06423284 -83.27707375 419.04256662 -85.62586975 420.12025452 C-86.73784729 420.61460999 -87.84982483 421.10896545 -88.99549866 421.61830139 C-93.49336039 423.63710892 -97.96712422 425.70785047 -102.42835999 427.80628967 C-104.3502553 428.70777892 -106.27837095 429.59462546 -108.207901 430.47962952 C-109.34461243 431.010401 -110.48132385 431.54117249 -111.65248108 432.08802795 C-114.85976508 433.20145243 -115.57146975 433.31389025 -118.62586975 432.12025452 C-120.7840271 430.36323547 -120.7840271 430.36323547 -123.13490295 428.04701233 C-124.01874161 427.18231323 -124.90258026 426.31761414 -125.8132019 425.42671204 C-126.76829018 424.47620897 -127.72275868 423.52508279 -128.676651 422.57337952 C-129.65959933 421.60007255 -130.64277213 420.62699224 -131.62615967 419.65412903 C-133.68327784 417.61495897 -135.7341141 415.56969669 -137.78138733 413.52064514 C-140.40716496 410.89456208 -143.05300046 408.28974862 -145.70458698 405.68976212 C-147.74027236 403.68740467 -149.76220361 401.67158764 -151.78049278 399.65171051 C-152.75053511 398.68521091 -153.72545202 397.72357848 -154.70524025 396.76696014 C-156.07224128 395.42930211 -157.41857066 394.0706167 -158.7638092 392.71107483 C-159.53562027 391.94353882 -160.30743134 391.17600281 -161.10263062 390.38520813 C-162.62586975 388.12025452 -162.62586975 388.12025452 -162.46238708 385.55891418 C-161.26042581 382.05489296 -159.74701382 378.71979823 -158.176651 375.37025452 C-157.48646317 373.86017343 -156.79703264 372.34974603 -156.10829163 370.83900452 C-155.02296663 368.47191783 -153.93250244 366.10771692 -152.82875061 363.74916077 C-151.76206101 361.46315961 -150.71785781 359.16795141 -149.676651 356.87025452 C-149.3413588 356.16803772 -149.00606659 355.46582092 -148.66061401 354.74232483 C-147.25386258 351.59885058 -146.4729024 349.72592897 -147.33119202 346.32752991 C-147.75843567 345.59912903 -148.18567932 344.87072815 -148.62586975 344.12025452 C-149.44958069 342.60238342 -149.44958069 342.60238342 -150.28993225 341.05384827 C-150.60333557 340.49673157 -150.91673889 339.93961487 -151.23963928 339.36561584 C-154.85749802 332.89766703 -157.96828043 326.30049302 -160.75086975 319.43275452 C-161.27136902 318.17893982 -161.27136902 318.17893982 -161.80238342 316.89979553 C-163.54648889 312.52600036 -164.8428018 308.405442 -165.582901 303.74916077 C-167.09482699 294.32529847 -167.09482699 294.32529847 -173.11903381 287.36000061 C-179.36140546 284.13664831 -185.93539009 281.99950542 -192.65760803 280.01185608 C-196.40758973 278.88544276 -199.99022235 277.50877098 -203.62586975 276.05775452 C-204.59524475 275.69552795 -205.56461975 275.33330139 -206.56336975 274.96009827 C-208.62586975 274.12025452 -208.62586975 274.12025452 -209.62586975 273.12025452 C-209.72000662 271.0646879 -209.74329973 269.00585271 -209.73939514 266.94813538 C-209.73954117 266.30425369 -209.73968719 265.66037201 -209.73983765 264.99697876 C-209.7391386 262.85965149 -209.73134666 260.72241039 -209.723526 258.58509827 C-209.72166179 257.10679166 -209.7202379 255.62848444 -209.71923828 254.150177 C-209.71541334 250.25226649 -209.70558327 246.35439303 -209.6945343 242.45649719 C-209.68431967 238.48179119 -209.67974055 234.50707923 -209.67469788 230.53236389 C-209.66396097 222.72831051 -209.64688484 214.9242877 -209.62586975 207.12025452 C-203.78129659 204.42568525 -197.95498563 201.76273414 -191.9344635 199.47962952 C-190.80588928 199.04908264 -189.67731506 198.61853577 -188.51454163 198.17494202 C-186.80621155 197.5291217 -186.80621155 197.5291217 -185.06336975 196.87025452 C-182.74925601 195.99086588 -180.43543788 195.11069881 -178.1219635 194.22962952 C-177.11319153 193.84774475 -176.10441956 193.46585999 -175.06507874 193.07240295 C-172.66904071 192.17990627 -172.66904071 192.17990627 -170.62586975 191.12025452 C-169.88161843 189.34627146 -169.88161843 189.34627146 -169.32899475 187.17494202 C-169.09583557 186.35284241 -168.86267639 185.5307428 -168.62245178 184.68373108 C-168.37607971 183.79653381 -168.12970764 182.90933655 -167.87586975 181.99525452 C-163.99894381 168.6195039 -158.88115593 156.17069431 -152.55555725 143.77650452 C-152.24714905 143.16419983 -151.93874084 142.55189514 -151.62098694 141.92103577 C-150.62586975 140.12025452 -150.62586975 140.12025452 -149.38856506 138.41322327 C-147.76244054 136.09589594 -146.53440437 134.09427407 -146.80604553 131.20155334 C-147.56984807 128.73430423 -148.54818186 126.46905051 -149.62586975 124.12025452 C-150.12022522 123.00827698 -150.61458069 121.89629944 -151.12391663 120.75062561 C-153.14272416 116.25276388 -155.21346571 111.77900005 -157.31190491 107.31776428 C-158.21339415 105.39586897 -159.10024069 103.46775331 -159.98524475 101.53822327 C-160.51601624 100.40151184 -161.04678772 99.26480042 -161.59364319 98.09364319 C-162.70706767 94.88635919 -162.81950549 94.17465451 -161.62586975 91.12025452 C-159.86885071 88.96209717 -159.86885071 88.96209717 -157.55262756 86.61122131 C-156.68792847 85.72738266 -155.82322937 84.84354401 -154.93232727 83.93292236 C-153.9818242 82.97783409 -153.03069802 82.02336559 -152.07899475 81.06947327 C-151.10568778 80.08652494 -150.13260747 79.10335213 -149.15974426 78.1199646 C-147.1205742 76.06284643 -145.07531192 74.01201016 -143.02626038 71.96473694 C-140.40017732 69.33895931 -137.79536385 66.69312381 -135.19537735 64.04153728 C-133.19301991 62.00585191 -131.17720288 59.98392065 -129.15732574 57.96563148 C-128.19082614 56.99558915 -127.22919371 56.02067225 -126.27257538 55.04088402 C-124.93491734 53.67388298 -123.57623194 52.32755361 -122.21669006 50.98231506 C-121.06538605 49.82459846 -121.06538605 49.82459846 -119.89082336 48.64349365 C-117.62586975 47.12025452 -117.62586975 47.12025452 -115.06452942 47.28373718 C-111.5605082 48.48569846 -108.22541346 49.99911045 -104.87586975 51.56947327 C-103.36578867 52.2596611 -101.85536127 52.94909163 -100.34461975 53.63783264 C-97.97753306 54.72315764 -95.61333216 55.81362183 -93.254776 56.91737366 C-90.96877484 57.98406326 -88.67356665 59.02826646 -86.37586975 60.06947327 C-85.67365295 60.40476547 -84.97143616 60.74005768 -84.24794006 61.08551025 C-81.10446581 62.49226169 -79.2315442 63.27322186 -75.83314514 62.41493225 C-75.10474426 61.9876886 -74.37634338 61.56044495 -73.62586975 61.12025452 C-72.61395569 60.57111389 -71.60204163 60.02197327 -70.5594635 59.45619202 C-70.0023468 59.1427887 -69.4452301 58.82938538 -68.87123108 58.50648499 C-62.40328227 54.88862624 -55.80610825 51.77784384 -48.93836975 48.99525452 C-47.68455505 48.47475525 -47.68455505 48.47475525 -46.40541077 47.94374084 C-42.0316156 46.19963538 -37.91105723 44.90332246 -33.254776 44.16322327 C-23.8309137 42.65129728 -23.8309137 42.65129728 -16.86561584 36.62709045 C-13.64226355 30.38471881 -11.50512065 23.81073417 -9.51747131 17.08851624 C-8.39105799 13.33853453 -7.01438621 9.75590191 -5.56336975 6.12025452 C-5.20114319 5.15087952 -4.83891663 4.18150452 -4.4657135 3.18275452 C-3.22993745 0.14791844 -3.22993745 0.14791844 0 0 Z M-48.62586975 146.12025452 C-49.13456604 146.54532288 -49.64326233 146.97039124 -50.16737366 147.40834045 C-74.46178677 167.87570972 -89.12624805 197.71060785 -92.31336975 229.21791077 C-94.73134891 259.41242556 -86.32044332 291.21140245 -67.12586975 314.99525452 C-65.63626074 316.71265597 -64.13657155 318.42137758 -62.62586975 320.12025452 C-61.95297913 320.93623108 -61.2800885 321.75220764 -60.58680725 322.59291077 C-40.4841355 346.34719143 -9.62628182 360.30390807 21.09458923 362.96131897 C51.87503198 365.10741174 84.37286436 355.7275373 107.870224 335.34681702 C109.10965759 334.24466858 109.10965759 334.24466858 110.37413025 333.12025452 C111.19010681 332.44736389 112.00608337 331.77447327 112.8467865 331.08119202 C136.16033572 311.3515006 150.04871543 281.17302039 153.18663025 251.05775452 C153.27414131 249.41306141 153.33724626 247.76686108 153.37413025 246.12025452 C153.43213806 244.77253967 153.43213806 244.77253967 153.49131775 243.39759827 C154.22669726 213.04276622 143.55145809 182.81089863 123.37413025 160.12025452 C122.70123962 159.30427795 122.028349 158.48830139 121.33506775 157.64759827 C101.55581433 134.27548421 71.41079188 120.44839509 41.25694275 117.43666077 C8.4568206 114.76381379 -23.55086242 124.86589491 -48.62586975 146.12025452 Z " fill="#B8860A" transform="translate(225.62586975097656,15.879745483398438)"/>
<path d="M0 0 C2.97117474 1.31537837 4.83021526 2.64378666 6.91796875 5.125 C7.70929199 6.0536084 7.70929199 6.0536084 8.51660156 7.00097656 C9.06799805 7.6606543 9.61939453 8.32033203 10.1875 9 C11.35205186 10.37048269 12.51741844 11.74027348 13.68359375 13.109375 C14.25062012 13.77775391 14.81764648 14.44613281 15.40185547 15.13476562 C17.47117722 17.5499227 19.60375391 19.90313479 21.75 22.25 C24.73863253 25.54292966 27.58383605 28.91316769 30.375 32.375 C34.56588471 37.56933598 39.03327669 42.42833519 43.6171875 47.2734375 C46 50 46 50 49 55 C41.74 55 34.48 55 27 55 C27 81.73 27 108.46 27 136 C9.84 136 -7.32 136 -25 136 C-25 109.27 -25 82.54 -25 55 C-32.26 55 -39.52 55 -47 55 C-43.40839211 50.21118949 -40.20529452 45.97181488 -36.1875 41.6875 C-32.84825689 38.06915597 -29.6476694 34.39961033 -26.5625 30.5625 C-22.91052975 26.03457216 -19.06663137 21.75676886 -15.10595703 17.50268555 C-11.13397064 13.21033245 -7.43545396 8.74405648 -3.77734375 4.1796875 C-2 2 -2 2 0 0 Z " fill="#B8860A" transform="translate(255,173)"/>
<path d="M0 0 C1.10479706 -0.00960754 2.20959412 -0.01921509 3.34786987 -0.02911377 C4.54163239 -0.03336365 5.7353949 -0.03761353 6.96533203 -0.04199219 C8.19220734 -0.04769226 9.41908264 -0.05339233 10.68313599 -0.05926514 C13.28061052 -0.06871763 15.87809706 -0.0752501 18.47558594 -0.07910156 C22.45024503 -0.08881125 26.424388 -0.11983497 30.39892578 -0.15136719 C32.92105812 -0.1578968 35.44319417 -0.16314743 37.96533203 -0.16699219 C39.15504608 -0.17933899 40.34476013 -0.19168579 41.57052612 -0.20440674 C43.23717819 -0.19990509 43.23717819 -0.19990509 44.9375 -0.1953125 C45.91218231 -0.19895813 46.88686462 -0.20260376 47.89108276 -0.20635986 C51.10428602 0.22984321 52.98800811 1.26712045 55.59814453 3.16113281 C57.16285686 6.29055746 57.29516411 9.77195505 56.59814453 13.16113281 C54.47071989 15.85197568 53.2815236 17.03407561 49.86621094 17.66906738 C48.2987915 17.67384094 48.2987915 17.67384094 46.69970703 17.67871094 C44.91765869 17.6976239 44.91765869 17.6976239 43.09960938 17.71691895 C41.82037598 17.70882202 40.54114258 17.7007251 39.22314453 17.69238281 C37.90652832 17.69620972 36.58991211 17.70003662 35.23339844 17.70397949 C32.44919019 17.70987005 29.66549604 17.70132695 26.88134766 17.68261719 C23.3166512 17.65982657 19.75315936 17.67295222 16.18850708 17.69690704 C12.78329023 17.71485612 9.37839559 17.70228059 5.97314453 17.69238281 C4.69391113 17.70047974 3.41467773 17.70857666 2.09667969 17.71691895 C0.90864746 17.7043103 -0.27938477 17.69170166 -1.50341797 17.67871094 C-2.54836426 17.67552856 -3.59331055 17.67234619 -4.66992188 17.66906738 C-8.08427593 17.03425383 -9.2693918 15.84558168 -11.40185547 13.16113281 C-12.33052056 9.41722315 -11.905602 6.09666208 -10.08935547 2.72363281 C-7.03201771 -0.10723549 -3.96742611 0.02783871 0 0 Z " fill="#B8860A" transform="translate(233.40185546875,329.8388671875)"/>
</svg>
