<?xml version="1.0" encoding="UTF-8"?>
<svg version="1.1" xmlns="http://www.w3.org/2000/svg" width="512" height="512">
<path d="M0 0 C7.62461353 6.39617791 14.6539001 13.32904186 21 21 C21.77561279 21.84665726 22.55122559 22.69331451 23.3503418 23.56562805 C32.34843084 34.96095121 31.29824612 47.533054 31.14306641 61.50033355 C31.11246843 64.95982036 31.12814662 68.41916866 31.13671875 71.8787384 C31.14390499 77.68122797 31.11485675 83.48266373 31.06347656 89.28491211 C31.0047471 95.96566238 31.00312351 102.6445811 31.0320797 109.32548541 C31.05883812 115.7927418 31.04572797 122.25933911 31.0145874 128.72655678 C31.00205176 131.461276 31.00298311 134.19547949 31.01519775 136.93019676 C31.02360665 140.75691394 30.98652663 144.58062487 30.9375 148.40698242 C30.94852753 149.52363281 30.95955505 150.6402832 30.97091675 151.79077148 C30.79065888 160.19522427 28.05902059 165.38235462 23 172 C22.48899246 172.67007678 21.97798492 173.34015356 21.45149231 174.0305357 C20.19910402 175.6269067 18.899723 177.16171965 17.5625 178.6875 C16.8494873 179.51000244 16.8494873 179.51000244 16.12207031 180.34912109 C14.75858433 181.90916633 13.38214549 183.45648995 12 185 C11.03126953 186.09634766 11.03126953 186.09634766 10.04296875 187.21484375 C-11.12045831 209.76150134 -42.72735889 221.92056729 -73.1953125 223.28125 C-108.24197049 224.21612947 -139.90493666 212.04629388 -165.63085938 188.29736328 C-170.89807474 183.28518107 -175.71275662 177.87870887 -180 172 C-180.57373415 171.24583801 -181.1474683 170.49167603 -181.73858833 169.71466064 C-186.83929559 162.48959386 -188.01621094 157.10017105 -187.90576172 148.359375 C-187.91802795 147.14648804 -187.93029419 145.93360107 -187.94293213 144.68395996 C-187.96828019 141.38991038 -187.96260185 138.09786386 -187.94027853 134.80384827 C-187.92239759 131.33631595 -187.93903547 127.86890544 -187.94998169 124.40136719 C-187.96267162 118.58114041 -187.94605464 112.76153796 -187.91259766 106.94140625 C-187.87450857 100.23861527 -187.88685176 93.53731529 -187.92538249 86.83456039 C-187.95727959 81.05149568 -187.96156781 75.26887649 -187.94331181 69.48575211 C-187.9324695 66.04408629 -187.93074362 62.60311835 -187.95406723 59.16149902 C-187.97194891 55.32019863 -187.94460766 51.48171671 -187.90576172 47.640625 C-187.91993134 46.51926147 -187.93410095 45.39789795 -187.94869995 44.24255371 C-187.79168917 35.8155608 -185.07685912 30.63201133 -180 24 C-179.23342732 22.99497688 -179.23342732 22.99497688 -178.45136833 21.96965027 C-177.19911653 20.37311135 -175.89975378 18.83831548 -174.5625 17.3125 C-174.0871582 16.76416504 -173.61181641 16.21583008 -173.12207031 15.65087891 C-171.75858433 14.09083367 -170.38214549 12.54351005 -169 11 C-168.35417969 10.26910156 -167.70835937 9.53820312 -167.04296875 8.78515625 C-124.49265788 -36.54622069 -47.22689136 -38.8502562 0 0 Z M-138.6484375 48.0234375 C-153.04516212 66.24653411 -157.60070842 86.27485313 -156 109 C-153.61231436 128.42065119 -142.5164513 146.36685007 -127.75 158.94140625 C-110.3767098 171.94669593 -89.81727592 178.00603925 -68.18359375 175.5703125 C-54.11758101 173.50422617 -41.05913321 167.99024775 -30 159 C-29.15953125 158.32195312 -28.3190625 157.64390625 -27.453125 156.9453125 C-12.6083003 144.30471934 -2.45585046 125.9477559 -0.77685547 106.40234375 C0.46714436 84.47050972 -4.46465273 64.00148529 -19.08984375 47.09375 C-19.72019531 46.4028125 -20.35054687 45.711875 -21 45 C-21.51691406 44.3915625 -22.03382813 43.783125 -22.56640625 43.15625 C-35.40131062 29.00247075 -55.89944327 21.0034139 -74.5859375 19.76171875 C-99.43652906 19.27495459 -122.22359525 29.09576215 -138.6484375 48.0234375 Z " fill="#B7860A" transform="translate(272,169)"/>
<path d="M0 0 C13.51656196 11.43540574 21.82313951 26.84857192 24.4375 44.3125 C26.02882767 64.36322861 21.28036584 81.4058184 8.75 97.25 C8.0075 98.28125 7.265 99.3125 6.5 100.375 C-6.32145467 113.77924806 -23.05471069 120.90478593 -41.47436523 121.65258789 C-58.18458966 121.92385161 -74.88493567 117.00313546 -87.625 105.875 C-89.18957777 104.3565901 -90.73231348 102.81527948 -92.25 101.25 C-92.96929687 100.528125 -93.68859375 99.80625 -94.4296875 99.0625 C-106.68383892 86.11471737 -112.61877179 68.78804469 -112.27978516 51.09130859 C-111.51523762 33.24782094 -104.86030851 17.48432908 -92.5703125 4.375 C-84.91195869 -2.63871123 -75.99619912 -8.16373626 -66.25 -11.75 C-64.95642578 -12.22759766 -64.95642578 -12.22759766 -63.63671875 -12.71484375 C-41.50433567 -19.50795143 -18.1280695 -13.63096751 0 0 Z M-48.25 8.25 C-48.75014953 10.70741537 -48.75014953 10.70741537 -48.25 13.25 C-46.4674231 15.40394709 -45.04759819 16.1039609 -42.30859375 16.60546875 C-39.8790232 16.83960818 -39.8790232 16.83960818 -36.25 16.25 C-33.95114656 14.14185275 -33.95114656 14.14185275 -33.25 11.25 C-33.80876888 8.96502233 -33.80876888 8.96502233 -35.25 7.25 C-37.60346396 6.07326802 -39.1306033 6.08376134 -41.75 6.0625 C-42.5440625 6.04832031 -43.338125 6.03414062 -44.15625 6.01953125 C-46.47033317 6.05333697 -46.47033317 6.05333697 -48.25 8.25 Z M-67.578125 12.79296875 C-69.53045004 14.24562698 -69.53045004 14.24562698 -70.25 17.25 C-68.87831762 19.44038423 -68.87831762 19.44038423 -67.25 21.25 C-61.96201818 20.83525633 -59.13309282 19.89775386 -55.25 16.25 C-55.35613836 13.79775306 -55.35613836 13.79775306 -56.25 11.25 C-60.63644524 7.79401284 -63.48303835 10.12192539 -67.578125 12.79296875 Z M-27.25 13.25 C-28.42612195 15.03671071 -28.42612195 15.03671071 -28.25 17.25 C-25.78973429 20.12030999 -23.39510786 22.15326143 -20.25 24.25 C-16.92759676 23.9258631 -15.64223697 23.64223697 -13.25 21.25 C-12.94974951 18.8086734 -12.94974951 18.8086734 -14.25 16.25 C-20.39498048 11.20036474 -20.39498048 11.20036474 -27.25 13.25 Z M-81.79296875 24.89453125 C-84.5523297 28.80759026 -84.5523297 28.80759026 -85.00390625 33.390625 C-84.30932638 35.45040367 -84.30932638 35.45040367 -82.25 37.25 C-79.81457789 37.46726646 -79.81457789 37.46726646 -77.25 36.25 C-75.12107309 34.14366118 -73.53039777 31.95941314 -72.25 29.25 C-72.37184316 25.88256375 -72.37184316 25.88256375 -74.25 23.25 C-77.5177557 22.58159543 -79.41929261 22.36461313 -81.79296875 24.89453125 Z M-11.0625 28.4375 C-12.47105268 30.21149112 -12.47105268 30.21149112 -12.1875 32.5625 C-10.99275094 35.9874473 -9.58204417 38.46450279 -7.25 41.25 C-4.66344667 41.91743877 -4.66344667 41.91743877 -2.25 41.25 C-1.59 40.59 -0.93 39.93 -0.25 39.25 C-0.44640589 34.04524393 -1.42481344 30.85660447 -5.25 27.25 C-9.05350374 26.88464916 -9.05350374 26.88464916 -11.0625 28.4375 Z M-59.6875 39.6875 C-64.1813105 45.58796032 -65.14606847 50.90223855 -64.25 58.25 C-62.46776629 64.08276488 -59.36149596 67.8744838 -54.25 71.25 C-48.59866728 73.94460577 -43.31956219 75.21332978 -37.25 73.25 C-31.2733934 70.40919979 -27.29891347 66.83559858 -24 61.0625 C-22.22425506 54.40345649 -22.45978863 48.10685306 -25.91796875 42.0703125 C-29.60552233 37.03101641 -34.06884005 33.53774166 -40.25 32.25 C-47.9310176 31.38045084 -54.54364161 33.9414338 -59.6875 39.6875 Z M-88.9765625 44.43359375 C-90.65611528 46.82927487 -90.65067532 48.4069094 -90.625 51.3125 C-90.63273437 52.19035156 -90.64046875 53.06820312 -90.6484375 53.97265625 C-90.51695312 54.72417969 -90.38546875 55.47570312 -90.25 56.25 C-87.46885944 58.58391203 -87.46885944 58.58391203 -84.5625 57.875 C-83.799375 57.66875 -83.03625 57.4625 -82.25 57.25 C-81.83153991 55.67249576 -81.44103611 54.08755752 -81.0625 52.5 C-80.84207031 51.61828125 -80.62164062 50.7365625 -80.39453125 49.828125 C-80.02849763 47.19680087 -80.02849763 47.19680087 -81.44921875 44.921875 C-83.96926671 42.58222093 -86.10723619 42.46661214 -88.9765625 44.43359375 Z M-4.9375 49.25 C-6.98461758 52.36941726 -7.36906896 55.55142036 -7.25 59.25 C-6.31756129 61.82951684 -6.31756129 61.82951684 -4.25 63.25 C-1.70741537 63.75014953 -1.70741537 63.75014953 0.75 63.25 C3.23061328 60.76938672 3.43217024 58.71519711 3.78125 55.29296875 C3.73393211 52.19956187 2.80265729 50.51500115 0.75 48.25 C-3.00339637 47.91013174 -3.00339637 47.91013174 -4.9375 49.25 Z M-87.25 67.25 C-86.83525633 72.53798182 -85.89775386 75.36690718 -82.25 79.25 C-78.31924356 78.67547254 -78.31924356 78.67547254 -75.25 76.25 C-75.54013334 71.89799983 -76.57972811 68.71146356 -79.25 65.25 C-82.84668007 63.39364899 -84.40123099 64.70645624 -87.25 67.25 Z M-10.8125 71.5625 C-13.31828043 74.19197159 -13.31828043 74.19197159 -15.25 77.25 C-14.9378236 79.89632287 -14.9378236 79.89632287 -14.25 82.25 C-11.94 82.58 -9.63 82.91 -7.25 83.25 C-3.41245053 78.8855634 -3.41245053 78.8855634 -2.3125 73.4375 C-3.155218 71.09718821 -3.155218 71.09718821 -5.25 69.25 C-8.45408266 68.91501774 -8.45408266 68.91501774 -10.8125 71.5625 Z M-72.25 82.25 C-74.47534695 84.98709522 -74.47534695 84.98709522 -74.25 87.6875 C-72.80184448 91.39839852 -70.72789714 92.4441688 -67.25 94.25 C-64.61891496 95.00191978 -64.61891496 95.00191978 -62.25 94.25 C-60.3875562 91.84141286 -60.3875562 91.84141286 -59.25 89.25 C-61.46928194 86.34197539 -63.17969143 84.29687238 -66.25 82.25 C-69.29211431 81.8332448 -69.29211431 81.8332448 -72.25 82.25 Z M-31.25 88.25 C-32.49050807 91.19109858 -32.49050807 91.19109858 -32.25 94.25 C-31.26951062 96.31402685 -31.26951062 96.31402685 -29.25 97.25 C-24.7916522 97.12950411 -21.60951044 95.06261339 -18.25 92.25 C-17.58256123 89.66344667 -17.58256123 89.66344667 -18.25 87.25 C-20.05078782 85.04713999 -20.05078782 85.04713999 -22.5 84.9375 C-26.06575089 85.34269897 -28.280439 86.22529932 -31.25 88.25 Z M-53.4375 91.9375 C-54.49497426 94.28597272 -54.49497426 94.28597272 -53.625 96.9375 C-52.40603006 99.56121837 -52.40603006 99.56121837 -49.25 100.25 C-43.91704568 100.593491 -43.91704568 100.593491 -39.25 98.25 C-38.75 95.25 -38.75 95.25 -39.25 92.25 C-43.60862727 89.34424848 -49.09824853 88.59007744 -53.4375 91.9375 Z " fill="#B8860A" transform="translate(237.25,213.75)"/>
<path d="M0 0 C4.43261516 0.44098838 7.15240545 2.01447459 10.74609375 4.44140625 C38.8660887 22.26879359 73.59572987 28.46280823 106.23583984 21.89013672 C123.07950235 18.10005863 139.68915655 12.10995774 153.94921875 2.1953125 C157.52459214 -0.07592879 159.64583384 -0.17089223 163.80859375 0.37890625 C167.49759174 2.84107943 167.8984022 6.81668818 168.76171875 10.890625 C169.0122702 12.0140052 169.0122702 12.0140052 169.2678833 13.16007996 C170.99983273 21.02220811 172.5771639 28.91773871 174.10107422 36.82250977 C174.56725645 39.23625908 175.04119306 41.64840695 175.515625 44.06054688 C175.81686301 45.61058839 176.11766161 47.16071537 176.41796875 48.7109375 C176.55853699 49.42441849 176.69910522 50.13789948 176.84393311 50.8730011 C177.46778388 54.13641614 177.80859375 57.03743112 177.80859375 60.37890625 C113.45859375 60.37890625 49.10859375 60.37890625 -17.19140625 60.37890625 C-14.87390737 45.3151635 -14.87390737 45.3151635 -13.5703125 38.55078125 C-13.4248851 37.79146301 -13.2794577 37.03214478 -13.12962341 36.24981689 C-12.82594907 34.67019389 -12.52094258 33.09082639 -12.21459961 31.51171875 C-11.75211294 29.11963081 -11.29882971 26.72590756 -10.84570312 24.33203125 C-6.3228998 0.75069924 -6.3228998 0.75069924 0 0 Z " fill="#B8860A" transform="translate(113.19140625,376.62109375)"/>
<path d="M0 0 C65.67 0 131.34 0 199 0 C201.93628624 5.87257249 200.77422612 15.36704016 198.9765625 21.48046875 C195.17620364 29.76357135 189.79174437 35.27437662 181.26596069 38.56239319 C174.67147512 40.70322772 167.97024884 40.42789603 161.10791016 40.40405273 C159.61705517 40.40976422 158.12620454 40.41673148 156.63536072 40.42485046 C152.60836033 40.44271235 148.58157867 40.44162657 144.55455065 40.43590808 C141.1825297 40.43280571 137.81055013 40.43892037 134.43853509 40.44494683 C126.47786822 40.45896792 118.5173087 40.45745129 110.55664062 40.44604492 C102.36715531 40.43456938 94.17799769 40.4486353 85.98855555 40.4754414 C78.9360079 40.49765463 71.88356269 40.50422305 64.83098257 40.49836498 C60.62821499 40.49500721 56.42565734 40.49733127 52.22291946 40.51461601 C48.26810102 40.53017287 44.31376492 40.52603385 40.35896492 40.50731087 C38.91550216 40.50364882 37.47200296 40.50666313 36.02857399 40.51719666 C25.81540169 40.58598291 17.39531819 39.46114752 8.6875 33.875 C1.85608805 26.56697792 -1.14581807 19.83649278 -1.125 9.9375 C-1.12757812 8.70902344 -1.13015625 7.48054688 -1.1328125 6.21484375 C-1 3 -1 3 0 0 Z " fill="#B8860A" transform="translate(94,447)"/>
<path d="M0 0 C30.32173 1.11272404 60.20103658 10.66780899 84 30 C84.76038574 30.60448975 84.76038574 30.60448975 85.53613281 31.22119141 C116.51633463 55.9291568 135.1649794 90.7154576 140 130 C140.11367704 133.34210508 140.0458336 136.65414756 140 140 C134.72 140 129.44 140 124 140 C123.79246094 138.51113281 123.58492188 137.02226562 123.37109375 135.48828125 C117.92245254 98.60329624 102.65414699 65.78735079 72.40869141 42.79003906 C50.86670345 26.95343271 26.53488069 18.8730504 0 17 C0 11.39 0 5.78 0 0 Z " fill="#B8860A" transform="translate(304,25)"/>
<path d="M0 0 C21.83879513 2.14488166 40.24894992 8.39652044 57 23 C57.93199219 23.73476562 57.93199219 23.73476562 58.8828125 24.484375 C75.78457703 37.97546956 85.29424326 59.76545959 88.7734375 80.640625 C89.03988393 83.41534296 89 86.21251844 89 89 C83.72 89 78.44 89 73 89 C72.5875 87.1025 72.175 85.205 71.75 83.25 C66.66200546 61.48469001 56.72726146 42.56109436 37.77734375 29.8359375 C26.05130826 22.59259786 13.65177201 18.85394435 0 17 C0 11.39 0 5.78 0 0 Z " fill="#B8860A" transform="translate(304,76)"/>
<path d="M0 0 C5 2 5 2 6.78823853 4.00927734 C8.53182292 8.3125808 8.41830301 12.24913659 8.38818359 16.8515625 C8.39344055 17.83912537 8.39869751 18.82668823 8.40411377 19.84417725 C8.41730431 23.10461296 8.4085788 26.36455942 8.3984375 29.625 C8.4004585 31.89274184 8.40337016 34.16048304 8.40713501 36.42822266 C8.41155709 41.17942496 8.40513087 45.930458 8.39111328 50.68164062 C8.37402165 56.77155023 8.38386343 62.86106319 8.40183067 68.95095825 C8.41267152 73.6332498 8.40922074 78.31544732 8.4014473 82.9977417 C8.39944613 85.24322557 8.40190162 87.48871799 8.40888596 89.73419189 C8.41650517 92.87250379 8.40488908 96.01017343 8.38818359 99.1484375 C8.39425629 100.07638123 8.40032898 101.00432495 8.40658569 101.96038818 C8.35969355 106.7158096 8.3112044 110.27950752 5 114 C2.525 114.99 2.525 114.99 0 116 C0 77.72 0 39.44 0 0 Z " fill="#B8860B" transform="translate(311,209)"/>
<path d="M0 0 C0 38.28 0 76.56 0 116 C-5 114 -5 114 -6.7872467 111.98973083 C-8.53023686 107.69283762 -8.42638989 103.76096428 -8.40405273 99.16430664 C-8.41091599 98.17835007 -8.41777924 97.19239349 -8.42485046 96.17655945 C-8.44313528 92.92094477 -8.43927845 89.66581121 -8.43359375 86.41015625 C-8.43815474 84.1448094 -8.44346007 81.87946393 -8.44947815 79.61412048 C-8.45841258 74.86712013 -8.45598225 70.12028799 -8.44604492 65.37329102 C-8.43455517 59.29236607 -8.45476565 53.2120218 -8.48396206 47.13117313 C-8.50231487 42.45312313 -8.50203338 37.77521251 -8.49632454 33.09713554 C-8.49617121 30.85526146 -8.50222494 28.613378 -8.51461601 26.37153816 C-8.52950627 23.235685 -8.51886261 20.10090757 -8.50170898 16.96508789 C-8.51137695 16.04073944 -8.52104492 15.11639099 -8.53100586 14.16403198 C-8.46606963 8.49017458 -7.73086653 5.34750677 -4 1 C-2 0 -2 0 0 0 Z " fill="#B8860A" transform="translate(76,209)"/>
<path d="M0 0 C10.05244427 0.33508148 18.38127087 4.21441429 25.8125 11 C32.67530448 18.37532722 36.58172177 27.07205239 38 37 C32.39 37 26.78 37 21 37 C20.175 35.14375 19.35 33.2875 18.5 31.375 C14.03222392 22.44996026 9.05176621 19.87932838 0 16 C0 10.72 0 5.44 0 0 Z " fill="#B8860A" transform="translate(304,128)"/>
<path d="M0 0 C3.33057552 1.69670828 5.38467179 3.10264636 7.5 6.1875 C8.25578186 10.43877299 7.68313388 14.02572793 6 18 C2.7797964 21.07042669 0.84113819 21.89670233 -3.5625 22.4375 C-7.2193473 21.97208307 -9.10086998 21.23647173 -12 19 C-14.81725233 14.7741215 -14.79958384 10.96375312 -14 6 C-9.80794679 0.5944577 -6.7438041 -0.56198368 0 0 Z " fill="#B7860A" transform="translate(197,256)"/>
</svg>
